<svg xmlns="http://www.w3.org/2000/svg" width="1200" height="600" viewBox="0 0 1200 600">
<desc>Equity curve with drawdown fill</desc>
<text x="600.0" y="18.0" text-anchor="middle" font-family="sans-serif" font-size="14">Portfolio 2010</text>
<rect x="70" y="25" width="1100" height="525" fill="white" stroke="#ccc" />
<line x1="70" y1="550.00" x2="1170" y2="550.00" stroke="#eee"/>
<text x="62" y="554.0" text-anchor="end" font-family="sans-serif" font-size="11" fill="#555">0.00</text>
<line x1="70" y1="445.00" x2="1170" y2="445.00" stroke="#eee"/>
<text x="62" y="449.0" text-anchor="end" font-family="sans-serif" font-size="11" fill="#555">25301</text>
<line x1="70" y1="340.00" x2="1170" y2="340.00" stroke="#eee"/>
<text x="62" y="344.0" text-anchor="end" font-family="sans-serif" font-size="11" fill="#555">50602</text>
<line x1="70" y1="235.00" x2="1170" y2="235.00" stroke="#eee"/>
<text x="62" y="239.0" text-anchor="end" font-family="sans-serif" font-size="11" fill="#555">75903</text>
<line x1="70" y1="130.00" x2="1170" y2="130.00" stroke="#eee"/>
<text x="62" y="134.0" text-anchor="end" font-family="sans-serif" font-size="11" fill="#555">101204</text>
<line x1="70" y1="25.00" x2="1170" y2="25.00" stroke="#eee"/>
<text x="62" y="29.0" text-anchor="end" font-family="sans-serif" font-size="11" fill="#555">126505</text>
<line x1="154.02" y1="25" x2="154.02" y2="550" stroke="#f2f2f2"/>
<text x="154.02" y="566" text-anchor="middle" font-family="sans-serif" font-size="11" fill="#555">Feb</text>
<line x1="239.38" y1="25" x2="239.38" y2="550" stroke="#f2f2f2"/>
<text x="239.38" y="566" text-anchor="middle" font-family="sans-serif" font-size="11" fill="#555">Mar</text>
<line x1="333.88" y1="25" x2="333.88" y2="550" stroke="#f2f2f2"/>
<text x="333.88" y="566" text-anchor="middle" font-family="sans-serif" font-size="11" fill="#555">Apr</text>
<line x1="425.33" y1="25" x2="425.33" y2="550" stroke="#f2f2f2"/>
<text x="425.33" y="566" text-anchor="middle" font-family="sans-serif" font-size="11" fill="#555">May</text>
<line x1="519.83" y1="25" x2="519.83" y2="550" stroke="#f2f2f2"/>
<text x="519.83" y="566" text-anchor="middle" font-family="sans-serif" font-size="11" fill="#555">Jun</text>
<line x1="611.29" y1="25" x2="611.29" y2="550" stroke="#f2f2f2"/>
<text x="611.29" y="566" text-anchor="middle" font-family="sans-serif" font-size="11" fill="#555">Jul</text>
<line x1="705.79" y1="25" x2="705.79" y2="550" stroke="#f2f2f2"/>
<text x="705.79" y="566" text-anchor="middle" font-family="sans-serif" font-size="11" fill="#555">Aug</text>
<line x1="800.29" y1="25" x2="800.29" y2="550" stroke="#f2f2f2"/>
<text x="800.29" y="566" text-anchor="middle" font-family="sans-serif" font-size="11" fill="#555">Sep</text>
<line x1="891.74" y1="25" x2="891.74" y2="550" stroke="#f2f2f2"/>
<text x="891.74" y="566" text-anchor="middle" font-family="sans-serif" font-size="11" fill="#555">Oct</text>
<line x1="986.24" y1="25" x2="986.24" y2="550" stroke="#f2f2f2"/>
<text x="986.24" y="566" text-anchor="middle" font-family="sans-serif" font-size="11" fill="#555">Nov</text>
<line x1="1077.70" y1="25" x2="1077.70" y2="550" stroke="#f2f2f2"/>
<text x="1077.70" y="566" text-anchor="middle" font-family="sans-serif" font-size="11" fill="#555">Dec</text>
<line x1="1170.00" y1="25" x2="1170.00" y2="550" stroke="#f2f2f2"/>
<text x="1170.00" y="566" text-anchor="middle" font-family="sans-serif" font-size="11" fill="#555">Jan</text>
<line x1="70" y1="550" x2="1170" y2="550" stroke="#888"/>
<line x1="70" y1="25" x2="70" y2="550" stroke="#888"/>
<path d="M 70.00 89.34 L 70.00 90.84 Z" fill="#d0d0d0" fill-opacity="0.5" stroke="none"/>
<path d="M 83.28 86.22 L 83.28 86.53 Z" fill="#d0d0d0" fill-opacity="0.5" stroke="none"/>
<path d="M 102.58 83.07 L 115.74 83.07 L 115.74 83.11 L 102.58 84.10 Z" fill="#d0d0d0" fill-opacity="0.5" stroke="none"/>
<path d="M 180.60 66.57 L 183.45 66.57 L 186.42 66.57 L 189.45 66.57 L 201.86 66.57 L 204.89 66.57 L 207.79 66.57 L 208.78 66.57 L 208.82 66.57 L 211.11 66.57 L 222.59 66.57 L 226.19 66.57 L 229.62 66.57 L 232.29 66.57 L 243.64 66.57 L 244.20 66.57 L 247.57 66.57 L 250.53 66.57 L 268.90 66.57 L 274.31 66.57 L 293.38 66.57 L 310.31 66.57 L 310.76 66.57 L 314.95 66.57 L 336.01 66.57 L 338.77 66.57 L 360.23 66.57 L 367.32 66.57 L 367.44 66.57 L 377.77 66.57 L 396.48 66.57 L 399.87 66.57 L 400.96 66.57 L 402.22 66.57 L 403.07 66.57 L 411.46 66.57 L 415.32 66.57 L 417.88 66.57 L 424.35 66.57 L 431.78 66.57 L 433.51 66.57 L 436.38 66.57 L 441.59 66.57 L 442.28 66.57 L 442.72 66.57 L 443.02 66.57 L 443.04 66.57 L 444.06 66.57 L 444.11 66.57 L 444.31 66.57 L 444.64 66.57 L 444.75 66.57 L 445.36 66.57 L 445.63 66.57 L 445.69 66.57 L 445.69 68.94 L 445.63 71.59 L 445.36 73.05 L 444.75 75.45 L 444.64 77.44 L 444.31 80.05 L 444.11 81.60 L 444.06 83.82 L 443.04 86.16 L 443.02 88.31 L 442.72 83.54 L 442.28 85.84 L 441.59 87.80 L 436.38 83.02 L 433.51 84.73 L 431.78 84.87 L 424.35 80.06 L 417.88 82.26 L 415.32 84.34 L 411.46 79.53 L 403.07 81.04 L 402.22 79.82 L 400.96 74.96 L 399.87 77.60 L 396.48 80.22 L 377.77 81.68 L 367.44 83.19 L 367.32 78.38 L 360.23 80.15 L 338.77 81.22 L 336.01 83.59 L 314.95 85.12 L 310.76 86.94 L 310.31 89.07 L 293.38 90.96 L 274.31 90.09 L 268.90 89.28 L 250.53 90.55 L 247.57 90.88 L 244.20 86.14 L 243.64 88.08 L 232.29 89.82 L 229.62 85.07 L 226.19 86.89 L 222.59 88.02 L 211.11 83.26 L 208.82 85.62 L 208.78 87.48 L 207.79 82.71 L 204.89 82.97 L 201.86 78.15 L 189.45 73.29 L 186.42 75.94 L 183.45 71.05 L 180.60 71.49 Z" fill="#d0d0d0" fill-opacity="0.5" stroke="none"/>
<path d="M 453.89 59.68 L 454.00 59.68 L 454.11 59.68 L 454.29 59.68 L 454.53 59.68 L 454.67 59.68 L 454.80 59.68 L 454.87 59.68 L 455.08 59.68 L 455.92 59.68 L 456.52 59.68 L 457.10 59.68 L 460.99 59.68 L 463.15 59.68 L 463.21 59.68 L 466.74 59.68 L 466.89 59.68 L 467.06 59.68 L 467.06 60.11 L 466.89 61.37 L 466.74 63.86 L 463.21 65.86 L 463.15 68.15 L 460.99 63.18 L 457.10 65.14 L 456.52 67.62 L 455.92 69.18 L 455.08 71.12 L 454.87 66.17 L 454.80 66.16 L 454.67 64.73 L 454.53 59.72 L 454.29 60.56 L 454.11 63.10 L 454.00 64.99 L 453.89 64.69 Z" fill="#d0d0d0" fill-opacity="0.5" stroke="none"/>
<path d="M 474.54 58.60 L 474.60 58.60 L 474.75 58.60 L 475.78 58.60 L 475.78 58.62 L 474.75 59.96 L 474.60 62.01 L 474.54 63.63 Z" fill="#d0d0d0" fill-opacity="0.5" stroke="none"/>
<path d="M 479.64 45.81 L 481.89 45.81 L 481.89 45.81 L 482.02 45.81 L 482.14 45.81 L 482.28 45.81 L 482.66 45.81 L 483.59 45.81 L 484.26 45.81 L 484.27 45.81 L 484.78 45.81 L 485.22 45.81 L 485.60 45.81 L 485.60 45.81 L 485.74 45.81 L 486.43 45.81 L 486.73 45.81 L 487.02 45.81 L 487.26 45.81 L 487.45 45.81 L 487.48 45.81 L 488.11 45.81 L 488.23 45.81 L 496.63 45.81 L 498.76 45.81 L 499.69 45.81 L 500.42 45.81 L 500.69 45.81 L 500.99 45.81 L 501.92 45.81 L 503.33 45.81 L 505.39 45.81 L 506.34 45.81 L 506.65 45.81 L 506.71 45.81 L 506.83 45.81 L 506.88 45.81 L 507.00 45.81 L 508.66 45.81 L 508.85 45.81 L 509.40 45.81 L 509.89 45.81 L 520.90 45.81 L 521.21 45.81 L 521.27 45.81 L 521.77 45.81 L 521.80 45.81 L 521.85 45.81 L 521.96 45.81 L 525.06 45.81 L 526.30 45.81 L 527.94 45.81 L 530.70 45.81 L 530.81 45.81 L 531.09 45.81 L 538.32 45.81 L 542.52 45.81 L 543.26 45.81 L 545.98 45.81 L 548.02 45.81 L 549.16 45.81 L 552.42 45.81 L 559.47 45.81 L 560.87 45.81 L 564.01 45.81 L 564.58 45.81 L 581.12 45.81 L 583.09 45.81 L 588.80 45.81 L 589.38 45.81 L 591.21 45.81 L 592.08 45.81 L 595.26 45.81 L 595.26 48.40 L 592.08 50.04 L 591.21 52.79 L 589.38 54.59 L 588.80 49.47 L 583.09 52.23 L 581.12 54.49 L 564.58 56.74 L 564.01 58.90 L 560.87 57.38 L 559.47 57.75 L 552.42 60.45 L 549.16 61.89 L 548.02 56.85 L 545.98 51.75 L 543.26 53.59 L 542.52 56.07 L 538.32 57.98 L 531.09 60.09 L 530.81 62.77 L 530.70 62.89 L 527.94 57.91 L 526.30 58.50 L 525.06 60.06 L 521.96 62.56 L 521.85 64.45 L 521.80 66.20 L 521.77 61.24 L 521.27 56.18 L 521.21 56.33 L 520.90 54.84 L 509.89 49.73 L 509.40 52.19 L 508.85 53.59 L 508.66 48.47 L 507.00 49.81 L 506.88 51.22 L 506.83 53.08 L 506.71 47.95 L 506.65 50.41 L 506.34 52.79 L 505.39 55.31 L 503.33 55.28 L 501.92 56.79 L 500.99 57.12 L 500.69 59.26 L 500.42 60.69 L 499.69 63.16 L 498.76 62.94 L 496.63 65.08 L 488.23 60.07 L 488.11 62.15 L 487.48 63.87 L 487.45 58.85 L 487.26 58.76 L 487.02 61.13 L 486.73 62.80 L 486.43 62.97 L 485.74 65.02 L 485.60 60.09 L 485.60 55.07 L 485.22 49.96 L 484.78 52.70 L 484.27 53.63 L 484.26 56.50 L 483.59 51.40 L 482.66 52.89 L 482.28 53.66 L 482.14 56.11 L 482.02 58.27 L 481.89 53.19 L 481.89 56.05 L 479.64 50.95 Z" fill="#d0d0d0" fill-opacity="0.5" stroke="none"/>
<path d="M 612.50 42.85 L 613.24 42.85 L 613.39 42.85 L 616.05 42.85 L 616.11 42.85 L 628.48 42.85 L 637.45 42.85 L 637.45 43.96 L 628.48 44.94 L 616.11 47.21 L 616.05 49.01 L 613.39 51.77 L 613.24 46.64 L 612.50 48.03 Z" fill="#d0d0d0" fill-opacity="0.5" stroke="none"/>
<path d="M 667.30 35.92 L 670.16 35.92 L 670.69 35.92 L 673.66 35.92 L 674.81 35.92 L 676.59 35.92 L 677.24 35.92 L 679.57 35.92 L 680.16 35.92 L 680.23 35.92 L 680.36 35.92 L 680.51 35.92 L 680.80 35.92 L 692.49 35.92 L 710.86 35.92 L 713.11 35.92 L 717.02 35.92 L 722.80 35.92 L 722.93 35.92 L 722.94 35.92 L 723.02 35.92 L 735.67 35.92 L 735.75 35.92 L 736.63 35.92 L 737.24 35.92 L 738.11 35.92 L 738.37 35.92 L 740.68 35.92 L 760.79 35.92 L 762.47 35.92 L 762.93 35.92 L 765.05 35.92 L 765.20 35.92 L 777.84 35.92 L 777.91 35.92 L 780.17 35.92 L 787.15 35.92 L 801.61 35.92 L 818.83 35.92 L 823.60 35.92 L 837.11 35.92 L 841.88 35.92 L 841.96 35.92 L 842.02 35.92 L 842.15 35.92 L 850.77 35.92 L 851.05 35.92 L 863.73 35.92 L 865.59 35.92 L 866.13 35.92 L 871.64 35.92 L 883.71 35.92 L 884.04 35.92 L 884.67 35.92 L 890.83 35.92 L 902.18 35.92 L 905.12 35.92 L 905.98 35.92 L 908.52 35.92 L 911.09 35.92 L 911.98 35.92 L 914.81 35.92 L 914.85 35.92 L 927.81 35.92 L 931.65 35.92 L 936.11 35.92 L 936.36 35.92 L 936.62 35.92 L 944.06 35.92 L 948.26 35.92 L 949.14 35.92 L 951.64 35.92 L 951.76 35.92 L 953.06 35.92 L 953.69 35.92 L 953.94 35.92 L 955.16 35.92 L 956.89 35.92 L 965.22 35.92 L 969.68 35.92 L 978.91 35.92 L 986.37 35.92 L 991.07 35.92 L 994.79 35.92 L 996.67 35.92 L 1000.15 35.92 L 1000.60 35.92 L 1007.87 35.92 L 1007.95 35.92 L 1010.74 35.92 L 1012.03 35.92 L 1012.78 35.92 L 1015.57 35.92 L 1015.61 35.92 L 1016.04 35.92 L 1017.91 35.92 L 1021.19 35.92 L 1033.99 35.92 L 1039.24 35.92 L 1051.95 35.92 L 1053.47 35.92 L 1055.10 35.92 L 1057.52 35.92 L 1057.55 35.92 L 1057.69 35.92 L 1058.23 35.92 L 1063.70 35.92 L 1071.73 35.92 L 1072.62 35.92 L 1073.01 35.92 L 1078.78 35.92 L 1079.84 35.92 L 1079.84 36.74 L 1078.78 39.73 L 1073.01 41.98 L 1072.62 36.75 L 1071.73 39.30 L 1063.70 40.84 L 1058.23 43.01 L 1057.69 45.53 L 1057.55 47.34 L 1057.52 49.73 L 1055.10 44.57 L 1053.47 47.06 L 1051.95 49.29 L 1039.24 44.13 L 1033.99 46.11 L 1021.19 48.65 L 1017.91 51.17 L 1016.04 53.42 L 1015.61 55.44 L 1015.57 58.08 L 1012.78 53.01 L 1012.03 54.29 L 1010.74 53.81 L 1007.95 53.47 L 1007.87 54.28 L 1000.60 49.17 L 1000.15 51.38 L 996.67 54.30 L 994.79 49.20 L 991.07 52.13 L 986.37 53.08 L 978.91 55.86 L 969.68 56.71 L 965.22 58.96 L 956.89 59.83 L 955.16 62.36 L 953.94 63.16 L 953.69 63.87 L 953.06 65.91 L 951.76 67.59 L 951.64 67.03 L 949.14 62.05 L 948.26 61.57 L 944.06 63.51 L 936.62 63.65 L 936.36 65.44 L 936.11 60.44 L 931.65 63.18 L 927.81 61.87 L 914.85 62.11 L 914.81 64.84 L 911.98 59.84 L 911.09 62.37 L 908.52 63.47 L 905.98 66.19 L 905.12 68.08 L 902.18 63.11 L 890.83 64.89 L 884.67 65.85 L 884.04 60.85 L 883.71 61.82 L 871.64 61.80 L 866.13 63.10 L 865.59 65.55 L 863.73 68.24 L 851.05 63.26 L 850.77 65.68 L 842.15 67.40 L 842.02 67.37 L 841.96 62.37 L 841.88 57.39 L 837.11 52.30 L 823.60 51.50 L 818.83 53.20 L 801.61 51.56 L 787.15 53.16 L 780.17 54.34 L 777.91 54.98 L 777.84 56.24 L 765.20 51.14 L 765.05 51.32 L 762.93 52.22 L 762.47 52.37 L 760.79 54.26 L 740.68 56.73 L 738.37 56.64 L 738.11 56.35 L 737.24 57.74 L 736.63 59.35 L 735.75 57.47 L 735.67 58.28 L 723.02 61.00 L 722.94 61.66 L 722.93 56.67 L 722.80 51.62 L 717.02 46.49 L 713.11 44.73 L 710.86 44.22 L 692.49 39.02 L 680.80 41.43 L 680.51 43.34 L 680.36 46.14 L 680.23 47.66 L 680.16 48.89 L 679.57 43.73 L 677.24 38.52 L 676.59 41.34 L 674.81 42.89 L 673.66 42.15 L 670.69 44.10 L 670.16 38.89 L 667.30 41.16 Z" fill="#d0d0d0" fill-opacity="0.5" stroke="none"/>
<path d="M 1103.36 27.40 L 1104.05 27.40 L 1115.82 27.40 L 1118.41 27.40 L 1119.25 27.40 L 1121.21 27.40 L 1122.72 27.40 L 1128.11 27.40 L 1128.57 27.40 L 1137.65 27.40 L 1138.94 27.40 L 1146.83 27.40 L 1146.83 27.90 L 1138.94 30.79 L 1137.65 30.62 L 1128.57 32.36 L 1128.11 32.00 L 1122.72 32.54 L 1121.21 31.19 L 1119.25 33.60 L 1118.41 28.30 L 1115.82 28.50 L 1104.05 30.50 L 1103.36 32.72 Z" fill="#d0d0d0" fill-opacity="0.5" stroke="none"/>
<path d="M 1161.89 25.00 L 1165.23 25.00 L 1170.00 25.00 L 1170.00 26.79 L 1165.23 28.85 L 1161.89 30.34 Z" fill="#d0d0d0" fill-opacity="0.5" stroke="none"/>
<polyline fill="none" stroke="#111" stroke-width="1.2" points="70.00,90.84 75.63,88.27 82.68,86.22 83.28,86.53 90.04,85.36 97.71,84.52 98.12,83.07 102.58,84.10 115.74,83.11 117.64,81.39 122.64,78.94 142.05,76.30 165.31,74.32 166.36,71.67 167.30,69.01 168.15,66.57 180.60,71.49 183.45,71.05 186.42,75.94 189.45,73.29 201.86,78.15 204.89,82.97 207.79,82.71 208.78,87.48 208.82,85.62 211.11,83.26 222.59,88.02 226.19,86.89 229.62,85.07 232.29,89.82 243.64,88.08 244.20,86.14 247.57,90.88 250.53,90.55 268.90,89.28 274.31,90.09 293.38,90.96 310.31,89.07 310.76,86.94 314.95,85.12 336.01,83.59 338.77,81.22 360.23,80.15 367.32,78.38 367.44,83.19 377.77,81.68 396.48,80.22 399.87,77.60 400.96,74.96 402.22,79.82 403.07,81.04 411.46,79.53 415.32,84.34 417.88,82.26 424.35,80.06 431.78,84.87 433.51,84.73 436.38,83.02 441.59,87.80 442.28,85.84 442.72,83.54 443.02,88.31 443.04,86.16 444.06,83.82 444.11,81.60 444.31,80.05 444.64,77.44 444.75,75.45 445.36,73.05 445.63,71.59 445.69,68.94 445.82,66.25 452.65,63.37 453.00,60.67 453.25,59.68 453.89,64.69 454.00,64.99 454.11,63.10 454.29,60.56 454.53,59.72 454.67,64.73 454.80,66.16 454.87,66.17 455.08,71.12 455.92,69.18 456.52,67.62 457.10,65.14 460.99,63.18 463.15,68.15 463.21,65.86 466.74,63.86 466.89,61.37 467.06,60.11 467.18,58.60 474.54,63.63 474.60,62.01 474.75,59.96 475.78,58.62 476.19,56.33 477.45,54.17 478.26,52.70 478.38,50.64 479.21,48.14 479.49,45.81 479.64,50.95 481.89,56.05 481.89,53.19 482.02,58.27 482.14,56.11 482.28,53.66 482.66,52.89 483.59,51.40 484.26,56.50 484.27,53.63 484.78,52.70 485.22,49.96 485.60,55.07 485.60,60.09 485.74,65.02 486.43,62.97 486.73,62.80 487.02,61.13 487.26,58.76 487.45,58.85 487.48,63.87 488.11,62.15 488.23,60.07 496.63,65.08 498.76,62.94 499.69,63.16 500.42,60.69 500.69,59.26 500.99,57.12 501.92,56.79 503.33,55.28 505.39,55.31 506.34,52.79 506.65,50.41 506.71,47.95 506.83,53.08 506.88,51.22 507.00,49.81 508.66,48.47 508.85,53.59 509.40,52.19 509.89,49.73 520.90,54.84 521.21,56.33 521.27,56.18 521.77,61.24 521.80,66.20 521.85,64.45 521.96,62.56 525.06,60.06 526.30,58.50 527.94,57.91 530.70,62.89 530.81,62.77 531.09,60.09 538.32,57.98 542.52,56.07 543.26,53.59 545.98,51.75 548.02,56.85 549.16,61.89 552.42,60.45 559.47,57.75 560.87,57.38 564.01,58.90 564.58,56.74 581.12,54.49 583.09,52.23 588.80,49.47 589.38,54.59 591.21,52.79 592.08,50.04 595.26,48.40 606.38,45.62 609.56,42.85 612.50,48.03 613.24,46.64 613.39,51.77 616.05,49.01 616.11,47.21 628.48,44.94 637.45,43.96 648.94,41.17 649.75,41.14 650.03,39.88 653.06,39.86 655.80,38.34 658.95,35.92 667.30,41.16 670.16,38.89 670.69,44.10 673.66,42.15 674.81,42.89 676.59,41.34 677.24,38.52 679.57,43.73 680.16,48.89 680.23,47.66 680.36,46.14 680.51,43.34 680.80,41.43 692.49,39.02 710.86,44.22 713.11,44.73 717.02,46.49 722.80,51.62 722.93,56.67 722.94,61.66 723.02,61.00 735.67,58.28 735.75,57.47 736.63,59.35 737.24,57.74 738.11,56.35 738.37,56.64 740.68,56.73 760.79,54.26 762.47,52.37 762.93,52.22 765.05,51.32 765.20,51.14 777.84,56.24 777.91,54.98 780.17,54.34 787.15,53.16 801.61,51.56 818.83,53.20 823.60,51.50 837.11,52.30 841.88,57.39 841.96,62.37 842.02,67.37 842.15,67.40 850.77,65.68 851.05,63.26 863.73,68.24 865.59,65.55 866.13,63.10 871.64,61.80 883.71,61.82 884.04,60.85 884.67,65.85 890.83,64.89 902.18,63.11 905.12,68.08 905.98,66.19 908.52,63.47 911.09,62.37 911.98,59.84 914.81,64.84 914.85,62.11 927.81,61.87 931.65,63.18 936.11,60.44 936.36,65.44 936.62,63.65 944.06,63.51 948.26,61.57 949.14,62.05 951.64,67.03 951.76,67.59 953.06,65.91 953.69,63.87 953.94,63.16 955.16,62.36 956.89,59.83 965.22,58.96 969.68,56.71 978.91,55.86 986.37,53.08 991.07,52.13 994.79,49.20 996.67,54.30 1000.15,51.38 1000.60,49.17 1007.87,54.28 1007.95,53.47 1010.74,53.81 1012.03,54.29 1012.78,53.01 1015.57,58.08 1015.61,55.44 1016.04,53.42 1017.91,51.17 1021.19,48.65 1033.99,46.11 1039.24,44.13 1051.95,49.29 1053.47,47.06 1055.10,44.57 1057.52,49.73 1057.55,47.34 1057.69,45.53 1058.23,43.01 1063.70,40.84 1071.73,39.30 1072.62,36.75 1073.01,41.98 1078.78,39.73 1079.84,36.74 1082.55,34.30 1082.65,31.43 1082.88,29.20 1085.88,28.51 1094.37,27.40 1103.36,32.72 1104.05,30.50 1115.82,28.50 1118.41,28.30 1119.25,33.60 1121.21,31.19 1122.72,32.54 1128.11,32.00 1128.57,32.36 1137.65,30.62 1138.94,30.79 1146.83,27.90 1160.04,25.00 1161.89,30.34 1165.23,28.85 1170.00,26.79"/>
<text x="620.0" y="588" text-anchor="middle" font-family="sans-serif" font-size="12" fill="#333">UTC time</text>
<text x="15" y="287.5" transform="rotate(-90 15,287.5)" text-anchor="middle" font-family="sans-serif" font-size="12" fill="#333">Capital</text>
</svg>