<svg xmlns="http://www.w3.org/2000/svg" width="1200" height="600" viewBox="0 0 1200 600">
<desc>Equity curve with drawdown fill</desc>
<text x="600.0" y="18.0" text-anchor="middle" font-family="sans-serif" font-size="14">Portfolio 2009</text>
<rect x="70" y="25" width="1100" height="525" fill="white" stroke="#ccc" />
<line x1="70" y1="550.00" x2="1170" y2="550.00" stroke="#eee"/>
<text x="62" y="554.0" text-anchor="end" font-family="sans-serif" font-size="11" fill="#555">0.00</text>
<line x1="70" y1="445.00" x2="1170" y2="445.00" stroke="#eee"/>
<text x="62" y="449.0" text-anchor="end" font-family="sans-serif" font-size="11" fill="#555">23429</text>
<line x1="70" y1="340.00" x2="1170" y2="340.00" stroke="#eee"/>
<text x="62" y="344.0" text-anchor="end" font-family="sans-serif" font-size="11" fill="#555">46857</text>
<line x1="70" y1="235.00" x2="1170" y2="235.00" stroke="#eee"/>
<text x="62" y="239.0" text-anchor="end" font-family="sans-serif" font-size="11" fill="#555">70286</text>
<line x1="70" y1="130.00" x2="1170" y2="130.00" stroke="#eee"/>
<text x="62" y="134.0" text-anchor="end" font-family="sans-serif" font-size="11" fill="#555">93715</text>
<line x1="70" y1="25.00" x2="1170" y2="25.00" stroke="#eee"/>
<text x="62" y="29.0" text-anchor="end" font-family="sans-serif" font-size="11" fill="#555">117144</text>
<line x1="159.60" y1="25" x2="159.60" y2="550" stroke="#f2f2f2"/>
<text x="159.60" y="566" text-anchor="middle" font-family="sans-serif" font-size="11" fill="#555">Feb</text>
<line x1="244.39" y1="25" x2="244.39" y2="550" stroke="#f2f2f2"/>
<text x="244.39" y="566" text-anchor="middle" font-family="sans-serif" font-size="11" fill="#555">Mar</text>
<line x1="338.26" y1="25" x2="338.26" y2="550" stroke="#f2f2f2"/>
<text x="338.26" y="566" text-anchor="middle" font-family="sans-serif" font-size="11" fill="#555">Apr</text>
<line x1="429.11" y1="25" x2="429.11" y2="550" stroke="#f2f2f2"/>
<text x="429.11" y="566" text-anchor="middle" font-family="sans-serif" font-size="11" fill="#555">May</text>
<line x1="522.99" y1="25" x2="522.99" y2="550" stroke="#f2f2f2"/>
<text x="522.99" y="566" text-anchor="middle" font-family="sans-serif" font-size="11" fill="#555">Jun</text>
<line x1="613.84" y1="25" x2="613.84" y2="550" stroke="#f2f2f2"/>
<text x="613.84" y="566" text-anchor="middle" font-family="sans-serif" font-size="11" fill="#555">Jul</text>
<line x1="707.71" y1="25" x2="707.71" y2="550" stroke="#f2f2f2"/>
<text x="707.71" y="566" text-anchor="middle" font-family="sans-serif" font-size="11" fill="#555">Aug</text>
<line x1="801.59" y1="25" x2="801.59" y2="550" stroke="#f2f2f2"/>
<text x="801.59" y="566" text-anchor="middle" font-family="sans-serif" font-size="11" fill="#555">Sep</text>
<line x1="892.44" y1="25" x2="892.44" y2="550" stroke="#f2f2f2"/>
<text x="892.44" y="566" text-anchor="middle" font-family="sans-serif" font-size="11" fill="#555">Oct</text>
<line x1="986.31" y1="25" x2="986.31" y2="550" stroke="#f2f2f2"/>
<text x="986.31" y="566" text-anchor="middle" font-family="sans-serif" font-size="11" fill="#555">Nov</text>
<line x1="1077.16" y1="25" x2="1077.16" y2="550" stroke="#f2f2f2"/>
<text x="1077.16" y="566" text-anchor="middle" font-family="sans-serif" font-size="11" fill="#555">Dec</text>
<line x1="1170.00" y1="25" x2="1170.00" y2="550" stroke="#f2f2f2"/>
<text x="1170.00" y="566" text-anchor="middle" font-family="sans-serif" font-size="11" fill="#555">Jan</text>
<line x1="70" y1="550" x2="1170" y2="550" stroke="#888"/>
<line x1="70" y1="25" x2="70" y2="550" stroke="#888"/>
<path d="M 70.00 101.83 L 71.08 101.83 L 71.08 101.89 L 70.00 103.19 Z" fill="#d0d0d0" fill-opacity="0.5" stroke="none"/>
<path d="M 78.88 99.88 L 78.89 99.88 L 78.92 99.88 L 79.02 99.88 L 79.10 99.88 L 79.21 99.88 L 79.51 99.88 L 80.04 99.88 L 81.46 99.88 L 81.86 99.88 L 82.01 99.88 L 82.12 99.88 L 82.18 99.88 L 82.30 99.88 L 83.05 99.88 L 84.03 99.88 L 84.84 99.88 L 84.90 99.88 L 85.35 99.88 L 85.60 99.88 L 85.67 99.88 L 85.90 99.88 L 86.03 99.88 L 86.35 99.88 L 86.98 99.88 L 87.95 99.88 L 87.95 100.67 L 86.98 102.54 L 86.35 105.03 L 86.03 107.03 L 85.90 109.22 L 85.67 111.43 L 85.60 112.26 L 85.35 107.74 L 84.90 109.92 L 84.84 112.31 L 84.03 114.73 L 83.05 117.15 L 82.30 112.68 L 82.18 114.00 L 82.12 115.45 L 82.01 117.87 L 81.86 116.69 L 81.46 112.23 L 80.04 114.66 L 79.51 116.90 L 79.21 116.49 L 79.10 116.93 L 79.02 117.76 L 78.92 113.39 L 78.89 108.97 L 78.88 104.46 Z" fill="#d0d0d0" fill-opacity="0.5" stroke="none"/>
<path d="M 91.73 92.24 L 91.87 92.24 L 91.98 92.24 L 92.07 92.24 L 99.13 92.24 L 99.13 92.48 L 92.07 94.11 L 91.98 96.64 L 91.87 96.70 L 91.73 96.87 Z" fill="#d0d0d0" fill-opacity="0.5" stroke="none"/>
<path d="M 100.95 91.34 L 101.02 91.34 L 101.32 91.34 L 101.32 92.97 L 101.02 94.95 L 100.95 96.02 Z" fill="#d0d0d0" fill-opacity="0.5" stroke="none"/>
<path d="M 106.19 78.64 L 106.25 78.64 L 106.79 78.64 L 106.93 78.64 L 106.98 78.64 L 106.98 80.13 L 106.93 81.10 L 106.79 80.16 L 106.25 81.13 L 106.19 83.44 Z" fill="#d0d0d0" fill-opacity="0.5" stroke="none"/>
<path d="M 109.90 78.19 L 109.91 78.19 L 109.91 80.27 L 109.90 82.99 Z" fill="#d0d0d0" fill-opacity="0.5" stroke="none"/>
<path d="M 110.58 74.89 L 111.65 74.89 L 112.92 74.89 L 113.11 74.89 L 113.11 75.08 L 112.92 76.35 L 111.65 78.97 L 110.58 79.73 Z" fill="#d0d0d0" fill-opacity="0.5" stroke="none"/>
<path d="M 123.38 69.64 L 124.19 69.64 L 124.19 72.16 L 123.38 74.54 Z" fill="#d0d0d0" fill-opacity="0.5" stroke="none"/>
<path d="M 126.61 68.19 L 126.75 68.19 L 127.15 68.19 L 127.15 69.57 L 126.75 72.22 L 126.61 73.10 Z" fill="#d0d0d0" fill-opacity="0.5" stroke="none"/>
<path d="M 133.33 55.73 L 133.46 55.73 L 133.54 55.73 L 133.62 55.73 L 134.20 55.73 L 134.53 55.73 L 134.68 55.73 L 134.76 55.73 L 141.33 55.73 L 142.56 55.73 L 143.08 55.73 L 143.24 55.73 L 143.31 55.73 L 143.32 55.73 L 143.46 55.73 L 143.73 55.73 L 144.90 55.73 L 145.46 55.73 L 145.62 55.73 L 145.91 55.73 L 146.05 55.73 L 146.35 55.73 L 146.52 55.73 L 147.55 55.73 L 148.53 55.73 L 149.27 55.73 L 151.45 55.73 L 152.10 55.73 L 152.40 55.73 L 152.67 55.73 L 152.73 55.73 L 152.83 55.73 L 155.38 55.73 L 155.53 55.73 L 155.71 55.73 L 164.84 55.73 L 164.89 55.73 L 166.16 55.73 L 166.16 57.97 L 164.89 60.39 L 164.84 62.07 L 155.71 57.06 L 155.53 59.23 L 155.38 61.75 L 152.83 63.96 L 152.73 65.72 L 152.67 67.25 L 152.40 62.32 L 152.10 65.02 L 151.45 60.02 L 149.27 61.39 L 148.53 64.10 L 147.55 65.92 L 146.52 68.60 L 146.35 71.26 L 146.05 73.91 L 145.91 75.64 L 145.62 78.27 L 145.46 80.79 L 144.90 82.35 L 143.73 77.53 L 143.46 80.07 L 143.32 82.24 L 143.31 77.46 L 143.24 72.64 L 143.08 67.77 L 142.56 69.87 L 141.33 71.54 L 134.76 66.61 L 134.68 68.93 L 134.53 64.02 L 134.20 59.02 L 133.62 60.18 L 133.54 61.21 L 133.46 61.16 L 133.33 60.75 Z" fill="#d0d0d0" fill-opacity="0.5" stroke="none"/>
<path d="M 170.23 39.95 L 173.52 39.95 L 173.52 40.15 L 170.23 41.44 Z" fill="#d0d0d0" fill-opacity="0.5" stroke="none"/>
<path d="M 177.07 31.42 L 177.16 31.42 L 184.65 31.42 L 185.59 31.42 L 185.67 31.42 L 186.89 31.42 L 186.99 31.42 L 187.03 31.42 L 187.13 31.42 L 187.59 31.42 L 187.77 31.42 L 188.25 31.42 L 188.78 31.42 L 188.92 31.42 L 188.92 33.77 L 188.78 36.60 L 188.25 38.90 L 187.77 39.18 L 187.59 41.75 L 187.13 44.37 L 187.03 46.24 L 186.99 48.09 L 186.89 42.99 L 185.67 37.79 L 185.59 39.39 L 184.65 34.16 L 177.16 35.94 L 177.07 36.68 Z" fill="#d0d0d0" fill-opacity="0.5" stroke="none"/>
<path d="M 189.30 30.41 L 190.06 30.41 L 191.02 30.41 L 191.02 30.54 L 190.06 33.06 L 189.30 35.68 Z" fill="#d0d0d0" fill-opacity="0.5" stroke="none"/>
<path d="M 194.05 29.48 L 194.71 29.48 L 194.82 29.48 L 195.05 29.48 L 195.05 29.65 L 194.82 31.33 L 194.71 31.91 L 194.05 34.75 Z" fill="#d0d0d0" fill-opacity="0.5" stroke="none"/>
<path d="M 204.92 25.00 L 206.90 25.00 L 208.20 25.00 L 208.33 25.00 L 208.44 25.00 L 212.95 25.00 L 215.29 25.00 L 215.94 25.00 L 218.95 25.00 L 219.28 25.00 L 219.29 25.00 L 219.38 25.00 L 219.44 25.00 L 219.53 25.00 L 219.66 25.00 L 226.45 25.00 L 226.46 25.00 L 226.67 25.00 L 227.14 25.00 L 227.42 25.00 L 227.62 25.00 L 227.87 25.00 L 228.25 25.00 L 230.49 25.00 L 231.01 25.00 L 231.60 25.00 L 231.73 25.00 L 233.33 25.00 L 233.79 25.00 L 234.26 25.00 L 234.31 25.00 L 240.32 25.00 L 247.48 25.00 L 251.26 25.00 L 251.97 25.00 L 252.50 25.00 L 253.57 25.00 L 255.60 25.00 L 258.33 25.00 L 258.49 25.00 L 260.41 25.00 L 260.53 25.00 L 260.64 25.00 L 261.32 25.00 L 261.61 25.00 L 270.58 25.00 L 272.56 25.00 L 273.33 25.00 L 273.42 25.00 L 273.53 25.00 L 273.98 25.00 L 274.12 25.00 L 275.28 25.00 L 276.16 25.00 L 278.74 25.00 L 279.42 25.00 L 279.50 25.00 L 279.65 25.00 L 281.93 25.00 L 289.77 25.00 L 291.20 25.00 L 294.53 25.00 L 297.58 25.00 L 297.66 25.00 L 297.83 25.00 L 298.30 25.00 L 300.05 25.00 L 300.50 25.00 L 300.57 25.00 L 300.61 25.00 L 300.71 25.00 L 300.75 25.00 L 300.88 25.00 L 301.30 25.00 L 303.07 25.00 L 303.39 25.00 L 303.47 25.00 L 303.57 25.00 L 303.73 25.00 L 303.86 25.00 L 304.05 25.00 L 310.92 25.00 L 312.10 25.00 L 312.29 25.00 L 312.76 25.00 L 312.92 25.00 L 313.02 25.00 L 313.38 25.00 L 315.12 25.00 L 315.46 25.00 L 315.86 25.00 L 316.40 25.00 L 318.58 25.00 L 318.95 25.00 L 318.98 25.00 L 319.11 25.00 L 319.39 25.00 L 322.04 25.00 L 324.79 25.00 L 324.91 25.00 L 332.99 25.00 L 334.11 25.00 L 336.76 25.00 L 337.28 25.00 L 338.50 25.00 L 342.97 25.00 L 343.05 25.00 L 343.20 25.00 L 343.56 25.00 L 353.37 25.00 L 355.28 25.00 L 355.49 25.00 L 356.51 25.00 L 357.73 25.00 L 359.73 25.00 L 360.98 25.00 L 361.62 25.00 L 363.51 25.00 L 364.55 25.00 L 364.70 25.00 L 364.74 25.00 L 365.57 25.00 L 376.33 25.00 L 376.37 25.00 L 376.70 25.00 L 382.37 25.00 L 386.08 25.00 L 387.45 25.00 L 396.05 25.00 L 397.81 25.00 L 400.11 25.00 L 403.69 25.00 L 409.10 25.00 L 409.75 25.00 L 419.31 25.00 L 419.45 25.00 L 421.83 25.00 L 425.50 25.00 L 427.88 25.00 L 440.12 25.00 L 440.27 25.00 L 440.36 25.00 L 443.25 25.00 L 445.98 25.00 L 446.17 25.00 L 448.96 25.00 L 449.00 25.00 L 449.06 25.00 L 449.09 25.00 L 452.02 25.00 L 452.05 25.00 L 452.20 25.00 L 452.52 25.00 L 465.62 25.00 L 467.20 25.00 L 468.63 25.00 L 473.91 25.00 L 484.89 25.00 L 488.51 25.00 L 488.62 25.00 L 489.05 25.00 L 490.86 25.00 L 491.85 25.00 L 492.00 25.00 L 492.09 25.00 L 494.51 25.00 L 506.01 25.00 L 506.82 25.00 L 509.68 25.00 L 509.89 25.00 L 512.77 25.00 L 527.48 25.00 L 527.55 25.00 L 527.65 25.00 L 528.07 25.00 L 530.26 25.00 L 533.73 25.00 L 534.17 25.00 L 536.81 25.00 L 536.87 25.00 L 536.92 25.00 L 537.05 25.00 L 537.17 25.00 L 537.57 25.00 L 545.33 25.00 L 548.34 25.00 L 548.70 25.00 L 548.91 25.00 L 549.73 25.00 L 552.16 25.00 L 552.66 25.00 L 554.99 25.00 L 555.33 25.00 L 555.55 25.00 L 557.93 25.00 L 566.37 25.00 L 567.50 25.00 L 573.88 25.00 L 573.96 25.00 L 576.89 25.00 L 579.69 25.00 L 591.12 25.00 L 591.83 25.00 L 594.21 25.00 L 595.08 25.00 L 598.07 25.00 L 612.65 25.00 L 615.99 25.00 L 618.57 25.00 L 630.03 25.00 L 633.64 25.00 L 640.23 25.00 L 657.29 25.00 L 660.84 25.00 L 672.58 25.00 L 682.55 25.00 L 682.88 25.00 L 697.45 25.00 L 699.58 25.00 L 700.76 25.00 L 706.76 25.00 L 706.90 25.00 L 715.12 25.00 L 715.72 25.00 L 727.60 25.00 L 727.82 25.00 L 727.93 25.00 L 728.03 25.00 L 728.07 25.00 L 743.48 25.00 L 757.68 25.00 L 764.18 25.00 L 764.28 25.00 L 764.47 25.00 L 769.45 25.00 L 788.88 25.00 L 789.00 25.00 L 800.58 25.00 L 803.78 25.00 L 806.90 25.00 L 812.48 25.00 L 812.86 25.00 L 824.00 25.00 L 827.65 25.00 L 830.60 25.00 L 842.87 25.00 L 846.41 25.00 L 866.32 25.00 L 870.65 25.00 L 873.25 25.00 L 876.01 25.00 L 883.69 25.00 L 883.74 25.00 L 887.53 25.00 L 891.20 25.00 L 897.19 25.00 L 897.36 25.00 L 918.89 25.00 L 930.35 25.00 L 936.49 25.00 L 947.17 25.00 L 952.11 25.00 L 954.94 25.00 L 970.28 25.00 L 970.36 25.00 L 970.45 25.00 L 973.12 25.00 L 976.48 25.00 L 982.34 25.00 L 991.77 25.00 L 993.64 25.00 L 993.72 25.00 L 993.85 25.00 L 1021.57 25.00 L 1033.92 25.00 L 1041.89 25.00 L 1045.48 25.00 L 1064.12 25.00 L 1065.01 25.00 L 1066.01 25.00 L 1067.11 25.00 L 1074.36 25.00 L 1088.14 25.00 L 1088.20 25.00 L 1096.44 25.00 L 1096.51 25.00 L 1097.56 25.00 L 1100.10 25.00 L 1109.27 25.00 L 1109.46 25.00 L 1109.57 25.00 L 1120.70 25.00 L 1125.89 25.00 L 1126.04 25.00 L 1126.24 25.00 L 1128.98 25.00 L 1130.71 25.00 L 1142.74 25.00 L 1145.78 25.00 L 1164.03 25.00 L 1168.96 25.00 L 1170.00 25.00 L 1170.00 52.53 L 1168.96 53.90 L 1164.03 54.05 L 1145.78 48.95 L 1142.74 50.83 L 1130.71 53.62 L 1128.98 53.74 L 1126.24 55.18 L 1126.04 55.22 L 1125.89 57.22 L 1120.70 59.42 L 1109.57 58.80 L 1109.46 57.93 L 1109.27 57.47 L 1100.10 52.41 L 1097.56 53.84 L 1096.51 56.42 L 1096.44 57.91 L 1088.20 52.84 L 1088.14 47.72 L 1074.36 47.13 L 1067.11 48.22 L 1066.01 48.36 L 1065.01 43.21 L 1064.12 46.04 L 1045.48 45.98 L 1041.89 45.94 L 1033.92 48.26 L 1021.57 51.07 L 993.85 53.35 L 993.72 53.39 L 993.64 54.29 L 991.77 49.20 L 982.34 50.75 L 976.48 52.93 L 973.12 55.14 L 970.45 56.22 L 970.36 51.14 L 970.28 52.29 L 954.94 53.63 L 952.11 54.33 L 947.17 55.87 L 936.49 58.17 L 930.35 60.93 L 918.89 62.10 L 897.36 63.02 L 897.19 58.00 L 891.20 60.35 L 887.53 62.05 L 883.74 64.53 L 883.69 65.93 L 876.01 60.94 L 873.25 63.22 L 870.65 63.57 L 866.32 66.05 L 846.41 66.77 L 842.87 67.33 L 830.60 68.57 L 827.65 71.26 L 824.00 72.51 L 812.86 71.84 L 812.48 66.91 L 806.90 69.05 L 803.78 70.58 L 800.58 65.64 L 789.00 65.40 L 788.88 64.99 L 769.45 59.98 L 764.47 60.39 L 764.28 59.49 L 764.18 61.30 L 757.68 56.27 L 743.48 57.34 L 728.07 52.27 L 728.03 54.19 L 727.93 49.09 L 727.82 48.64 L 727.60 43.49 L 715.72 46.31 L 715.12 41.13 L 706.90 42.93 L 706.76 42.92 L 700.76 37.71 L 699.58 38.07 L 697.45 40.64 L 682.88 42.16 L 682.55 44.52 L 672.58 46.18 L 660.84 47.28 L 657.29 50.07 L 640.23 50.57 L 633.64 52.03 L 630.03 50.72 L 618.57 53.08 L 615.99 55.85 L 612.65 58.59 L 598.07 60.16 L 595.08 60.02 L 594.21 62.75 L 591.83 65.48 L 591.12 60.48 L 579.69 61.62 L 576.89 62.27 L 573.96 57.25 L 573.88 58.18 L 567.50 53.11 L 566.37 53.45 L 557.93 54.78 L 555.55 57.28 L 555.33 59.73 L 554.99 58.01 L 552.66 60.54 L 552.16 62.69 L 549.73 57.67 L 548.91 58.48 L 548.70 53.41 L 548.34 55.69 L 545.33 56.00 L 537.57 50.92 L 537.17 51.96 L 537.05 46.84 L 536.92 49.00 L 536.87 43.91 L 536.81 38.71 L 534.17 41.56 L 533.73 43.06 L 530.26 45.75 L 528.07 48.56 L 527.65 50.53 L 527.55 45.39 L 527.48 47.19 L 512.77 42.03 L 509.89 42.27 L 509.68 44.86 L 506.82 47.51 L 506.01 42.34 L 494.51 44.30 L 492.09 46.90 L 492.00 41.73 L 491.85 41.82 L 490.86 44.10 L 489.05 46.90 L 488.62 49.68 L 488.51 49.60 L 484.89 44.46 L 473.91 46.98 L 468.63 41.81 L 467.20 43.59 L 465.62 45.00 L 452.52 47.80 L 452.20 50.59 L 452.05 51.77 L 452.02 54.20 L 449.09 56.96 L 449.06 59.25 L 449.00 54.20 L 448.96 56.96 L 446.17 58.47 L 445.98 61.02 L 443.25 62.75 L 440.36 64.42 L 440.27 59.46 L 440.12 61.05 L 427.88 56.00 L 425.50 50.92 L 421.83 53.68 L 419.45 55.71 L 419.31 54.42 L 409.75 49.33 L 409.10 51.86 L 403.69 46.73 L 400.11 49.49 L 397.81 51.84 L 396.05 51.51 L 387.45 53.20 L 386.08 54.22 L 382.37 56.37 L 376.70 51.28 L 376.37 46.15 L 376.33 48.58 L 365.57 43.42 L 364.74 46.22 L 364.70 47.81 L 364.55 46.52 L 363.51 41.34 L 361.62 43.60 L 360.98 46.18 L 359.73 48.10 L 357.73 42.95 L 356.51 37.75 L 355.49 40.58 L 355.28 42.58 L 353.37 45.11 L 343.56 45.60 L 343.20 46.30 L 343.05 47.90 L 342.97 50.01 L 338.50 44.88 L 337.28 47.68 L 336.76 50.22 L 334.11 51.76 L 332.99 53.82 L 324.91 56.30 L 324.79 51.22 L 322.04 52.95 L 319.39 54.98 L 319.11 57.14 L 318.98 59.65 L 318.95 62.23 L 318.58 64.94 L 316.40 66.27 L 315.86 68.79 L 315.46 70.88 L 315.12 72.93 L 313.38 75.16 L 313.02 70.27 L 312.92 72.61 L 312.76 74.04 L 312.29 74.39 L 312.10 76.85 L 310.92 79.02 L 304.05 80.71 L 303.86 82.07 L 303.73 84.27 L 303.57 86.57 L 303.47 87.46 L 303.39 88.38 L 303.07 83.61 L 301.30 85.07 L 300.88 87.46 L 300.75 82.69 L 300.71 84.33 L 300.61 79.53 L 300.57 81.27 L 300.50 76.46 L 300.05 71.57 L 298.30 73.79 L 297.83 76.67 L 297.66 76.42 L 297.58 77.74 L 294.53 72.86 L 291.20 75.09 L 289.77 77.72 L 281.93 80.33 L 279.65 82.51 L 279.50 84.39 L 279.42 86.96 L 278.74 89.26 L 276.16 89.81 L 275.28 90.57 L 274.12 92.44 L 273.98 87.75 L 273.53 89.73 L 273.42 90.22 L 273.33 90.70 L 272.56 85.96 L 270.58 87.82 L 261.61 89.15 L 261.32 89.99 L 260.64 92.05 L 260.53 90.67 L 260.41 89.78 L 258.49 85.03 L 258.33 87.48 L 255.60 88.22 L 253.57 89.61 L 252.50 84.84 L 251.97 80.02 L 251.26 81.51 L 247.48 83.55 L 240.32 78.73 L 234.31 73.86 L 234.26 76.12 L 233.79 71.23 L 233.33 66.30 L 231.73 68.14 L 231.60 68.38 L 231.01 63.42 L 230.49 65.25 L 228.25 67.40 L 227.87 67.87 L 227.62 70.24 L 227.42 71.85 L 227.14 66.91 L 226.67 69.58 L 226.46 68.55 L 226.45 63.63 L 219.66 58.62 L 219.53 53.56 L 219.44 53.77 L 219.38 48.72 L 219.29 49.39 L 219.28 44.30 L 218.95 39.11 L 215.94 41.63 L 215.29 42.38 L 212.95 37.18 L 208.44 39.99 L 208.33 38.43 L 208.20 33.24 L 206.90 27.95 L 204.92 30.31 Z" fill="#d0d0d0" fill-opacity="0.5" stroke="none"/>
<polyline fill="none" stroke="#111" stroke-width="1.2" points="70.00,103.19 71.08,101.89 77.88,100.94 78.18,99.88 78.88,104.46 78.89,108.97 78.92,113.39 79.02,117.76 79.10,116.93 79.21,116.49 79.51,116.90 80.04,114.66 81.46,112.23 81.86,116.69 82.01,117.87 82.12,115.45 82.18,114.00 82.30,112.68 83.05,117.15 84.03,114.73 84.84,112.31 84.90,109.92 85.35,107.74 85.60,112.26 85.67,111.43 85.90,109.22 86.03,107.03 86.35,105.03 86.98,102.54 87.95,100.67 88.56,99.16 88.62,96.52 88.76,96.39 88.82,94.32 91.24,92.24 91.73,96.87 91.87,96.70 91.98,96.64 92.07,94.11 99.13,92.48 100.14,91.34 100.95,96.02 101.02,94.95 101.32,92.97 102.79,90.66 103.42,88.27 103.75,86.09 103.83,83.86 104.06,81.27 104.47,78.90 105.31,78.64 106.19,83.44 106.25,81.13 106.79,80.16 106.93,81.10 106.98,80.13 109.35,78.19 109.90,82.99 109.91,80.27 109.95,77.65 110.01,74.89 110.58,79.73 111.65,78.97 112.92,76.35 113.11,75.08 120.20,74.71 121.17,72.30 121.65,69.64 123.38,74.54 124.19,72.16 124.91,69.51 125.72,68.19 126.61,73.10 126.75,72.22 127.15,69.57 128.32,67.16 128.45,64.81 129.20,62.50 129.43,61.69 129.87,59.22 130.50,57.35 131.08,55.73 133.33,60.75 133.46,61.16 133.54,61.21 133.62,60.18 134.20,59.02 134.53,64.02 134.68,68.93 134.76,66.61 141.33,71.54 142.56,69.87 143.08,67.77 143.24,72.64 143.31,77.46 143.32,82.24 143.46,80.07 143.73,77.53 144.90,82.35 145.46,80.79 145.62,78.27 145.91,75.64 146.05,73.91 146.35,71.26 146.52,68.60 147.55,65.92 148.53,64.10 149.27,61.39 151.45,60.02 152.10,65.02 152.40,62.32 152.67,67.25 152.73,65.72 152.83,63.96 155.38,61.75 155.53,59.23 155.71,57.06 164.84,62.07 164.89,60.39 166.16,57.97 167.44,55.65 167.52,53.64 167.66,52.71 167.77,52.12 168.09,49.55 168.82,47.40 169.54,45.15 169.67,42.76 170.07,39.95 170.23,41.44 173.52,40.15 173.77,37.93 173.92,36.54 176.52,33.90 176.67,31.42 177.07,36.68 177.16,35.94 184.65,34.16 185.59,39.39 185.67,37.79 186.89,42.99 186.99,48.09 187.03,46.24 187.13,44.37 187.59,41.75 187.77,39.18 188.25,38.90 188.78,36.60 188.92,33.77 188.96,30.93 189.26,30.41 189.30,35.68 190.06,33.06 191.02,30.54 191.89,30.22 192.11,29.48 194.05,34.75 194.71,31.91 194.82,31.33 195.05,29.65 197.62,27.37 197.93,25.00 204.92,30.31 206.90,27.95 208.20,33.24 208.33,38.43 208.44,39.99 212.95,37.18 215.29,42.38 215.94,41.63 218.95,39.11 219.28,44.30 219.29,49.39 219.38,48.72 219.44,53.77 219.53,53.56 219.66,58.62 226.45,63.63 226.46,68.55 226.67,69.58 227.14,66.91 227.42,71.85 227.62,70.24 227.87,67.87 228.25,67.40 230.49,65.25 231.01,63.42 231.60,68.38 231.73,68.14 233.33,66.30 233.79,71.23 234.26,76.12 234.31,73.86 240.32,78.73 247.48,83.55 251.26,81.51 251.97,80.02 252.50,84.84 253.57,89.61 255.60,88.22 258.33,87.48 258.49,85.03 260.41,89.78 260.53,90.67 260.64,92.05 261.32,89.99 261.61,89.15 270.58,87.82 272.56,85.96 273.33,90.70 273.42,90.22 273.53,89.73 273.98,87.75 274.12,92.44 275.28,90.57 276.16,89.81 278.74,89.26 279.42,86.96 279.50,84.39 279.65,82.51 281.93,80.33 289.77,77.72 291.20,75.09 294.53,72.86 297.58,77.74 297.66,76.42 297.83,76.67 298.30,73.79 300.05,71.57 300.50,76.46 300.57,81.27 300.61,79.53 300.71,84.33 300.75,82.69 300.88,87.46 301.30,85.07 303.07,83.61 303.39,88.38 303.47,87.46 303.57,86.57 303.73,84.27 303.86,82.07 304.05,80.71 310.92,79.02 312.10,76.85 312.29,74.39 312.76,74.04 312.92,72.61 313.02,70.27 313.38,75.16 315.12,72.93 315.46,70.88 315.86,68.79 316.40,66.27 318.58,64.94 318.95,62.23 318.98,59.65 319.11,57.14 319.39,54.98 322.04,52.95 324.79,51.22 324.91,56.30 332.99,53.82 334.11,51.76 336.76,50.22 337.28,47.68 338.50,44.88 342.97,50.01 343.05,47.90 343.20,46.30 343.56,45.60 353.37,45.11 355.28,42.58 355.49,40.58 356.51,37.75 357.73,42.95 359.73,48.10 360.98,46.18 361.62,43.60 363.51,41.34 364.55,46.52 364.70,47.81 364.74,46.22 365.57,43.42 376.33,48.58 376.37,46.15 376.70,51.28 382.37,56.37 386.08,54.22 387.45,53.20 396.05,51.51 397.81,51.84 400.11,49.49 403.69,46.73 409.10,51.86 409.75,49.33 419.31,54.42 419.45,55.71 421.83,53.68 425.50,50.92 427.88,56.00 440.12,61.05 440.27,59.46 440.36,64.42 443.25,62.75 445.98,61.02 446.17,58.47 448.96,56.96 449.00,54.20 449.06,59.25 449.09,56.96 452.02,54.20 452.05,51.77 452.20,50.59 452.52,47.80 465.62,45.00 467.20,43.59 468.63,41.81 473.91,46.98 484.89,44.46 488.51,49.60 488.62,49.68 489.05,46.90 490.86,44.10 491.85,41.82 492.00,41.73 492.09,46.90 494.51,44.30 506.01,42.34 506.82,47.51 509.68,44.86 509.89,42.27 512.77,42.03 527.48,47.19 527.55,45.39 527.65,50.53 528.07,48.56 530.26,45.75 533.73,43.06 534.17,41.56 536.81,38.71 536.87,43.91 536.92,49.00 537.05,46.84 537.17,51.96 537.57,50.92 545.33,56.00 548.34,55.69 548.70,53.41 548.91,58.48 549.73,57.67 552.16,62.69 552.66,60.54 554.99,58.01 555.33,59.73 555.55,57.28 557.93,54.78 566.37,53.45 567.50,53.11 573.88,58.18 573.96,57.25 576.89,62.27 579.69,61.62 591.12,60.48 591.83,65.48 594.21,62.75 595.08,60.02 598.07,60.16 612.65,58.59 615.99,55.85 618.57,53.08 630.03,50.72 633.64,52.03 640.23,50.57 657.29,50.07 660.84,47.28 672.58,46.18 682.55,44.52 682.88,42.16 697.45,40.64 699.58,38.07 700.76,37.71 706.76,42.92 706.90,42.93 715.12,41.13 715.72,46.31 727.60,43.49 727.82,48.64 727.93,49.09 728.03,54.19 728.07,52.27 743.48,57.34 757.68,56.27 764.18,61.30 764.28,59.49 764.47,60.39 769.45,59.98 788.88,64.99 789.00,65.40 800.58,65.64 803.78,70.58 806.90,69.05 812.48,66.91 812.86,71.84 824.00,72.51 827.65,71.26 830.60,68.57 842.87,67.33 846.41,66.77 866.32,66.05 870.65,63.57 873.25,63.22 876.01,60.94 883.69,65.93 883.74,64.53 887.53,62.05 891.20,60.35 897.19,58.00 897.36,63.02 918.89,62.10 930.35,60.93 936.49,58.17 947.17,55.87 952.11,54.33 954.94,53.63 970.28,52.29 970.36,51.14 970.45,56.22 973.12,55.14 976.48,52.93 982.34,50.75 991.77,49.20 993.64,54.29 993.72,53.39 993.85,53.35 1021.57,51.07 1033.92,48.26 1041.89,45.94 1045.48,45.98 1064.12,46.04 1065.01,43.21 1066.01,48.36 1067.11,48.22 1074.36,47.13 1088.14,47.72 1088.20,52.84 1096.44,57.91 1096.51,56.42 1097.56,53.84 1100.10,52.41 1109.27,57.47 1109.46,57.93 1109.57,58.80 1120.70,59.42 1125.89,57.22 1126.04,55.22 1126.24,55.18 1128.98,53.74 1130.71,53.62 1142.74,50.83 1145.78,48.95 1164.03,54.05 1168.96,53.90 1170.00,52.53"/>
<text x="620.0" y="588" text-anchor="middle" font-family="sans-serif" font-size="12" fill="#333">UTC time</text>
<text x="15" y="287.5" transform="rotate(-90 15,287.5)" text-anchor="middle" font-family="sans-serif" font-size="12" fill="#333">Capital</text>
</svg>