<svg xmlns="http://www.w3.org/2000/svg" width="1200" height="600" viewBox="0 0 1200 600">
<desc>Equity curve with drawdown fill</desc>
<text x="600.0" y="18.0" text-anchor="middle" font-family="sans-serif" font-size="14">Portfolio 2002</text>
<rect x="70" y="25" width="1100" height="525" fill="white" stroke="#ccc" />
<line x1="70" y1="550.00" x2="1170" y2="550.00" stroke="#eee"/>
<text x="62" y="554.0" text-anchor="end" font-family="sans-serif" font-size="11" fill="#555">0.00</text>
<line x1="70" y1="445.00" x2="1170" y2="445.00" stroke="#eee"/>
<text x="62" y="449.0" text-anchor="end" font-family="sans-serif" font-size="11" fill="#555">20118</text>
<line x1="70" y1="340.00" x2="1170" y2="340.00" stroke="#eee"/>
<text x="62" y="344.0" text-anchor="end" font-family="sans-serif" font-size="11" fill="#555">40236</text>
<line x1="70" y1="235.00" x2="1170" y2="235.00" stroke="#eee"/>
<text x="62" y="239.0" text-anchor="end" font-family="sans-serif" font-size="11" fill="#555">60355</text>
<line x1="70" y1="130.00" x2="1170" y2="130.00" stroke="#eee"/>
<text x="62" y="134.0" text-anchor="end" font-family="sans-serif" font-size="11" fill="#555">80473</text>
<line x1="70" y1="25.00" x2="1170" y2="25.00" stroke="#eee"/>
<text x="62" y="29.0" text-anchor="end" font-family="sans-serif" font-size="11" fill="#555">100591</text>
<line x1="159.96" y1="25" x2="159.96" y2="550" stroke="#f2f2f2"/>
<text x="159.96" y="566" text-anchor="middle" font-family="sans-serif" font-size="11" fill="#555">Feb</text>
<line x1="246.79" y1="25" x2="246.79" y2="550" stroke="#f2f2f2"/>
<text x="246.79" y="566" text-anchor="middle" font-family="sans-serif" font-size="11" fill="#555">Mar</text>
<line x1="342.92" y1="25" x2="342.92" y2="550" stroke="#f2f2f2"/>
<text x="342.92" y="566" text-anchor="middle" font-family="sans-serif" font-size="11" fill="#555">Apr</text>
<line x1="435.95" y1="25" x2="435.95" y2="550" stroke="#f2f2f2"/>
<text x="435.95" y="566" text-anchor="middle" font-family="sans-serif" font-size="11" fill="#555">May</text>
<line x1="532.07" y1="25" x2="532.07" y2="550" stroke="#f2f2f2"/>
<text x="532.07" y="566" text-anchor="middle" font-family="sans-serif" font-size="11" fill="#555">Jun</text>
<line x1="625.10" y1="25" x2="625.10" y2="550" stroke="#f2f2f2"/>
<text x="625.10" y="566" text-anchor="middle" font-family="sans-serif" font-size="11" fill="#555">Jul</text>
<line x1="721.23" y1="25" x2="721.23" y2="550" stroke="#f2f2f2"/>
<text x="721.23" y="566" text-anchor="middle" font-family="sans-serif" font-size="11" fill="#555">Aug</text>
<line x1="817.36" y1="25" x2="817.36" y2="550" stroke="#f2f2f2"/>
<text x="817.36" y="566" text-anchor="middle" font-family="sans-serif" font-size="11" fill="#555">Sep</text>
<line x1="910.39" y1="25" x2="910.39" y2="550" stroke="#f2f2f2"/>
<text x="910.39" y="566" text-anchor="middle" font-family="sans-serif" font-size="11" fill="#555">Oct</text>
<line x1="1006.52" y1="25" x2="1006.52" y2="550" stroke="#f2f2f2"/>
<text x="1006.52" y="566" text-anchor="middle" font-family="sans-serif" font-size="11" fill="#555">Nov</text>
<line x1="1099.55" y1="25" x2="1099.55" y2="550" stroke="#f2f2f2"/>
<text x="1099.55" y="566" text-anchor="middle" font-family="sans-serif" font-size="11" fill="#555">Dec</text>
<line x1="70" y1="550" x2="1170" y2="550" stroke="#888"/>
<line x1="70" y1="25" x2="70" y2="550" stroke="#888"/>
<path d="M 82.67 25.00 L 83.92 25.00 L 84.07 25.00 L 84.12 25.00 L 86.44 25.00 L 88.60 25.00 L 90.58 25.00 L 109.60 25.00 L 113.41 25.00 L 134.39 25.00 L 147.61 25.00 L 147.83 25.00 L 155.60 25.00 L 157.44 25.00 L 171.56 25.00 L 177.54 25.00 L 213.02 25.00 L 213.08 25.00 L 217.88 25.00 L 226.77 25.00 L 239.76 25.00 L 239.83 25.00 L 258.29 25.00 L 264.31 25.00 L 299.58 25.00 L 307.74 25.00 L 321.42 25.00 L 326.17 25.00 L 393.76 25.00 L 430.14 25.00 L 438.01 25.00 L 438.09 25.00 L 438.22 25.00 L 451.61 25.00 L 451.75 25.00 L 459.90 25.00 L 473.43 25.00 L 478.13 25.00 L 481.22 25.00 L 495.10 25.00 L 501.74 25.00 L 520.89 25.00 L 525.14 25.00 L 538.54 25.00 L 540.31 25.00 L 560.17 25.00 L 603.64 25.00 L 603.76 25.00 L 604.57 25.00 L 604.62 25.00 L 605.91 25.00 L 608.95 25.00 L 608.97 25.00 L 609.68 25.00 L 610.60 25.00 L 612.11 25.00 L 625.26 25.00 L 629.06 25.00 L 632.47 25.00 L 647.18 25.00 L 648.89 25.00 L 654.11 25.00 L 654.85 25.00 L 654.99 25.00 L 668.69 25.00 L 670.15 25.00 L 672.92 25.00 L 672.96 25.00 L 673.10 25.00 L 676.31 25.00 L 676.99 25.00 L 690.69 25.00 L 693.47 25.00 L 693.63 25.00 L 693.77 25.00 L 694.48 25.00 L 694.62 25.00 L 695.85 25.00 L 698.24 25.00 L 698.28 25.00 L 700.11 25.00 L 712.02 25.00 L 712.23 25.00 L 713.50 25.00 L 716.99 25.00 L 720.23 25.00 L 722.27 25.00 L 723.20 25.00 L 723.35 25.00 L 723.35 25.00 L 726.21 25.00 L 737.90 25.00 L 738.06 25.00 L 738.13 25.00 L 738.88 25.00 L 742.07 25.00 L 744.08 25.00 L 745.13 25.00 L 747.44 25.00 L 757.09 25.00 L 764.02 25.00 L 766.90 25.00 L 769.63 25.00 L 782.03 25.00 L 788.40 25.00 L 803.93 25.00 L 809.18 25.00 L 824.96 25.00 L 825.64 25.00 L 831.80 25.00 L 834.61 25.00 L 834.79 25.00 L 846.43 25.00 L 853.83 25.00 L 856.74 25.00 L 856.90 25.00 L 856.98 25.00 L 868.29 25.00 L 869.03 25.00 L 871.05 25.00 L 878.33 25.00 L 886.81 25.00 L 887.88 25.00 L 887.94 25.00 L 890.47 25.00 L 893.37 25.00 L 896.88 25.00 L 921.58 25.00 L 922.06 25.00 L 937.18 25.00 L 955.08 25.00 L 996.09 25.00 L 996.27 25.00 L 996.33 25.00 L 1020.10 25.00 L 1027.28 25.00 L 1045.67 25.00 L 1064.62 25.00 L 1064.75 25.00 L 1064.87 25.00 L 1073.87 25.00 L 1104.84 25.00 L 1116.87 25.00 L 1116.91 25.00 L 1135.88 25.00 L 1137.94 25.00 L 1139.09 25.00 L 1149.63 25.00 L 1151.37 25.00 L 1170.00 25.00 L 1170.00 125.88 L 1151.37 124.81 L 1149.63 125.21 L 1139.09 120.90 L 1137.94 122.94 L 1135.88 122.21 L 1116.91 123.28 L 1116.87 118.99 L 1104.84 114.59 L 1073.87 113.59 L 1064.87 114.26 L 1064.75 112.99 L 1064.62 112.08 L 1045.67 107.59 L 1027.28 110.09 L 1020.10 105.57 L 996.33 105.22 L 996.27 105.65 L 996.09 103.87 L 955.08 99.28 L 937.18 100.91 L 922.06 102.45 L 921.58 103.91 L 896.88 103.67 L 893.37 104.58 L 890.47 106.19 L 887.94 105.70 L 887.88 107.08 L 886.81 102.53 L 878.33 104.23 L 871.05 106.58 L 869.03 108.20 L 868.29 107.88 L 856.98 109.28 L 856.90 108.97 L 856.74 108.21 L 853.83 103.68 L 846.43 104.15 L 834.79 99.57 L 834.61 100.84 L 831.80 103.22 L 825.64 104.21 L 824.96 104.33 L 809.18 104.46 L 803.93 106.60 L 788.40 106.39 L 782.03 108.51 L 769.63 110.10 L 766.90 110.86 L 764.02 111.87 L 757.09 113.71 L 747.44 113.28 L 745.13 114.28 L 744.08 115.65 L 742.07 116.51 L 738.88 117.65 L 738.13 118.92 L 738.06 118.96 L 737.90 114.62 L 726.21 110.16 L 723.35 112.08 L 723.35 107.64 L 723.20 103.16 L 722.27 98.56 L 720.23 100.29 L 716.99 102.17 L 713.50 104.06 L 712.23 101.55 L 712.02 96.94 L 700.11 92.33 L 698.28 93.98 L 698.24 95.79 L 695.85 91.10 L 694.62 86.37 L 694.48 87.11 L 693.77 82.33 L 693.63 84.15 L 693.47 86.26 L 690.69 88.51 L 676.99 88.32 L 676.31 90.27 L 673.10 92.45 L 672.96 94.55 L 672.92 96.69 L 670.15 92.01 L 668.69 87.28 L 654.99 85.36 L 654.85 87.60 L 654.11 85.72 L 648.89 85.27 L 647.18 87.30 L 632.47 82.52 L 629.06 82.62 L 625.26 82.80 L 612.11 81.32 L 610.60 83.67 L 609.68 78.85 L 608.97 73.96 L 608.95 76.44 L 605.91 71.53 L 604.62 66.56 L 604.57 68.19 L 603.76 63.20 L 603.64 60.43 L 560.17 56.17 L 540.31 55.63 L 538.54 50.49 L 525.14 50.52 L 520.89 52.69 L 501.74 53.99 L 495.10 53.02 L 481.22 49.77 L 478.13 51.94 L 473.43 51.66 L 459.90 47.53 L 451.75 47.16 L 451.61 46.17 L 438.22 46.05 L 438.09 46.36 L 438.01 47.41 L 430.14 42.17 L 393.76 41.05 L 326.17 41.89 L 321.42 36.59 L 307.74 32.50 L 299.58 32.37 L 264.31 33.27 L 258.29 35.40 L 239.83 33.99 L 239.76 35.48 L 226.77 30.11 L 217.88 31.89 L 213.08 26.48 L 213.02 27.30 L 177.54 26.04 L 171.56 28.07 L 157.44 28.53 L 155.60 31.58 L 147.83 33.38 L 147.61 30.97 L 134.39 32.86 L 113.41 27.47 L 109.60 30.53 L 90.58 25.11 L 88.60 27.60 L 86.44 30.66 L 84.12 33.70 L 84.07 34.67 L 83.92 34.88 L 82.67 29.51 Z" fill="#d0d0d0" fill-opacity="0.5" stroke="none"/>
<polyline fill="none" stroke="#111" stroke-width="1.2" points="70.00,25.00 82.67,29.51 83.92,34.88 84.07,34.67 84.12,33.70 86.44,30.66 88.60,27.60 90.58,25.11 109.60,30.53 113.41,27.47 134.39,32.86 147.61,30.97 147.83,33.38 155.60,31.58 157.44,28.53 171.56,28.07 177.54,26.04 213.02,27.30 213.08,26.48 217.88,31.89 226.77,30.11 239.76,35.48 239.83,33.99 258.29,35.40 264.31,33.27 299.58,32.37 307.74,32.50 321.42,36.59 326.17,41.89 393.76,41.05 430.14,42.17 438.01,47.41 438.09,46.36 438.22,46.05 451.61,46.17 451.75,47.16 459.90,47.53 473.43,51.66 478.13,51.94 481.22,49.77 495.10,53.02 501.74,53.99 520.89,52.69 525.14,50.52 538.54,50.49 540.31,55.63 560.17,56.17 603.64,60.43 603.76,63.20 604.57,68.19 604.62,66.56 605.91,71.53 608.95,76.44 608.97,73.96 609.68,78.85 610.60,83.67 612.11,81.32 625.26,82.80 629.06,82.62 632.47,82.52 647.18,87.30 648.89,85.27 654.11,85.72 654.85,87.60 654.99,85.36 668.69,87.28 670.15,92.01 672.92,96.69 672.96,94.55 673.10,92.45 676.31,90.27 676.99,88.32 690.69,88.51 693.47,86.26 693.63,84.15 693.77,82.33 694.48,87.11 694.62,86.37 695.85,91.10 698.24,95.79 698.28,93.98 700.11,92.33 712.02,96.94 712.23,101.55 713.50,104.06 716.99,102.17 720.23,100.29 722.27,98.56 723.20,103.16 723.35,107.64 723.35,112.08 726.21,110.16 737.90,114.62 738.06,118.96 738.13,118.92 738.88,117.65 742.07,116.51 744.08,115.65 745.13,114.28 747.44,113.28 757.09,113.71 764.02,111.87 766.90,110.86 769.63,110.10 782.03,108.51 788.40,106.39 803.93,106.60 809.18,104.46 824.96,104.33 825.64,104.21 831.80,103.22 834.61,100.84 834.79,99.57 846.43,104.15 853.83,103.68 856.74,108.21 856.90,108.97 856.98,109.28 868.29,107.88 869.03,108.20 871.05,106.58 878.33,104.23 886.81,102.53 887.88,107.08 887.94,105.70 890.47,106.19 893.37,104.58 896.88,103.67 921.58,103.91 922.06,102.45 937.18,100.91 955.08,99.28 996.09,103.87 996.27,105.65 996.33,105.22 1020.10,105.57 1027.28,110.09 1045.67,107.59 1064.62,112.08 1064.75,112.99 1064.87,114.26 1073.87,113.59 1104.84,114.59 1116.87,118.99 1116.91,123.28 1135.88,122.21 1137.94,122.94 1139.09,120.90 1149.63,125.21 1151.37,124.81 1170.00,125.88"/>
<text x="620.0" y="588" text-anchor="middle" font-family="sans-serif" font-size="12" fill="#333">UTC time</text>
<text x="15" y="287.5" transform="rotate(-90 15,287.5)" text-anchor="middle" font-family="sans-serif" font-size="12" fill="#333">Capital</text>
</svg>