<svg xmlns="http://www.w3.org/2000/svg" width="1200" height="600" viewBox="0 0 1200 600">
<desc>Equity curve with drawdown fill</desc>
<text x="600.0" y="18.0" text-anchor="middle" font-family="sans-serif" font-size="14">Portfolio 2017</text>
<rect x="70" y="25" width="1100" height="525" fill="white" stroke="#ccc" />
<line x1="70" y1="550.00" x2="1170" y2="550.00" stroke="#eee"/>
<text x="62" y="554.0" text-anchor="end" font-family="sans-serif" font-size="11" fill="#555">0.00</text>
<line x1="70" y1="445.00" x2="1170" y2="445.00" stroke="#eee"/>
<text x="62" y="449.0" text-anchor="end" font-family="sans-serif" font-size="11" fill="#555">36754</text>
<line x1="70" y1="340.00" x2="1170" y2="340.00" stroke="#eee"/>
<text x="62" y="344.0" text-anchor="end" font-family="sans-serif" font-size="11" fill="#555">73509</text>
<line x1="70" y1="235.00" x2="1170" y2="235.00" stroke="#eee"/>
<text x="62" y="239.0" text-anchor="end" font-family="sans-serif" font-size="11" fill="#555">110263</text>
<line x1="70" y1="130.00" x2="1170" y2="130.00" stroke="#eee"/>
<text x="62" y="134.0" text-anchor="end" font-family="sans-serif" font-size="11" fill="#555">147017</text>
<line x1="70" y1="25.00" x2="1170" y2="25.00" stroke="#eee"/>
<text x="62" y="29.0" text-anchor="end" font-family="sans-serif" font-size="11" fill="#555">183771</text>
<line x1="159.32" y1="25" x2="159.32" y2="550" stroke="#f2f2f2"/>
<text x="159.32" y="566" text-anchor="middle" font-family="sans-serif" font-size="11" fill="#555">Feb</text>
<line x1="246.66" y1="25" x2="246.66" y2="550" stroke="#f2f2f2"/>
<text x="246.66" y="566" text-anchor="middle" font-family="sans-serif" font-size="11" fill="#555">Mar</text>
<line x1="343.35" y1="25" x2="343.35" y2="550" stroke="#f2f2f2"/>
<text x="343.35" y="566" text-anchor="middle" font-family="sans-serif" font-size="11" fill="#555">Apr</text>
<line x1="436.93" y1="25" x2="436.93" y2="550" stroke="#f2f2f2"/>
<text x="436.93" y="566" text-anchor="middle" font-family="sans-serif" font-size="11" fill="#555">May</text>
<line x1="533.63" y1="25" x2="533.63" y2="550" stroke="#f2f2f2"/>
<text x="533.63" y="566" text-anchor="middle" font-family="sans-serif" font-size="11" fill="#555">Jun</text>
<line x1="627.21" y1="25" x2="627.21" y2="550" stroke="#f2f2f2"/>
<text x="627.21" y="566" text-anchor="middle" font-family="sans-serif" font-size="11" fill="#555">Jul</text>
<line x1="723.90" y1="25" x2="723.90" y2="550" stroke="#f2f2f2"/>
<text x="723.90" y="566" text-anchor="middle" font-family="sans-serif" font-size="11" fill="#555">Aug</text>
<line x1="820.60" y1="25" x2="820.60" y2="550" stroke="#f2f2f2"/>
<text x="820.60" y="566" text-anchor="middle" font-family="sans-serif" font-size="11" fill="#555">Sep</text>
<line x1="914.18" y1="25" x2="914.18" y2="550" stroke="#f2f2f2"/>
<text x="914.18" y="566" text-anchor="middle" font-family="sans-serif" font-size="11" fill="#555">Oct</text>
<line x1="1010.87" y1="25" x2="1010.87" y2="550" stroke="#f2f2f2"/>
<text x="1010.87" y="566" text-anchor="middle" font-family="sans-serif" font-size="11" fill="#555">Nov</text>
<line x1="1104.45" y1="25" x2="1104.45" y2="550" stroke="#f2f2f2"/>
<text x="1104.45" y="566" text-anchor="middle" font-family="sans-serif" font-size="11" fill="#555">Dec</text>
<line x1="70" y1="550" x2="1170" y2="550" stroke="#888"/>
<line x1="70" y1="25" x2="70" y2="550" stroke="#888"/>
<path d="M 77.15 54.39 L 77.22 54.39 L 79.98 54.39 L 95.86 54.39 L 95.86 54.66 L 79.98 55.86 L 77.22 58.53 L 77.15 59.48 Z" fill="#d0d0d0" fill-opacity="0.5" stroke="none"/>
<path d="M 96.14 51.98 L 96.17 51.98 L 96.24 51.98 L 96.33 51.98 L 102.03 51.98 L 114.07 51.98 L 120.54 51.98 L 154.77 51.98 L 155.19 51.98 L 157.88 51.98 L 201.96 51.98 L 205.19 51.98 L 255.46 51.98 L 255.46 53.09 L 205.19 54.35 L 201.96 56.48 L 157.88 56.99 L 155.19 55.68 L 154.77 57.86 L 120.54 52.75 L 114.07 55.44 L 102.03 56.93 L 96.33 59.10 L 96.24 60.81 L 96.17 62.10 L 96.14 57.10 Z" fill="#d0d0d0" fill-opacity="0.5" stroke="none"/>
<path d="M 415.16 45.37 L 429.03 45.37 L 473.11 45.37 L 473.11 46.70 L 429.03 48.27 L 415.16 46.03 Z" fill="#d0d0d0" fill-opacity="0.5" stroke="none"/>
<path d="M 504.07 44.61 L 538.58 44.61 L 553.94 44.61 L 553.94 47.07 L 538.58 46.16 L 504.07 46.97 Z" fill="#d0d0d0" fill-opacity="0.5" stroke="none"/>
<path d="M 576.01 44.61 L 616.13 44.61 L 616.96 44.61 L 619.57 44.61 L 619.59 44.61 L 663.55 44.61 L 663.55 45.17 L 619.59 47.38 L 619.57 50.27 L 616.96 53.00 L 616.13 54.92 L 576.01 49.79 Z" fill="#d0d0d0" fill-opacity="0.5" stroke="none"/>
<path d="M 680.66 43.20 L 680.66 44.50 Z" fill="#d0d0d0" fill-opacity="0.5" stroke="none"/>
<path d="M 688.65 41.72 L 707.69 41.72 L 722.93 41.72 L 729.38 41.72 L 735.03 41.72 L 735.26 41.72 L 735.45 41.72 L 747.81 41.72 L 750.73 41.72 L 756.93 41.72 L 769.43 41.72 L 771.89 41.72 L 773.16 41.72 L 775.44 41.72 L 775.44 43.94 L 773.16 46.71 L 771.89 49.47 L 769.43 52.02 L 756.93 52.08 L 750.73 52.42 L 747.81 54.73 L 735.45 49.61 L 735.26 48.89 L 735.03 43.76 L 729.38 46.30 L 722.93 49.07 L 707.69 49.67 L 688.65 44.49 Z" fill="#d0d0d0" fill-opacity="0.5" stroke="none"/>
<path d="M 860.11 30.15 L 860.11 30.74 Z" fill="#d0d0d0" fill-opacity="0.5" stroke="none"/>
<path d="M 882.41 25.00 L 953.42 25.00 L 993.95 25.00 L 994.21 25.00 L 1070.14 25.00 L 1071.35 25.00 L 1103.40 25.00 L 1106.62 25.00 L 1170.00 25.00 L 1170.00 30.77 L 1106.62 33.38 L 1103.40 34.85 L 1071.35 33.31 L 1070.14 34.07 L 994.21 34.90 L 993.95 29.58 L 953.42 28.23 L 882.41 30.32 Z" fill="#d0d0d0" fill-opacity="0.5" stroke="none"/>
<polyline fill="none" stroke="#111" stroke-width="1.2" points="70.00,62.40 70.85,60.00 71.05,58.58 75.13,56.20 76.27,54.39 77.15,59.48 77.22,58.53 79.98,55.86 95.86,54.66 95.98,51.98 96.14,57.10 96.17,62.10 96.24,60.81 96.33,59.10 102.03,56.93 114.07,55.44 120.54,52.75 154.77,57.86 155.19,55.68 157.88,56.99 201.96,56.48 205.19,54.35 255.46,53.09 273.49,51.60 292.87,51.15 333.42,50.26 335.73,48.27 360.05,46.26 415.04,45.37 415.16,46.03 429.03,48.27 473.11,46.70 492.46,44.61 504.07,46.97 538.58,46.16 553.94,47.07 554.40,44.61 576.01,49.79 616.13,54.92 616.96,53.00 619.57,50.27 619.59,47.38 663.55,45.17 669.60,43.20 680.66,44.50 688.27,41.72 688.65,44.49 707.69,49.67 722.93,49.07 729.38,46.30 735.03,43.76 735.26,48.89 735.45,49.61 747.81,54.73 750.73,52.42 756.93,52.08 769.43,52.02 771.89,49.47 773.16,46.71 775.44,43.94 800.72,41.15 812.34,39.86 822.35,37.04 822.59,34.96 841.08,32.12 842.96,30.15 860.11,30.74 862.90,27.88 882.34,25.00 882.41,30.32 953.42,28.23 993.95,29.58 994.21,34.90 1070.14,34.07 1071.35,33.31 1103.40,34.85 1106.62,33.38 1170.00,30.77"/>
<text x="620.0" y="588" text-anchor="middle" font-family="sans-serif" font-size="12" fill="#333">UTC time</text>
<text x="15" y="287.5" transform="rotate(-90 15,287.5)" text-anchor="middle" font-family="sans-serif" font-size="12" fill="#333">Capital</text>
</svg>