<svg xmlns="http://www.w3.org/2000/svg" width="1200" height="600" viewBox="0 0 1200 600">
<desc>Equity curve with drawdown fill</desc>
<text x="600.0" y="18.0" text-anchor="middle" font-family="sans-serif" font-size="14">Portfolio 2013</text>
<rect x="70" y="25" width="1100" height="525" fill="white" stroke="#ccc" />
<line x1="70" y1="550.00" x2="1170" y2="550.00" stroke="#eee"/>
<text x="62" y="554.0" text-anchor="end" font-family="sans-serif" font-size="11" fill="#555">0.00</text>
<line x1="70" y1="445.00" x2="1170" y2="445.00" stroke="#eee"/>
<text x="62" y="449.0" text-anchor="end" font-family="sans-serif" font-size="11" fill="#555">22951</text>
<line x1="70" y1="340.00" x2="1170" y2="340.00" stroke="#eee"/>
<text x="62" y="344.0" text-anchor="end" font-family="sans-serif" font-size="11" fill="#555">45902</text>
<line x1="70" y1="235.00" x2="1170" y2="235.00" stroke="#eee"/>
<text x="62" y="239.0" text-anchor="end" font-family="sans-serif" font-size="11" fill="#555">68853</text>
<line x1="70" y1="130.00" x2="1170" y2="130.00" stroke="#eee"/>
<text x="62" y="134.0" text-anchor="end" font-family="sans-serif" font-size="11" fill="#555">91803</text>
<line x1="70" y1="25.00" x2="1170" y2="25.00" stroke="#eee"/>
<text x="62" y="29.0" text-anchor="end" font-family="sans-serif" font-size="11" fill="#555">114754</text>
<line x1="159.76" y1="25" x2="159.76" y2="550" stroke="#f2f2f2"/>
<text x="159.76" y="566" text-anchor="middle" font-family="sans-serif" font-size="11" fill="#555">Feb</text>
<line x1="245.61" y1="25" x2="245.61" y2="550" stroke="#f2f2f2"/>
<text x="245.61" y="566" text-anchor="middle" font-family="sans-serif" font-size="11" fill="#555">Mar</text>
<line x1="340.66" y1="25" x2="340.66" y2="550" stroke="#f2f2f2"/>
<text x="340.66" y="566" text-anchor="middle" font-family="sans-serif" font-size="11" fill="#555">Apr</text>
<line x1="432.64" y1="25" x2="432.64" y2="550" stroke="#f2f2f2"/>
<text x="432.64" y="566" text-anchor="middle" font-family="sans-serif" font-size="11" fill="#555">May</text>
<line x1="527.69" y1="25" x2="527.69" y2="550" stroke="#f2f2f2"/>
<text x="527.69" y="566" text-anchor="middle" font-family="sans-serif" font-size="11" fill="#555">Jun</text>
<line x1="619.68" y1="25" x2="619.68" y2="550" stroke="#f2f2f2"/>
<text x="619.68" y="566" text-anchor="middle" font-family="sans-serif" font-size="11" fill="#555">Jul</text>
<line x1="714.72" y1="25" x2="714.72" y2="550" stroke="#f2f2f2"/>
<text x="714.72" y="566" text-anchor="middle" font-family="sans-serif" font-size="11" fill="#555">Aug</text>
<line x1="809.77" y1="25" x2="809.77" y2="550" stroke="#f2f2f2"/>
<text x="809.77" y="566" text-anchor="middle" font-family="sans-serif" font-size="11" fill="#555">Sep</text>
<line x1="901.76" y1="25" x2="901.76" y2="550" stroke="#f2f2f2"/>
<text x="901.76" y="566" text-anchor="middle" font-family="sans-serif" font-size="11" fill="#555">Oct</text>
<line x1="996.81" y1="25" x2="996.81" y2="550" stroke="#f2f2f2"/>
<text x="996.81" y="566" text-anchor="middle" font-family="sans-serif" font-size="11" fill="#555">Nov</text>
<line x1="1088.79" y1="25" x2="1088.79" y2="550" stroke="#f2f2f2"/>
<text x="1088.79" y="566" text-anchor="middle" font-family="sans-serif" font-size="11" fill="#555">Dec</text>
<line x1="70" y1="550" x2="1170" y2="550" stroke="#888"/>
<line x1="70" y1="25" x2="70" y2="550" stroke="#888"/>
<path d="M 70.00 25.00 L 94.09 25.00 L 97.11 25.00 L 110.12 25.00 L 118.52 25.00 L 130.29 25.00 L 134.22 25.00 L 161.68 25.00 L 161.91 25.00 L 174.15 25.00 L 179.93 25.00 L 180.09 25.00 L 180.10 25.00 L 180.22 25.00 L 180.34 25.00 L 194.98 25.00 L 200.90 25.00 L 220.45 25.00 L 222.22 25.00 L 225.59 25.00 L 235.39 25.00 L 235.42 25.00 L 235.62 25.00 L 235.83 25.00 L 265.77 25.00 L 268.80 25.00 L 268.88 25.00 L 268.95 25.00 L 284.39 25.00 L 287.84 25.00 L 297.73 25.00 L 299.02 25.00 L 302.99 25.00 L 311.97 25.00 L 319.28 25.00 L 321.03 25.00 L 351.60 25.00 L 351.79 25.00 L 354.65 25.00 L 354.67 25.00 L 354.97 25.00 L 388.34 25.00 L 388.93 25.00 L 391.70 25.00 L 409.38 25.00 L 416.27 25.00 L 431.51 25.00 L 437.51 25.00 L 437.60 25.00 L 437.76 25.00 L 440.51 25.00 L 440.73 25.00 L 459.72 25.00 L 462.34 25.00 L 483.47 25.00 L 498.99 25.00 L 499.03 25.00 L 517.46 25.00 L 520.03 25.00 L 520.08 25.00 L 523.50 25.00 L 535.90 25.00 L 536.02 25.00 L 536.09 25.00 L 545.17 25.00 L 545.29 25.00 L 547.88 25.00 L 585.37 25.00 L 590.79 25.00 L 612.47 25.00 L 627.90 25.00 L 630.61 25.00 L 630.72 25.00 L 630.79 25.00 L 633.66 25.00 L 646.30 25.00 L 649.73 25.00 L 650.29 25.00 L 650.33 25.00 L 650.47 25.00 L 651.41 25.00 L 670.78 25.00 L 713.38 25.00 L 714.09 25.00 L 719.52 25.00 L 759.47 25.00 L 759.98 25.00 L 760.17 25.00 L 823.86 25.00 L 826.83 25.00 L 864.32 25.00 L 906.72 25.00 L 946.09 25.00 L 949.84 25.00 L 952.04 25.00 L 967.87 25.00 L 993.21 25.00 L 1016.83 25.00 L 1017.02 25.00 L 1017.04 25.00 L 1019.99 25.00 L 1035.73 25.00 L 1057.16 25.00 L 1102.91 25.00 L 1143.34 25.00 L 1170.00 25.00 L 1170.00 44.12 L 1143.34 47.07 L 1102.91 49.87 L 1057.16 51.63 L 1035.73 46.49 L 1019.99 49.29 L 1017.04 52.07 L 1017.02 46.93 L 1016.83 45.61 L 993.21 48.55 L 967.87 50.01 L 952.04 52.79 L 949.84 51.14 L 946.09 52.66 L 906.72 53.84 L 864.32 53.04 L 826.83 55.93 L 823.86 58.67 L 760.17 60.20 L 759.98 60.80 L 759.47 63.64 L 719.52 64.14 L 714.09 66.84 L 713.38 69.51 L 670.78 72.17 L 651.41 73.78 L 650.47 68.87 L 650.33 70.37 L 650.29 65.53 L 649.73 60.57 L 646.30 55.52 L 633.66 50.41 L 630.79 53.18 L 630.72 54.82 L 630.61 54.68 L 627.90 57.42 L 612.47 59.61 L 590.79 61.01 L 585.37 62.25 L 547.88 57.22 L 545.29 59.94 L 545.17 59.39 L 536.09 62.11 L 536.02 63.36 L 535.90 63.59 L 523.50 58.58 L 520.08 53.50 L 520.03 55.39 L 517.46 50.28 L 499.03 50.70 L 498.99 53.30 L 483.47 55.34 L 462.34 57.08 L 459.72 59.28 L 440.73 54.22 L 440.51 56.58 L 437.76 59.29 L 437.60 54.23 L 437.51 54.83 L 431.51 49.72 L 416.27 44.57 L 409.38 43.68 L 391.70 41.93 L 388.93 36.68 L 388.34 36.74 L 354.97 38.60 L 354.67 40.66 L 354.65 43.40 L 351.79 46.20 L 351.60 41.00 L 321.03 43.82 L 319.28 45.68 L 311.97 48.47 L 302.99 50.45 L 299.02 52.94 L 297.73 54.05 L 287.84 52.44 L 284.39 53.02 L 268.95 52.00 L 268.88 46.87 L 268.80 41.72 L 265.77 44.54 L 235.83 47.32 L 235.62 48.15 L 235.42 47.50 L 235.39 49.91 L 225.59 44.75 L 222.22 47.08 L 220.45 49.37 L 200.90 52.15 L 194.98 54.91 L 180.34 54.69 L 180.22 53.01 L 180.10 52.06 L 180.09 46.92 L 179.93 41.79 L 174.15 36.55 L 161.91 38.88 L 161.68 38.63 L 134.22 40.95 L 130.29 42.29 L 118.52 37.06 L 110.12 39.69 L 97.11 40.92 L 94.09 35.66 L 70.00 30.35 Z" fill="#d0d0d0" fill-opacity="0.5" stroke="none"/>
<polyline fill="none" stroke="#111" stroke-width="1.2" points="70.00,30.35 94.09,35.66 97.11,40.92 110.12,39.69 118.52,37.06 130.29,42.29 134.22,40.95 161.68,38.63 161.91,38.88 174.15,36.55 179.93,41.79 180.09,46.92 180.10,52.06 180.22,53.01 180.34,54.69 194.98,54.91 200.90,52.15 220.45,49.37 222.22,47.08 225.59,44.75 235.39,49.91 235.42,47.50 235.62,48.15 235.83,47.32 265.77,44.54 268.80,41.72 268.88,46.87 268.95,52.00 284.39,53.02 287.84,52.44 297.73,54.05 299.02,52.94 302.99,50.45 311.97,48.47 319.28,45.68 321.03,43.82 351.60,41.00 351.79,46.20 354.65,43.40 354.67,40.66 354.97,38.60 388.34,36.74 388.93,36.68 391.70,41.93 409.38,43.68 416.27,44.57 431.51,49.72 437.51,54.83 437.60,54.23 437.76,59.29 440.51,56.58 440.73,54.22 459.72,59.28 462.34,57.08 483.47,55.34 498.99,53.30 499.03,50.70 517.46,50.28 520.03,55.39 520.08,53.50 523.50,58.58 535.90,63.59 536.02,63.36 536.09,62.11 545.17,59.39 545.29,59.94 547.88,57.22 585.37,62.25 590.79,61.01 612.47,59.61 627.90,57.42 630.61,54.68 630.72,54.82 630.79,53.18 633.66,50.41 646.30,55.52 649.73,60.57 650.29,65.53 650.33,70.37 650.47,68.87 651.41,73.78 670.78,72.17 713.38,69.51 714.09,66.84 719.52,64.14 759.47,63.64 759.98,60.80 760.17,60.20 823.86,58.67 826.83,55.93 864.32,53.04 906.72,53.84 946.09,52.66 949.84,51.14 952.04,52.79 967.87,50.01 993.21,48.55 1016.83,45.61 1017.02,46.93 1017.04,52.07 1019.99,49.29 1035.73,46.49 1057.16,51.63 1102.91,49.87 1143.34,47.07 1170.00,44.12"/>
<text x="620.0" y="588" text-anchor="middle" font-family="sans-serif" font-size="12" fill="#333">UTC time</text>
<text x="15" y="287.5" transform="rotate(-90 15,287.5)" text-anchor="middle" font-family="sans-serif" font-size="12" fill="#333">Capital</text>
</svg>