<svg xmlns="http://www.w3.org/2000/svg" width="1200" height="600" viewBox="0 0 1200 600">
<desc>Equity curve with drawdown fill</desc>
<text x="600.0" y="18.0" text-anchor="middle" font-family="sans-serif" font-size="14">Portfolio 2012</text>
<rect x="70" y="25" width="1100" height="525" fill="white" stroke="#ccc" />
<line x1="70" y1="550.00" x2="1170" y2="550.00" stroke="#eee"/>
<text x="62" y="554.0" text-anchor="end" font-family="sans-serif" font-size="11" fill="#555">0.00</text>
<line x1="70" y1="445.00" x2="1170" y2="445.00" stroke="#eee"/>
<text x="62" y="449.0" text-anchor="end" font-family="sans-serif" font-size="11" fill="#555">20844</text>
<line x1="70" y1="340.00" x2="1170" y2="340.00" stroke="#eee"/>
<text x="62" y="344.0" text-anchor="end" font-family="sans-serif" font-size="11" fill="#555">41689</text>
<line x1="70" y1="235.00" x2="1170" y2="235.00" stroke="#eee"/>
<text x="62" y="239.0" text-anchor="end" font-family="sans-serif" font-size="11" fill="#555">62533</text>
<line x1="70" y1="130.00" x2="1170" y2="130.00" stroke="#eee"/>
<text x="62" y="134.0" text-anchor="end" font-family="sans-serif" font-size="11" fill="#555">83378</text>
<line x1="70" y1="25.00" x2="1170" y2="25.00" stroke="#eee"/>
<text x="62" y="29.0" text-anchor="end" font-family="sans-serif" font-size="11" fill="#555">104222</text>
<line x1="154.27" y1="25" x2="154.27" y2="550" stroke="#f2f2f2"/>
<text x="154.27" y="566" text-anchor="middle" font-family="sans-serif" font-size="11" fill="#555">Feb</text>
<line x1="243.15" y1="25" x2="243.15" y2="550" stroke="#f2f2f2"/>
<text x="243.15" y="566" text-anchor="middle" font-family="sans-serif" font-size="11" fill="#555">Mar</text>
<line x1="338.17" y1="25" x2="338.17" y2="550" stroke="#f2f2f2"/>
<text x="338.17" y="566" text-anchor="middle" font-family="sans-serif" font-size="11" fill="#555">Apr</text>
<line x1="430.11" y1="25" x2="430.11" y2="550" stroke="#f2f2f2"/>
<text x="430.11" y="566" text-anchor="middle" font-family="sans-serif" font-size="11" fill="#555">May</text>
<line x1="525.13" y1="25" x2="525.13" y2="550" stroke="#f2f2f2"/>
<text x="525.13" y="566" text-anchor="middle" font-family="sans-serif" font-size="11" fill="#555">Jun</text>
<line x1="617.07" y1="25" x2="617.07" y2="550" stroke="#f2f2f2"/>
<text x="617.07" y="566" text-anchor="middle" font-family="sans-serif" font-size="11" fill="#555">Jul</text>
<line x1="712.08" y1="25" x2="712.08" y2="550" stroke="#f2f2f2"/>
<text x="712.08" y="566" text-anchor="middle" font-family="sans-serif" font-size="11" fill="#555">Aug</text>
<line x1="807.10" y1="25" x2="807.10" y2="550" stroke="#f2f2f2"/>
<text x="807.10" y="566" text-anchor="middle" font-family="sans-serif" font-size="11" fill="#555">Sep</text>
<line x1="899.04" y1="25" x2="899.04" y2="550" stroke="#f2f2f2"/>
<text x="899.04" y="566" text-anchor="middle" font-family="sans-serif" font-size="11" fill="#555">Oct</text>
<line x1="994.06" y1="25" x2="994.06" y2="550" stroke="#f2f2f2"/>
<text x="994.06" y="566" text-anchor="middle" font-family="sans-serif" font-size="11" fill="#555">Nov</text>
<line x1="1086.00" y1="25" x2="1086.00" y2="550" stroke="#f2f2f2"/>
<text x="1086.00" y="566" text-anchor="middle" font-family="sans-serif" font-size="11" fill="#555">Dec</text>
<line x1="70" y1="550" x2="1170" y2="550" stroke="#888"/>
<line x1="70" y1="25" x2="70" y2="550" stroke="#888"/>
<path d="M 97.85 37.02 L 97.99 37.02 L 98.00 37.02 L 98.07 37.02 L 110.19 37.02 L 112.67 37.02 L 118.79 37.02 L 128.17 37.02 L 135.05 37.02 L 135.24 37.02 L 137.18 37.02 L 141.06 37.02 L 153.18 37.02 L 155.54 37.02 L 155.95 37.02 L 158.92 37.02 L 159.41 37.02 L 162.19 37.02 L 162.26 37.02 L 171.72 37.02 L 173.68 37.02 L 173.68 38.61 L 171.72 40.63 L 162.26 41.65 L 162.19 44.08 L 159.41 45.98 L 158.92 47.27 L 155.95 49.82 L 155.54 50.32 L 153.18 45.16 L 141.06 46.77 L 137.18 49.35 L 135.24 51.62 L 135.05 50.42 L 128.17 52.83 L 118.79 47.71 L 112.67 48.34 L 110.19 51.11 L 98.07 51.52 L 98.00 52.47 L 97.99 47.39 L 97.85 42.26 Z" fill="#d0d0d0" fill-opacity="0.5" stroke="none"/>
<path d="M 183.53 35.17 L 183.53 35.84 Z" fill="#d0d0d0" fill-opacity="0.5" stroke="none"/>
<path d="M 202.41 30.77 L 212.50 30.77 L 215.93 30.77 L 226.73 30.77 L 226.73 31.01 L 215.93 33.01 L 212.50 35.88 L 202.41 36.08 Z" fill="#d0d0d0" fill-opacity="0.5" stroke="none"/>
<path d="M 300.46 25.00 L 308.73 25.00 L 311.91 25.00 L 321.50 25.00 L 346.76 25.00 L 346.91 25.00 L 351.91 25.00 L 367.51 25.00 L 376.98 25.00 L 386.66 25.00 L 392.31 25.00 L 394.98 25.00 L 432.12 25.00 L 434.56 25.00 L 448.44 25.00 L 448.49 25.00 L 474.92 25.00 L 498.77 25.00 L 499.53 25.00 L 501.76 25.00 L 505.51 25.00 L 518.20 25.00 L 524.12 25.00 L 526.97 25.00 L 527.03 25.00 L 536.28 25.00 L 538.56 25.00 L 542.24 25.00 L 542.76 25.00 L 555.71 25.00 L 557.89 25.00 L 560.79 25.00 L 564.08 25.00 L 577.21 25.00 L 578.50 25.00 L 582.41 25.00 L 585.62 25.00 L 588.45 25.00 L 609.03 25.00 L 609.12 25.00 L 611.45 25.00 L 611.56 25.00 L 611.67 25.00 L 612.69 25.00 L 612.80 25.00 L 612.91 25.00 L 630.99 25.00 L 631.19 25.00 L 631.31 25.00 L 634.23 25.00 L 655.82 25.00 L 664.91 25.00 L 668.11 25.00 L 674.15 25.00 L 676.99 25.00 L 695.17 25.00 L 695.24 25.00 L 695.36 25.00 L 695.49 25.00 L 695.57 25.00 L 698.45 25.00 L 698.59 25.00 L 699.22 25.00 L 714.54 25.00 L 716.88 25.00 L 716.89 25.00 L 716.92 25.00 L 717.03 25.00 L 717.09 25.00 L 717.29 25.00 L 719.81 25.00 L 720.19 25.00 L 727.53 25.00 L 741.72 25.00 L 756.51 25.00 L 760.11 25.00 L 763.17 25.00 L 784.68 25.00 L 796.22 25.00 L 803.05 25.00 L 805.43 25.00 L 821.05 25.00 L 827.35 25.00 L 841.97 25.00 L 846.12 25.00 L 846.35 25.00 L 848.56 25.00 L 848.92 25.00 L 858.03 25.00 L 866.39 25.00 L 869.72 25.00 L 891.90 25.00 L 924.75 25.00 L 925.73 25.00 L 970.77 25.00 L 1013.07 25.00 L 1014.06 25.00 L 1055.94 25.00 L 1103.36 25.00 L 1122.05 25.00 L 1128.13 25.00 L 1167.69 25.00 L 1170.00 25.00 L 1170.00 56.48 L 1167.69 57.23 L 1128.13 59.51 L 1122.05 59.65 L 1103.36 61.08 L 1055.94 59.84 L 1014.06 60.50 L 1013.07 55.45 L 970.77 55.26 L 925.73 56.89 L 924.75 59.03 L 891.90 59.12 L 869.72 58.90 L 866.39 60.35 L 858.03 62.24 L 848.92 64.19 L 848.56 65.25 L 846.35 65.27 L 846.12 60.26 L 841.97 62.96 L 827.35 65.65 L 821.05 63.92 L 805.43 65.76 L 803.05 67.60 L 796.22 69.07 L 784.68 70.58 L 763.17 72.75 L 760.11 73.73 L 756.51 75.03 L 741.72 76.15 L 727.53 77.85 L 720.19 79.74 L 719.81 74.88 L 717.29 74.43 L 717.09 74.25 L 717.03 76.25 L 716.92 76.25 L 716.89 78.86 L 716.88 81.57 L 714.54 76.73 L 699.22 79.32 L 698.59 74.46 L 698.45 77.08 L 695.57 79.66 L 695.49 81.86 L 695.36 82.30 L 695.24 77.48 L 695.17 72.63 L 676.99 67.70 L 674.15 68.49 L 668.11 69.01 L 664.91 64.04 L 655.82 65.24 L 634.23 65.67 L 631.31 67.03 L 631.19 64.59 L 630.99 59.61 L 612.91 54.54 L 612.80 55.41 L 612.69 55.51 L 611.67 50.39 L 611.56 45.23 L 611.45 45.51 L 609.12 40.30 L 609.03 41.55 L 588.45 36.30 L 585.62 35.74 L 582.41 38.30 L 578.50 38.77 L 577.21 38.71 L 564.08 37.48 L 560.79 37.81 L 557.89 40.35 L 555.71 42.92 L 542.76 43.51 L 542.24 41.54 L 538.56 44.06 L 536.28 38.84 L 527.03 38.57 L 526.97 39.90 L 524.12 34.64 L 518.20 37.19 L 505.51 36.29 L 501.76 35.21 L 499.53 38.05 L 498.77 32.77 L 474.92 35.14 L 448.49 35.11 L 448.44 37.19 L 434.56 31.90 L 432.12 33.15 L 394.98 35.55 L 392.31 37.31 L 386.66 39.63 L 376.98 38.48 L 367.51 38.96 L 351.91 41.10 L 346.91 39.72 L 346.76 38.66 L 321.50 33.38 L 311.91 28.05 L 308.73 27.46 L 300.46 30.36 Z" fill="#d0d0d0" fill-opacity="0.5" stroke="none"/>
<polyline fill="none" stroke="#111" stroke-width="1.2" points="70.00,45.89 72.68,43.95 76.39,42.97 91.36,40.15 94.95,39.59 97.37,37.02 97.85,42.26 97.99,47.39 98.00,52.47 98.07,51.52 110.19,51.11 112.67,48.34 118.79,47.71 128.17,52.83 135.05,50.42 135.24,51.62 137.18,49.35 141.06,46.77 153.18,45.16 155.54,50.32 155.95,49.82 158.92,47.27 159.41,45.98 162.19,44.08 162.26,41.65 171.72,40.63 173.68,38.61 174.43,36.16 174.78,35.17 183.53,35.84 190.96,33.65 198.87,30.77 202.41,36.08 212.50,35.88 215.93,33.01 226.73,31.01 242.02,28.13 269.42,25.79 281.78,25.25 290.95,25.00 300.46,30.36 308.73,27.46 311.91,28.05 321.50,33.38 346.76,38.66 346.91,39.72 351.91,41.10 367.51,38.96 376.98,38.48 386.66,39.63 392.31,37.31 394.98,35.55 432.12,33.15 434.56,31.90 448.44,37.19 448.49,35.11 474.92,35.14 498.77,32.77 499.53,38.05 501.76,35.21 505.51,36.29 518.20,37.19 524.12,34.64 526.97,39.90 527.03,38.57 536.28,38.84 538.56,44.06 542.24,41.54 542.76,43.51 555.71,42.92 557.89,40.35 560.79,37.81 564.08,37.48 577.21,38.71 578.50,38.77 582.41,38.30 585.62,35.74 588.45,36.30 609.03,41.55 609.12,40.30 611.45,45.51 611.56,45.23 611.67,50.39 612.69,55.51 612.80,55.41 612.91,54.54 630.99,59.61 631.19,64.59 631.31,67.03 634.23,65.67 655.82,65.24 664.91,64.04 668.11,69.01 674.15,68.49 676.99,67.70 695.17,72.63 695.24,77.48 695.36,82.30 695.49,81.86 695.57,79.66 698.45,77.08 698.59,74.46 699.22,79.32 714.54,76.73 716.88,81.57 716.89,78.86 716.92,76.25 717.03,76.25 717.09,74.25 717.29,74.43 719.81,74.88 720.19,79.74 727.53,77.85 741.72,76.15 756.51,75.03 760.11,73.73 763.17,72.75 784.68,70.58 796.22,69.07 803.05,67.60 805.43,65.76 821.05,63.92 827.35,65.65 841.97,62.96 846.12,60.26 846.35,65.27 848.56,65.25 848.92,64.19 858.03,62.24 866.39,60.35 869.72,58.90 891.90,59.12 924.75,59.03 925.73,56.89 970.77,55.26 1013.07,55.45 1014.06,60.50 1055.94,59.84 1103.36,61.08 1122.05,59.65 1128.13,59.51 1167.69,57.23 1170.00,56.48"/>
<text x="620.0" y="588" text-anchor="middle" font-family="sans-serif" font-size="12" fill="#333">UTC time</text>
<text x="15" y="287.5" transform="rotate(-90 15,287.5)" text-anchor="middle" font-family="sans-serif" font-size="12" fill="#333">Capital</text>
</svg>