<svg xmlns="http://www.w3.org/2000/svg" width="1200" height="600" viewBox="0 0 1200 600">
<desc>Equity curve with drawdown fill</desc>
<text x="600.0" y="18.0" text-anchor="middle" font-family="sans-serif" font-size="14">Portfolio 2022</text>
<rect x="70" y="25" width="1100" height="525" fill="white" stroke="#ccc" />
<line x1="70" y1="550.00" x2="1170" y2="550.00" stroke="#eee"/>
<text x="62" y="554.0" text-anchor="end" font-family="sans-serif" font-size="11" fill="#555">0.00</text>
<line x1="70" y1="445.00" x2="1170" y2="445.00" stroke="#eee"/>
<text x="62" y="449.0" text-anchor="end" font-family="sans-serif" font-size="11" fill="#555">21429</text>
<line x1="70" y1="340.00" x2="1170" y2="340.00" stroke="#eee"/>
<text x="62" y="344.0" text-anchor="end" font-family="sans-serif" font-size="11" fill="#555">42859</text>
<line x1="70" y1="235.00" x2="1170" y2="235.00" stroke="#eee"/>
<text x="62" y="239.0" text-anchor="end" font-family="sans-serif" font-size="11" fill="#555">64288</text>
<line x1="70" y1="130.00" x2="1170" y2="130.00" stroke="#eee"/>
<text x="62" y="134.0" text-anchor="end" font-family="sans-serif" font-size="11" fill="#555">85717</text>
<line x1="70" y1="25.00" x2="1170" y2="25.00" stroke="#eee"/>
<text x="62" y="29.0" text-anchor="end" font-family="sans-serif" font-size="11" fill="#555">107147</text>
<line x1="157.17" y1="25" x2="157.17" y2="550" stroke="#f2f2f2"/>
<text x="157.17" y="566" text-anchor="middle" font-family="sans-serif" font-size="11" fill="#555">Mar</text>
<line x1="263.92" y1="25" x2="263.92" y2="550" stroke="#f2f2f2"/>
<text x="263.92" y="566" text-anchor="middle" font-family="sans-serif" font-size="11" fill="#555">Apr</text>
<line x1="367.22" y1="25" x2="367.22" y2="550" stroke="#f2f2f2"/>
<text x="367.22" y="566" text-anchor="middle" font-family="sans-serif" font-size="11" fill="#555">May</text>
<line x1="473.97" y1="25" x2="473.97" y2="550" stroke="#f2f2f2"/>
<text x="473.97" y="566" text-anchor="middle" font-family="sans-serif" font-size="11" fill="#555">Jun</text>
<line x1="577.28" y1="25" x2="577.28" y2="550" stroke="#f2f2f2"/>
<text x="577.28" y="566" text-anchor="middle" font-family="sans-serif" font-size="11" fill="#555">Jul</text>
<line x1="684.02" y1="25" x2="684.02" y2="550" stroke="#f2f2f2"/>
<text x="684.02" y="566" text-anchor="middle" font-family="sans-serif" font-size="11" fill="#555">Aug</text>
<line x1="790.77" y1="25" x2="790.77" y2="550" stroke="#f2f2f2"/>
<text x="790.77" y="566" text-anchor="middle" font-family="sans-serif" font-size="11" fill="#555">Sep</text>
<line x1="894.08" y1="25" x2="894.08" y2="550" stroke="#f2f2f2"/>
<text x="894.08" y="566" text-anchor="middle" font-family="sans-serif" font-size="11" fill="#555">Oct</text>
<line x1="1000.83" y1="25" x2="1000.83" y2="550" stroke="#f2f2f2"/>
<text x="1000.83" y="566" text-anchor="middle" font-family="sans-serif" font-size="11" fill="#555">Nov</text>
<line x1="1104.13" y1="25" x2="1104.13" y2="550" stroke="#f2f2f2"/>
<text x="1104.13" y="566" text-anchor="middle" font-family="sans-serif" font-size="11" fill="#555">Dec</text>
<line x1="70" y1="550" x2="1170" y2="550" stroke="#888"/>
<line x1="70" y1="25" x2="70" y2="550" stroke="#888"/>
<path d="M 70.00 60.02 L 93.83 60.02 L 94.07 60.02 L 97.90 60.02 L 116.45 60.02 L 140.63 60.02 L 141.40 60.02 L 141.40 61.27 L 140.63 63.70 L 116.45 64.23 L 97.90 66.10 L 94.07 67.91 L 93.83 62.93 L 70.00 65.04 Z" fill="#d0d0d0" fill-opacity="0.5" stroke="none"/>
<path d="M 177.84 45.98 L 177.84 46.75 Z" fill="#d0d0d0" fill-opacity="0.5" stroke="none"/>
<path d="M 179.64 45.66 L 179.66 45.66 L 179.80 45.66 L 179.80 45.67 L 179.66 48.12 L 179.64 50.82 Z" fill="#d0d0d0" fill-opacity="0.5" stroke="none"/>
<path d="M 183.91 45.31 L 183.91 45.99 Z" fill="#d0d0d0" fill-opacity="0.5" stroke="none"/>
<path d="M 187.10 41.48 L 190.32 41.48 L 193.26 41.48 L 193.26 43.16 L 190.32 45.70 L 187.10 46.69 Z" fill="#d0d0d0" fill-opacity="0.5" stroke="none"/>
<path d="M 255.51 37.92 L 307.79 37.92 L 310.73 37.92 L 310.82 37.92 L 311.00 37.92 L 330.91 37.92 L 333.99 37.92 L 347.60 37.92 L 354.68 37.92 L 355.54 37.92 L 358.19 37.92 L 362.31 37.92 L 371.84 37.92 L 376.16 37.92 L 382.87 37.92 L 385.60 37.92 L 397.33 37.92 L 397.33 40.64 L 385.60 41.46 L 382.87 43.69 L 376.16 45.87 L 371.84 44.14 L 362.31 46.40 L 358.19 48.23 L 355.54 50.71 L 354.68 50.47 L 347.60 52.65 L 333.99 55.35 L 330.91 50.22 L 311.00 51.86 L 310.82 52.64 L 310.73 47.55 L 307.79 42.34 L 255.51 43.18 Z" fill="#d0d0d0" fill-opacity="0.5" stroke="none"/>
<path d="M 406.28 37.87 L 407.56 37.87 L 431.51 37.87 L 444.45 37.87 L 447.57 37.87 L 472.27 37.87 L 476.23 37.87 L 476.23 38.75 L 472.27 38.76 L 447.57 41.00 L 444.45 43.76 L 431.51 38.51 L 407.56 40.64 L 406.28 43.13 Z" fill="#d0d0d0" fill-opacity="0.5" stroke="none"/>
<path d="M 524.18 30.96 L 527.71 30.96 L 528.23 30.96 L 528.31 30.96 L 531.31 30.96 L 548.43 30.96 L 551.09 30.96 L 551.89 30.96 L 569.01 30.96 L 576.24 30.96 L 579.54 30.96 L 592.32 30.96 L 592.49 30.96 L 592.57 30.96 L 592.66 30.96 L 602.59 30.96 L 602.66 30.96 L 616.97 30.96 L 620.53 30.96 L 620.53 30.96 L 620.86 30.96 L 620.95 30.96 L 624.11 30.96 L 624.34 30.96 L 638.13 30.96 L 640.48 30.96 L 640.64 30.96 L 640.71 30.96 L 644.39 30.96 L 648.05 30.96 L 648.17 30.96 L 648.25 30.96 L 650.93 30.96 L 651.73 30.96 L 661.47 30.96 L 664.95 30.96 L 675.84 30.96 L 688.72 30.96 L 693.24 30.96 L 696.73 30.96 L 699.73 30.96 L 699.89 30.96 L 716.95 30.96 L 717.23 30.96 L 744.79 30.96 L 758.81 30.96 L 761.90 30.96 L 761.99 30.96 L 762.15 30.96 L 765.52 30.96 L 765.54 30.96 L 772.18 30.96 L 772.48 30.96 L 782.16 30.96 L 789.66 30.96 L 792.96 30.96 L 793.05 30.96 L 796.86 30.96 L 805.77 30.96 L 810.18 30.96 L 813.75 30.96 L 816.91 30.96 L 816.95 30.96 L 817.08 30.96 L 818.68 30.96 L 820.15 30.96 L 829.80 30.96 L 829.87 30.96 L 830.05 30.96 L 834.03 30.96 L 834.22 30.96 L 834.32 30.96 L 834.50 30.96 L 844.81 30.96 L 858.19 30.96 L 860.66 30.96 L 860.76 30.96 L 862.37 30.96 L 864.39 30.96 L 864.49 30.96 L 865.44 30.96 L 867.71 30.96 L 868.84 30.96 L 877.14 30.96 L 877.16 30.96 L 878.07 30.96 L 878.48 30.96 L 878.86 30.96 L 879.25 30.96 L 882.90 30.96 L 885.33 30.96 L 885.86 30.96 L 885.89 30.96 L 886.02 30.96 L 886.34 30.96 L 886.34 30.96 L 886.46 30.96 L 889.36 30.96 L 889.63 30.96 L 892.57 30.96 L 892.93 30.96 L 902.59 30.96 L 903.15 30.96 L 905.63 30.96 L 906.42 30.96 L 910.00 30.96 L 913.38 30.96 L 916.68 30.96 L 916.74 30.96 L 927.29 30.96 L 930.98 30.96 L 932.68 30.96 L 932.68 31.70 L 930.98 34.48 L 927.29 36.52 L 916.74 39.27 L 916.68 41.92 L 913.38 44.65 L 910.00 47.05 L 906.42 49.76 L 905.63 51.53 L 903.15 52.57 L 902.59 55.00 L 892.93 55.22 L 892.57 57.59 L 889.63 60.23 L 889.36 59.31 L 886.46 61.95 L 886.34 61.08 L 886.34 56.03 L 886.02 50.95 L 885.89 53.61 L 885.86 56.02 L 885.33 58.66 L 882.90 61.29 L 879.25 63.05 L 878.86 65.18 L 878.48 67.66 L 878.07 70.06 L 877.16 65.07 L 877.14 67.74 L 868.84 62.71 L 867.71 63.80 L 865.44 65.65 L 864.49 65.74 L 864.39 68.27 L 862.37 70.85 L 860.76 73.42 L 860.66 75.91 L 858.19 78.45 L 844.81 80.72 L 834.50 79.84 L 834.32 74.95 L 834.22 74.90 L 834.03 73.02 L 830.05 75.75 L 829.87 70.82 L 829.80 65.90 L 820.15 60.86 L 818.68 62.71 L 817.08 62.40 L 816.95 64.72 L 816.91 67.04 L 813.75 62.01 L 810.18 61.73 L 805.77 63.43 L 796.86 66.05 L 793.05 61.01 L 792.96 63.52 L 789.66 58.46 L 782.16 58.95 L 772.48 60.68 L 772.18 62.45 L 765.54 65.07 L 765.52 67.39 L 762.15 62.36 L 761.99 63.92 L 761.90 64.87 L 758.81 59.82 L 744.79 59.01 L 717.23 58.93 L 716.95 53.82 L 699.89 56.67 L 699.73 56.66 L 696.73 59.32 L 693.24 61.43 L 688.72 59.54 L 675.84 61.91 L 664.95 60.75 L 661.47 61.15 L 651.73 61.57 L 650.93 56.49 L 648.25 55.95 L 648.17 58.05 L 648.05 58.15 L 644.39 60.80 L 640.71 55.72 L 640.64 56.31 L 640.48 54.91 L 638.13 49.76 L 624.34 50.92 L 624.11 53.61 L 620.95 56.28 L 620.86 57.60 L 620.53 52.48 L 620.53 55.16 L 616.97 57.83 L 602.66 59.01 L 602.59 60.80 L 592.66 63.44 L 592.57 64.42 L 592.49 59.38 L 592.32 54.34 L 579.54 49.19 L 576.24 48.86 L 569.01 43.66 L 551.89 45.46 L 551.09 47.99 L 548.43 42.78 L 531.31 44.67 L 528.31 47.10 L 528.23 41.88 L 527.71 41.56 L 524.18 36.28 Z" fill="#d0d0d0" fill-opacity="0.5" stroke="none"/>
<path d="M 937.74 26.97 L 937.79 26.97 L 937.97 26.97 L 940.87 26.97 L 940.90 26.97 L 951.51 26.97 L 957.89 26.97 L 961.28 26.97 L 964.90 26.97 L 964.95 26.97 L 965.14 26.97 L 965.31 26.97 L 965.31 27.57 L 965.14 30.01 L 964.95 32.44 L 964.90 35.22 L 961.28 37.06 L 957.89 39.23 L 951.51 39.66 L 940.90 41.03 L 940.87 43.53 L 937.97 38.26 L 937.79 37.62 L 937.74 32.35 Z" fill="#d0d0d0" fill-opacity="0.5" stroke="none"/>
<path d="M 978.80 25.00 L 978.88 25.00 L 979.05 25.00 L 981.48 25.00 L 982.59 25.00 L 985.55 25.00 L 988.37 25.00 L 1003.05 25.00 L 1007.06 25.00 L 1013.03 25.00 L 1013.12 25.00 L 1013.18 25.00 L 1013.23 25.00 L 1013.38 25.00 L 1022.86 25.00 L 1027.13 25.00 L 1030.55 25.00 L 1033.29 25.00 L 1033.75 25.00 L 1033.92 25.00 L 1034.11 25.00 L 1034.15 25.00 L 1036.56 25.00 L 1047.46 25.00 L 1051.35 25.00 L 1051.69 25.00 L 1051.72 25.00 L 1078.75 25.00 L 1095.09 25.00 L 1096.15 25.00 L 1099.26 25.00 L 1102.96 25.00 L 1103.02 25.00 L 1103.38 25.00 L 1103.66 25.00 L 1109.60 25.00 L 1110.15 25.00 L 1120.38 25.00 L 1126.67 25.00 L 1147.54 25.00 L 1147.65 25.00 L 1154.37 25.00 L 1154.44 25.00 L 1154.96 25.00 L 1170.00 25.00 L 1170.00 71.34 L 1154.96 73.94 L 1154.44 71.85 L 1154.37 72.93 L 1147.65 67.96 L 1147.54 68.36 L 1126.67 68.83 L 1120.38 70.82 L 1110.15 72.07 L 1109.60 71.13 L 1103.66 66.14 L 1103.38 63.71 L 1103.02 65.95 L 1102.96 67.72 L 1099.26 62.70 L 1096.15 64.57 L 1095.09 59.51 L 1078.75 54.40 L 1051.72 56.20 L 1051.69 58.40 L 1051.35 53.29 L 1047.46 54.86 L 1036.56 57.37 L 1034.15 59.41 L 1034.11 60.69 L 1033.92 58.07 L 1033.75 57.96 L 1033.29 60.87 L 1030.55 62.22 L 1027.13 64.85 L 1022.86 59.80 L 1013.38 59.68 L 1013.23 61.37 L 1013.18 56.35 L 1013.12 51.21 L 1013.03 51.71 L 1007.06 46.52 L 1003.05 41.28 L 988.37 41.65 L 985.55 43.81 L 982.59 45.85 L 981.48 46.22 L 979.05 40.98 L 978.88 35.68 L 978.80 30.39 Z" fill="#d0d0d0" fill-opacity="0.5" stroke="none"/>
<polyline fill="none" stroke="#111" stroke-width="1.2" points="70.00,65.04 93.83,62.93 94.07,67.91 97.90,66.10 116.45,64.23 140.63,63.70 141.40,61.27 142.26,58.82 142.68,56.72 153.66,56.70 155.31,54.01 159.64,51.87 162.98,49.14 167.65,47.90 169.54,45.98 177.84,46.75 179.38,45.66 179.64,50.82 179.66,48.12 179.80,45.67 182.54,45.31 183.91,45.99 186.24,44.25 186.74,41.48 187.10,46.69 190.32,45.70 193.26,43.16 203.37,40.70 251.55,37.92 255.51,43.18 307.79,42.34 310.73,47.55 310.82,52.64 311.00,51.86 330.91,50.22 333.99,55.35 347.60,52.65 354.68,50.47 355.54,50.71 358.19,48.23 362.31,46.40 371.84,44.14 376.16,45.87 382.87,43.69 385.60,41.46 397.33,40.64 403.59,37.87 406.28,43.13 407.56,40.64 431.51,38.51 444.45,43.76 447.57,41.00 472.27,38.76 476.23,38.75 503.49,37.19 503.62,35.03 503.74,33.45 506.92,30.96 524.18,36.28 527.71,41.56 528.23,41.88 528.31,47.10 531.31,44.67 548.43,42.78 551.09,47.99 551.89,45.46 569.01,43.66 576.24,48.86 579.54,49.19 592.32,54.34 592.49,59.38 592.57,64.42 592.66,63.44 602.59,60.80 602.66,59.01 616.97,57.83 620.53,55.16 620.53,52.48 620.86,57.60 620.95,56.28 624.11,53.61 624.34,50.92 638.13,49.76 640.48,54.91 640.64,56.31 640.71,55.72 644.39,60.80 648.05,58.15 648.17,58.05 648.25,55.95 650.93,56.49 651.73,61.57 661.47,61.15 664.95,60.75 675.84,61.91 688.72,59.54 693.24,61.43 696.73,59.32 699.73,56.66 699.89,56.67 716.95,53.82 717.23,58.93 744.79,59.01 758.81,59.82 761.90,64.87 761.99,63.92 762.15,62.36 765.52,67.39 765.54,65.07 772.18,62.45 772.48,60.68 782.16,58.95 789.66,58.46 792.96,63.52 793.05,61.01 796.86,66.05 805.77,63.43 810.18,61.73 813.75,62.01 816.91,67.04 816.95,64.72 817.08,62.40 818.68,62.71 820.15,60.86 829.80,65.90 829.87,70.82 830.05,75.75 834.03,73.02 834.22,74.90 834.32,74.95 834.50,79.84 844.81,80.72 858.19,78.45 860.66,75.91 860.76,73.42 862.37,70.85 864.39,68.27 864.49,65.74 865.44,65.65 867.71,63.80 868.84,62.71 877.14,67.74 877.16,65.07 878.07,70.06 878.48,67.66 878.86,65.18 879.25,63.05 882.90,61.29 885.33,58.66 885.86,56.02 885.89,53.61 886.02,50.95 886.34,56.03 886.34,61.08 886.46,61.95 889.36,59.31 889.63,60.23 892.57,57.59 892.93,55.22 902.59,55.00 903.15,52.57 905.63,51.53 906.42,49.76 910.00,47.05 913.38,44.65 916.68,41.92 916.74,39.27 927.29,36.52 930.98,34.48 932.68,31.70 937.34,28.72 937.52,26.97 937.74,32.35 937.79,37.62 937.97,38.26 940.87,43.53 940.90,41.03 951.51,39.66 957.89,39.23 961.28,37.06 964.90,35.22 964.95,32.44 965.14,30.01 965.31,27.57 965.43,26.49 975.44,25.00 978.80,30.39 978.88,35.68 979.05,40.98 981.48,46.22 982.59,45.85 985.55,43.81 988.37,41.65 1003.05,41.28 1007.06,46.52 1013.03,51.71 1013.12,51.21 1013.18,56.35 1013.23,61.37 1013.38,59.68 1022.86,59.80 1027.13,64.85 1030.55,62.22 1033.29,60.87 1033.75,57.96 1033.92,58.07 1034.11,60.69 1034.15,59.41 1036.56,57.37 1047.46,54.86 1051.35,53.29 1051.69,58.40 1051.72,56.20 1078.75,54.40 1095.09,59.51 1096.15,64.57 1099.26,62.70 1102.96,67.72 1103.02,65.95 1103.38,63.71 1103.66,66.14 1109.60,71.13 1110.15,72.07 1120.38,70.82 1126.67,68.83 1147.54,68.36 1147.65,67.96 1154.37,72.93 1154.44,71.85 1154.96,73.94 1170.00,71.34"/>
<text x="620.0" y="588" text-anchor="middle" font-family="sans-serif" font-size="12" fill="#333">UTC time</text>
<text x="15" y="287.5" transform="rotate(-90 15,287.5)" text-anchor="middle" font-family="sans-serif" font-size="12" fill="#333">Capital</text>
</svg>