<svg xmlns="http://www.w3.org/2000/svg" width="1200" height="600" viewBox="0 0 1200 600">
<desc>Equity curve with drawdown fill</desc>
<text x="600.0" y="18.0" text-anchor="middle" font-family="sans-serif" font-size="14">Portfolio 2025</text>
<rect x="70" y="25" width="1100" height="525" fill="white" stroke="#ccc" />
<line x1="70" y1="550.00" x2="1170" y2="550.00" stroke="#eee"/>
<text x="62" y="554.0" text-anchor="end" font-family="sans-serif" font-size="11" fill="#555">0.00</text>
<line x1="70" y1="445.00" x2="1170" y2="445.00" stroke="#eee"/>
<text x="62" y="449.0" text-anchor="end" font-family="sans-serif" font-size="11" fill="#555">21578</text>
<line x1="70" y1="340.00" x2="1170" y2="340.00" stroke="#eee"/>
<text x="62" y="344.0" text-anchor="end" font-family="sans-serif" font-size="11" fill="#555">43157</text>
<line x1="70" y1="235.00" x2="1170" y2="235.00" stroke="#eee"/>
<text x="62" y="239.0" text-anchor="end" font-family="sans-serif" font-size="11" fill="#555">64735</text>
<line x1="70" y1="130.00" x2="1170" y2="130.00" stroke="#eee"/>
<text x="62" y="134.0" text-anchor="end" font-family="sans-serif" font-size="11" fill="#555">86313</text>
<line x1="70" y1="25.00" x2="1170" y2="25.00" stroke="#eee"/>
<text x="62" y="29.0" text-anchor="end" font-family="sans-serif" font-size="11" fill="#555">107892</text>
<line x1="258.67" y1="25" x2="258.67" y2="550" stroke="#f2f2f2"/>
<text x="258.67" y="566" text-anchor="middle" font-family="sans-serif" font-size="11" fill="#555">Feb</text>
<line x1="437.51" y1="25" x2="437.51" y2="550" stroke="#f2f2f2"/>
<text x="437.51" y="566" text-anchor="middle" font-family="sans-serif" font-size="11" fill="#555">Mar</text>
<line x1="635.52" y1="25" x2="635.52" y2="550" stroke="#f2f2f2"/>
<text x="635.52" y="566" text-anchor="middle" font-family="sans-serif" font-size="11" fill="#555">Apr</text>
<line x1="827.13" y1="25" x2="827.13" y2="550" stroke="#f2f2f2"/>
<text x="827.13" y="566" text-anchor="middle" font-family="sans-serif" font-size="11" fill="#555">May</text>
<line x1="1025.14" y1="25" x2="1025.14" y2="550" stroke="#f2f2f2"/>
<text x="1025.14" y="566" text-anchor="middle" font-family="sans-serif" font-size="11" fill="#555">Jun</text>
<line x1="70" y1="550" x2="1170" y2="550" stroke="#888"/>
<line x1="70" y1="25" x2="70" y2="550" stroke="#888"/>
<path d="M 71.32 61.79 L 95.06 61.79 L 95.62 61.79 L 95.84 61.79 L 96.20 61.79 L 96.40 61.79 L 108.50 61.79 L 108.50 62.35 L 96.40 64.46 L 96.20 67.09 L 95.84 69.37 L 95.62 69.45 L 95.06 64.47 L 71.32 66.81 Z" fill="#d0d0d0" fill-opacity="0.5" stroke="none"/>
<path d="M 185.93 43.31 L 186.12 43.31 L 186.66 43.31 L 188.66 43.31 L 210.12 43.31 L 233.16 43.31 L 249.67 43.31 L 256.98 43.31 L 257.25 43.31 L 271.38 43.31 L 271.38 44.17 L 257.25 43.60 L 256.98 46.05 L 249.67 47.03 L 233.16 48.90 L 210.12 48.84 L 188.66 50.67 L 186.66 45.49 L 186.12 48.21 L 185.93 48.51 Z" fill="#d0d0d0" fill-opacity="0.5" stroke="none"/>
<path d="M 275.62 38.87 L 279.28 38.87 L 301.22 38.87 L 301.22 39.36 L 279.28 42.11 L 275.62 44.11 Z" fill="#d0d0d0" fill-opacity="0.5" stroke="none"/>
<path d="M 333.70 34.08 L 339.42 34.08 L 340.30 34.08 L 428.83 34.08 L 462.00 34.08 L 465.34 34.08 L 466.97 34.08 L 472.98 34.08 L 474.47 34.08 L 503.51 34.08 L 523.51 34.08 L 554.58 34.08 L 1033.92 34.08 L 1054.70 34.08 L 1054.70 34.44 L 1033.92 34.36 L 554.58 36.58 L 523.51 38.48 L 503.51 39.90 L 474.47 41.89 L 472.98 44.07 L 466.97 46.81 L 465.34 41.59 L 462.00 42.58 L 428.83 37.32 L 340.30 34.25 L 339.42 37.01 L 333.70 39.38 Z" fill="#d0d0d0" fill-opacity="0.5" stroke="none"/>
<path d="M 1170.00 25.00 L 1170.00 30.37 Z" fill="#d0d0d0" fill-opacity="0.5" stroke="none"/>
<polyline fill="none" stroke="#111" stroke-width="1.2" points="70.00,61.79 71.32,66.81 95.06,64.47 95.62,69.45 95.84,69.37 96.20,67.09 96.40,64.46 108.50,62.35 121.74,59.71 121.84,57.58 122.16,55.21 139.83,52.53 153.68,49.84 154.61,48.66 185.62,45.94 185.67,43.31 185.93,48.51 186.12,48.21 186.66,45.49 188.66,50.67 210.12,48.84 233.16,48.90 249.67,47.03 256.98,46.05 257.25,43.60 271.38,44.17 271.46,41.44 271.56,38.87 275.62,44.11 279.28,42.11 301.22,39.36 301.61,36.87 332.52,34.08 333.70,39.38 339.42,37.01 340.30,34.25 428.83,37.32 462.00,42.58 465.34,41.59 466.97,46.81 472.98,44.07 474.47,41.89 503.51,39.90 523.51,38.48 554.58,36.58 1033.92,34.36 1054.70,34.44 1092.66,31.87 1098.33,29.62 1102.26,27.01 1131.55,25.00 1170.00,30.37"/>
<text x="620.0" y="588" text-anchor="middle" font-family="sans-serif" font-size="12" fill="#333">UTC time</text>
<text x="15" y="287.5" transform="rotate(-90 15,287.5)" text-anchor="middle" font-family="sans-serif" font-size="12" fill="#333">Capital</text>
</svg>