<svg xmlns="http://www.w3.org/2000/svg" width="1200" height="600" viewBox="0 0 1200 600">
<desc>Equity curve with drawdown fill</desc>
<text x="600.0" y="18.0" text-anchor="middle" font-family="sans-serif" font-size="14">Portfolio 2006</text>
<rect x="70" y="25" width="1100" height="525" fill="white" stroke="#ccc" />
<line x1="70" y1="550.00" x2="1170" y2="550.00" stroke="#eee"/>
<text x="62" y="554.0" text-anchor="end" font-family="sans-serif" font-size="11" fill="#555">0.00</text>
<line x1="70" y1="445.00" x2="1170" y2="445.00" stroke="#eee"/>
<text x="62" y="449.0" text-anchor="end" font-family="sans-serif" font-size="11" fill="#555">20422</text>
<line x1="70" y1="340.00" x2="1170" y2="340.00" stroke="#eee"/>
<text x="62" y="344.0" text-anchor="end" font-family="sans-serif" font-size="11" fill="#555">40843</text>
<line x1="70" y1="235.00" x2="1170" y2="235.00" stroke="#eee"/>
<text x="62" y="239.0" text-anchor="end" font-family="sans-serif" font-size="11" fill="#555">61265</text>
<line x1="70" y1="130.00" x2="1170" y2="130.00" stroke="#eee"/>
<text x="62" y="134.0" text-anchor="end" font-family="sans-serif" font-size="11" fill="#555">81686</text>
<line x1="70" y1="25.00" x2="1170" y2="25.00" stroke="#eee"/>
<text x="62" y="29.0" text-anchor="end" font-family="sans-serif" font-size="11" fill="#555">102108</text>
<line x1="158.36" y1="25" x2="158.36" y2="550" stroke="#f2f2f2"/>
<text x="158.36" y="566" text-anchor="middle" font-family="sans-serif" font-size="11" fill="#555">Feb</text>
<line x1="245.59" y1="25" x2="245.59" y2="550" stroke="#f2f2f2"/>
<text x="245.59" y="566" text-anchor="middle" font-family="sans-serif" font-size="11" fill="#555">Mar</text>
<line x1="342.17" y1="25" x2="342.17" y2="550" stroke="#f2f2f2"/>
<text x="342.17" y="566" text-anchor="middle" font-family="sans-serif" font-size="11" fill="#555">Apr</text>
<line x1="435.63" y1="25" x2="435.63" y2="550" stroke="#f2f2f2"/>
<text x="435.63" y="566" text-anchor="middle" font-family="sans-serif" font-size="11" fill="#555">May</text>
<line x1="532.21" y1="25" x2="532.21" y2="550" stroke="#f2f2f2"/>
<text x="532.21" y="566" text-anchor="middle" font-family="sans-serif" font-size="11" fill="#555">Jun</text>
<line x1="625.67" y1="25" x2="625.67" y2="550" stroke="#f2f2f2"/>
<text x="625.67" y="566" text-anchor="middle" font-family="sans-serif" font-size="11" fill="#555">Jul</text>
<line x1="722.24" y1="25" x2="722.24" y2="550" stroke="#f2f2f2"/>
<text x="722.24" y="566" text-anchor="middle" font-family="sans-serif" font-size="11" fill="#555">Aug</text>
<line x1="818.82" y1="25" x2="818.82" y2="550" stroke="#f2f2f2"/>
<text x="818.82" y="566" text-anchor="middle" font-family="sans-serif" font-size="11" fill="#555">Sep</text>
<line x1="912.28" y1="25" x2="912.28" y2="550" stroke="#f2f2f2"/>
<text x="912.28" y="566" text-anchor="middle" font-family="sans-serif" font-size="11" fill="#555">Oct</text>
<line x1="1008.86" y1="25" x2="1008.86" y2="550" stroke="#f2f2f2"/>
<text x="1008.86" y="566" text-anchor="middle" font-family="sans-serif" font-size="11" fill="#555">Nov</text>
<line x1="1102.32" y1="25" x2="1102.32" y2="550" stroke="#f2f2f2"/>
<text x="1102.32" y="566" text-anchor="middle" font-family="sans-serif" font-size="11" fill="#555">Dec</text>
<line x1="70" y1="550" x2="1170" y2="550" stroke="#888"/>
<line x1="70" y1="25" x2="70" y2="550" stroke="#888"/>
<path d="M 70.00 35.84 L 73.50 35.84 L 79.16 35.84 L 87.93 35.84 L 97.88 35.84 L 98.06 35.84 L 98.11 35.84 L 101.55 35.84 L 113.18 35.84 L 115.92 35.84 L 130.41 35.84 L 130.45 35.84 L 130.45 38.26 L 130.41 40.69 L 115.92 43.50 L 113.18 45.75 L 101.55 47.65 L 98.11 47.31 L 98.06 48.48 L 97.88 47.33 L 87.93 42.12 L 79.16 44.31 L 73.50 39.09 L 70.00 41.10 Z" fill="#d0d0d0" fill-opacity="0.5" stroke="none"/>
<path d="M 144.89 35.61 L 166.36 35.61 L 166.50 35.61 L 188.46 35.61 L 188.55 35.61 L 210.28 35.61 L 247.82 35.61 L 250.77 35.61 L 275.57 35.61 L 288.18 35.61 L 294.21 35.61 L 316.14 35.61 L 319.28 35.61 L 330.84 35.61 L 332.37 35.61 L 337.94 35.61 L 350.60 35.61 L 353.27 35.61 L 359.53 35.61 L 359.72 35.61 L 359.75 35.61 L 362.96 35.61 L 378.29 35.61 L 393.83 35.61 L 394.11 35.61 L 400.52 35.61 L 405.67 35.61 L 425.12 35.61 L 425.29 35.61 L 425.36 35.61 L 425.36 37.79 L 425.29 38.91 L 425.12 38.07 L 405.67 40.89 L 400.52 43.53 L 394.11 45.77 L 393.83 47.59 L 378.29 45.96 L 362.96 45.71 L 359.75 44.26 L 359.72 46.31 L 359.53 44.53 L 353.27 47.32 L 350.60 42.13 L 337.94 42.25 L 332.37 41.43 L 330.84 39.48 L 319.28 40.20 L 316.14 41.25 L 294.21 35.99 L 288.18 35.74 L 275.57 35.89 L 250.77 37.61 L 247.82 37.59 L 210.28 40.13 L 188.55 40.59 L 188.46 41.80 L 166.50 36.55 L 166.36 38.08 L 144.89 40.87 Z" fill="#d0d0d0" fill-opacity="0.5" stroke="none"/>
<path d="M 447.09 32.53 L 447.09 34.96 Z" fill="#d0d0d0" fill-opacity="0.5" stroke="none"/>
<path d="M 462.62 32.10 L 462.62 32.82 Z" fill="#d0d0d0" fill-opacity="0.5" stroke="none"/>
<path d="M 480.47 25.00 L 484.16 25.00 L 487.48 25.00 L 487.60 25.00 L 487.64 25.00 L 487.72 25.00 L 490.53 25.00 L 492.86 25.00 L 503.27 25.00 L 507.27 25.00 L 508.44 25.00 L 509.31 25.00 L 509.36 25.00 L 509.54 25.00 L 515.44 25.00 L 526.54 25.00 L 528.03 25.00 L 534.44 25.00 L 537.07 25.00 L 537.27 25.00 L 555.77 25.00 L 555.83 25.00 L 555.93 25.00 L 558.92 25.00 L 574.70 25.00 L 588.68 25.00 L 602.50 25.00 L 611.27 25.00 L 621.95 25.00 L 622.13 25.00 L 624.36 25.00 L 646.11 25.00 L 676.87 25.00 L 680.69 25.00 L 683.71 25.00 L 683.82 25.00 L 702.71 25.00 L 706.16 25.00 L 711.72 25.00 L 724.63 25.00 L 730.31 25.00 L 733.34 25.00 L 733.45 25.00 L 733.63 25.00 L 746.55 25.00 L 747.22 25.00 L 752.31 25.00 L 755.22 25.00 L 767.84 25.00 L 770.92 25.00 L 795.22 25.00 L 817.77 25.00 L 820.64 25.00 L 821.09 25.00 L 839.13 25.00 L 883.44 25.00 L 929.62 25.00 L 995.22 25.00 L 1007.88 25.00 L 1016.88 25.00 L 1035.99 25.00 L 1060.75 25.00 L 1081.61 25.00 L 1081.75 25.00 L 1081.87 25.00 L 1101.34 25.00 L 1104.26 25.00 L 1126.08 25.00 L 1126.31 25.00 L 1126.43 25.00 L 1126.63 25.00 L 1141.55 25.00 L 1147.68 25.00 L 1147.97 25.00 L 1159.65 25.00 L 1170.00 25.00 L 1170.00 65.27 L 1159.65 66.54 L 1147.97 66.58 L 1147.68 67.77 L 1141.55 70.44 L 1126.63 70.86 L 1126.43 67.06 L 1126.31 67.17 L 1126.08 62.20 L 1104.26 57.17 L 1101.34 59.91 L 1081.87 62.05 L 1081.75 57.01 L 1081.61 56.09 L 1060.75 58.83 L 1035.99 59.16 L 1016.88 60.60 L 1007.88 55.54 L 995.22 52.70 L 929.62 52.27 L 883.44 55.02 L 839.13 55.91 L 821.09 57.40 L 820.64 58.67 L 817.77 60.94 L 795.22 62.35 L 770.92 63.94 L 767.84 60.94 L 755.22 58.74 L 752.31 59.76 L 747.22 54.69 L 746.55 54.89 L 733.63 57.63 L 733.45 55.60 L 733.34 55.98 L 730.31 58.71 L 724.63 59.72 L 711.72 57.77 L 706.16 55.48 L 702.71 55.30 L 683.82 53.77 L 683.71 54.10 L 680.69 48.98 L 676.87 51.50 L 646.11 46.35 L 624.36 49.28 L 622.13 51.27 L 621.95 48.60 L 611.27 43.42 L 602.50 43.11 L 588.68 44.94 L 574.70 45.85 L 558.92 44.91 L 555.93 46.94 L 555.83 41.75 L 555.77 43.83 L 537.27 38.60 L 537.07 39.03 L 534.44 42.01 L 528.03 38.72 L 526.54 39.32 L 515.44 41.21 L 509.54 35.97 L 509.36 36.35 L 509.31 38.16 L 508.44 32.88 L 507.27 35.23 L 503.27 34.38 L 492.86 33.54 L 490.53 35.50 L 487.72 37.60 L 487.64 38.78 L 487.60 33.50 L 487.48 33.35 L 484.16 28.02 L 480.47 30.37 Z" fill="#d0d0d0" fill-opacity="0.5" stroke="none"/>
<polyline fill="none" stroke="#111" stroke-width="1.2" points="70.00,41.10 73.50,39.09 79.16,44.31 87.93,42.12 97.88,47.33 98.06,48.48 98.11,47.31 101.55,47.65 113.18,45.75 115.92,43.50 130.41,40.69 130.45,38.26 144.58,35.61 144.89,40.87 166.36,38.08 166.50,36.55 188.46,41.80 188.55,40.59 210.28,40.13 247.82,37.59 250.77,37.61 275.57,35.89 288.18,35.74 294.21,35.99 316.14,41.25 319.28,40.20 330.84,39.48 332.37,41.43 337.94,42.25 350.60,42.13 353.27,47.32 359.53,44.53 359.72,46.31 359.75,44.26 362.96,45.71 378.29,45.96 393.83,47.59 394.11,45.77 400.52,43.53 405.67,40.89 425.12,38.07 425.29,38.91 425.36,37.79 428.37,34.95 437.51,34.33 440.23,32.53 447.09,34.96 449.84,32.10 462.62,32.82 468.56,30.21 471.31,27.91 471.65,25.00 480.47,30.37 484.16,28.02 487.48,33.35 487.60,33.50 487.64,38.78 487.72,37.60 490.53,35.50 492.86,33.54 503.27,34.38 507.27,35.23 508.44,32.88 509.31,38.16 509.36,36.35 509.54,35.97 515.44,41.21 526.54,39.32 528.03,38.72 534.44,42.01 537.07,39.03 537.27,38.60 555.77,43.83 555.83,41.75 555.93,46.94 558.92,44.91 574.70,45.85 588.68,44.94 602.50,43.11 611.27,43.42 621.95,48.60 622.13,51.27 624.36,49.28 646.11,46.35 676.87,51.50 680.69,48.98 683.71,54.10 683.82,53.77 702.71,55.30 706.16,55.48 711.72,57.77 724.63,59.72 730.31,58.71 733.34,55.98 733.45,55.60 733.63,57.63 746.55,54.89 747.22,54.69 752.31,59.76 755.22,58.74 767.84,60.94 770.92,63.94 795.22,62.35 817.77,60.94 820.64,58.67 821.09,57.40 839.13,55.91 883.44,55.02 929.62,52.27 995.22,52.70 1007.88,55.54 1016.88,60.60 1035.99,59.16 1060.75,58.83 1081.61,56.09 1081.75,57.01 1081.87,62.05 1101.34,59.91 1104.26,57.17 1126.08,62.20 1126.31,67.17 1126.43,67.06 1126.63,70.86 1141.55,70.44 1147.68,67.77 1147.97,66.58 1159.65,66.54 1170.00,65.27"/>
<text x="620.0" y="588" text-anchor="middle" font-family="sans-serif" font-size="12" fill="#333">UTC time</text>
<text x="15" y="287.5" transform="rotate(-90 15,287.5)" text-anchor="middle" font-family="sans-serif" font-size="12" fill="#333">Capital</text>
</svg>