<svg xmlns="http://www.w3.org/2000/svg" width="1200" height="600" viewBox="0 0 1200 600">
<desc>Equity curve with drawdown fill</desc>
<text x="600.0" y="18.0" text-anchor="middle" font-family="sans-serif" font-size="14">Portfolio 2024</text>
<rect x="70" y="25" width="1100" height="525" fill="white" stroke="#ccc" />
<line x1="70" y1="550.00" x2="1170" y2="550.00" stroke="#eee"/>
<text x="62" y="554.0" text-anchor="end" font-family="sans-serif" font-size="11" fill="#555">0.00</text>
<line x1="70" y1="445.00" x2="1170" y2="445.00" stroke="#eee"/>
<text x="62" y="449.0" text-anchor="end" font-family="sans-serif" font-size="11" fill="#555">21176</text>
<line x1="70" y1="340.00" x2="1170" y2="340.00" stroke="#eee"/>
<text x="62" y="344.0" text-anchor="end" font-family="sans-serif" font-size="11" fill="#555">42352</text>
<line x1="70" y1="235.00" x2="1170" y2="235.00" stroke="#eee"/>
<text x="62" y="239.0" text-anchor="end" font-family="sans-serif" font-size="11" fill="#555">63527</text>
<line x1="70" y1="130.00" x2="1170" y2="130.00" stroke="#eee"/>
<text x="62" y="134.0" text-anchor="end" font-family="sans-serif" font-size="11" fill="#555">84703</text>
<line x1="70" y1="25.00" x2="1170" y2="25.00" stroke="#eee"/>
<text x="62" y="29.0" text-anchor="end" font-family="sans-serif" font-size="11" fill="#555">105879</text>
<line x1="150.60" y1="25" x2="150.60" y2="550" stroke="#f2f2f2"/>
<text x="150.60" y="566" text-anchor="middle" font-family="sans-serif" font-size="11" fill="#555">Feb</text>
<line x1="239.21" y1="25" x2="239.21" y2="550" stroke="#f2f2f2"/>
<text x="239.21" y="566" text-anchor="middle" font-family="sans-serif" font-size="11" fill="#555">Mar</text>
<line x1="333.94" y1="25" x2="333.94" y2="550" stroke="#f2f2f2"/>
<text x="333.94" y="566" text-anchor="middle" font-family="sans-serif" font-size="11" fill="#555">Apr</text>
<line x1="425.62" y1="25" x2="425.62" y2="550" stroke="#f2f2f2"/>
<text x="425.62" y="566" text-anchor="middle" font-family="sans-serif" font-size="11" fill="#555">May</text>
<line x1="520.35" y1="25" x2="520.35" y2="550" stroke="#f2f2f2"/>
<text x="520.35" y="566" text-anchor="middle" font-family="sans-serif" font-size="11" fill="#555">Jun</text>
<line x1="612.02" y1="25" x2="612.02" y2="550" stroke="#f2f2f2"/>
<text x="612.02" y="566" text-anchor="middle" font-family="sans-serif" font-size="11" fill="#555">Jul</text>
<line x1="706.75" y1="25" x2="706.75" y2="550" stroke="#f2f2f2"/>
<text x="706.75" y="566" text-anchor="middle" font-family="sans-serif" font-size="11" fill="#555">Aug</text>
<line x1="801.48" y1="25" x2="801.48" y2="550" stroke="#f2f2f2"/>
<text x="801.48" y="566" text-anchor="middle" font-family="sans-serif" font-size="11" fill="#555">Sep</text>
<line x1="893.15" y1="25" x2="893.15" y2="550" stroke="#f2f2f2"/>
<text x="893.15" y="566" text-anchor="middle" font-family="sans-serif" font-size="11" fill="#555">Oct</text>
<line x1="987.88" y1="25" x2="987.88" y2="550" stroke="#f2f2f2"/>
<text x="987.88" y="566" text-anchor="middle" font-family="sans-serif" font-size="11" fill="#555">Nov</text>
<line x1="1079.56" y1="25" x2="1079.56" y2="550" stroke="#f2f2f2"/>
<text x="1079.56" y="566" text-anchor="middle" font-family="sans-serif" font-size="11" fill="#555">Dec</text>
<line x1="70" y1="550" x2="1170" y2="550" stroke="#888"/>
<line x1="70" y1="25" x2="70" y2="550" stroke="#888"/>
<path d="M 155.53 48.72 L 155.65 48.72 L 155.65 50.52 L 155.53 49.90 Z" fill="#d0d0d0" fill-opacity="0.5" stroke="none"/>
<path d="M 363.36 37.67 L 363.53 37.67 L 402.25 37.67 L 433.45 37.67 L 540.40 37.67 L 540.40 38.36 L 433.45 41.14 L 402.25 43.90 L 363.53 46.63 L 363.36 42.86 Z" fill="#d0d0d0" fill-opacity="0.5" stroke="none"/>
<path d="M 751.37 25.41 L 776.04 25.41 L 793.58 25.41 L 818.48 25.41 L 818.48 27.85 L 793.58 30.68 L 776.04 31.36 L 751.37 25.99 Z" fill="#d0d0d0" fill-opacity="0.5" stroke="none"/>
<path d="M 869.88 25.00 L 904.04 25.00 L 943.87 25.00 L 1003.26 25.00 L 1003.32 25.00 L 1003.44 25.00 L 1003.55 25.00 L 1003.62 25.00 L 1003.67 25.00 L 1004.04 25.00 L 1004.69 25.00 L 1011.54 25.00 L 1026.48 25.00 L 1044.14 25.00 L 1051.23 25.00 L 1053.22 25.00 L 1053.25 25.00 L 1053.38 25.00 L 1061.09 25.00 L 1064.31 25.00 L 1068.39 25.00 L 1069.15 25.00 L 1084.54 25.00 L 1090.70 25.00 L 1096.57 25.00 L 1133.95 25.00 L 1170.00 25.00 L 1170.00 41.31 L 1133.95 42.61 L 1096.57 37.34 L 1090.70 39.83 L 1084.54 42.34 L 1069.15 44.81 L 1068.39 46.40 L 1064.31 49.12 L 1061.09 43.92 L 1053.38 46.66 L 1053.25 48.77 L 1053.22 51.50 L 1051.23 46.32 L 1044.14 44.69 L 1026.48 45.76 L 1011.54 40.53 L 1004.69 40.64 L 1004.04 42.89 L 1003.67 44.05 L 1003.62 45.30 L 1003.55 40.07 L 1003.44 34.84 L 1003.32 29.51 L 1003.26 30.55 L 943.87 25.17 L 904.04 27.53 L 869.88 30.38 Z" fill="#d0d0d0" fill-opacity="0.5" stroke="none"/>
<polyline fill="none" stroke="#111" stroke-width="1.2" points="70.00,51.44 155.37,48.72 155.53,49.90 155.65,50.52 188.98,47.79 189.08,46.51 215.82,43.76 262.36,41.25 299.73,40.45 363.16,37.67 363.36,42.86 363.53,46.63 402.25,43.90 433.45,41.14 540.40,38.36 555.68,35.56 644.30,32.76 711.53,29.94 720.10,27.99 720.74,25.41 751.37,25.99 776.04,31.36 793.58,30.68 818.48,27.85 855.85,25.00 869.88,30.38 904.04,27.53 943.87,25.17 1003.26,30.55 1003.32,29.51 1003.44,34.84 1003.55,40.07 1003.62,45.30 1003.67,44.05 1004.04,42.89 1004.69,40.64 1011.54,40.53 1026.48,45.76 1044.14,44.69 1051.23,46.32 1053.22,51.50 1053.25,48.77 1053.38,46.66 1061.09,43.92 1064.31,49.12 1068.39,46.40 1069.15,44.81 1084.54,42.34 1090.70,39.83 1096.57,37.34 1133.95,42.61 1170.00,41.31"/>
<text x="620.0" y="588" text-anchor="middle" font-family="sans-serif" font-size="12" fill="#333">UTC time</text>
<text x="15" y="287.5" transform="rotate(-90 15,287.5)" text-anchor="middle" font-family="sans-serif" font-size="12" fill="#333">Capital</text>
</svg>