<svg xmlns="http://www.w3.org/2000/svg" width="1200" height="600" viewBox="0 0 1200 600">
<desc>Equity curve with drawdown fill</desc>
<text x="600.0" y="18.0" text-anchor="middle" font-family="sans-serif" font-size="14">Portfolio 2020</text>
<rect x="70" y="25" width="1100" height="525" fill="white" stroke="#ccc" />
<line x1="70" y1="550.00" x2="1170" y2="550.00" stroke="#eee"/>
<text x="62" y="554.0" text-anchor="end" font-family="sans-serif" font-size="11" fill="#555">0.00</text>
<line x1="70" y1="445.00" x2="1170" y2="445.00" stroke="#eee"/>
<text x="62" y="449.0" text-anchor="end" font-family="sans-serif" font-size="11" fill="#555">38559</text>
<line x1="70" y1="340.00" x2="1170" y2="340.00" stroke="#eee"/>
<text x="62" y="344.0" text-anchor="end" font-family="sans-serif" font-size="11" fill="#555">77118</text>
<line x1="70" y1="235.00" x2="1170" y2="235.00" stroke="#eee"/>
<text x="62" y="239.0" text-anchor="end" font-family="sans-serif" font-size="11" fill="#555">115676</text>
<line x1="70" y1="130.00" x2="1170" y2="130.00" stroke="#eee"/>
<text x="62" y="134.0" text-anchor="end" font-family="sans-serif" font-size="11" fill="#555">154235</text>
<line x1="70" y1="25.00" x2="1170" y2="25.00" stroke="#eee"/>
<text x="62" y="29.0" text-anchor="end" font-family="sans-serif" font-size="11" fill="#555">192794</text>
<line x1="100.06" y1="25" x2="100.06" y2="550" stroke="#f2f2f2"/>
<text x="100.06" y="566" text-anchor="middle" font-family="sans-serif" font-size="11" fill="#555">Mar</text>
<line x1="211.86" y1="25" x2="211.86" y2="550" stroke="#f2f2f2"/>
<text x="211.86" y="566" text-anchor="middle" font-family="sans-serif" font-size="11" fill="#555">Apr</text>
<line x1="320.05" y1="25" x2="320.05" y2="550" stroke="#f2f2f2"/>
<text x="320.05" y="566" text-anchor="middle" font-family="sans-serif" font-size="11" fill="#555">May</text>
<line x1="431.84" y1="25" x2="431.84" y2="550" stroke="#f2f2f2"/>
<text x="431.84" y="566" text-anchor="middle" font-family="sans-serif" font-size="11" fill="#555">Jun</text>
<line x1="540.03" y1="25" x2="540.03" y2="550" stroke="#f2f2f2"/>
<text x="540.03" y="566" text-anchor="middle" font-family="sans-serif" font-size="11" fill="#555">Jul</text>
<line x1="651.82" y1="25" x2="651.82" y2="550" stroke="#f2f2f2"/>
<text x="651.82" y="566" text-anchor="middle" font-family="sans-serif" font-size="11" fill="#555">Aug</text>
<line x1="763.62" y1="25" x2="763.62" y2="550" stroke="#f2f2f2"/>
<text x="763.62" y="566" text-anchor="middle" font-family="sans-serif" font-size="11" fill="#555">Sep</text>
<line x1="871.81" y1="25" x2="871.81" y2="550" stroke="#f2f2f2"/>
<text x="871.81" y="566" text-anchor="middle" font-family="sans-serif" font-size="11" fill="#555">Oct</text>
<line x1="983.60" y1="25" x2="983.60" y2="550" stroke="#f2f2f2"/>
<text x="983.60" y="566" text-anchor="middle" font-family="sans-serif" font-size="11" fill="#555">Nov</text>
<line x1="1091.79" y1="25" x2="1091.79" y2="550" stroke="#f2f2f2"/>
<text x="1091.79" y="566" text-anchor="middle" font-family="sans-serif" font-size="11" fill="#555">Dec</text>
<line x1="70" y1="550" x2="1170" y2="550" stroke="#888"/>
<line x1="70" y1="25" x2="70" y2="550" stroke="#888"/>
<path d="M 70.00 54.48 L 70.00 54.59 Z" fill="#d0d0d0" fill-opacity="0.5" stroke="none"/>
<path d="M 119.71 52.45 L 119.71 52.71 Z" fill="#d0d0d0" fill-opacity="0.5" stroke="none"/>
<path d="M 138.52 28.96 L 140.07 28.96 L 141.86 28.96 L 141.90 28.96 L 142.03 28.96 L 142.15 28.96 L 142.26 28.96 L 142.32 28.96 L 142.48 28.96 L 145.36 28.96 L 145.77 28.96 L 154.29 28.96 L 156.20 28.96 L 159.78 28.96 L 159.95 28.96 L 162.61 28.96 L 163.40 28.96 L 163.70 28.96 L 163.85 28.96 L 164.22 28.96 L 164.84 28.96 L 164.84 28.96 L 165.18 28.96 L 165.18 30.35 L 164.84 32.97 L 164.84 35.93 L 164.22 30.60 L 163.85 33.23 L 163.70 33.51 L 163.40 34.65 L 162.61 29.31 L 159.95 31.21 L 159.78 33.71 L 156.20 34.32 L 154.29 36.05 L 145.77 38.45 L 145.36 40.24 L 142.48 40.86 L 142.32 43.35 L 142.26 46.10 L 142.15 48.37 L 142.03 43.23 L 141.90 38.03 L 141.86 40.44 L 140.07 35.16 L 138.52 34.30 Z" fill="#d0d0d0" fill-opacity="0.5" stroke="none"/>
<path d="M 166.20 27.69 L 166.22 27.69 L 166.53 27.69 L 166.80 27.69 L 166.88 27.69 L 166.92 27.69 L 167.38 27.69 L 167.52 27.69 L 167.53 27.69 L 167.58 27.69 L 167.79 27.69 L 168.86 27.69 L 169.78 27.69 L 170.10 27.69 L 170.61 27.69 L 170.98 27.69 L 180.66 27.69 L 181.24 27.69 L 181.27 27.69 L 181.42 27.69 L 181.51 27.69 L 181.67 27.69 L 181.93 27.69 L 183.18 27.69 L 184.04 27.69 L 184.56 27.69 L 185.09 27.69 L 189.30 27.69 L 190.37 27.69 L 192.57 27.69 L 194.98 27.69 L 195.89 27.69 L 196.24 27.69 L 196.33 27.69 L 196.57 27.69 L 208.54 27.69 L 210.12 27.69 L 210.82 27.69 L 213.33 27.69 L 217.65 27.69 L 234.81 27.69 L 242.88 27.69 L 264.47 27.69 L 268.46 27.69 L 293.58 27.69 L 294.08 27.69 L 310.88 27.69 L 318.84 27.69 L 318.96 27.69 L 335.99 27.69 L 383.83 27.69 L 394.61 27.69 L 415.61 27.69 L 444.66 27.69 L 444.99 27.69 L 445.11 27.69 L 448.30 27.69 L 463.03 27.69 L 467.25 27.69 L 470.82 27.69 L 474.01 27.69 L 485.27 27.69 L 488.25 27.69 L 498.84 27.69 L 499.16 27.69 L 542.42 27.69 L 617.51 27.69 L 646.84 27.69 L 650.89 27.69 L 664.78 27.69 L 675.79 27.69 L 719.38 27.69 L 719.65 27.69 L 747.71 27.69 L 747.76 27.69 L 747.89 27.69 L 747.89 30.24 L 747.76 32.30 L 747.71 35.07 L 719.65 37.89 L 719.38 39.61 L 675.79 41.28 L 664.78 40.25 L 650.89 41.89 L 646.84 43.71 L 617.51 45.69 L 542.42 47.03 L 499.16 46.80 L 498.84 49.18 L 488.25 51.23 L 485.27 53.32 L 474.01 54.92 L 470.82 54.39 L 467.25 53.53 L 463.03 54.33 L 448.30 53.38 L 445.11 56.10 L 444.99 56.38 L 444.66 51.25 L 415.61 52.80 L 394.61 51.33 L 383.83 52.97 L 335.99 55.35 L 318.96 50.21 L 318.84 50.51 L 310.88 45.32 L 294.08 46.55 L 293.58 48.17 L 268.46 48.87 L 264.47 49.38 L 242.88 50.05 L 234.81 44.85 L 217.65 46.06 L 213.33 46.70 L 210.82 47.02 L 210.12 49.12 L 208.54 50.64 L 196.57 53.12 L 196.33 54.12 L 196.24 55.49 L 195.89 50.36 L 194.98 52.27 L 192.57 54.41 L 190.37 56.55 L 189.30 58.73 L 185.09 59.63 L 184.56 61.74 L 184.04 63.80 L 183.18 58.75 L 181.93 53.65 L 181.67 54.81 L 181.51 57.08 L 181.42 59.62 L 181.27 61.92 L 181.24 56.91 L 180.66 51.78 L 170.98 53.16 L 170.61 55.84 L 170.10 58.29 L 169.78 53.18 L 168.86 48.03 L 167.79 42.82 L 167.58 45.18 L 167.53 47.10 L 167.52 41.93 L 167.38 36.72 L 166.92 31.40 L 166.88 34.20 L 166.80 36.03 L 166.53 35.66 L 166.22 30.33 L 166.20 33.05 Z" fill="#d0d0d0" fill-opacity="0.5" stroke="none"/>
<path d="M 837.38 25.04 L 837.38 27.69 Z" fill="#d0d0d0" fill-opacity="0.5" stroke="none"/>
<path d="M 994.90 25.00 L 1014.87 25.00 L 1065.26 25.00 L 1094.29 25.00 L 1165.54 25.00 L 1170.00 25.00 L 1170.00 34.50 L 1165.54 35.09 L 1094.29 35.52 L 1065.26 36.18 L 1014.87 30.86 L 994.90 25.49 Z" fill="#d0d0d0" fill-opacity="0.5" stroke="none"/>
<polyline fill="none" stroke="#111" stroke-width="1.2" points="70.00,54.59 106.28,52.45 119.71,52.71 128.79,50.60 129.19,47.69 129.19,44.70 130.00,42.19 130.35,40.39 130.98,38.71 131.00,35.92 132.69,34.09 133.38,31.79 134.97,28.96 138.52,34.30 140.07,35.16 141.86,40.44 141.90,38.03 142.03,43.23 142.15,48.37 142.26,46.10 142.32,43.35 142.48,40.86 145.36,40.24 145.77,38.45 154.29,36.05 156.20,34.32 159.78,33.71 159.95,31.21 162.61,29.31 163.40,34.65 163.70,33.51 163.85,33.23 164.22,30.60 164.84,35.93 164.84,32.97 165.18,30.35 165.98,27.69 166.20,33.05 166.22,30.33 166.53,35.66 166.80,36.03 166.88,34.20 166.92,31.40 167.38,36.72 167.52,41.93 167.53,47.10 167.58,45.18 167.79,42.82 168.86,48.03 169.78,53.18 170.10,58.29 170.61,55.84 170.98,53.16 180.66,51.78 181.24,56.91 181.27,61.92 181.42,59.62 181.51,57.08 181.67,54.81 181.93,53.65 183.18,58.75 184.04,63.80 184.56,61.74 185.09,59.63 189.30,58.73 190.37,56.55 192.57,54.41 194.98,52.27 195.89,50.36 196.24,55.49 196.33,54.12 196.57,53.12 208.54,50.64 210.12,49.12 210.82,47.02 213.33,46.70 217.65,46.06 234.81,44.85 242.88,50.05 264.47,49.38 268.46,48.87 293.58,48.17 294.08,46.55 310.88,45.32 318.84,50.51 318.96,50.21 335.99,55.35 383.83,52.97 394.61,51.33 415.61,52.80 444.66,51.25 444.99,56.38 445.11,56.10 448.30,53.38 463.03,54.33 467.25,53.53 470.82,54.39 474.01,54.92 485.27,53.32 488.25,51.23 498.84,49.18 499.16,46.80 542.42,47.03 617.51,45.69 646.84,43.71 650.89,41.89 664.78,40.25 675.79,41.28 719.38,39.61 719.65,37.89 747.71,35.07 747.76,32.30 747.89,30.24 794.56,27.62 798.12,25.04 837.38,27.69 994.58,25.00 994.90,25.49 1014.87,30.86 1065.26,36.18 1094.29,35.52 1165.54,35.09 1170.00,34.50"/>
<text x="620.0" y="588" text-anchor="middle" font-family="sans-serif" font-size="12" fill="#333">UTC time</text>
<text x="15" y="287.5" transform="rotate(-90 15,287.5)" text-anchor="middle" font-family="sans-serif" font-size="12" fill="#333">Capital</text>
</svg>