<svg xmlns="http://www.w3.org/2000/svg" width="1200" height="600" viewBox="0 0 1200 600">
<desc>Equity curve with drawdown fill</desc>
<text x="600.0" y="18.0" text-anchor="middle" font-family="sans-serif" font-size="14">Portfolio 2022</text>
<rect x="70" y="25" width="1100" height="525" fill="white" stroke="#ccc" />
<line x1="70" y1="550.00" x2="1170" y2="550.00" stroke="#eee"/>
<text x="62" y="554.0" text-anchor="end" font-family="sans-serif" font-size="11" fill="#555">0.00</text>
<line x1="70" y1="445.00" x2="1170" y2="445.00" stroke="#eee"/>
<text x="62" y="449.0" text-anchor="end" font-family="sans-serif" font-size="11" fill="#555">40542</text>
<line x1="70" y1="340.00" x2="1170" y2="340.00" stroke="#eee"/>
<text x="62" y="344.0" text-anchor="end" font-family="sans-serif" font-size="11" fill="#555">81084</text>
<line x1="70" y1="235.00" x2="1170" y2="235.00" stroke="#eee"/>
<text x="62" y="239.0" text-anchor="end" font-family="sans-serif" font-size="11" fill="#555">121626</text>
<line x1="70" y1="130.00" x2="1170" y2="130.00" stroke="#eee"/>
<text x="62" y="134.0" text-anchor="end" font-family="sans-serif" font-size="11" fill="#555">162168</text>
<line x1="70" y1="25.00" x2="1170" y2="25.00" stroke="#eee"/>
<text x="62" y="29.0" text-anchor="end" font-family="sans-serif" font-size="11" fill="#555">202710</text>
<line x1="157.17" y1="25" x2="157.17" y2="550" stroke="#f2f2f2"/>
<text x="157.17" y="566" text-anchor="middle" font-family="sans-serif" font-size="11" fill="#555">Mar</text>
<line x1="263.92" y1="25" x2="263.92" y2="550" stroke="#f2f2f2"/>
<text x="263.92" y="566" text-anchor="middle" font-family="sans-serif" font-size="11" fill="#555">Apr</text>
<line x1="367.22" y1="25" x2="367.22" y2="550" stroke="#f2f2f2"/>
<text x="367.22" y="566" text-anchor="middle" font-family="sans-serif" font-size="11" fill="#555">May</text>
<line x1="473.97" y1="25" x2="473.97" y2="550" stroke="#f2f2f2"/>
<text x="473.97" y="566" text-anchor="middle" font-family="sans-serif" font-size="11" fill="#555">Jun</text>
<line x1="577.28" y1="25" x2="577.28" y2="550" stroke="#f2f2f2"/>
<text x="577.28" y="566" text-anchor="middle" font-family="sans-serif" font-size="11" fill="#555">Jul</text>
<line x1="684.02" y1="25" x2="684.02" y2="550" stroke="#f2f2f2"/>
<text x="684.02" y="566" text-anchor="middle" font-family="sans-serif" font-size="11" fill="#555">Aug</text>
<line x1="790.77" y1="25" x2="790.77" y2="550" stroke="#f2f2f2"/>
<text x="790.77" y="566" text-anchor="middle" font-family="sans-serif" font-size="11" fill="#555">Sep</text>
<line x1="894.08" y1="25" x2="894.08" y2="550" stroke="#f2f2f2"/>
<text x="894.08" y="566" text-anchor="middle" font-family="sans-serif" font-size="11" fill="#555">Oct</text>
<line x1="1000.83" y1="25" x2="1000.83" y2="550" stroke="#f2f2f2"/>
<text x="1000.83" y="566" text-anchor="middle" font-family="sans-serif" font-size="11" fill="#555">Nov</text>
<line x1="1104.13" y1="25" x2="1104.13" y2="550" stroke="#f2f2f2"/>
<text x="1104.13" y="566" text-anchor="middle" font-family="sans-serif" font-size="11" fill="#555">Dec</text>
<line x1="70" y1="550" x2="1170" y2="550" stroke="#888"/>
<line x1="70" y1="25" x2="70" y2="550" stroke="#888"/>
<path d="M 70.00 59.99 L 93.83 59.99 L 94.07 59.99 L 97.90 59.99 L 116.45 59.99 L 140.63 59.99 L 141.40 59.99 L 141.40 61.25 L 140.63 63.67 L 116.45 64.21 L 97.90 66.08 L 94.07 67.90 L 93.83 62.91 L 70.00 65.01 Z" fill="#d0d0d0" fill-opacity="0.5" stroke="none"/>
<path d="M 177.84 45.95 L 177.84 46.72 Z" fill="#d0d0d0" fill-opacity="0.5" stroke="none"/>
<path d="M 179.64 45.63 L 179.66 45.63 L 179.80 45.63 L 179.80 45.64 L 179.66 48.10 L 179.64 50.80 Z" fill="#d0d0d0" fill-opacity="0.5" stroke="none"/>
<path d="M 183.91 45.29 L 183.91 45.96 Z" fill="#d0d0d0" fill-opacity="0.5" stroke="none"/>
<path d="M 187.10 41.45 L 190.32 41.45 L 193.26 41.45 L 193.26 43.14 L 190.32 45.68 L 187.10 46.67 Z" fill="#d0d0d0" fill-opacity="0.5" stroke="none"/>
<path d="M 255.51 37.90 L 307.79 37.90 L 310.73 37.90 L 310.82 37.90 L 311.00 37.90 L 330.91 37.90 L 333.99 37.90 L 347.60 37.90 L 354.68 37.90 L 355.54 37.90 L 358.19 37.90 L 362.31 37.90 L 371.84 37.90 L 376.16 37.90 L 382.87 37.90 L 385.60 37.90 L 397.33 37.90 L 397.33 40.63 L 385.60 41.45 L 382.87 43.68 L 376.16 45.86 L 371.84 44.14 L 362.31 46.40 L 358.19 48.22 L 355.54 50.71 L 354.68 50.47 L 347.60 52.65 L 333.99 55.35 L 330.91 50.22 L 311.00 51.86 L 310.82 52.63 L 310.73 47.52 L 307.79 42.31 L 255.51 43.15 Z" fill="#d0d0d0" fill-opacity="0.5" stroke="none"/>
<path d="M 406.28 37.86 L 407.56 37.86 L 431.51 37.86 L 444.45 37.86 L 447.57 37.86 L 472.27 37.86 L 476.23 37.86 L 476.23 38.74 L 472.27 38.75 L 447.57 40.99 L 444.45 43.76 L 431.51 38.50 L 407.56 40.63 L 406.28 43.12 Z" fill="#d0d0d0" fill-opacity="0.5" stroke="none"/>
<path d="M 524.18 30.96 L 527.71 30.96 L 528.23 30.96 L 528.31 30.96 L 531.31 30.96 L 548.43 30.96 L 551.09 30.96 L 551.89 30.96 L 569.01 30.96 L 576.24 30.96 L 579.54 30.96 L 592.32 30.96 L 592.49 30.96 L 592.57 30.96 L 592.66 30.96 L 602.59 30.96 L 602.66 30.96 L 616.97 30.96 L 620.53 30.96 L 620.53 30.96 L 620.86 30.96 L 620.95 30.96 L 624.11 30.96 L 624.34 30.96 L 638.13 30.96 L 640.48 30.96 L 640.64 30.96 L 640.71 30.96 L 644.39 30.96 L 648.05 30.96 L 648.17 30.96 L 648.25 30.96 L 650.93 30.96 L 651.73 30.96 L 661.47 30.96 L 664.95 30.96 L 675.84 30.96 L 688.72 30.96 L 693.24 30.96 L 696.73 30.96 L 699.73 30.96 L 699.89 30.96 L 716.95 30.96 L 717.23 30.96 L 744.79 30.96 L 758.81 30.96 L 761.90 30.96 L 761.99 30.96 L 762.15 30.96 L 765.52 30.96 L 765.54 30.96 L 772.18 30.96 L 772.48 30.96 L 782.16 30.96 L 789.66 30.96 L 792.96 30.96 L 793.05 30.96 L 796.86 30.96 L 805.77 30.96 L 810.18 30.96 L 813.75 30.96 L 816.91 30.96 L 816.95 30.96 L 817.08 30.96 L 818.68 30.96 L 820.15 30.96 L 829.80 30.96 L 829.87 30.96 L 830.05 30.96 L 834.03 30.96 L 834.22 30.96 L 834.32 30.96 L 834.50 30.96 L 844.81 30.96 L 858.19 30.96 L 860.66 30.96 L 860.76 30.96 L 862.37 30.96 L 864.39 30.96 L 864.49 30.96 L 865.44 30.96 L 867.71 30.96 L 868.84 30.96 L 877.14 30.96 L 877.16 30.96 L 878.07 30.96 L 878.48 30.96 L 878.86 30.96 L 879.25 30.96 L 882.90 30.96 L 885.33 30.96 L 885.86 30.96 L 885.89 30.96 L 886.02 30.96 L 886.34 30.96 L 886.34 30.96 L 886.46 30.96 L 889.36 30.96 L 889.63 30.96 L 892.57 30.96 L 892.93 30.96 L 902.59 30.96 L 903.15 30.96 L 905.63 30.96 L 906.42 30.96 L 910.00 30.96 L 913.38 30.96 L 916.68 30.96 L 916.74 30.96 L 927.29 30.96 L 930.98 30.96 L 932.68 30.96 L 932.68 31.71 L 930.98 34.49 L 927.29 36.53 L 916.74 39.28 L 916.68 41.94 L 913.38 44.67 L 910.00 47.07 L 906.42 49.78 L 905.63 51.55 L 903.15 52.59 L 902.59 55.03 L 892.93 55.24 L 892.57 57.61 L 889.63 60.26 L 889.36 59.34 L 886.46 61.97 L 886.34 61.10 L 886.34 56.06 L 886.02 50.97 L 885.89 53.63 L 885.86 56.03 L 885.33 58.67 L 882.90 61.30 L 879.25 63.06 L 878.86 65.19 L 878.48 67.67 L 878.07 70.08 L 877.16 65.07 L 877.14 67.76 L 868.84 62.73 L 867.71 63.82 L 865.44 65.67 L 864.49 65.76 L 864.39 68.29 L 862.37 70.87 L 860.76 73.45 L 860.66 75.95 L 858.19 78.49 L 844.81 80.76 L 834.50 79.88 L 834.32 74.99 L 834.22 74.93 L 834.03 73.06 L 830.05 75.79 L 829.87 70.86 L 829.80 65.92 L 820.15 60.88 L 818.68 62.73 L 817.08 62.42 L 816.95 64.74 L 816.91 67.06 L 813.75 62.03 L 810.18 61.74 L 805.77 63.45 L 796.86 66.07 L 793.05 61.02 L 792.96 63.53 L 789.66 58.47 L 782.16 58.96 L 772.48 60.69 L 772.18 62.46 L 765.54 65.09 L 765.52 67.41 L 762.15 62.38 L 761.99 63.94 L 761.90 64.89 L 758.81 59.84 L 744.79 59.04 L 717.23 58.95 L 716.95 53.85 L 699.89 56.70 L 699.73 56.69 L 696.73 59.36 L 693.24 61.47 L 688.72 59.57 L 675.84 61.94 L 664.95 60.79 L 661.47 61.18 L 651.73 61.60 L 650.93 56.52 L 648.25 55.98 L 648.17 58.07 L 648.05 58.18 L 644.39 60.83 L 640.71 55.74 L 640.64 56.33 L 640.48 54.93 L 638.13 49.78 L 624.34 50.94 L 624.11 53.63 L 620.95 56.30 L 620.86 57.62 L 620.53 52.50 L 620.53 55.18 L 616.97 57.85 L 602.66 59.03 L 602.59 60.82 L 592.66 63.46 L 592.57 64.45 L 592.49 59.40 L 592.32 54.36 L 579.54 49.20 L 576.24 48.86 L 569.01 43.66 L 551.89 45.46 L 551.09 47.99 L 548.43 42.78 L 531.31 44.67 L 528.31 47.11 L 528.23 41.89 L 527.71 41.57 L 524.18 36.28 Z" fill="#d0d0d0" fill-opacity="0.5" stroke="none"/>
<path d="M 937.74 26.98 L 937.79 26.98 L 937.97 26.98 L 940.87 26.98 L 940.90 26.98 L 951.51 26.98 L 957.89 26.98 L 961.28 26.98 L 964.90 26.98 L 964.95 26.98 L 965.14 26.98 L 965.31 26.98 L 965.31 27.57 L 965.14 30.01 L 964.95 32.44 L 964.90 35.22 L 961.28 37.07 L 957.89 39.24 L 951.51 39.67 L 940.90 41.05 L 940.87 43.55 L 937.97 38.27 L 937.79 37.63 L 937.74 32.36 Z" fill="#d0d0d0" fill-opacity="0.5" stroke="none"/>
<path d="M 978.80 25.00 L 978.88 25.00 L 979.05 25.00 L 981.48 25.00 L 982.59 25.00 L 985.55 25.00 L 988.37 25.00 L 1003.05 25.00 L 1007.06 25.00 L 1013.03 25.00 L 1013.12 25.00 L 1013.18 25.00 L 1013.23 25.00 L 1013.38 25.00 L 1022.86 25.00 L 1027.13 25.00 L 1030.55 25.00 L 1033.29 25.00 L 1033.75 25.00 L 1033.92 25.00 L 1034.11 25.00 L 1034.15 25.00 L 1036.56 25.00 L 1047.46 25.00 L 1051.35 25.00 L 1051.69 25.00 L 1051.72 25.00 L 1078.75 25.00 L 1095.09 25.00 L 1096.15 25.00 L 1099.26 25.00 L 1102.96 25.00 L 1103.02 25.00 L 1103.38 25.00 L 1103.66 25.00 L 1109.60 25.00 L 1110.15 25.00 L 1120.38 25.00 L 1126.67 25.00 L 1147.54 25.00 L 1147.65 25.00 L 1154.37 25.00 L 1154.44 25.00 L 1154.96 25.00 L 1170.00 25.00 L 1170.00 71.37 L 1154.96 73.97 L 1154.44 71.88 L 1154.37 72.96 L 1147.65 67.99 L 1147.54 68.39 L 1126.67 68.86 L 1120.38 70.85 L 1110.15 72.10 L 1109.60 71.16 L 1103.66 66.18 L 1103.38 63.75 L 1103.02 65.99 L 1102.96 67.76 L 1099.26 62.74 L 1096.15 64.60 L 1095.09 59.55 L 1078.75 54.44 L 1051.72 56.24 L 1051.69 58.44 L 1051.35 53.32 L 1047.46 54.89 L 1036.56 57.41 L 1034.15 59.46 L 1034.11 60.74 L 1033.92 58.12 L 1033.75 58.01 L 1033.29 60.92 L 1030.55 62.28 L 1027.13 64.91 L 1022.86 59.85 L 1013.38 59.73 L 1013.23 61.42 L 1013.18 56.38 L 1013.12 51.24 L 1013.03 51.74 L 1007.06 46.55 L 1003.05 41.31 L 988.37 41.68 L 985.55 43.84 L 982.59 45.88 L 981.48 46.25 L 979.05 41.00 L 978.88 35.70 L 978.80 30.40 Z" fill="#d0d0d0" fill-opacity="0.5" stroke="none"/>
<polyline fill="none" stroke="#111" stroke-width="1.2" points="70.00,65.01 93.83,62.91 94.07,67.90 97.90,66.08 116.45,64.21 140.63,63.67 141.40,61.25 142.26,58.80 142.68,56.69 153.66,56.68 155.31,53.99 159.64,51.84 162.98,49.11 167.65,47.87 169.54,45.95 177.84,46.72 179.38,45.63 179.64,50.80 179.66,48.10 179.80,45.64 182.54,45.29 183.91,45.96 186.24,44.22 186.74,41.45 187.10,46.67 190.32,45.68 193.26,43.14 203.37,40.68 251.55,37.90 255.51,43.15 307.79,42.31 310.73,47.52 310.82,52.63 311.00,51.86 330.91,50.22 333.99,55.35 347.60,52.65 354.68,50.47 355.54,50.71 358.19,48.22 362.31,46.40 371.84,44.14 376.16,45.86 382.87,43.68 385.60,41.45 397.33,40.63 403.59,37.86 406.28,43.12 407.56,40.63 431.51,38.50 444.45,43.76 447.57,40.99 472.27,38.75 476.23,38.74 503.49,37.18 503.62,35.03 503.74,33.45 506.92,30.96 524.18,36.28 527.71,41.57 528.23,41.89 528.31,47.11 531.31,44.67 548.43,42.78 551.09,47.99 551.89,45.46 569.01,43.66 576.24,48.86 579.54,49.20 592.32,54.36 592.49,59.40 592.57,64.45 592.66,63.46 602.59,60.82 602.66,59.03 616.97,57.85 620.53,55.18 620.53,52.50 620.86,57.62 620.95,56.30 624.11,53.63 624.34,50.94 638.13,49.78 640.48,54.93 640.64,56.33 640.71,55.74 644.39,60.83 648.05,58.18 648.17,58.07 648.25,55.98 650.93,56.52 651.73,61.60 661.47,61.18 664.95,60.79 675.84,61.94 688.72,59.57 693.24,61.47 696.73,59.36 699.73,56.69 699.89,56.70 716.95,53.85 717.23,58.95 744.79,59.04 758.81,59.84 761.90,64.89 761.99,63.94 762.15,62.38 765.52,67.41 765.54,65.09 772.18,62.46 772.48,60.69 782.16,58.96 789.66,58.47 792.96,63.53 793.05,61.02 796.86,66.07 805.77,63.45 810.18,61.74 813.75,62.03 816.91,67.06 816.95,64.74 817.08,62.42 818.68,62.73 820.15,60.88 829.80,65.92 829.87,70.86 830.05,75.79 834.03,73.06 834.22,74.93 834.32,74.99 834.50,79.88 844.81,80.76 858.19,78.49 860.66,75.95 860.76,73.45 862.37,70.87 864.39,68.29 864.49,65.76 865.44,65.67 867.71,63.82 868.84,62.73 877.14,67.76 877.16,65.07 878.07,70.08 878.48,67.67 878.86,65.19 879.25,63.06 882.90,61.30 885.33,58.67 885.86,56.03 885.89,53.63 886.02,50.97 886.34,56.06 886.34,61.10 886.46,61.97 889.36,59.34 889.63,60.26 892.57,57.61 892.93,55.24 902.59,55.03 903.15,52.59 905.63,51.55 906.42,49.78 910.00,47.07 913.38,44.67 916.68,41.94 916.74,39.28 927.29,36.53 930.98,34.49 932.68,31.71 937.34,28.73 937.52,26.98 937.74,32.36 937.79,37.63 937.97,38.27 940.87,43.55 940.90,41.05 951.51,39.67 957.89,39.24 961.28,37.07 964.90,35.22 964.95,32.44 965.14,30.01 965.31,27.57 965.43,26.49 975.44,25.00 978.80,30.40 978.88,35.70 979.05,41.00 981.48,46.25 982.59,45.88 985.55,43.84 988.37,41.68 1003.05,41.31 1007.06,46.55 1013.03,51.74 1013.12,51.24 1013.18,56.38 1013.23,61.42 1013.38,59.73 1022.86,59.85 1027.13,64.91 1030.55,62.28 1033.29,60.92 1033.75,58.01 1033.92,58.12 1034.11,60.74 1034.15,59.46 1036.56,57.41 1047.46,54.89 1051.35,53.32 1051.69,58.44 1051.72,56.24 1078.75,54.44 1095.09,59.55 1096.15,64.60 1099.26,62.74 1102.96,67.76 1103.02,65.99 1103.38,63.75 1103.66,66.18 1109.60,71.16 1110.15,72.10 1120.38,70.85 1126.67,68.86 1147.54,68.39 1147.65,67.99 1154.37,72.96 1154.44,71.88 1154.96,73.97 1170.00,71.37"/>
<text x="620.0" y="588" text-anchor="middle" font-family="sans-serif" font-size="12" fill="#333">UTC time</text>
<text x="15" y="287.5" transform="rotate(-90 15,287.5)" text-anchor="middle" font-family="sans-serif" font-size="12" fill="#333">Capital</text>
</svg>