<svg xmlns="http://www.w3.org/2000/svg" width="1200" height="600" viewBox="0 0 1200 600">
<desc>Equity curve with drawdown fill</desc>
<text x="600.0" y="18.0" text-anchor="middle" font-family="sans-serif" font-size="14">Portfolio 2020</text>
<rect x="70" y="25" width="1100" height="525" fill="white" stroke="#ccc" />
<line x1="70" y1="550.00" x2="1170" y2="550.00" stroke="#eee"/>
<text x="62" y="554.0" text-anchor="end" font-family="sans-serif" font-size="11" fill="#555">0.00</text>
<line x1="70" y1="445.00" x2="1170" y2="445.00" stroke="#eee"/>
<text x="62" y="449.0" text-anchor="end" font-family="sans-serif" font-size="11" fill="#555">21189</text>
<line x1="70" y1="340.00" x2="1170" y2="340.00" stroke="#eee"/>
<text x="62" y="344.0" text-anchor="end" font-family="sans-serif" font-size="11" fill="#555">42379</text>
<line x1="70" y1="235.00" x2="1170" y2="235.00" stroke="#eee"/>
<text x="62" y="239.0" text-anchor="end" font-family="sans-serif" font-size="11" fill="#555">63568</text>
<line x1="70" y1="130.00" x2="1170" y2="130.00" stroke="#eee"/>
<text x="62" y="134.0" text-anchor="end" font-family="sans-serif" font-size="11" fill="#555">84758</text>
<line x1="70" y1="25.00" x2="1170" y2="25.00" stroke="#eee"/>
<text x="62" y="29.0" text-anchor="end" font-family="sans-serif" font-size="11" fill="#555">105947</text>
<line x1="100.06" y1="25" x2="100.06" y2="550" stroke="#f2f2f2"/>
<text x="100.06" y="566" text-anchor="middle" font-family="sans-serif" font-size="11" fill="#555">Mar</text>
<line x1="211.86" y1="25" x2="211.86" y2="550" stroke="#f2f2f2"/>
<text x="211.86" y="566" text-anchor="middle" font-family="sans-serif" font-size="11" fill="#555">Apr</text>
<line x1="320.05" y1="25" x2="320.05" y2="550" stroke="#f2f2f2"/>
<text x="320.05" y="566" text-anchor="middle" font-family="sans-serif" font-size="11" fill="#555">May</text>
<line x1="431.84" y1="25" x2="431.84" y2="550" stroke="#f2f2f2"/>
<text x="431.84" y="566" text-anchor="middle" font-family="sans-serif" font-size="11" fill="#555">Jun</text>
<line x1="540.03" y1="25" x2="540.03" y2="550" stroke="#f2f2f2"/>
<text x="540.03" y="566" text-anchor="middle" font-family="sans-serif" font-size="11" fill="#555">Jul</text>
<line x1="651.82" y1="25" x2="651.82" y2="550" stroke="#f2f2f2"/>
<text x="651.82" y="566" text-anchor="middle" font-family="sans-serif" font-size="11" fill="#555">Aug</text>
<line x1="763.62" y1="25" x2="763.62" y2="550" stroke="#f2f2f2"/>
<text x="763.62" y="566" text-anchor="middle" font-family="sans-serif" font-size="11" fill="#555">Sep</text>
<line x1="871.81" y1="25" x2="871.81" y2="550" stroke="#f2f2f2"/>
<text x="871.81" y="566" text-anchor="middle" font-family="sans-serif" font-size="11" fill="#555">Oct</text>
<line x1="983.60" y1="25" x2="983.60" y2="550" stroke="#f2f2f2"/>
<text x="983.60" y="566" text-anchor="middle" font-family="sans-serif" font-size="11" fill="#555">Nov</text>
<line x1="1091.79" y1="25" x2="1091.79" y2="550" stroke="#f2f2f2"/>
<text x="1091.79" y="566" text-anchor="middle" font-family="sans-serif" font-size="11" fill="#555">Dec</text>
<line x1="70" y1="550" x2="1170" y2="550" stroke="#888"/>
<line x1="70" y1="25" x2="70" y2="550" stroke="#888"/>
<path d="M 70.00 54.47 L 70.00 54.57 Z" fill="#d0d0d0" fill-opacity="0.5" stroke="none"/>
<path d="M 119.71 52.43 L 119.71 52.69 Z" fill="#d0d0d0" fill-opacity="0.5" stroke="none"/>
<path d="M 138.52 28.96 L 140.07 28.96 L 141.86 28.96 L 141.90 28.96 L 142.03 28.96 L 142.15 28.96 L 142.26 28.96 L 142.32 28.96 L 142.48 28.96 L 145.36 28.96 L 145.77 28.96 L 154.29 28.96 L 156.20 28.96 L 159.78 28.96 L 159.95 28.96 L 162.61 28.96 L 163.40 28.96 L 163.70 28.96 L 163.85 28.96 L 164.22 28.96 L 164.84 28.96 L 164.84 28.96 L 165.18 28.96 L 165.18 30.33 L 164.84 32.96 L 164.84 35.91 L 164.22 30.59 L 163.85 33.22 L 163.70 33.50 L 163.40 34.64 L 162.61 29.30 L 159.95 31.20 L 159.78 33.70 L 156.20 34.31 L 154.29 36.04 L 145.77 38.44 L 145.36 40.22 L 142.48 40.85 L 142.32 43.34 L 142.26 46.09 L 142.15 48.35 L 142.03 43.21 L 141.90 38.01 L 141.86 40.42 L 140.07 35.15 L 138.52 34.29 Z" fill="#d0d0d0" fill-opacity="0.5" stroke="none"/>
<path d="M 166.20 27.68 L 166.22 27.68 L 166.53 27.68 L 166.80 27.68 L 166.88 27.68 L 166.92 27.68 L 167.38 27.68 L 167.52 27.68 L 167.53 27.68 L 167.58 27.68 L 167.79 27.68 L 168.86 27.68 L 169.78 27.68 L 170.10 27.68 L 170.61 27.68 L 170.98 27.68 L 180.66 27.68 L 181.24 27.68 L 181.27 27.68 L 181.42 27.68 L 181.51 27.68 L 181.67 27.68 L 181.93 27.68 L 183.18 27.68 L 184.04 27.68 L 184.56 27.68 L 185.09 27.68 L 189.30 27.68 L 190.37 27.68 L 192.57 27.68 L 194.98 27.68 L 195.89 27.68 L 196.24 27.68 L 196.33 27.68 L 196.57 27.68 L 208.54 27.68 L 210.12 27.68 L 210.82 27.68 L 213.33 27.68 L 217.65 27.68 L 234.81 27.68 L 242.88 27.68 L 264.47 27.68 L 268.46 27.68 L 293.58 27.68 L 294.08 27.68 L 310.88 27.68 L 318.84 27.68 L 318.96 27.68 L 335.99 27.68 L 383.83 27.68 L 394.61 27.68 L 415.61 27.68 L 444.66 27.68 L 444.99 27.68 L 445.11 27.68 L 448.30 27.68 L 463.03 27.68 L 467.25 27.68 L 470.82 27.68 L 474.01 27.68 L 485.27 27.68 L 488.25 27.68 L 498.84 27.68 L 499.16 27.68 L 542.42 27.68 L 617.51 27.68 L 646.84 27.68 L 650.89 27.68 L 664.78 27.68 L 675.79 27.68 L 719.38 27.68 L 719.65 27.68 L 747.71 27.68 L 747.76 27.68 L 747.89 27.68 L 747.89 30.24 L 747.76 32.30 L 747.71 35.07 L 719.65 37.88 L 719.38 39.60 L 675.79 41.27 L 664.78 40.24 L 650.89 41.87 L 646.84 43.69 L 617.51 45.68 L 542.42 47.02 L 499.16 46.78 L 498.84 49.17 L 488.25 51.20 L 485.27 53.29 L 474.01 54.90 L 470.82 54.36 L 467.25 53.51 L 463.03 54.30 L 448.30 53.36 L 445.11 56.07 L 444.99 56.35 L 444.66 51.24 L 415.61 52.79 L 394.61 51.31 L 383.83 52.95 L 335.99 55.33 L 318.96 50.19 L 318.84 50.49 L 310.88 45.30 L 294.08 46.54 L 293.58 48.15 L 268.46 48.85 L 264.47 49.37 L 242.88 50.03 L 234.81 44.84 L 217.65 46.05 L 213.33 46.69 L 210.82 47.01 L 210.12 49.11 L 208.54 50.63 L 196.57 53.11 L 196.33 54.10 L 196.24 55.48 L 195.89 50.35 L 194.98 52.25 L 192.57 54.40 L 190.37 56.53 L 189.30 58.72 L 185.09 59.61 L 184.56 61.73 L 184.04 63.78 L 183.18 58.74 L 181.93 53.63 L 181.67 54.79 L 181.51 57.06 L 181.42 59.59 L 181.27 61.89 L 181.24 56.89 L 180.66 51.77 L 170.98 53.15 L 170.61 55.83 L 170.10 58.27 L 169.78 53.17 L 168.86 48.01 L 167.79 42.80 L 167.58 45.16 L 167.53 47.08 L 167.52 41.91 L 167.38 36.70 L 166.92 31.38 L 166.88 34.18 L 166.80 36.01 L 166.53 35.65 L 166.22 30.32 L 166.20 33.04 Z" fill="#d0d0d0" fill-opacity="0.5" stroke="none"/>
<path d="M 837.38 25.04 L 837.38 27.69 Z" fill="#d0d0d0" fill-opacity="0.5" stroke="none"/>
<path d="M 994.90 25.00 L 1014.87 25.00 L 1065.26 25.00 L 1094.29 25.00 L 1165.54 25.00 L 1170.00 25.00 L 1170.00 34.50 L 1165.54 35.09 L 1094.29 35.51 L 1065.26 36.18 L 1014.87 30.86 L 994.90 25.49 Z" fill="#d0d0d0" fill-opacity="0.5" stroke="none"/>
<polyline fill="none" stroke="#111" stroke-width="1.2" points="70.00,54.57 106.28,52.43 119.71,52.69 128.79,50.58 129.19,47.68 129.19,44.70 130.00,42.18 130.35,40.39 130.98,38.71 131.00,35.91 132.69,34.09 133.38,31.79 134.97,28.96 138.52,34.29 140.07,35.15 141.86,40.42 141.90,38.01 142.03,43.21 142.15,48.35 142.26,46.09 142.32,43.34 142.48,40.85 145.36,40.22 145.77,38.44 154.29,36.04 156.20,34.31 159.78,33.70 159.95,31.20 162.61,29.30 163.40,34.64 163.70,33.50 163.85,33.22 164.22,30.59 164.84,35.91 164.84,32.96 165.18,30.33 165.98,27.68 166.20,33.04 166.22,30.32 166.53,35.65 166.80,36.01 166.88,34.18 166.92,31.38 167.38,36.70 167.52,41.91 167.53,47.08 167.58,45.16 167.79,42.80 168.86,48.01 169.78,53.17 170.10,58.27 170.61,55.83 170.98,53.15 180.66,51.77 181.24,56.89 181.27,61.89 181.42,59.59 181.51,57.06 181.67,54.79 181.93,53.63 183.18,58.74 184.04,63.78 184.56,61.73 185.09,59.61 189.30,58.72 190.37,56.53 192.57,54.40 194.98,52.25 195.89,50.35 196.24,55.48 196.33,54.10 196.57,53.11 208.54,50.63 210.12,49.11 210.82,47.01 213.33,46.69 217.65,46.05 234.81,44.84 242.88,50.03 264.47,49.37 268.46,48.85 293.58,48.15 294.08,46.54 310.88,45.30 318.84,50.49 318.96,50.19 335.99,55.33 383.83,52.95 394.61,51.31 415.61,52.79 444.66,51.24 444.99,56.35 445.11,56.07 448.30,53.36 463.03,54.30 467.25,53.51 470.82,54.36 474.01,54.90 485.27,53.29 488.25,51.20 498.84,49.17 499.16,46.78 542.42,47.02 617.51,45.68 646.84,43.69 650.89,41.87 664.78,40.24 675.79,41.27 719.38,39.60 719.65,37.88 747.71,35.07 747.76,32.30 747.89,30.24 794.56,27.62 798.12,25.04 837.38,27.69 994.58,25.00 994.90,25.49 1014.87,30.86 1065.26,36.18 1094.29,35.51 1165.54,35.09 1170.00,34.50"/>
<text x="620.0" y="588" text-anchor="middle" font-family="sans-serif" font-size="12" fill="#333">UTC time</text>
<text x="15" y="287.5" transform="rotate(-90 15,287.5)" text-anchor="middle" font-family="sans-serif" font-size="12" fill="#333">Capital</text>
</svg>