<svg xmlns="http://www.w3.org/2000/svg" width="1200" height="600" viewBox="0 0 1200 600">
<desc>Equity curve with drawdown fill</desc>
<text x="600.0" y="18.0" text-anchor="middle" font-family="sans-serif" font-size="14">Portfolio 2003</text>
<rect x="70" y="25" width="1100" height="525" fill="white" stroke="#ccc" />
<line x1="70" y1="550.00" x2="1170" y2="550.00" stroke="#eee"/>
<text x="62" y="554.0" text-anchor="end" font-family="sans-serif" font-size="11" fill="#555">0.00</text>
<line x1="70" y1="445.00" x2="1170" y2="445.00" stroke="#eee"/>
<text x="62" y="449.0" text-anchor="end" font-family="sans-serif" font-size="11" fill="#555">20202</text>
<line x1="70" y1="340.00" x2="1170" y2="340.00" stroke="#eee"/>
<text x="62" y="344.0" text-anchor="end" font-family="sans-serif" font-size="11" fill="#555">40403</text>
<line x1="70" y1="235.00" x2="1170" y2="235.00" stroke="#eee"/>
<text x="62" y="239.0" text-anchor="end" font-family="sans-serif" font-size="11" fill="#555">60605</text>
<line x1="70" y1="130.00" x2="1170" y2="130.00" stroke="#eee"/>
<text x="62" y="134.0" text-anchor="end" font-family="sans-serif" font-size="11" fill="#555">80806</text>
<line x1="70" y1="25.00" x2="1170" y2="25.00" stroke="#eee"/>
<text x="62" y="29.0" text-anchor="end" font-family="sans-serif" font-size="11" fill="#555">101008</text>
<line x1="158.95" y1="25" x2="158.95" y2="550" stroke="#f2f2f2"/>
<text x="158.95" y="566" text-anchor="middle" font-family="sans-serif" font-size="11" fill="#555">Feb</text>
<line x1="243.77" y1="25" x2="243.77" y2="550" stroke="#f2f2f2"/>
<text x="243.77" y="566" text-anchor="middle" font-family="sans-serif" font-size="11" fill="#555">Mar</text>
<line x1="337.69" y1="25" x2="337.69" y2="550" stroke="#f2f2f2"/>
<text x="337.69" y="566" text-anchor="middle" font-family="sans-serif" font-size="11" fill="#555">Apr</text>
<line x1="428.57" y1="25" x2="428.57" y2="550" stroke="#f2f2f2"/>
<text x="428.57" y="566" text-anchor="middle" font-family="sans-serif" font-size="11" fill="#555">May</text>
<line x1="522.48" y1="25" x2="522.48" y2="550" stroke="#f2f2f2"/>
<text x="522.48" y="566" text-anchor="middle" font-family="sans-serif" font-size="11" fill="#555">Jun</text>
<line x1="613.36" y1="25" x2="613.36" y2="550" stroke="#f2f2f2"/>
<text x="613.36" y="566" text-anchor="middle" font-family="sans-serif" font-size="11" fill="#555">Jul</text>
<line x1="707.28" y1="25" x2="707.28" y2="550" stroke="#f2f2f2"/>
<text x="707.28" y="566" text-anchor="middle" font-family="sans-serif" font-size="11" fill="#555">Aug</text>
<line x1="801.19" y1="25" x2="801.19" y2="550" stroke="#f2f2f2"/>
<text x="801.19" y="566" text-anchor="middle" font-family="sans-serif" font-size="11" fill="#555">Sep</text>
<line x1="892.07" y1="25" x2="892.07" y2="550" stroke="#f2f2f2"/>
<text x="892.07" y="566" text-anchor="middle" font-family="sans-serif" font-size="11" fill="#555">Oct</text>
<line x1="985.99" y1="25" x2="985.99" y2="550" stroke="#f2f2f2"/>
<text x="985.99" y="566" text-anchor="middle" font-family="sans-serif" font-size="11" fill="#555">Nov</text>
<line x1="1076.87" y1="25" x2="1076.87" y2="550" stroke="#f2f2f2"/>
<text x="1076.87" y="566" text-anchor="middle" font-family="sans-serif" font-size="11" fill="#555">Dec</text>
<line x1="1170.00" y1="25" x2="1170.00" y2="550" stroke="#f2f2f2"/>
<text x="1170.00" y="566" text-anchor="middle" font-family="sans-serif" font-size="11" fill="#555">Jan</text>
<line x1="70" y1="550" x2="1170" y2="550" stroke="#888"/>
<line x1="70" y1="25" x2="70" y2="550" stroke="#888"/>
<path d="M 70.00 30.24 L 70.13 30.24 L 70.23 30.24 L 88.38 30.24 L 88.52 30.24 L 88.54 30.24 L 88.59 30.24 L 94.12 30.24 L 109.42 30.24 L 112.75 30.24 L 127.94 30.24 L 144.98 30.24 L 145.60 30.24 L 145.64 30.24 L 150.14 30.24 L 153.99 30.24 L 155.09 30.24 L 157.82 30.24 L 166.09 30.24 L 169.86 30.24 L 171.95 30.24 L 173.12 30.24 L 173.31 30.24 L 178.40 30.24 L 179.07 30.24 L 188.40 30.24 L 190.55 30.24 L 191.46 30.24 L 196.35 30.24 L 197.20 30.24 L 207.56 30.24 L 233.56 30.24 L 239.50 30.24 L 252.22 30.24 L 255.82 30.24 L 260.69 30.24 L 264.15 30.24 L 278.84 30.24 L 280.31 30.24 L 280.31 31.78 L 278.84 34.03 L 264.15 36.38 L 260.69 38.36 L 255.82 41.14 L 252.22 35.87 L 239.50 34.43 L 233.56 36.71 L 207.56 39.49 L 197.20 40.35 L 196.35 42.17 L 191.46 44.65 L 190.55 44.57 L 188.40 44.95 L 179.07 46.73 L 178.40 49.18 L 173.31 51.39 L 173.12 46.28 L 171.95 48.05 L 169.86 49.45 L 166.09 51.36 L 157.82 53.27 L 155.09 48.12 L 153.99 50.01 L 150.14 52.72 L 145.64 53.70 L 145.60 55.84 L 144.98 50.73 L 127.94 52.65 L 112.75 51.67 L 109.42 54.36 L 94.12 54.23 L 88.59 55.75 L 88.54 57.31 L 88.52 52.25 L 88.38 47.15 L 70.23 41.93 L 70.13 36.66 L 70.00 35.58 Z" fill="#d0d0d0" fill-opacity="0.5" stroke="none"/>
<path d="M 282.51 26.34 L 285.23 26.34 L 285.26 26.34 L 294.20 26.34 L 294.24 26.34 L 294.33 26.34 L 294.50 26.34 L 297.16 26.34 L 299.92 26.34 L 301.70 26.34 L 302.33 26.34 L 303.30 26.34 L 306.62 26.34 L 321.31 26.34 L 341.74 26.34 L 342.72 26.34 L 356.96 26.34 L 359.79 26.34 L 363.92 26.34 L 364.14 26.34 L 369.80 26.34 L 379.14 26.34 L 385.47 26.34 L 386.75 26.34 L 386.75 27.28 L 385.47 28.90 L 379.14 31.43 L 369.80 33.66 L 364.14 35.25 L 363.92 37.00 L 359.79 36.60 L 356.96 37.78 L 342.72 38.91 L 341.74 40.47 L 321.31 39.88 L 306.62 42.39 L 303.30 43.24 L 302.33 45.73 L 301.70 47.90 L 299.92 50.60 L 297.16 51.97 L 294.50 51.63 L 294.33 50.16 L 294.24 45.05 L 294.20 39.87 L 285.26 34.58 L 285.23 37.04 L 282.51 31.71 Z" fill="#d0d0d0" fill-opacity="0.5" stroke="none"/>
<path d="M 400.20 25.00 L 402.43 25.00 L 408.39 25.00 L 412.50 25.00 L 421.53 25.00 L 424.62 25.00 L 425.73 25.00 L 430.53 25.00 L 433.38 25.00 L 442.73 25.00 L 446.21 25.00 L 448.63 25.00 L 451.50 25.00 L 451.54 25.00 L 465.11 25.00 L 465.60 25.00 L 465.94 25.00 L 471.43 25.00 L 473.36 25.00 L 475.67 25.00 L 483.05 25.00 L 484.32 25.00 L 484.82 25.00 L 485.57 25.00 L 491.05 25.00 L 493.68 25.00 L 496.36 25.00 L 496.55 25.00 L 507.64 25.00 L 508.12 25.00 L 508.52 25.00 L 511.91 25.00 L 514.53 25.00 L 515.45 25.00 L 518.33 25.00 L 526.00 25.00 L 526.27 25.00 L 527.48 25.00 L 529.96 25.00 L 536.25 25.00 L 536.33 25.00 L 536.38 25.00 L 536.40 25.00 L 536.59 25.00 L 539.34 25.00 L 539.38 25.00 L 539.53 25.00 L 539.57 25.00 L 547.92 25.00 L 548.53 25.00 L 560.71 25.00 L 569.07 25.00 L 577.45 25.00 L 577.55 25.00 L 579.26 25.00 L 582.34 25.00 L 590.44 25.00 L 594.26 25.00 L 597.65 25.00 L 612.47 25.00 L 615.39 25.00 L 620.63 25.00 L 633.02 25.00 L 635.88 25.00 L 636.75 25.00 L 642.79 25.00 L 657.80 25.00 L 658.10 25.00 L 658.23 25.00 L 658.96 25.00 L 660.79 25.00 L 663.71 25.00 L 664.89 25.00 L 667.05 25.00 L 667.15 25.00 L 675.92 25.00 L 682.23 25.00 L 684.77 25.00 L 688.09 25.00 L 700.18 25.00 L 706.37 25.00 L 708.50 25.00 L 709.18 25.00 L 709.27 25.00 L 709.39 25.00 L 718.54 25.00 L 758.84 25.00 L 763.43 25.00 L 768.91 25.00 L 768.94 25.00 L 770.02 25.00 L 770.06 25.00 L 770.22 25.00 L 772.60 25.00 L 782.22 25.00 L 783.07 25.00 L 785.09 25.00 L 791.08 25.00 L 793.99 25.00 L 812.02 25.00 L 815.02 25.00 L 815.23 25.00 L 815.32 25.00 L 824.50 25.00 L 827.68 25.00 L 832.56 25.00 L 833.35 25.00 L 836.22 25.00 L 836.36 25.00 L 836.38 25.00 L 836.41 25.00 L 836.56 25.00 L 852.20 25.00 L 854.55 25.00 L 854.69 25.00 L 857.74 25.00 L 864.72 25.00 L 864.78 25.00 L 869.05 25.00 L 875.87 25.00 L 887.99 25.00 L 888.03 25.00 L 888.11 25.00 L 888.18 25.00 L 888.22 25.00 L 890.94 25.00 L 891.07 25.00 L 900.30 25.00 L 909.10 25.00 L 911.55 25.00 L 914.27 25.00 L 918.01 25.00 L 918.47 25.00 L 921.17 25.00 L 929.53 25.00 L 929.73 25.00 L 931.79 25.00 L 933.56 25.00 L 936.21 25.00 L 936.27 25.00 L 939.42 25.00 L 942.60 25.00 L 949.93 25.00 L 950.73 25.00 L 957.54 25.00 L 981.78 25.00 L 982.18 25.00 L 994.11 25.00 L 994.28 25.00 L 1006.16 25.00 L 1019.68 25.00 L 1036.62 25.00 L 1039.40 25.00 L 1039.47 25.00 L 1039.58 25.00 L 1056.90 25.00 L 1057.01 25.00 L 1063.61 25.00 L 1063.77 25.00 L 1063.84 25.00 L 1076.91 25.00 L 1079.00 25.00 L 1081.85 25.00 L 1081.99 25.00 L 1082.09 25.00 L 1086.38 25.00 L 1087.79 25.00 L 1087.98 25.00 L 1091.03 25.00 L 1103.10 25.00 L 1105.12 25.00 L 1119.23 25.00 L 1121.23 25.00 L 1133.44 25.00 L 1169.95 25.00 L 1170.00 25.00 L 1170.00 77.29 L 1169.95 79.76 L 1133.44 74.90 L 1121.23 76.38 L 1119.23 74.76 L 1105.12 74.94 L 1103.10 77.28 L 1091.03 79.16 L 1087.98 81.42 L 1087.79 83.18 L 1086.38 78.35 L 1082.09 80.93 L 1081.99 80.20 L 1081.85 78.77 L 1079.00 73.90 L 1076.91 73.49 L 1063.84 75.38 L 1063.77 76.85 L 1063.61 76.75 L 1057.01 77.65 L 1056.90 77.70 L 1039.58 80.28 L 1039.47 80.62 L 1039.40 75.82 L 1036.62 70.92 L 1019.68 72.69 L 1006.16 75.30 L 994.28 70.39 L 994.11 68.97 L 982.18 64.02 L 981.78 66.69 L 957.54 68.77 L 950.73 70.36 L 949.93 72.42 L 942.60 67.47 L 939.42 67.04 L 936.27 67.80 L 936.21 70.07 L 933.56 72.44 L 931.79 73.79 L 929.73 68.86 L 929.53 70.13 L 921.17 69.28 L 918.47 69.41 L 918.01 69.45 L 914.27 72.08 L 911.55 74.23 L 909.10 73.06 L 900.30 73.97 L 891.07 76.26 L 890.94 78.84 L 888.22 81.41 L 888.18 83.07 L 888.11 78.25 L 888.03 79.28 L 887.99 74.45 L 875.87 69.53 L 869.05 71.93 L 864.78 74.31 L 864.72 75.90 L 857.74 70.99 L 854.69 72.31 L 854.55 74.55 L 852.20 75.48 L 836.56 75.10 L 836.41 76.29 L 836.38 71.45 L 836.36 66.50 L 836.22 65.29 L 833.35 67.94 L 832.56 70.31 L 827.68 71.18 L 824.50 71.38 L 815.32 73.75 L 815.23 75.53 L 815.02 74.96 L 812.02 70.04 L 793.99 72.46 L 791.08 73.87 L 785.09 68.93 L 783.07 63.94 L 782.22 65.99 L 772.60 68.37 L 770.22 70.73 L 770.06 65.76 L 770.02 68.30 L 768.94 70.91 L 768.91 73.14 L 763.43 68.20 L 758.84 70.19 L 718.54 68.32 L 709.39 70.68 L 709.27 72.22 L 709.18 73.49 L 708.50 68.56 L 706.37 63.58 L 700.18 63.27 L 688.09 63.30 L 684.77 62.60 L 682.23 64.80 L 675.92 63.87 L 667.15 65.83 L 667.05 66.93 L 664.89 61.93 L 663.71 64.05 L 660.79 61.72 L 658.96 61.19 L 658.23 63.33 L 658.10 61.29 L 657.80 60.42 L 642.79 55.35 L 636.75 57.55 L 635.88 59.11 L 633.02 60.73 L 620.63 62.10 L 615.39 57.05 L 612.47 57.02 L 597.65 56.54 L 594.26 59.07 L 590.44 60.90 L 582.34 61.19 L 579.26 62.42 L 577.55 57.37 L 577.45 58.87 L 569.07 60.79 L 560.71 63.22 L 548.53 65.75 L 547.92 65.71 L 539.57 67.39 L 539.53 69.19 L 539.38 64.21 L 539.34 59.23 L 536.59 61.90 L 536.40 61.43 L 536.38 56.44 L 536.33 51.33 L 536.25 46.21 L 529.96 40.99 L 527.48 43.28 L 526.27 45.82 L 526.00 40.61 L 518.33 41.00 L 515.45 43.54 L 514.53 38.30 L 511.91 40.87 L 508.52 35.60 L 508.12 38.41 L 507.64 40.70 L 496.55 40.29 L 496.36 37.34 L 493.68 32.03 L 491.05 33.92 L 485.57 36.63 L 484.82 39.17 L 484.32 40.95 L 483.05 43.55 L 475.67 43.22 L 473.36 37.96 L 471.43 37.05 L 465.94 39.62 L 465.60 41.10 L 465.11 43.35 L 451.54 38.10 L 451.50 32.85 L 448.63 33.43 L 446.21 35.49 L 442.73 30.15 L 433.38 31.44 L 430.53 34.06 L 425.73 28.71 L 424.62 29.04 L 421.53 28.71 L 412.50 31.01 L 408.39 31.12 L 402.43 31.09 L 400.20 25.70 Z" fill="#d0d0d0" fill-opacity="0.5" stroke="none"/>
<polyline fill="none" stroke="#111" stroke-width="1.2" points="70.00,35.58 70.13,36.66 70.23,41.93 88.38,47.15 88.52,52.25 88.54,57.31 88.59,55.75 94.12,54.23 109.42,54.36 112.75,51.67 127.94,52.65 144.98,50.73 145.60,55.84 145.64,53.70 150.14,52.72 153.99,50.01 155.09,48.12 157.82,53.27 166.09,51.36 169.86,49.45 171.95,48.05 173.12,46.28 173.31,51.39 178.40,49.18 179.07,46.73 188.40,44.95 190.55,44.57 191.46,44.65 196.35,42.17 197.20,40.35 207.56,39.49 233.56,36.71 239.50,34.43 252.22,35.87 255.82,41.14 260.69,38.36 264.15,36.38 278.84,34.03 280.31,31.78 280.34,28.77 280.40,26.79 280.55,26.34 282.51,31.71 285.23,37.04 285.26,34.58 294.20,39.87 294.24,45.05 294.33,50.16 294.50,51.63 297.16,51.97 299.92,50.60 301.70,47.90 302.33,45.73 303.30,43.24 306.62,42.39 321.31,39.88 341.74,40.47 342.72,38.91 356.96,37.78 359.79,36.60 363.92,37.00 364.14,35.25 369.80,33.66 379.14,31.43 385.47,28.90 386.75,27.28 388.38,25.00 400.20,25.70 402.43,31.09 408.39,31.12 412.50,31.01 421.53,28.71 424.62,29.04 425.73,28.71 430.53,34.06 433.38,31.44 442.73,30.15 446.21,35.49 448.63,33.43 451.50,32.85 451.54,38.10 465.11,43.35 465.60,41.10 465.94,39.62 471.43,37.05 473.36,37.96 475.67,43.22 483.05,43.55 484.32,40.95 484.82,39.17 485.57,36.63 491.05,33.92 493.68,32.03 496.36,37.34 496.55,40.29 507.64,40.70 508.12,38.41 508.52,35.60 511.91,40.87 514.53,38.30 515.45,43.54 518.33,41.00 526.00,40.61 526.27,45.82 527.48,43.28 529.96,40.99 536.25,46.21 536.33,51.33 536.38,56.44 536.40,61.43 536.59,61.90 539.34,59.23 539.38,64.21 539.53,69.19 539.57,67.39 547.92,65.71 548.53,65.75 560.71,63.22 569.07,60.79 577.45,58.87 577.55,57.37 579.26,62.42 582.34,61.19 590.44,60.90 594.26,59.07 597.65,56.54 612.47,57.02 615.39,57.05 620.63,62.10 633.02,60.73 635.88,59.11 636.75,57.55 642.79,55.35 657.80,60.42 658.10,61.29 658.23,63.33 658.96,61.19 660.79,61.72 663.71,64.05 664.89,61.93 667.05,66.93 667.15,65.83 675.92,63.87 682.23,64.80 684.77,62.60 688.09,63.30 700.18,63.27 706.37,63.58 708.50,68.56 709.18,73.49 709.27,72.22 709.39,70.68 718.54,68.32 758.84,70.19 763.43,68.20 768.91,73.14 768.94,70.91 770.02,68.30 770.06,65.76 770.22,70.73 772.60,68.37 782.22,65.99 783.07,63.94 785.09,68.93 791.08,73.87 793.99,72.46 812.02,70.04 815.02,74.96 815.23,75.53 815.32,73.75 824.50,71.38 827.68,71.18 832.56,70.31 833.35,67.94 836.22,65.29 836.36,66.50 836.38,71.45 836.41,76.29 836.56,75.10 852.20,75.48 854.55,74.55 854.69,72.31 857.74,70.99 864.72,75.90 864.78,74.31 869.05,71.93 875.87,69.53 887.99,74.45 888.03,79.28 888.11,78.25 888.18,83.07 888.22,81.41 890.94,78.84 891.07,76.26 900.30,73.97 909.10,73.06 911.55,74.23 914.27,72.08 918.01,69.45 918.47,69.41 921.17,69.28 929.53,70.13 929.73,68.86 931.79,73.79 933.56,72.44 936.21,70.07 936.27,67.80 939.42,67.04 942.60,67.47 949.93,72.42 950.73,70.36 957.54,68.77 981.78,66.69 982.18,64.02 994.11,68.97 994.28,70.39 1006.16,75.30 1019.68,72.69 1036.62,70.92 1039.40,75.82 1039.47,80.62 1039.58,80.28 1056.90,77.70 1057.01,77.65 1063.61,76.75 1063.77,76.85 1063.84,75.38 1076.91,73.49 1079.00,73.90 1081.85,78.77 1081.99,80.20 1082.09,80.93 1086.38,78.35 1087.79,83.18 1087.98,81.42 1091.03,79.16 1103.10,77.28 1105.12,74.94 1119.23,74.76 1121.23,76.38 1133.44,74.90 1169.95,79.76 1170.00,77.29"/>
<text x="620.0" y="588" text-anchor="middle" font-family="sans-serif" font-size="12" fill="#333">UTC time</text>
<text x="15" y="287.5" transform="rotate(-90 15,287.5)" text-anchor="middle" font-family="sans-serif" font-size="12" fill="#333">Capital</text>
</svg>