<svg xmlns="http://www.w3.org/2000/svg" width="1200" height="600" viewBox="0 0 1200 600">
<desc>Equity curve with drawdown fill</desc>
<text x="600.0" y="18.0" text-anchor="middle" font-family="sans-serif" font-size="14">Portfolio 2015</text>
<rect x="70" y="25" width="1100" height="525" fill="white" stroke="#ccc" />
<line x1="70" y1="550.00" x2="1170" y2="550.00" stroke="#eee"/>
<text x="62" y="554.0" text-anchor="end" font-family="sans-serif" font-size="11" fill="#555">0.00</text>
<line x1="70" y1="445.00" x2="1170" y2="445.00" stroke="#eee"/>
<text x="62" y="449.0" text-anchor="end" font-family="sans-serif" font-size="11" fill="#555">30961</text>
<line x1="70" y1="340.00" x2="1170" y2="340.00" stroke="#eee"/>
<text x="62" y="344.0" text-anchor="end" font-family="sans-serif" font-size="11" fill="#555">61921</text>
<line x1="70" y1="235.00" x2="1170" y2="235.00" stroke="#eee"/>
<text x="62" y="239.0" text-anchor="end" font-family="sans-serif" font-size="11" fill="#555">92882</text>
<line x1="70" y1="130.00" x2="1170" y2="130.00" stroke="#eee"/>
<text x="62" y="134.0" text-anchor="end" font-family="sans-serif" font-size="11" fill="#555">123843</text>
<line x1="70" y1="25.00" x2="1170" y2="25.00" stroke="#eee"/>
<text x="62" y="29.0" text-anchor="end" font-family="sans-serif" font-size="11" fill="#555">154803</text>
<line x1="125.38" y1="25" x2="125.38" y2="550" stroke="#f2f2f2"/>
<text x="125.38" y="566" text-anchor="middle" font-family="sans-serif" font-size="11" fill="#555">Feb</text>
<line x1="213.59" y1="25" x2="213.59" y2="550" stroke="#f2f2f2"/>
<text x="213.59" y="566" text-anchor="middle" font-family="sans-serif" font-size="11" fill="#555">Mar</text>
<line x1="311.26" y1="25" x2="311.26" y2="550" stroke="#f2f2f2"/>
<text x="311.26" y="566" text-anchor="middle" font-family="sans-serif" font-size="11" fill="#555">Apr</text>
<line x1="405.77" y1="25" x2="405.77" y2="550" stroke="#f2f2f2"/>
<text x="405.77" y="566" text-anchor="middle" font-family="sans-serif" font-size="11" fill="#555">May</text>
<line x1="503.43" y1="25" x2="503.43" y2="550" stroke="#f2f2f2"/>
<text x="503.43" y="566" text-anchor="middle" font-family="sans-serif" font-size="11" fill="#555">Jun</text>
<line x1="597.94" y1="25" x2="597.94" y2="550" stroke="#f2f2f2"/>
<text x="597.94" y="566" text-anchor="middle" font-family="sans-serif" font-size="11" fill="#555">Jul</text>
<line x1="695.60" y1="25" x2="695.60" y2="550" stroke="#f2f2f2"/>
<text x="695.60" y="566" text-anchor="middle" font-family="sans-serif" font-size="11" fill="#555">Aug</text>
<line x1="793.26" y1="25" x2="793.26" y2="550" stroke="#f2f2f2"/>
<text x="793.26" y="566" text-anchor="middle" font-family="sans-serif" font-size="11" fill="#555">Sep</text>
<line x1="887.77" y1="25" x2="887.77" y2="550" stroke="#f2f2f2"/>
<text x="887.77" y="566" text-anchor="middle" font-family="sans-serif" font-size="11" fill="#555">Oct</text>
<line x1="985.43" y1="25" x2="985.43" y2="550" stroke="#f2f2f2"/>
<text x="985.43" y="566" text-anchor="middle" font-family="sans-serif" font-size="11" fill="#555">Nov</text>
<line x1="1079.94" y1="25" x2="1079.94" y2="550" stroke="#f2f2f2"/>
<text x="1079.94" y="566" text-anchor="middle" font-family="sans-serif" font-size="11" fill="#555">Dec</text>
<line x1="70" y1="550" x2="1170" y2="550" stroke="#888"/>
<line x1="70" y1="25" x2="70" y2="550" stroke="#888"/>
<path d="M 70.49 147.60 L 70.54 147.60 L 73.08 147.60 L 73.08 148.09 L 70.54 150.29 L 70.49 151.72 Z" fill="#d0d0d0" fill-opacity="0.5" stroke="none"/>
<path d="M 73.93 139.52 L 73.94 139.52 L 76.91 139.52 L 76.91 139.61 L 73.94 141.63 L 73.93 143.73 Z" fill="#d0d0d0" fill-opacity="0.5" stroke="none"/>
<path d="M 95.96 130.51 L 96.00 130.51 L 96.13 130.51 L 96.19 130.51 L 98.20 130.51 L 98.22 130.51 L 98.35 130.51 L 98.41 130.51 L 98.60 130.51 L 98.64 130.51 L 98.65 130.51 L 98.89 130.51 L 106.43 130.51 L 107.54 130.51 L 110.78 130.51 L 110.83 130.51 L 111.42 130.51 L 111.53 130.51 L 111.69 130.51 L 133.49 130.51 L 133.56 130.51 L 133.70 130.51 L 137.96 130.51 L 139.03 130.51 L 139.43 130.51 L 140.43 130.51 L 143.18 130.51 L 152.33 130.51 L 155.36 130.51 L 162.01 130.51 L 175.00 130.51 L 177.39 130.51 L 181.43 130.51 L 187.26 130.51 L 187.55 130.51 L 205.96 130.51 L 206.13 130.51 L 206.14 130.51 L 206.20 130.51 L 209.23 130.51 L 225.01 130.51 L 227.99 130.51 L 228.07 130.51 L 228.45 130.51 L 230.58 130.51 L 231.12 130.51 L 231.30 130.51 L 231.35 130.51 L 243.28 130.51 L 243.90 130.51 L 244.20 130.51 L 246.30 130.51 L 246.68 130.51 L 247.60 130.51 L 249.32 130.51 L 249.38 130.51 L 249.51 130.51 L 250.02 130.51 L 253.38 130.51 L 253.39 130.51 L 253.52 130.51 L 253.52 131.45 L 253.39 133.46 L 253.38 135.84 L 250.02 131.54 L 249.51 133.81 L 249.38 135.00 L 249.32 136.38 L 247.60 132.08 L 246.68 132.86 L 246.30 132.94 L 244.20 135.19 L 243.90 137.24 L 243.28 139.14 L 231.35 140.11 L 231.30 141.72 L 231.12 137.49 L 230.58 139.87 L 228.45 141.90 L 228.07 143.66 L 227.99 145.30 L 225.01 147.31 L 209.23 149.50 L 206.20 151.05 L 206.14 151.88 L 206.13 147.76 L 205.96 143.63 L 187.55 139.42 L 187.26 141.79 L 181.43 144.02 L 177.39 146.24 L 175.00 147.03 L 162.01 148.74 L 155.36 150.24 L 152.33 152.31 L 143.18 152.98 L 140.43 151.84 L 139.43 152.80 L 139.03 154.48 L 137.96 156.46 L 133.70 156.67 L 133.56 156.62 L 133.49 157.36 L 111.69 153.28 L 111.53 149.18 L 111.42 151.07 L 110.83 153.06 L 110.78 154.92 L 107.54 150.83 L 106.43 152.78 L 98.89 148.66 L 98.65 150.55 L 98.64 152.90 L 98.60 148.83 L 98.41 144.67 L 98.35 145.76 L 98.22 141.57 L 98.20 143.73 L 96.19 139.52 L 96.13 140.08 L 96.00 138.98 L 95.96 134.77 Z" fill="#d0d0d0" fill-opacity="0.5" stroke="none"/>
<path d="M 262.81 130.04 L 269.48 130.04 L 269.48 132.08 L 262.81 134.35 Z" fill="#d0d0d0" fill-opacity="0.5" stroke="none"/>
<path d="M 270.49 128.51 L 270.89 128.51 L 271.40 128.51 L 271.47 128.51 L 271.57 128.51 L 271.70 128.51 L 271.96 128.51 L 271.96 129.73 L 271.70 132.01 L 271.57 133.93 L 271.47 135.71 L 271.40 136.83 L 270.89 132.54 L 270.49 132.84 Z" fill="#d0d0d0" fill-opacity="0.5" stroke="none"/>
<path d="M 275.42 121.79 L 275.44 121.79 L 275.77 121.79 L 275.89 121.79 L 284.29 121.79 L 284.47 121.79 L 284.66 121.79 L 287.35 121.79 L 287.83 121.79 L 287.83 121.81 L 287.35 124.13 L 284.66 124.35 L 284.47 123.76 L 284.29 125.36 L 275.89 127.50 L 275.77 128.67 L 275.44 124.29 L 275.42 126.17 Z" fill="#d0d0d0" fill-opacity="0.5" stroke="none"/>
<path d="M 296.66 114.74 L 297.34 114.74 L 297.76 114.74 L 297.76 115.41 L 297.34 117.77 L 296.66 119.21 Z" fill="#d0d0d0" fill-opacity="0.5" stroke="none"/>
<path d="M 319.63 99.06 L 331.40 99.06 L 331.50 99.06 L 335.32 99.06 L 335.84 99.06 L 338.51 99.06 L 340.74 99.06 L 350.50 99.06 L 350.91 99.06 L 354.01 99.06 L 354.05 99.06 L 354.18 99.06 L 354.29 99.06 L 356.69 99.06 L 357.22 99.06 L 357.30 99.06 L 357.74 99.06 L 357.83 99.06 L 357.83 100.06 L 357.74 101.11 L 357.30 103.54 L 357.22 105.38 L 356.69 107.78 L 354.29 107.49 L 354.18 108.43 L 354.05 103.86 L 354.01 99.31 L 350.91 101.15 L 350.50 103.57 L 340.74 104.91 L 338.51 105.82 L 335.84 101.23 L 335.32 103.21 L 331.50 105.15 L 331.40 105.89 L 319.63 101.31 Z" fill="#d0d0d0" fill-opacity="0.5" stroke="none"/>
<path d="M 360.05 95.97 L 360.12 95.97 L 360.29 95.97 L 361.04 95.97 L 362.99 95.97 L 363.47 95.97 L 375.40 95.97 L 375.40 97.11 L 363.47 96.84 L 362.99 99.06 L 361.04 100.74 L 360.29 96.11 L 360.12 98.55 L 360.05 100.61 Z" fill="#d0d0d0" fill-opacity="0.5" stroke="none"/>
<path d="M 384.74 91.14 L 384.85 91.14 L 384.98 91.14 L 384.98 92.18 L 384.85 94.05 L 384.74 95.82 Z" fill="#d0d0d0" fill-opacity="0.5" stroke="none"/>
<path d="M 401.26 87.47 L 401.41 87.47 L 401.48 87.47 L 401.67 87.47 L 401.74 87.47 L 401.96 87.47 L 402.01 87.47 L 403.76 87.47 L 403.79 87.47 L 403.87 87.47 L 404.44 87.47 L 404.73 87.47 L 407.80 87.47 L 416.45 87.47 L 417.11 87.47 L 420.21 87.47 L 420.47 87.47 L 422.08 87.47 L 423.47 87.47 L 423.62 87.47 L 426.44 87.47 L 429.59 87.47 L 429.61 87.47 L 429.88 87.47 L 438.34 87.47 L 441.56 87.47 L 445.52 87.47 L 447.78 87.47 L 448.83 87.47 L 451.88 87.47 L 451.98 87.47 L 452.10 87.47 L 460.47 87.47 L 461.33 87.47 L 461.86 87.47 L 463.53 87.47 L 463.59 87.47 L 463.68 87.47 L 463.74 87.47 L 464.30 87.47 L 466.66 87.47 L 468.12 87.47 L 469.93 87.47 L 473.85 87.47 L 473.92 87.47 L 474.05 87.47 L 485.63 87.47 L 489.56 87.47 L 489.70 87.47 L 489.87 87.47 L 492.48 87.47 L 505.47 87.47 L 507.71 87.47 L 508.07 87.47 L 508.45 87.47 L 508.63 87.47 L 510.83 87.47 L 511.08 87.47 L 511.58 87.47 L 511.71 87.47 L 511.77 87.47 L 511.90 87.47 L 512.00 87.47 L 514.10 87.47 L 514.15 87.47 L 514.35 87.47 L 514.75 87.47 L 514.78 87.47 L 515.21 87.47 L 515.38 87.47 L 516.08 87.47 L 517.10 87.47 L 517.98 87.47 L 526.51 87.47 L 527.31 87.47 L 528.98 87.47 L 529.74 87.47 L 530.47 87.47 L 532.90 87.47 L 533.42 87.47 L 533.70 87.47 L 533.91 87.47 L 536.10 87.47 L 539.37 87.47 L 539.41 87.47 L 539.84 87.47 L 551.79 87.47 L 552.46 87.47 L 556.33 87.47 L 556.37 87.47 L 558.25 87.47 L 558.25 89.64 L 556.37 90.81 L 556.33 92.52 L 552.46 95.00 L 551.79 96.67 L 539.84 98.23 L 539.41 100.68 L 539.37 102.57 L 536.10 105.00 L 533.91 107.43 L 533.70 109.84 L 533.42 111.86 L 532.90 113.75 L 530.47 109.24 L 529.74 110.90 L 528.98 113.07 L 527.31 115.45 L 526.51 115.60 L 517.98 117.96 L 517.10 119.37 L 516.08 121.32 L 515.38 122.73 L 515.21 124.88 L 514.78 127.20 L 514.75 129.09 L 514.35 124.72 L 514.15 120.32 L 514.10 115.91 L 512.00 111.42 L 511.90 110.13 L 511.77 108.71 L 511.71 104.19 L 511.58 99.63 L 511.08 101.90 L 510.83 103.82 L 508.63 105.68 L 508.45 101.09 L 508.07 96.51 L 507.71 98.97 L 505.47 100.09 L 492.48 102.17 L 489.87 103.95 L 489.70 106.16 L 489.56 108.31 L 485.63 107.64 L 474.05 108.76 L 473.92 108.40 L 473.85 109.38 L 469.93 104.88 L 468.12 107.28 L 466.66 109.69 L 464.30 105.13 L 463.74 100.54 L 463.68 101.89 L 463.59 97.26 L 463.53 92.65 L 461.86 87.95 L 461.33 90.00 L 460.47 90.80 L 452.10 92.84 L 451.98 93.46 L 451.88 93.89 L 448.83 89.20 L 447.78 91.70 L 445.52 93.36 L 441.56 88.66 L 438.34 89.74 L 429.88 91.59 L 429.61 93.93 L 429.59 96.41 L 426.44 98.87 L 423.62 94.22 L 423.47 92.44 L 422.08 87.74 L 420.47 90.24 L 420.21 91.50 L 417.11 93.45 L 416.45 94.52 L 407.80 95.96 L 404.73 97.72 L 404.44 100.00 L 403.87 102.20 L 403.79 103.08 L 403.76 98.51 L 402.01 93.86 L 401.96 96.30 L 401.74 98.75 L 401.67 99.27 L 401.48 94.62 L 401.41 89.98 L 401.26 92.18 Z" fill="#d0d0d0" fill-opacity="0.5" stroke="none"/>
<path d="M 573.25 82.58 L 574.61 82.58 L 580.44 82.58 L 584.35 82.58 L 591.55 82.58 L 591.74 82.58 L 592.62 82.58 L 592.79 82.58 L 593.71 82.58 L 594.07 82.58 L 594.07 83.32 L 593.71 85.99 L 592.79 88.27 L 592.62 89.94 L 591.74 92.58 L 591.55 87.87 L 584.35 89.37 L 580.44 90.28 L 574.61 92.05 L 573.25 87.33 Z" fill="#d0d0d0" fill-opacity="0.5" stroke="none"/>
<path d="M 596.89 81.68 L 599.29 81.68 L 599.29 84.09 L 596.89 86.44 Z" fill="#d0d0d0" fill-opacity="0.5" stroke="none"/>
<path d="M 618.17 78.88 L 618.17 79.07 Z" fill="#d0d0d0" fill-opacity="0.5" stroke="none"/>
<path d="M 627.76 66.17 L 627.76 66.60 Z" fill="#d0d0d0" fill-opacity="0.5" stroke="none"/>
<path d="M 636.93 64.23 L 636.98 64.23 L 644.00 64.23 L 663.01 64.23 L 668.48 64.23 L 680.93 64.23 L 680.93 64.45 L 668.48 67.06 L 663.01 66.34 L 644.00 68.08 L 636.98 67.34 L 636.93 69.14 Z" fill="#d0d0d0" fill-opacity="0.5" stroke="none"/>
<path d="M 694.87 53.03 L 707.65 53.03 L 707.65 53.81 L 694.87 53.05 Z" fill="#d0d0d0" fill-opacity="0.5" stroke="none"/>
<path d="M 716.29 51.14 L 716.56 51.14 L 716.56 53.52 L 716.29 56.17 Z" fill="#d0d0d0" fill-opacity="0.5" stroke="none"/>
<path d="M 728.31 50.85 L 731.53 50.85 L 754.87 50.85 L 757.52 50.85 L 760.83 50.85 L 768.43 50.85 L 768.64 50.85 L 769.73 50.85 L 769.87 50.85 L 769.92 50.85 L 770.46 50.85 L 772.75 50.85 L 772.78 50.85 L 773.33 50.85 L 776.07 50.85 L 776.13 50.85 L 776.40 50.85 L 778.82 50.85 L 779.43 50.85 L 779.61 50.85 L 782.83 50.85 L 782.91 50.85 L 794.45 50.85 L 801.35 50.85 L 801.40 50.85 L 801.54 50.85 L 805.08 50.85 L 816.04 50.85 L 823.74 50.85 L 827.06 50.85 L 842.61 50.85 L 846.16 50.85 L 848.87 50.85 L 858.47 50.85 L 880.58 50.85 L 892.92 50.85 L 892.98 50.85 L 893.40 50.85 L 905.65 50.85 L 910.97 50.85 L 911.63 50.85 L 914.17 50.85 L 933.06 50.85 L 933.79 50.85 L 933.79 51.97 L 933.06 51.31 L 914.17 52.27 L 911.63 53.75 L 910.97 54.51 L 905.65 56.13 L 893.40 58.30 L 892.98 58.68 L 892.92 60.43 L 880.58 59.81 L 858.47 59.04 L 848.87 58.32 L 846.16 60.17 L 842.61 62.81 L 827.06 61.65 L 823.74 60.51 L 816.04 63.14 L 805.08 63.76 L 801.54 66.38 L 801.40 61.43 L 801.35 56.50 L 794.45 51.47 L 782.91 53.29 L 782.83 55.28 L 779.61 57.94 L 779.43 60.32 L 778.82 59.74 L 776.40 61.76 L 776.13 64.39 L 776.07 67.16 L 773.33 64.44 L 772.78 59.48 L 772.75 61.79 L 770.46 56.81 L 769.92 57.89 L 769.87 52.97 L 769.73 55.53 L 768.64 57.99 L 768.43 58.41 L 760.83 59.16 L 757.52 54.16 L 754.87 56.34 L 731.53 55.81 L 728.31 55.88 Z" fill="#d0d0d0" fill-opacity="0.5" stroke="none"/>
<path d="M 955.92 46.68 L 956.02 46.68 L 958.82 46.68 L 975.32 46.68 L 975.53 46.68 L 981.16 46.68 L 981.16 48.65 L 975.53 50.43 L 975.32 47.79 L 958.82 50.63 L 956.02 53.30 L 955.92 48.25 Z" fill="#d0d0d0" fill-opacity="0.5" stroke="none"/>
<path d="M 1003.16 46.20 L 1003.16 46.26 Z" fill="#d0d0d0" fill-opacity="0.5" stroke="none"/>
<path d="M 1062.39 32.62 L 1063.28 32.62 L 1063.28 35.08 L 1062.39 37.81 Z" fill="#d0d0d0" fill-opacity="0.5" stroke="none"/>
<path d="M 1088.17 29.34 L 1088.32 29.34 L 1088.34 29.34 L 1088.41 29.34 L 1088.45 29.34 L 1088.58 29.34 L 1090.46 29.34 L 1091.16 29.34 L 1091.39 29.34 L 1091.73 29.34 L 1107.01 29.34 L 1107.54 29.34 L 1113.42 29.34 L 1122.96 29.34 L 1122.96 29.45 L 1113.42 30.98 L 1107.54 32.88 L 1107.01 35.14 L 1091.73 37.59 L 1091.39 39.25 L 1091.16 41.29 L 1090.46 44.01 L 1088.58 38.87 L 1088.45 40.71 L 1088.41 42.91 L 1088.34 37.81 L 1088.32 32.62 L 1088.17 29.97 Z" fill="#d0d0d0" fill-opacity="0.5" stroke="none"/>
<polyline fill="none" stroke="#111" stroke-width="1.2" points="70.00,147.60 70.49,151.72 70.54,150.29 73.08,148.09 73.09,145.70 73.22,143.48 73.72,141.46 73.79,139.52 73.93,143.73 73.94,141.63 76.91,139.61 77.07,138.02 85.74,136.75 92.64,136.24 92.67,133.84 95.68,131.42 95.80,130.51 95.96,134.77 96.00,138.98 96.13,140.08 96.19,139.52 98.20,143.73 98.22,141.57 98.35,145.76 98.41,144.67 98.60,148.83 98.64,152.90 98.65,150.55 98.89,148.66 106.43,152.78 107.54,150.83 110.78,154.92 110.83,153.06 111.42,151.07 111.53,149.18 111.69,153.28 133.49,157.36 133.56,156.62 133.70,156.67 137.96,156.46 139.03,154.48 139.43,152.80 140.43,151.84 143.18,152.98 152.33,152.31 155.36,150.24 162.01,148.74 175.00,147.03 177.39,146.24 181.43,144.02 187.26,141.79 187.55,139.42 205.96,143.63 206.13,147.76 206.14,151.88 206.20,151.05 209.23,149.50 225.01,147.31 227.99,145.30 228.07,143.66 228.45,141.90 230.58,139.87 231.12,137.49 231.30,141.72 231.35,140.11 243.28,139.14 243.90,137.24 244.20,135.19 246.30,132.94 246.68,132.86 247.60,132.08 249.32,136.38 249.38,135.00 249.51,133.81 250.02,131.54 253.38,135.84 253.39,133.46 253.52,131.45 253.85,130.04 262.81,134.35 269.48,132.08 269.64,129.67 269.75,128.51 270.49,132.84 270.89,132.54 271.40,136.83 271.47,135.71 271.57,133.93 271.70,132.01 271.96,129.73 272.09,127.58 272.52,125.82 275.21,124.01 275.29,121.79 275.42,126.17 275.44,124.29 275.77,128.67 275.89,127.50 284.29,125.36 284.47,123.76 284.66,124.35 287.35,124.13 287.83,121.81 287.86,119.46 288.02,118.82 293.63,117.58 294.18,115.47 294.41,114.85 294.87,114.74 296.66,119.21 297.34,117.77 297.76,115.41 297.78,113.08 309.43,110.98 313.03,109.03 315.40,107.15 316.24,104.93 319.24,102.51 319.33,99.93 319.44,99.06 319.63,101.31 331.40,105.89 331.50,105.15 335.32,103.21 335.84,101.23 338.51,105.82 340.74,104.91 350.50,103.57 350.91,101.15 354.01,99.31 354.05,103.86 354.18,108.43 354.29,107.49 356.69,107.78 357.22,105.38 357.30,103.54 357.74,101.11 357.83,100.06 358.67,97.62 359.69,95.97 360.05,100.61 360.12,98.55 360.29,96.11 361.04,100.74 362.99,99.06 363.47,96.84 375.40,97.11 376.37,95.72 379.19,93.94 382.04,92.54 382.64,91.14 384.74,95.82 384.85,94.05 384.98,92.18 385.25,91.08 395.31,89.75 398.34,87.47 401.26,92.18 401.41,89.98 401.48,94.62 401.67,99.27 401.74,98.75 401.96,96.30 402.01,93.86 403.76,98.51 403.79,103.08 403.87,102.20 404.44,100.00 404.73,97.72 407.80,95.96 416.45,94.52 417.11,93.45 420.21,91.50 420.47,90.24 422.08,87.74 423.47,92.44 423.62,94.22 426.44,98.87 429.59,96.41 429.61,93.93 429.88,91.59 438.34,89.74 441.56,88.66 445.52,93.36 447.78,91.70 448.83,89.20 451.88,93.89 451.98,93.46 452.10,92.84 460.47,90.80 461.33,90.00 461.86,87.95 463.53,92.65 463.59,97.26 463.68,101.89 463.74,100.54 464.30,105.13 466.66,109.69 468.12,107.28 469.93,104.88 473.85,109.38 473.92,108.40 474.05,108.76 485.63,107.64 489.56,108.31 489.70,106.16 489.87,103.95 492.48,102.17 505.47,100.09 507.71,98.97 508.07,96.51 508.45,101.09 508.63,105.68 510.83,103.82 511.08,101.90 511.58,99.63 511.71,104.19 511.77,108.71 511.90,110.13 512.00,111.42 514.10,115.91 514.15,120.32 514.35,124.72 514.75,129.09 514.78,127.20 515.21,124.88 515.38,122.73 516.08,121.32 517.10,119.37 517.98,117.96 526.51,115.60 527.31,115.45 528.98,113.07 529.74,110.90 530.47,109.24 532.90,113.75 533.42,111.86 533.70,109.84 533.91,107.43 536.10,105.00 539.37,102.57 539.41,100.68 539.84,98.23 551.79,96.67 552.46,95.00 556.33,92.52 556.37,90.81 558.25,89.64 559.30,87.13 561.22,85.11 570.70,82.58 573.25,87.33 574.61,92.05 580.44,90.28 584.35,89.37 591.55,87.87 591.74,92.58 592.62,89.94 592.79,88.27 593.71,85.99 594.07,83.32 596.66,81.68 596.89,86.44 599.29,84.09 613.56,81.41 614.60,78.88 618.17,79.07 618.62,77.66 621.16,75.10 621.89,72.73 622.16,70.40 624.30,68.23 626.24,66.17 627.76,66.60 636.80,64.23 636.93,69.14 636.98,67.34 644.00,68.08 663.01,66.34 668.48,67.06 680.93,64.45 680.97,62.15 688.64,59.52 694.22,56.72 694.36,54.93 694.48,53.03 694.87,53.05 707.65,53.81 716.27,51.14 716.29,56.17 716.56,53.52 726.27,50.85 728.31,55.88 731.53,55.81 754.87,56.34 757.52,54.16 760.83,59.16 768.43,58.41 768.64,57.99 769.73,55.53 769.87,52.97 769.92,57.89 770.46,56.81 772.75,61.79 772.78,59.48 773.33,64.44 776.07,67.16 776.13,64.39 776.40,61.76 778.82,59.74 779.43,60.32 779.61,57.94 782.83,55.28 782.91,53.29 794.45,51.47 801.35,56.50 801.40,61.43 801.54,66.38 805.08,63.76 816.04,63.14 823.74,60.51 827.06,61.65 842.61,62.81 846.16,60.17 848.87,58.32 858.47,59.04 880.58,59.81 892.92,60.43 892.98,58.68 893.40,58.30 905.65,56.13 910.97,54.51 911.63,53.75 914.17,52.27 933.06,51.31 933.79,51.97 955.70,49.28 955.71,46.68 955.92,48.25 956.02,53.30 958.82,50.63 975.32,47.79 975.53,50.43 981.16,48.65 996.81,46.20 1003.16,46.26 1003.24,44.52 1021.27,43.08 1022.00,40.37 1022.06,37.68 1032.66,36.22 1042.37,33.49 1044.35,32.62 1062.39,37.81 1063.28,35.08 1087.90,32.34 1087.90,29.34 1088.17,29.97 1088.32,32.62 1088.34,37.81 1088.41,42.91 1088.45,40.71 1088.58,38.87 1090.46,44.01 1091.16,41.29 1091.39,39.25 1091.73,37.59 1107.01,35.14 1107.54,32.88 1113.42,30.98 1122.96,29.45 1126.00,27.28 1130.33,27.21 1134.67,25.88 1170.00,25.00"/>
<text x="620.0" y="588" text-anchor="middle" font-family="sans-serif" font-size="12" fill="#333">UTC time</text>
<text x="15" y="287.5" transform="rotate(-90 15,287.5)" text-anchor="middle" font-family="sans-serif" font-size="12" fill="#333">Capital</text>
</svg>