<svg xmlns="http://www.w3.org/2000/svg" width="1200" height="600" viewBox="0 0 1200 600">
<desc>Equity curve with drawdown fill</desc>
<text x="600.0" y="18.0" text-anchor="middle" font-family="sans-serif" font-size="14">Portfolio 2013</text>
<rect x="70" y="25" width="1100" height="525" fill="white" stroke="#ccc" />
<line x1="70" y1="550.00" x2="1170" y2="550.00" stroke="#eee"/>
<text x="62" y="554.0" text-anchor="end" font-family="sans-serif" font-size="11" fill="#555">0.00</text>
<line x1="70" y1="445.00" x2="1170" y2="445.00" stroke="#eee"/>
<text x="62" y="449.0" text-anchor="end" font-family="sans-serif" font-size="11" fill="#555">20000</text>
<line x1="70" y1="340.00" x2="1170" y2="340.00" stroke="#eee"/>
<text x="62" y="344.0" text-anchor="end" font-family="sans-serif" font-size="11" fill="#555">40000</text>
<line x1="70" y1="235.00" x2="1170" y2="235.00" stroke="#eee"/>
<text x="62" y="239.0" text-anchor="end" font-family="sans-serif" font-size="11" fill="#555">60000</text>
<line x1="70" y1="130.00" x2="1170" y2="130.00" stroke="#eee"/>
<text x="62" y="134.0" text-anchor="end" font-family="sans-serif" font-size="11" fill="#555">80000</text>
<line x1="70" y1="25.00" x2="1170" y2="25.00" stroke="#eee"/>
<text x="62" y="29.0" text-anchor="end" font-family="sans-serif" font-size="11" fill="#555">100000</text>
<line x1="159.76" y1="25" x2="159.76" y2="550" stroke="#f2f2f2"/>
<text x="159.76" y="566" text-anchor="middle" font-family="sans-serif" font-size="11" fill="#555">Feb</text>
<line x1="245.61" y1="25" x2="245.61" y2="550" stroke="#f2f2f2"/>
<text x="245.61" y="566" text-anchor="middle" font-family="sans-serif" font-size="11" fill="#555">Mar</text>
<line x1="340.66" y1="25" x2="340.66" y2="550" stroke="#f2f2f2"/>
<text x="340.66" y="566" text-anchor="middle" font-family="sans-serif" font-size="11" fill="#555">Apr</text>
<line x1="432.64" y1="25" x2="432.64" y2="550" stroke="#f2f2f2"/>
<text x="432.64" y="566" text-anchor="middle" font-family="sans-serif" font-size="11" fill="#555">May</text>
<line x1="527.69" y1="25" x2="527.69" y2="550" stroke="#f2f2f2"/>
<text x="527.69" y="566" text-anchor="middle" font-family="sans-serif" font-size="11" fill="#555">Jun</text>
<line x1="619.68" y1="25" x2="619.68" y2="550" stroke="#f2f2f2"/>
<text x="619.68" y="566" text-anchor="middle" font-family="sans-serif" font-size="11" fill="#555">Jul</text>
<line x1="714.72" y1="25" x2="714.72" y2="550" stroke="#f2f2f2"/>
<text x="714.72" y="566" text-anchor="middle" font-family="sans-serif" font-size="11" fill="#555">Aug</text>
<line x1="809.77" y1="25" x2="809.77" y2="550" stroke="#f2f2f2"/>
<text x="809.77" y="566" text-anchor="middle" font-family="sans-serif" font-size="11" fill="#555">Sep</text>
<line x1="901.76" y1="25" x2="901.76" y2="550" stroke="#f2f2f2"/>
<text x="901.76" y="566" text-anchor="middle" font-family="sans-serif" font-size="11" fill="#555">Oct</text>
<line x1="996.81" y1="25" x2="996.81" y2="550" stroke="#f2f2f2"/>
<text x="996.81" y="566" text-anchor="middle" font-family="sans-serif" font-size="11" fill="#555">Nov</text>
<line x1="1088.79" y1="25" x2="1088.79" y2="550" stroke="#f2f2f2"/>
<text x="1088.79" y="566" text-anchor="middle" font-family="sans-serif" font-size="11" fill="#555">Dec</text>
<line x1="70" y1="550" x2="1170" y2="550" stroke="#888"/>
<line x1="70" y1="25" x2="70" y2="550" stroke="#888"/>
<path d="M 70.00 25.00 L 94.09 25.00 L 97.11 25.00 L 110.12 25.00 L 118.52 25.00 L 130.29 25.00 L 134.22 25.00 L 161.68 25.00 L 161.91 25.00 L 174.15 25.00 L 179.93 25.00 L 180.09 25.00 L 180.10 25.00 L 180.22 25.00 L 180.34 25.00 L 194.98 25.00 L 200.90 25.00 L 220.45 25.00 L 222.22 25.00 L 225.59 25.00 L 235.39 25.00 L 235.42 25.00 L 235.62 25.00 L 235.83 25.00 L 265.77 25.00 L 268.80 25.00 L 268.88 25.00 L 268.95 25.00 L 284.39 25.00 L 287.84 25.00 L 297.73 25.00 L 299.02 25.00 L 302.99 25.00 L 311.97 25.00 L 319.28 25.00 L 321.03 25.00 L 351.60 25.00 L 351.79 25.00 L 354.65 25.00 L 354.67 25.00 L 354.97 25.00 L 388.34 25.00 L 388.93 25.00 L 391.70 25.00 L 409.38 25.00 L 416.27 25.00 L 431.51 25.00 L 437.51 25.00 L 437.60 25.00 L 437.76 25.00 L 440.51 25.00 L 440.73 25.00 L 459.72 25.00 L 462.34 25.00 L 483.47 25.00 L 498.99 25.00 L 499.03 25.00 L 517.46 25.00 L 520.03 25.00 L 520.08 25.00 L 523.50 25.00 L 535.90 25.00 L 536.02 25.00 L 536.09 25.00 L 545.17 25.00 L 545.29 25.00 L 547.88 25.00 L 585.37 25.00 L 590.79 25.00 L 612.47 25.00 L 627.90 25.00 L 630.61 25.00 L 630.72 25.00 L 630.79 25.00 L 633.66 25.00 L 646.30 25.00 L 649.73 25.00 L 650.29 25.00 L 650.33 25.00 L 650.47 25.00 L 651.41 25.00 L 670.78 25.00 L 713.38 25.00 L 714.09 25.00 L 719.52 25.00 L 759.47 25.00 L 759.98 25.00 L 760.17 25.00 L 823.86 25.00 L 826.83 25.00 L 864.32 25.00 L 906.72 25.00 L 946.09 25.00 L 949.84 25.00 L 952.04 25.00 L 967.87 25.00 L 993.21 25.00 L 1016.83 25.00 L 1017.02 25.00 L 1017.04 25.00 L 1019.99 25.00 L 1035.73 25.00 L 1057.16 25.00 L 1102.91 25.00 L 1143.34 25.00 L 1170.00 25.00 L 1170.00 44.00 L 1143.34 46.95 L 1102.91 49.76 L 1057.16 51.51 L 1035.73 46.37 L 1019.99 49.18 L 1017.04 51.96 L 1017.02 46.83 L 1016.83 45.51 L 993.21 48.46 L 967.87 49.92 L 952.04 52.70 L 949.84 51.05 L 946.09 52.56 L 906.72 53.74 L 864.32 52.94 L 826.83 55.84 L 823.86 58.57 L 760.17 60.10 L 759.98 60.71 L 759.47 63.55 L 719.52 64.04 L 714.09 66.74 L 713.38 69.42 L 670.78 72.07 L 651.41 73.68 L 650.47 68.78 L 650.33 70.28 L 650.29 65.44 L 649.73 60.49 L 646.30 55.44 L 633.66 50.34 L 630.79 53.11 L 630.72 54.76 L 630.61 54.62 L 627.90 57.36 L 612.47 59.55 L 590.79 60.95 L 585.37 62.19 L 547.88 57.16 L 545.29 59.88 L 545.17 59.33 L 536.09 62.05 L 536.02 63.30 L 535.90 63.53 L 523.50 58.52 L 520.08 53.46 L 520.03 55.35 L 517.46 50.25 L 499.03 50.67 L 498.99 53.27 L 483.47 55.31 L 462.34 57.04 L 459.72 59.25 L 440.73 54.19 L 440.51 56.54 L 437.76 59.26 L 437.60 54.20 L 437.51 54.80 L 431.51 49.69 L 416.27 44.54 L 409.38 43.66 L 391.70 41.90 L 388.93 36.66 L 388.34 36.72 L 354.97 38.58 L 354.67 40.64 L 354.65 43.37 L 351.79 46.18 L 351.60 40.97 L 321.03 43.78 L 319.28 45.65 L 311.97 48.44 L 302.99 50.42 L 299.02 52.91 L 297.73 54.01 L 287.84 52.40 L 284.39 52.98 L 268.95 51.97 L 268.88 46.84 L 268.80 41.70 L 265.77 44.52 L 235.83 47.30 L 235.62 48.13 L 235.42 47.48 L 235.39 49.89 L 225.59 44.74 L 222.22 47.07 L 220.45 49.35 L 200.90 52.13 L 194.98 54.89 L 180.34 54.67 L 180.22 53.00 L 180.10 52.05 L 180.09 46.92 L 179.93 41.77 L 174.15 36.54 L 161.91 38.86 L 161.68 38.62 L 134.22 40.93 L 130.29 42.28 L 118.52 37.04 L 110.12 39.66 L 97.11 40.90 L 94.09 35.65 L 70.00 30.35 Z" fill="#d0d0d0" fill-opacity="0.5" stroke="none"/>
<polyline fill="none" stroke="#111" stroke-width="1.2" points="70.00,30.35 94.09,35.65 97.11,40.90 110.12,39.66 118.52,37.04 130.29,42.28 134.22,40.93 161.68,38.62 161.91,38.86 174.15,36.54 179.93,41.77 180.09,46.92 180.10,52.05 180.22,53.00 180.34,54.67 194.98,54.89 200.90,52.13 220.45,49.35 222.22,47.07 225.59,44.74 235.39,49.89 235.42,47.48 235.62,48.13 235.83,47.30 265.77,44.52 268.80,41.70 268.88,46.84 268.95,51.97 284.39,52.98 287.84,52.40 297.73,54.01 299.02,52.91 302.99,50.42 311.97,48.44 319.28,45.65 321.03,43.78 351.60,40.97 351.79,46.18 354.65,43.37 354.67,40.64 354.97,38.58 388.34,36.72 388.93,36.66 391.70,41.90 409.38,43.66 416.27,44.54 431.51,49.69 437.51,54.80 437.60,54.20 437.76,59.26 440.51,56.54 440.73,54.19 459.72,59.25 462.34,57.04 483.47,55.31 498.99,53.27 499.03,50.67 517.46,50.25 520.03,55.35 520.08,53.46 523.50,58.52 535.90,63.53 536.02,63.30 536.09,62.05 545.17,59.33 545.29,59.88 547.88,57.16 585.37,62.19 590.79,60.95 612.47,59.55 627.90,57.36 630.61,54.62 630.72,54.76 630.79,53.11 633.66,50.34 646.30,55.44 649.73,60.49 650.29,65.44 650.33,70.28 650.47,68.78 651.41,73.68 670.78,72.07 713.38,69.42 714.09,66.74 719.52,64.04 759.47,63.55 759.98,60.71 760.17,60.10 823.86,58.57 826.83,55.84 864.32,52.94 906.72,53.74 946.09,52.56 949.84,51.05 952.04,52.70 967.87,49.92 993.21,48.46 1016.83,45.51 1017.02,46.83 1017.04,51.96 1019.99,49.18 1035.73,46.37 1057.16,51.51 1102.91,49.76 1143.34,46.95 1170.00,44.00"/>
<text x="620.0" y="588" text-anchor="middle" font-family="sans-serif" font-size="12" fill="#333">UTC time</text>
<text x="15" y="287.5" transform="rotate(-90 15,287.5)" text-anchor="middle" font-family="sans-serif" font-size="12" fill="#333">Capital</text>
</svg>