<svg xmlns="http://www.w3.org/2000/svg" width="1200" height="600" viewBox="0 0 1200 600">
<desc>Equity curve with drawdown fill</desc>
<text x="600.0" y="18.0" text-anchor="middle" font-family="sans-serif" font-size="14">Portfolio 2010</text>
<rect x="70" y="25" width="1100" height="525" fill="white" stroke="#ccc" />
<line x1="70" y1="550.00" x2="1170" y2="550.00" stroke="#eee"/>
<text x="62" y="554.0" text-anchor="end" font-family="sans-serif" font-size="11" fill="#555">0.00</text>
<line x1="70" y1="445.00" x2="1170" y2="445.00" stroke="#eee"/>
<text x="62" y="449.0" text-anchor="end" font-family="sans-serif" font-size="11" fill="#555">22796</text>
<line x1="70" y1="340.00" x2="1170" y2="340.00" stroke="#eee"/>
<text x="62" y="344.0" text-anchor="end" font-family="sans-serif" font-size="11" fill="#555">45592</text>
<line x1="70" y1="235.00" x2="1170" y2="235.00" stroke="#eee"/>
<text x="62" y="239.0" text-anchor="end" font-family="sans-serif" font-size="11" fill="#555">68388</text>
<line x1="70" y1="130.00" x2="1170" y2="130.00" stroke="#eee"/>
<text x="62" y="134.0" text-anchor="end" font-family="sans-serif" font-size="11" fill="#555">91184</text>
<line x1="70" y1="25.00" x2="1170" y2="25.00" stroke="#eee"/>
<text x="62" y="29.0" text-anchor="end" font-family="sans-serif" font-size="11" fill="#555">113981</text>
<line x1="154.02" y1="25" x2="154.02" y2="550" stroke="#f2f2f2"/>
<text x="154.02" y="566" text-anchor="middle" font-family="sans-serif" font-size="11" fill="#555">Feb</text>
<line x1="239.38" y1="25" x2="239.38" y2="550" stroke="#f2f2f2"/>
<text x="239.38" y="566" text-anchor="middle" font-family="sans-serif" font-size="11" fill="#555">Mar</text>
<line x1="333.88" y1="25" x2="333.88" y2="550" stroke="#f2f2f2"/>
<text x="333.88" y="566" text-anchor="middle" font-family="sans-serif" font-size="11" fill="#555">Apr</text>
<line x1="425.33" y1="25" x2="425.33" y2="550" stroke="#f2f2f2"/>
<text x="425.33" y="566" text-anchor="middle" font-family="sans-serif" font-size="11" fill="#555">May</text>
<line x1="519.83" y1="25" x2="519.83" y2="550" stroke="#f2f2f2"/>
<text x="519.83" y="566" text-anchor="middle" font-family="sans-serif" font-size="11" fill="#555">Jun</text>
<line x1="611.29" y1="25" x2="611.29" y2="550" stroke="#f2f2f2"/>
<text x="611.29" y="566" text-anchor="middle" font-family="sans-serif" font-size="11" fill="#555">Jul</text>
<line x1="705.79" y1="25" x2="705.79" y2="550" stroke="#f2f2f2"/>
<text x="705.79" y="566" text-anchor="middle" font-family="sans-serif" font-size="11" fill="#555">Aug</text>
<line x1="800.29" y1="25" x2="800.29" y2="550" stroke="#f2f2f2"/>
<text x="800.29" y="566" text-anchor="middle" font-family="sans-serif" font-size="11" fill="#555">Sep</text>
<line x1="891.74" y1="25" x2="891.74" y2="550" stroke="#f2f2f2"/>
<text x="891.74" y="566" text-anchor="middle" font-family="sans-serif" font-size="11" fill="#555">Oct</text>
<line x1="986.24" y1="25" x2="986.24" y2="550" stroke="#f2f2f2"/>
<text x="986.24" y="566" text-anchor="middle" font-family="sans-serif" font-size="11" fill="#555">Nov</text>
<line x1="1077.70" y1="25" x2="1077.70" y2="550" stroke="#f2f2f2"/>
<text x="1077.70" y="566" text-anchor="middle" font-family="sans-serif" font-size="11" fill="#555">Dec</text>
<line x1="1170.00" y1="25" x2="1170.00" y2="550" stroke="#f2f2f2"/>
<text x="1170.00" y="566" text-anchor="middle" font-family="sans-serif" font-size="11" fill="#555">Jan</text>
<line x1="70" y1="550" x2="1170" y2="550" stroke="#888"/>
<line x1="70" y1="25" x2="70" y2="550" stroke="#888"/>
<path d="M 70.00 89.40 L 70.00 90.90 Z" fill="#d0d0d0" fill-opacity="0.5" stroke="none"/>
<path d="M 83.28 86.28 L 83.28 86.58 Z" fill="#d0d0d0" fill-opacity="0.5" stroke="none"/>
<path d="M 102.58 83.12 L 115.74 83.12 L 115.74 83.17 L 102.58 84.16 Z" fill="#d0d0d0" fill-opacity="0.5" stroke="none"/>
<path d="M 180.60 66.63 L 183.45 66.63 L 186.42 66.63 L 189.45 66.63 L 201.86 66.63 L 204.89 66.63 L 207.79 66.63 L 208.78 66.63 L 208.82 66.63 L 211.11 66.63 L 222.59 66.63 L 226.19 66.63 L 229.62 66.63 L 232.29 66.63 L 243.64 66.63 L 244.20 66.63 L 247.57 66.63 L 250.53 66.63 L 268.90 66.63 L 274.31 66.63 L 293.38 66.63 L 310.31 66.63 L 310.76 66.63 L 314.95 66.63 L 336.01 66.63 L 338.77 66.63 L 360.23 66.63 L 367.32 66.63 L 367.44 66.63 L 377.77 66.63 L 396.48 66.63 L 399.87 66.63 L 400.96 66.63 L 402.22 66.63 L 403.07 66.63 L 411.46 66.63 L 415.32 66.63 L 417.88 66.63 L 424.35 66.63 L 431.78 66.63 L 433.51 66.63 L 436.38 66.63 L 441.59 66.63 L 442.28 66.63 L 442.72 66.63 L 443.02 66.63 L 443.04 66.63 L 444.06 66.63 L 444.11 66.63 L 444.31 66.63 L 444.64 66.63 L 444.75 66.63 L 445.36 66.63 L 445.63 66.63 L 445.69 66.63 L 445.69 68.96 L 445.63 71.61 L 445.36 73.07 L 444.75 75.47 L 444.64 77.45 L 444.31 80.06 L 444.11 81.62 L 444.06 83.84 L 443.04 86.18 L 443.02 88.33 L 442.72 83.55 L 442.28 85.85 L 441.59 87.81 L 436.38 83.03 L 433.51 84.74 L 431.78 84.88 L 424.35 80.07 L 417.88 82.28 L 415.32 84.35 L 411.46 79.55 L 403.07 81.06 L 402.22 79.84 L 400.96 74.99 L 399.87 77.62 L 396.48 80.25 L 377.77 81.71 L 367.44 83.21 L 367.32 78.40 L 360.23 80.18 L 338.77 81.25 L 336.01 83.62 L 314.95 85.15 L 310.76 86.98 L 310.31 89.10 L 293.38 90.99 L 274.31 90.12 L 268.90 89.31 L 250.53 90.58 L 247.57 90.92 L 244.20 86.19 L 243.64 88.13 L 232.29 89.86 L 229.62 85.11 L 226.19 86.93 L 222.59 88.05 L 211.11 83.30 L 208.82 85.66 L 208.78 87.53 L 207.79 82.75 L 204.89 83.01 L 201.86 78.21 L 189.45 73.35 L 186.42 76.00 L 183.45 71.12 L 180.60 71.56 Z" fill="#d0d0d0" fill-opacity="0.5" stroke="none"/>
<path d="M 453.89 59.71 L 454.00 59.71 L 454.11 59.71 L 454.29 59.71 L 454.53 59.71 L 454.67 59.71 L 454.80 59.71 L 454.87 59.71 L 455.08 59.71 L 455.92 59.71 L 456.52 59.71 L 457.10 59.71 L 460.99 59.71 L 463.15 59.71 L 463.21 59.71 L 466.74 59.71 L 466.89 59.71 L 467.06 59.71 L 467.06 60.13 L 466.89 61.39 L 466.74 63.88 L 463.21 65.88 L 463.15 68.17 L 460.99 63.20 L 457.10 65.16 L 456.52 67.63 L 455.92 69.19 L 455.08 71.13 L 454.87 66.19 L 454.80 66.18 L 454.67 64.75 L 454.53 59.75 L 454.29 60.59 L 454.11 63.12 L 454.00 65.00 L 453.89 64.71 Z" fill="#d0d0d0" fill-opacity="0.5" stroke="none"/>
<path d="M 474.54 58.63 L 474.60 58.63 L 474.75 58.63 L 475.78 58.63 L 475.78 58.63 L 474.75 59.97 L 474.60 62.02 L 474.54 63.64 Z" fill="#d0d0d0" fill-opacity="0.5" stroke="none"/>
<path d="M 479.64 45.82 L 481.89 45.82 L 481.89 45.82 L 482.02 45.82 L 482.14 45.82 L 482.28 45.82 L 482.66 45.82 L 483.59 45.82 L 484.26 45.82 L 484.27 45.82 L 484.78 45.82 L 485.22 45.82 L 485.60 45.82 L 485.60 45.82 L 485.74 45.82 L 486.43 45.82 L 486.73 45.82 L 487.02 45.82 L 487.26 45.82 L 487.45 45.82 L 487.48 45.82 L 488.11 45.82 L 488.23 45.82 L 496.63 45.82 L 498.76 45.82 L 499.69 45.82 L 500.42 45.82 L 500.69 45.82 L 500.99 45.82 L 501.92 45.82 L 503.33 45.82 L 505.39 45.82 L 506.34 45.82 L 506.65 45.82 L 506.71 45.82 L 506.83 45.82 L 506.88 45.82 L 507.00 45.82 L 508.66 45.82 L 508.85 45.82 L 509.40 45.82 L 509.89 45.82 L 520.90 45.82 L 521.21 45.82 L 521.27 45.82 L 521.77 45.82 L 521.80 45.82 L 521.85 45.82 L 521.96 45.82 L 525.06 45.82 L 526.30 45.82 L 527.94 45.82 L 530.70 45.82 L 530.81 45.82 L 531.09 45.82 L 538.32 45.82 L 542.52 45.82 L 543.26 45.82 L 545.98 45.82 L 548.02 45.82 L 549.16 45.82 L 552.42 45.82 L 559.47 45.82 L 560.87 45.82 L 564.01 45.82 L 564.58 45.82 L 581.12 45.82 L 583.09 45.82 L 588.80 45.82 L 589.38 45.82 L 591.21 45.82 L 592.08 45.82 L 595.26 45.82 L 595.26 48.41 L 592.08 50.05 L 591.21 52.81 L 589.38 54.60 L 588.80 49.49 L 583.09 52.24 L 581.12 54.50 L 564.58 56.75 L 564.01 58.92 L 560.87 57.40 L 559.47 57.77 L 552.42 60.47 L 549.16 61.91 L 548.02 56.86 L 545.98 51.77 L 543.26 53.60 L 542.52 56.09 L 538.32 57.99 L 531.09 60.10 L 530.81 62.78 L 530.70 62.90 L 527.94 57.91 L 526.30 58.50 L 525.06 60.06 L 521.96 62.56 L 521.85 64.45 L 521.80 66.20 L 521.77 61.24 L 521.27 56.18 L 521.21 56.33 L 520.90 54.84 L 509.89 49.74 L 509.40 52.20 L 508.85 53.60 L 508.66 48.48 L 507.00 49.82 L 506.88 51.23 L 506.83 53.09 L 506.71 47.95 L 506.65 50.42 L 506.34 52.80 L 505.39 55.32 L 503.33 55.29 L 501.92 56.80 L 500.99 57.13 L 500.69 59.26 L 500.42 60.69 L 499.69 63.15 L 498.76 62.94 L 496.63 65.07 L 488.23 60.06 L 488.11 62.15 L 487.48 63.88 L 487.45 58.86 L 487.26 58.76 L 487.02 61.14 L 486.73 62.81 L 486.43 62.97 L 485.74 65.02 L 485.60 60.08 L 485.60 55.07 L 485.22 49.97 L 484.78 52.71 L 484.27 53.64 L 484.26 56.50 L 483.59 51.41 L 482.66 52.90 L 482.28 53.67 L 482.14 56.13 L 482.02 58.27 L 481.89 53.19 L 481.89 56.06 L 479.64 50.97 Z" fill="#d0d0d0" fill-opacity="0.5" stroke="none"/>
<path d="M 612.50 42.86 L 613.24 42.86 L 613.39 42.86 L 616.05 42.86 L 616.11 42.86 L 628.48 42.86 L 637.45 42.86 L 637.45 43.97 L 628.48 44.95 L 616.11 47.23 L 616.05 49.02 L 613.39 51.78 L 613.24 46.64 L 612.50 48.04 Z" fill="#d0d0d0" fill-opacity="0.5" stroke="none"/>
<path d="M 667.30 35.93 L 670.16 35.93 L 670.69 35.93 L 673.66 35.93 L 674.81 35.93 L 676.59 35.93 L 677.24 35.93 L 679.57 35.93 L 680.16 35.93 L 680.23 35.93 L 680.36 35.93 L 680.51 35.93 L 680.80 35.93 L 692.49 35.93 L 710.86 35.93 L 713.11 35.93 L 717.02 35.93 L 722.80 35.93 L 722.93 35.93 L 722.94 35.93 L 723.02 35.93 L 735.67 35.93 L 735.75 35.93 L 736.63 35.93 L 737.24 35.93 L 738.11 35.93 L 738.37 35.93 L 740.68 35.93 L 760.79 35.93 L 762.47 35.93 L 762.93 35.93 L 765.05 35.93 L 765.20 35.93 L 777.84 35.93 L 777.91 35.93 L 780.17 35.93 L 787.15 35.93 L 801.61 35.93 L 818.83 35.93 L 823.60 35.93 L 837.11 35.93 L 841.88 35.93 L 841.96 35.93 L 842.02 35.93 L 842.15 35.93 L 850.77 35.93 L 851.05 35.93 L 863.73 35.93 L 865.59 35.93 L 866.13 35.93 L 871.64 35.93 L 883.71 35.93 L 884.04 35.93 L 884.67 35.93 L 890.83 35.93 L 902.18 35.93 L 905.12 35.93 L 905.98 35.93 L 908.52 35.93 L 911.09 35.93 L 911.98 35.93 L 914.81 35.93 L 914.85 35.93 L 927.81 35.93 L 931.65 35.93 L 936.11 35.93 L 936.36 35.93 L 936.62 35.93 L 944.06 35.93 L 948.26 35.93 L 949.14 35.93 L 951.64 35.93 L 951.76 35.93 L 953.06 35.93 L 953.69 35.93 L 953.94 35.93 L 955.16 35.93 L 956.89 35.93 L 965.22 35.93 L 969.68 35.93 L 978.91 35.93 L 986.37 35.93 L 991.07 35.93 L 994.79 35.93 L 996.67 35.93 L 1000.15 35.93 L 1000.60 35.93 L 1007.87 35.93 L 1007.95 35.93 L 1010.74 35.93 L 1012.03 35.93 L 1012.78 35.93 L 1015.57 35.93 L 1015.61 35.93 L 1016.04 35.93 L 1017.91 35.93 L 1021.19 35.93 L 1033.99 35.93 L 1039.24 35.93 L 1051.95 35.93 L 1053.47 35.93 L 1055.10 35.93 L 1057.52 35.93 L 1057.55 35.93 L 1057.69 35.93 L 1058.23 35.93 L 1063.70 35.93 L 1071.73 35.93 L 1072.62 35.93 L 1073.01 35.93 L 1078.78 35.93 L 1079.84 35.93 L 1079.84 36.77 L 1078.78 39.75 L 1073.01 42.00 L 1072.62 36.77 L 1071.73 39.32 L 1063.70 40.86 L 1058.23 43.03 L 1057.69 45.55 L 1057.55 47.36 L 1057.52 49.75 L 1055.10 44.59 L 1053.47 47.08 L 1051.95 49.31 L 1039.24 44.16 L 1033.99 46.14 L 1021.19 48.68 L 1017.91 51.20 L 1016.04 53.45 L 1015.61 55.47 L 1015.57 58.12 L 1012.78 53.04 L 1012.03 54.31 L 1010.74 53.83 L 1007.95 53.49 L 1007.87 54.30 L 1000.60 49.19 L 1000.15 51.41 L 996.67 54.32 L 994.79 49.22 L 991.07 52.14 L 986.37 53.10 L 978.91 55.87 L 969.68 56.73 L 965.22 58.97 L 956.89 59.84 L 955.16 62.36 L 953.94 63.17 L 953.69 63.88 L 953.06 65.91 L 951.76 67.59 L 951.64 67.03 L 949.14 62.05 L 948.26 61.58 L 944.06 63.52 L 936.62 63.66 L 936.36 65.45 L 936.11 60.45 L 931.65 63.19 L 927.81 61.87 L 914.85 62.12 L 914.81 64.84 L 911.98 59.83 L 911.09 62.36 L 908.52 63.47 L 905.98 66.18 L 905.12 68.08 L 902.18 63.11 L 890.83 64.89 L 884.67 65.85 L 884.04 60.85 L 883.71 61.82 L 871.64 61.80 L 866.13 63.10 L 865.59 65.54 L 863.73 68.23 L 851.05 63.25 L 850.77 65.67 L 842.15 67.40 L 842.02 67.36 L 841.96 62.38 L 841.88 57.40 L 837.11 52.31 L 823.60 51.51 L 818.83 53.21 L 801.61 51.57 L 787.15 53.17 L 780.17 54.35 L 777.91 54.98 L 777.84 56.25 L 765.20 51.16 L 765.05 51.34 L 762.93 52.23 L 762.47 52.38 L 760.79 54.27 L 740.68 56.74 L 738.37 56.65 L 738.11 56.36 L 737.24 57.75 L 736.63 59.36 L 735.75 57.48 L 735.67 58.29 L 723.02 61.02 L 722.94 61.67 L 722.93 56.68 L 722.80 51.64 L 717.02 46.50 L 713.11 44.74 L 710.86 44.24 L 692.49 39.02 L 680.80 41.44 L 680.51 43.35 L 680.36 46.15 L 680.23 47.67 L 680.16 48.90 L 679.57 43.74 L 677.24 38.52 L 676.59 41.34 L 674.81 42.89 L 673.66 42.16 L 670.69 44.10 L 670.16 38.90 L 667.30 41.17 Z" fill="#d0d0d0" fill-opacity="0.5" stroke="none"/>
<path d="M 1103.36 27.41 L 1104.05 27.41 L 1115.82 27.41 L 1118.41 27.41 L 1119.25 27.41 L 1121.21 27.41 L 1122.72 27.41 L 1128.11 27.41 L 1128.57 27.41 L 1137.65 27.41 L 1138.94 27.41 L 1146.83 27.41 L 1146.83 27.90 L 1138.94 30.79 L 1137.65 30.62 L 1128.57 32.36 L 1128.11 32.01 L 1122.72 32.54 L 1121.21 31.19 L 1119.25 33.60 L 1118.41 28.30 L 1115.82 28.50 L 1104.05 30.51 L 1103.36 32.73 Z" fill="#d0d0d0" fill-opacity="0.5" stroke="none"/>
<path d="M 1161.89 25.00 L 1165.23 25.00 L 1170.00 25.00 L 1170.00 26.79 L 1165.23 28.85 L 1161.89 30.34 Z" fill="#d0d0d0" fill-opacity="0.5" stroke="none"/>
<polyline fill="none" stroke="#111" stroke-width="1.2" points="70.00,90.90 75.63,88.33 82.68,86.28 83.28,86.58 90.04,85.42 97.71,84.58 98.12,83.12 102.58,84.16 115.74,83.17 117.64,81.45 122.64,78.99 142.05,76.35 165.31,74.37 166.36,71.73 167.30,69.07 168.15,66.63 180.60,71.56 183.45,71.12 186.42,76.00 189.45,73.35 201.86,78.21 204.89,83.01 207.79,82.75 208.78,87.53 208.82,85.66 211.11,83.30 222.59,88.05 226.19,86.93 229.62,85.11 232.29,89.86 243.64,88.13 244.20,86.19 247.57,90.92 250.53,90.58 268.90,89.31 274.31,90.12 293.38,90.99 310.31,89.10 310.76,86.98 314.95,85.15 336.01,83.62 338.77,81.25 360.23,80.18 367.32,78.40 367.44,83.21 377.77,81.71 396.48,80.25 399.87,77.62 400.96,74.99 402.22,79.84 403.07,81.06 411.46,79.55 415.32,84.35 417.88,82.28 424.35,80.07 431.78,84.88 433.51,84.74 436.38,83.03 441.59,87.81 442.28,85.85 442.72,83.55 443.02,88.33 443.04,86.18 444.06,83.84 444.11,81.62 444.31,80.06 444.64,77.45 444.75,75.47 445.36,73.07 445.63,71.61 445.69,68.96 445.82,66.28 452.65,63.41 453.00,60.70 453.25,59.71 453.89,64.71 454.00,65.00 454.11,63.12 454.29,60.59 454.53,59.75 454.67,64.75 454.80,66.18 454.87,66.19 455.08,71.13 455.92,69.19 456.52,67.63 457.10,65.16 460.99,63.20 463.15,68.17 463.21,65.88 466.74,63.88 466.89,61.39 467.06,60.13 467.18,58.63 474.54,63.64 474.60,62.02 474.75,59.97 475.78,58.63 476.19,56.34 477.45,54.18 478.26,52.72 478.38,50.65 479.21,48.15 479.49,45.82 479.64,50.97 481.89,56.06 481.89,53.19 482.02,58.27 482.14,56.13 482.28,53.67 482.66,52.90 483.59,51.41 484.26,56.50 484.27,53.64 484.78,52.71 485.22,49.97 485.60,55.07 485.60,60.08 485.74,65.02 486.43,62.97 486.73,62.81 487.02,61.14 487.26,58.76 487.45,58.86 487.48,63.88 488.11,62.15 488.23,60.06 496.63,65.07 498.76,62.94 499.69,63.15 500.42,60.69 500.69,59.26 500.99,57.13 501.92,56.80 503.33,55.29 505.39,55.32 506.34,52.80 506.65,50.42 506.71,47.95 506.83,53.09 506.88,51.23 507.00,49.82 508.66,48.48 508.85,53.60 509.40,52.20 509.89,49.74 520.90,54.84 521.21,56.33 521.27,56.18 521.77,61.24 521.80,66.20 521.85,64.45 521.96,62.56 525.06,60.06 526.30,58.50 527.94,57.91 530.70,62.90 530.81,62.78 531.09,60.10 538.32,57.99 542.52,56.09 543.26,53.60 545.98,51.77 548.02,56.86 549.16,61.91 552.42,60.47 559.47,57.77 560.87,57.40 564.01,58.92 564.58,56.75 581.12,54.50 583.09,52.24 588.80,49.49 589.38,54.60 591.21,52.81 592.08,50.05 595.26,48.41 606.38,45.64 609.56,42.86 612.50,48.04 613.24,46.64 613.39,51.78 616.05,49.02 616.11,47.23 628.48,44.95 637.45,43.97 648.94,41.18 649.75,41.15 650.03,39.89 653.06,39.87 655.80,38.35 658.95,35.93 667.30,41.17 670.16,38.90 670.69,44.10 673.66,42.16 674.81,42.89 676.59,41.34 677.24,38.52 679.57,43.74 680.16,48.90 680.23,47.67 680.36,46.15 680.51,43.35 680.80,41.44 692.49,39.02 710.86,44.24 713.11,44.74 717.02,46.50 722.80,51.64 722.93,56.68 722.94,61.67 723.02,61.02 735.67,58.29 735.75,57.48 736.63,59.36 737.24,57.75 738.11,56.36 738.37,56.65 740.68,56.74 760.79,54.27 762.47,52.38 762.93,52.23 765.05,51.34 765.20,51.16 777.84,56.25 777.91,54.98 780.17,54.35 787.15,53.17 801.61,51.57 818.83,53.21 823.60,51.51 837.11,52.31 841.88,57.40 841.96,62.38 842.02,67.36 842.15,67.40 850.77,65.67 851.05,63.25 863.73,68.23 865.59,65.54 866.13,63.10 871.64,61.80 883.71,61.82 884.04,60.85 884.67,65.85 890.83,64.89 902.18,63.11 905.12,68.08 905.98,66.18 908.52,63.47 911.09,62.36 911.98,59.83 914.81,64.84 914.85,62.12 927.81,61.87 931.65,63.19 936.11,60.45 936.36,65.45 936.62,63.66 944.06,63.52 948.26,61.58 949.14,62.05 951.64,67.03 951.76,67.59 953.06,65.91 953.69,63.88 953.94,63.17 955.16,62.36 956.89,59.84 965.22,58.97 969.68,56.73 978.91,55.87 986.37,53.10 991.07,52.14 994.79,49.22 996.67,54.32 1000.15,51.41 1000.60,49.19 1007.87,54.30 1007.95,53.49 1010.74,53.83 1012.03,54.31 1012.78,53.04 1015.57,58.12 1015.61,55.47 1016.04,53.45 1017.91,51.20 1021.19,48.68 1033.99,46.14 1039.24,44.16 1051.95,49.31 1053.47,47.08 1055.10,44.59 1057.52,49.75 1057.55,47.36 1057.69,45.55 1058.23,43.03 1063.70,40.86 1071.73,39.32 1072.62,36.77 1073.01,42.00 1078.78,39.75 1079.84,36.77 1082.55,34.32 1082.65,31.45 1082.88,29.21 1085.88,28.52 1094.37,27.41 1103.36,32.73 1104.05,30.51 1115.82,28.50 1118.41,28.30 1119.25,33.60 1121.21,31.19 1122.72,32.54 1128.11,32.01 1128.57,32.36 1137.65,30.62 1138.94,30.79 1146.83,27.90 1160.04,25.00 1161.89,30.34 1165.23,28.85 1170.00,26.79"/>
<text x="620.0" y="588" text-anchor="middle" font-family="sans-serif" font-size="12" fill="#333">UTC time</text>
<text x="15" y="287.5" transform="rotate(-90 15,287.5)" text-anchor="middle" font-family="sans-serif" font-size="12" fill="#333">Capital</text>
</svg>