<svg xmlns="http://www.w3.org/2000/svg" width="1200" height="600" viewBox="0 0 1200 600">
<desc>Equity curve with drawdown fill</desc>
<text x="600.0" y="18.0" text-anchor="middle" font-family="sans-serif" font-size="14">Portfolio 2016</text>
<rect x="70" y="25" width="1100" height="525" fill="white" stroke="#ccc" />
<line x1="70" y1="550.00" x2="1170" y2="550.00" stroke="#eee"/>
<text x="62" y="554.0" text-anchor="end" font-family="sans-serif" font-size="11" fill="#555">0.00</text>
<line x1="70" y1="445.00" x2="1170" y2="445.00" stroke="#eee"/>
<text x="62" y="449.0" text-anchor="end" font-family="sans-serif" font-size="11" fill="#555">35509</text>
<line x1="70" y1="340.00" x2="1170" y2="340.00" stroke="#eee"/>
<text x="62" y="344.0" text-anchor="end" font-family="sans-serif" font-size="11" fill="#555">71017</text>
<line x1="70" y1="235.00" x2="1170" y2="235.00" stroke="#eee"/>
<text x="62" y="239.0" text-anchor="end" font-family="sans-serif" font-size="11" fill="#555">106526</text>
<line x1="70" y1="130.00" x2="1170" y2="130.00" stroke="#eee"/>
<text x="62" y="134.0" text-anchor="end" font-family="sans-serif" font-size="11" fill="#555">142034</text>
<line x1="70" y1="25.00" x2="1170" y2="25.00" stroke="#eee"/>
<text x="62" y="29.0" text-anchor="end" font-family="sans-serif" font-size="11" fill="#555">177543</text>
<line x1="154.21" y1="25" x2="154.21" y2="550" stroke="#f2f2f2"/>
<text x="154.21" y="566" text-anchor="middle" font-family="sans-serif" font-size="11" fill="#555">Feb</text>
<line x1="242.56" y1="25" x2="242.56" y2="550" stroke="#f2f2f2"/>
<text x="242.56" y="566" text-anchor="middle" font-family="sans-serif" font-size="11" fill="#555">Mar</text>
<line x1="337.00" y1="25" x2="337.00" y2="550" stroke="#f2f2f2"/>
<text x="337.00" y="566" text-anchor="middle" font-family="sans-serif" font-size="11" fill="#555">Apr</text>
<line x1="428.40" y1="25" x2="428.40" y2="550" stroke="#f2f2f2"/>
<text x="428.40" y="566" text-anchor="middle" font-family="sans-serif" font-size="11" fill="#555">May</text>
<line x1="522.84" y1="25" x2="522.84" y2="550" stroke="#f2f2f2"/>
<text x="522.84" y="566" text-anchor="middle" font-family="sans-serif" font-size="11" fill="#555">Jun</text>
<line x1="614.24" y1="25" x2="614.24" y2="550" stroke="#f2f2f2"/>
<text x="614.24" y="566" text-anchor="middle" font-family="sans-serif" font-size="11" fill="#555">Jul</text>
<line x1="708.68" y1="25" x2="708.68" y2="550" stroke="#f2f2f2"/>
<text x="708.68" y="566" text-anchor="middle" font-family="sans-serif" font-size="11" fill="#555">Aug</text>
<line x1="803.12" y1="25" x2="803.12" y2="550" stroke="#f2f2f2"/>
<text x="803.12" y="566" text-anchor="middle" font-family="sans-serif" font-size="11" fill="#555">Sep</text>
<line x1="894.51" y1="25" x2="894.51" y2="550" stroke="#f2f2f2"/>
<text x="894.51" y="566" text-anchor="middle" font-family="sans-serif" font-size="11" fill="#555">Oct</text>
<line x1="988.96" y1="25" x2="988.96" y2="550" stroke="#f2f2f2"/>
<text x="988.96" y="566" text-anchor="middle" font-family="sans-serif" font-size="11" fill="#555">Nov</text>
<line x1="1080.35" y1="25" x2="1080.35" y2="550" stroke="#f2f2f2"/>
<text x="1080.35" y="566" text-anchor="middle" font-family="sans-serif" font-size="11" fill="#555">Dec</text>
<line x1="70" y1="550" x2="1170" y2="550" stroke="#888"/>
<line x1="70" y1="25" x2="70" y2="550" stroke="#888"/>
<path d="M 70.76 90.64 L 79.26 90.64 L 80.45 90.64 L 81.30 90.64 L 81.30 92.65 L 80.45 94.88 L 79.26 96.58 L 70.76 91.88 Z" fill="#d0d0d0" fill-opacity="0.5" stroke="none"/>
<path d="M 104.18 85.45 L 104.19 85.45 L 104.19 87.76 L 104.18 90.22 Z" fill="#d0d0d0" fill-opacity="0.5" stroke="none"/>
<path d="M 123.18 83.69 L 123.18 84.57 Z" fill="#d0d0d0" fill-opacity="0.5" stroke="none"/>
<path d="M 146.93 80.37 L 162.03 80.37 L 162.28 80.37 L 162.34 80.37 L 162.39 80.37 L 162.68 80.37 L 164.45 80.37 L 168.11 80.37 L 168.16 80.37 L 168.23 80.37 L 168.40 80.37 L 177.05 80.37 L 177.59 80.37 L 180.31 80.37 L 183.60 80.37 L 185.79 80.37 L 189.47 80.37 L 198.83 80.37 L 226.27 80.37 L 232.22 80.37 L 250.76 80.37 L 253.42 80.37 L 253.42 81.91 L 250.76 84.46 L 232.22 86.99 L 226.27 87.73 L 198.83 88.45 L 189.47 89.54 L 185.79 91.38 L 183.60 93.62 L 180.31 88.89 L 177.59 91.41 L 177.05 86.65 L 168.40 87.82 L 168.23 87.70 L 168.16 89.45 L 168.11 91.78 L 164.45 94.28 L 162.68 95.77 L 162.39 91.06 L 162.34 92.68 L 162.28 87.94 L 162.03 83.20 L 146.93 85.19 Z" fill="#d0d0d0" fill-opacity="0.5" stroke="none"/>
<path d="M 269.10 75.26 L 269.10 77.48 Z" fill="#d0d0d0" fill-opacity="0.5" stroke="none"/>
<path d="M 271.62 74.89 L 271.73 74.89 L 271.75 74.89 L 271.75 76.65 L 271.73 79.23 L 271.62 79.72 Z" fill="#d0d0d0" fill-opacity="0.5" stroke="none"/>
<path d="M 271.92 72.87 L 271.97 72.87 L 272.06 72.87 L 272.14 72.87 L 272.26 72.87 L 274.17 72.87 L 275.01 72.87 L 290.67 72.87 L 290.72 72.87 L 292.57 72.87 L 307.78 72.87 L 330.07 72.87 L 339.00 72.87 L 354.12 72.87 L 354.35 72.87 L 356.52 72.87 L 372.47 72.87 L 399.64 72.87 L 399.68 72.87 L 399.94 72.87 L 415.03 72.87 L 418.63 72.87 L 418.63 73.60 L 415.03 76.20 L 399.94 77.79 L 399.68 72.90 L 399.64 75.65 L 372.47 77.02 L 356.52 78.80 L 354.35 80.71 L 354.12 83.28 L 339.00 84.87 L 330.07 85.19 L 307.78 87.73 L 292.57 88.86 L 290.72 88.34 L 290.67 83.61 L 275.01 86.15 L 274.17 86.56 L 272.26 87.42 L 272.14 86.96 L 272.06 87.17 L 271.97 82.42 L 271.92 77.66 Z" fill="#d0d0d0" fill-opacity="0.5" stroke="none"/>
<path d="M 530.74 61.82 L 530.83 61.82 L 530.90 61.82 L 531.05 61.82 L 567.90 61.82 L 570.06 61.82 L 570.79 61.82 L 570.82 61.82 L 570.95 61.82 L 585.56 61.82 L 591.18 61.82 L 592.91 61.82 L 592.91 62.37 L 591.18 65.19 L 585.56 67.56 L 570.95 70.18 L 570.82 71.75 L 570.79 74.06 L 570.06 69.12 L 567.90 69.23 L 531.05 71.85 L 530.90 70.76 L 530.83 71.65 L 530.74 66.74 Z" fill="#d0d0d0" fill-opacity="0.5" stroke="none"/>
<path d="M 593.12 59.47 L 593.17 59.47 L 593.21 59.47 L 593.34 59.47 L 593.36 59.47 L 593.40 59.47 L 593.51 59.47 L 593.54 59.47 L 593.65 59.47 L 593.69 59.47 L 593.83 59.47 L 593.85 59.47 L 593.97 59.47 L 594.02 59.47 L 594.09 59.47 L 594.18 59.47 L 594.47 59.47 L 594.86 59.47 L 595.27 59.47 L 601.95 59.47 L 612.93 59.47 L 613.34 59.47 L 613.37 59.47 L 613.37 60.15 L 613.34 62.74 L 612.93 65.39 L 601.95 67.63 L 595.27 69.50 L 594.86 64.53 L 594.47 66.66 L 594.18 66.77 L 594.09 68.85 L 594.02 69.83 L 593.97 64.91 L 593.85 67.53 L 593.83 70.24 L 593.69 72.84 L 593.65 74.46 L 593.54 69.58 L 593.51 72.13 L 593.40 67.32 L 593.36 69.59 L 593.34 72.07 L 593.21 67.17 L 593.17 69.41 L 593.12 64.49 Z" fill="#d0d0d0" fill-opacity="0.5" stroke="none"/>
<path d="M 628.59 57.47 L 637.28 57.47 L 637.28 59.84 L 628.59 62.51 Z" fill="#d0d0d0" fill-opacity="0.5" stroke="none"/>
<path d="M 787.04 39.01 L 805.19 39.01 L 807.88 39.01 L 808.17 39.01 L 820.32 39.01 L 820.40 39.01 L 829.42 39.01 L 850.69 39.01 L 892.57 39.01 L 892.57 40.13 L 850.69 41.87 L 829.42 42.77 L 820.40 43.32 L 820.32 44.53 L 808.17 39.32 L 807.88 41.62 L 805.19 44.38 L 787.04 44.22 Z" fill="#d0d0d0" fill-opacity="0.5" stroke="none"/>
<path d="M 1013.59 25.00 L 1013.63 25.00 L 1013.70 25.00 L 1013.76 25.00 L 1013.89 25.00 L 1013.90 25.00 L 1014.07 25.00 L 1014.21 25.00 L 1014.34 25.00 L 1014.42 25.00 L 1014.55 25.00 L 1014.60 25.00 L 1014.91 25.00 L 1015.28 25.00 L 1015.34 25.00 L 1028.75 25.00 L 1029.74 25.00 L 1030.54 25.00 L 1032.75 25.00 L 1035.69 25.00 L 1039.48 25.00 L 1042.74 25.00 L 1057.78 25.00 L 1071.58 25.00 L 1072.72 25.00 L 1079.14 25.00 L 1079.42 25.00 L 1092.41 25.00 L 1093.53 25.00 L 1093.67 25.00 L 1093.98 25.00 L 1094.04 25.00 L 1094.91 25.00 L 1103.29 25.00 L 1103.35 25.00 L 1103.41 25.00 L 1103.52 25.00 L 1103.68 25.00 L 1103.73 25.00 L 1106.38 25.00 L 1122.37 25.00 L 1123.09 25.00 L 1124.47 25.00 L 1125.17 25.00 L 1128.19 25.00 L 1146.27 25.00 L 1168.65 25.00 L 1168.69 25.00 L 1170.00 25.00 L 1170.00 46.44 L 1168.69 47.97 L 1168.65 50.17 L 1146.27 53.04 L 1128.19 55.24 L 1125.17 57.71 L 1124.47 58.87 L 1123.09 53.77 L 1122.37 54.00 L 1106.38 56.85 L 1103.73 57.01 L 1103.68 51.90 L 1103.52 46.80 L 1103.41 47.02 L 1103.35 41.88 L 1103.29 43.78 L 1094.91 46.69 L 1094.04 46.90 L 1093.98 48.89 L 1093.67 43.71 L 1093.53 44.69 L 1092.41 46.15 L 1079.42 49.04 L 1079.14 50.11 L 1072.72 52.21 L 1071.58 54.33 L 1057.78 54.15 L 1042.74 49.02 L 1039.48 51.46 L 1035.69 53.38 L 1032.75 55.32 L 1030.54 56.04 L 1029.74 55.08 L 1028.75 56.27 L 1015.34 58.33 L 1015.28 53.24 L 1014.91 52.64 L 1014.60 54.86 L 1014.55 49.80 L 1014.42 44.68 L 1014.34 45.58 L 1014.21 40.44 L 1014.07 43.04 L 1013.90 37.81 L 1013.89 40.75 L 1013.76 39.57 L 1013.70 34.41 L 1013.63 35.59 L 1013.59 30.35 Z" fill="#d0d0d0" fill-opacity="0.5" stroke="none"/>
<polyline fill="none" stroke="#111" stroke-width="1.2" points="70.00,90.64 70.76,91.88 79.26,96.58 80.45,94.88 81.30,92.65 83.06,90.58 90.12,88.07 98.34,86.36 100.59,85.93 101.45,85.45 104.18,90.22 104.19,87.76 122.42,85.08 122.50,83.69 123.18,84.57 143.23,82.92 145.54,80.37 146.93,85.19 162.03,83.20 162.28,87.94 162.34,92.68 162.39,91.06 162.68,95.77 164.45,94.28 168.11,91.78 168.16,89.45 168.23,87.70 168.40,87.82 177.05,86.65 177.59,91.41 180.31,88.89 183.60,93.62 185.79,91.38 189.47,89.54 198.83,88.45 226.27,87.73 232.22,86.99 250.76,84.46 253.42,81.91 253.44,79.39 253.48,76.81 253.67,75.43 263.10,75.26 269.10,77.48 271.60,74.89 271.62,79.72 271.73,79.23 271.75,76.65 271.78,73.91 271.88,72.87 271.92,77.66 271.97,82.42 272.06,87.17 272.14,86.96 272.26,87.42 274.17,86.56 275.01,86.15 290.67,83.61 290.72,88.34 292.57,88.86 307.78,87.73 330.07,85.19 339.00,84.87 354.12,83.28 354.35,80.71 356.52,78.80 372.47,77.02 399.64,75.65 399.68,72.90 399.94,77.79 415.03,76.20 418.63,73.60 433.35,71.00 435.70,69.93 445.35,67.30 466.89,64.91 482.71,64.64 530.65,61.82 530.74,66.74 530.83,71.65 530.90,70.76 531.05,71.85 567.90,69.23 570.06,69.12 570.79,74.06 570.82,71.75 570.95,70.18 585.56,67.56 591.18,65.19 592.91,62.37 592.95,59.47 593.12,64.49 593.17,69.41 593.21,67.17 593.34,72.07 593.36,69.59 593.40,67.32 593.51,72.13 593.54,69.58 593.65,74.46 593.69,72.84 593.83,70.24 593.85,67.53 593.97,64.91 594.02,69.83 594.09,68.85 594.18,66.77 594.47,66.66 594.86,64.53 595.27,69.50 601.95,67.63 612.93,65.39 613.34,62.74 613.37,60.15 627.50,57.47 628.59,62.51 637.28,59.84 637.37,57.16 655.40,54.47 658.80,53.99 680.30,52.59 701.39,51.41 722.58,48.68 722.80,48.19 743.99,47.87 755.57,46.82 759.87,44.31 786.74,41.55 786.79,39.01 787.04,44.22 805.19,44.38 807.88,41.62 808.17,39.32 820.32,44.53 820.40,43.32 829.42,42.77 850.69,41.87 892.57,40.13 893.37,38.91 905.77,36.13 905.81,33.57 914.58,31.02 954.15,28.40 954.24,26.00 979.19,25.00 1013.59,30.35 1013.63,35.59 1013.70,34.41 1013.76,39.57 1013.89,40.75 1013.90,37.81 1014.07,43.04 1014.21,40.44 1014.34,45.58 1014.42,44.68 1014.55,49.80 1014.60,54.86 1014.91,52.64 1015.28,53.24 1015.34,58.33 1028.75,56.27 1029.74,55.08 1030.54,56.04 1032.75,55.32 1035.69,53.38 1039.48,51.46 1042.74,49.02 1057.78,54.15 1071.58,54.33 1072.72,52.21 1079.14,50.11 1079.42,49.04 1092.41,46.15 1093.53,44.69 1093.67,43.71 1093.98,48.89 1094.04,46.90 1094.91,46.69 1103.29,43.78 1103.35,41.88 1103.41,47.02 1103.52,46.80 1103.68,51.90 1103.73,57.01 1106.38,56.85 1122.37,54.00 1123.09,53.77 1124.47,58.87 1125.17,57.71 1128.19,55.24 1146.27,53.04 1168.65,50.17 1168.69,47.97 1170.00,46.44"/>
<text x="620.0" y="588" text-anchor="middle" font-family="sans-serif" font-size="12" fill="#333">UTC time</text>
<text x="15" y="287.5" transform="rotate(-90 15,287.5)" text-anchor="middle" font-family="sans-serif" font-size="12" fill="#333">Capital</text>
</svg>