<svg xmlns="http://www.w3.org/2000/svg" width="1200" height="600" viewBox="0 0 1200 600">
<desc>Equity curve with drawdown fill</desc>
<text x="600.0" y="18.0" text-anchor="middle" font-family="sans-serif" font-size="14">Portfolio 2011</text>
<rect x="70" y="25" width="1100" height="525" fill="white" stroke="#ccc" />
<line x1="70" y1="550.00" x2="1170" y2="550.00" stroke="#eee"/>
<text x="62" y="554.0" text-anchor="end" font-family="sans-serif" font-size="11" fill="#555">0.00</text>
<line x1="70" y1="445.00" x2="1170" y2="445.00" stroke="#eee"/>
<text x="62" y="449.0" text-anchor="end" font-family="sans-serif" font-size="11" fill="#555">26780</text>
<line x1="70" y1="340.00" x2="1170" y2="340.00" stroke="#eee"/>
<text x="62" y="344.0" text-anchor="end" font-family="sans-serif" font-size="11" fill="#555">53559</text>
<line x1="70" y1="235.00" x2="1170" y2="235.00" stroke="#eee"/>
<text x="62" y="239.0" text-anchor="end" font-family="sans-serif" font-size="11" fill="#555">80339</text>
<line x1="70" y1="130.00" x2="1170" y2="130.00" stroke="#eee"/>
<text x="62" y="134.0" text-anchor="end" font-family="sans-serif" font-size="11" fill="#555">107118</text>
<line x1="70" y1="25.00" x2="1170" y2="25.00" stroke="#eee"/>
<text x="62" y="29.0" text-anchor="end" font-family="sans-serif" font-size="11" fill="#555">133898</text>
<line x1="156.74" y1="25" x2="156.74" y2="550" stroke="#f2f2f2"/>
<text x="156.74" y="566" text-anchor="middle" font-family="sans-serif" font-size="11" fill="#555">Feb</text>
<line x1="242.53" y1="25" x2="242.53" y2="550" stroke="#f2f2f2"/>
<text x="242.53" y="566" text-anchor="middle" font-family="sans-serif" font-size="11" fill="#555">Mar</text>
<line x1="337.50" y1="25" x2="337.50" y2="550" stroke="#f2f2f2"/>
<text x="337.50" y="566" text-anchor="middle" font-family="sans-serif" font-size="11" fill="#555">Apr</text>
<line x1="429.42" y1="25" x2="429.42" y2="550" stroke="#f2f2f2"/>
<text x="429.42" y="566" text-anchor="middle" font-family="sans-serif" font-size="11" fill="#555">May</text>
<line x1="524.39" y1="25" x2="524.39" y2="550" stroke="#f2f2f2"/>
<text x="524.39" y="566" text-anchor="middle" font-family="sans-serif" font-size="11" fill="#555">Jun</text>
<line x1="616.31" y1="25" x2="616.31" y2="550" stroke="#f2f2f2"/>
<text x="616.31" y="566" text-anchor="middle" font-family="sans-serif" font-size="11" fill="#555">Jul</text>
<line x1="711.28" y1="25" x2="711.28" y2="550" stroke="#f2f2f2"/>
<text x="711.28" y="566" text-anchor="middle" font-family="sans-serif" font-size="11" fill="#555">Aug</text>
<line x1="806.26" y1="25" x2="806.26" y2="550" stroke="#f2f2f2"/>
<text x="806.26" y="566" text-anchor="middle" font-family="sans-serif" font-size="11" fill="#555">Sep</text>
<line x1="898.17" y1="25" x2="898.17" y2="550" stroke="#f2f2f2"/>
<text x="898.17" y="566" text-anchor="middle" font-family="sans-serif" font-size="11" fill="#555">Oct</text>
<line x1="993.15" y1="25" x2="993.15" y2="550" stroke="#f2f2f2"/>
<text x="993.15" y="566" text-anchor="middle" font-family="sans-serif" font-size="11" fill="#555">Nov</text>
<line x1="1085.06" y1="25" x2="1085.06" y2="550" stroke="#f2f2f2"/>
<text x="1085.06" y="566" text-anchor="middle" font-family="sans-serif" font-size="11" fill="#555">Dec</text>
<line x1="70" y1="550" x2="1170" y2="550" stroke="#888"/>
<line x1="70" y1="25" x2="70" y2="550" stroke="#888"/>
<path d="M 73.01 52.38 L 79.15 52.38 L 82.27 52.38 L 97.34 52.38 L 100.38 52.38 L 100.44 52.38 L 100.54 52.38 L 100.76 52.38 L 102.66 52.38 L 112.32 52.38 L 115.09 52.38 L 115.74 52.38 L 118.59 52.38 L 121.76 52.38 L 122.03 52.38 L 124.09 52.38 L 134.21 52.38 L 136.61 52.38 L 137.34 52.38 L 142.44 52.38 L 142.77 52.38 L 146.51 52.38 L 167.89 52.38 L 183.20 52.38 L 197.78 52.38 L 204.82 52.38 L 210.63 52.38 L 221.36 52.38 L 222.08 52.38 L 222.50 52.38 L 271.02 52.38 L 274.54 52.38 L 286.11 52.38 L 286.85 52.38 L 286.85 53.32 L 286.11 55.54 L 274.54 56.80 L 271.02 58.23 L 222.50 60.98 L 222.08 55.94 L 221.36 58.02 L 210.63 58.90 L 204.82 57.10 L 197.78 59.34 L 183.20 57.81 L 167.89 59.95 L 146.51 61.16 L 142.77 56.12 L 142.44 58.88 L 137.34 61.60 L 136.61 62.30 L 134.21 63.16 L 124.09 62.92 L 122.03 65.37 L 121.76 67.09 L 118.59 69.55 L 115.74 71.73 L 115.09 73.69 L 112.32 73.84 L 102.66 76.29 L 100.76 71.40 L 100.54 66.46 L 100.44 67.40 L 100.38 62.47 L 97.34 57.49 L 82.27 59.78 L 79.15 62.49 L 73.01 57.46 Z" fill="#d0d0d0" fill-opacity="0.5" stroke="none"/>
<path d="M 315.11 48.22 L 318.42 48.22 L 318.42 48.95 L 315.11 48.24 Z" fill="#d0d0d0" fill-opacity="0.5" stroke="none"/>
<path d="M 339.64 44.34 L 359.35 44.34 L 391.62 44.34 L 391.70 44.34 L 397.12 44.34 L 414.37 44.34 L 415.26 44.34 L 417.09 44.34 L 437.70 44.34 L 437.70 46.74 L 417.09 47.32 L 415.26 49.90 L 414.37 51.79 L 397.12 53.73 L 391.70 51.79 L 391.62 52.89 L 359.35 47.76 L 339.64 49.50 Z" fill="#d0d0d0" fill-opacity="0.5" stroke="none"/>
<path d="M 443.44 43.91 L 443.53 43.91 L 443.65 43.91 L 443.70 43.91 L 443.79 43.91 L 443.89 43.91 L 446.47 43.91 L 446.94 43.91 L 447.04 43.91 L 447.19 43.91 L 455.75 43.91 L 458.15 43.91 L 461.94 43.91 L 462.35 43.91 L 462.49 43.91 L 465.28 43.91 L 468.28 43.91 L 468.40 43.91 L 468.52 43.91 L 477.27 43.91 L 480.24 43.91 L 480.90 43.91 L 486.86 43.91 L 489.30 43.91 L 489.61 43.91 L 497.94 43.91 L 506.32 43.91 L 508.00 43.91 L 509.66 43.91 L 510.84 43.91 L 521.43 43.91 L 528.98 43.91 L 529.86 43.91 L 532.55 43.91 L 550.80 43.91 L 553.92 43.91 L 569.50 43.91 L 571.08 43.91 L 571.71 43.91 L 572.31 43.91 L 574.78 43.91 L 584.53 43.91 L 585.75 43.91 L 593.60 43.91 L 604.31 43.91 L 606.13 43.91 L 609.09 43.91 L 611.94 43.91 L 612.13 43.91 L 636.44 43.91 L 636.68 43.91 L 639.48 43.91 L 639.50 43.91 L 639.87 43.91 L 648.62 43.91 L 649.00 43.91 L 650.40 43.91 L 651.13 43.91 L 651.18 43.91 L 651.37 43.91 L 651.72 43.91 L 653.26 43.91 L 654.20 43.91 L 655.10 43.91 L 655.18 43.91 L 656.05 43.91 L 658.19 43.91 L 658.19 44.36 L 656.05 46.50 L 655.18 48.09 L 655.10 50.09 L 654.20 44.93 L 653.26 46.74 L 651.72 48.84 L 651.37 49.18 L 651.18 51.82 L 651.13 53.59 L 650.40 48.47 L 649.00 51.27 L 648.62 53.36 L 639.87 54.91 L 639.50 55.82 L 639.48 58.58 L 636.68 61.33 L 636.44 56.29 L 612.13 58.80 L 611.94 61.05 L 609.09 63.78 L 606.13 58.77 L 604.31 58.03 L 593.60 58.94 L 585.75 59.48 L 584.53 62.22 L 574.78 61.03 L 572.31 61.55 L 571.71 63.80 L 571.08 66.50 L 569.50 69.21 L 553.92 64.26 L 550.80 65.86 L 532.55 67.87 L 529.86 68.98 L 528.98 70.68 L 521.43 68.69 L 510.84 69.24 L 509.66 70.49 L 508.00 65.55 L 506.32 67.51 L 497.94 68.60 L 489.61 70.73 L 489.30 65.80 L 486.86 63.69 L 480.90 65.01 L 480.24 66.92 L 477.27 69.14 L 468.52 71.25 L 468.40 73.11 L 468.28 68.24 L 465.28 63.27 L 462.49 64.71 L 462.35 64.85 L 461.94 66.30 L 458.15 68.04 L 455.75 70.08 L 447.19 65.13 L 447.04 65.26 L 446.94 66.84 L 446.47 61.87 L 443.89 64.61 L 443.79 64.45 L 443.70 64.08 L 443.65 59.08 L 443.53 54.06 L 443.44 49.01 Z" fill="#d0d0d0" fill-opacity="0.5" stroke="none"/>
<path d="M 678.91 35.23 L 678.97 35.23 L 679.09 35.23 L 679.09 37.33 L 678.97 38.64 L 678.91 40.48 Z" fill="#d0d0d0" fill-opacity="0.5" stroke="none"/>
<path d="M 679.42 34.44 L 679.43 34.44 L 679.64 34.44 L 679.69 34.44 L 693.26 34.44 L 698.15 34.44 L 700.46 34.44 L 703.93 34.44 L 704.03 34.44 L 704.20 34.44 L 713.20 34.44 L 713.30 34.44 L 713.39 34.44 L 713.54 34.44 L 715.38 34.44 L 716.33 34.44 L 718.54 34.44 L 718.79 34.44 L 722.24 34.44 L 722.35 34.44 L 724.64 34.44 L 725.41 34.44 L 725.73 34.44 L 725.83 34.44 L 726.07 34.44 L 733.78 34.44 L 734.11 34.44 L 734.14 34.44 L 734.40 34.44 L 737.15 34.44 L 738.26 34.44 L 740.64 34.44 L 740.77 34.44 L 740.78 34.44 L 740.85 34.44 L 740.96 34.44 L 742.40 34.44 L 743.40 34.44 L 743.74 34.44 L 743.99 34.44 L 755.99 34.44 L 756.20 34.44 L 756.26 34.44 L 759.44 34.44 L 761.38 34.44 L 761.99 34.44 L 765.39 34.44 L 768.15 34.44 L 779.85 34.44 L 780.62 34.44 L 786.89 34.44 L 790.10 34.44 L 797.88 34.44 L 801.37 34.44 L 807.43 34.44 L 822.73 34.44 L 822.89 34.44 L 822.93 34.44 L 823.65 34.44 L 825.81 34.44 L 829.47 34.44 L 829.92 34.44 L 832.11 34.44 L 832.63 34.44 L 832.72 34.44 L 832.83 34.44 L 839.87 34.44 L 840.80 34.44 L 841.22 34.44 L 842.37 34.44 L 844.11 34.44 L 844.23 34.44 L 844.54 34.44 L 844.97 34.44 L 848.06 34.44 L 848.49 34.44 L 850.94 34.44 L 851.02 34.44 L 851.02 34.81 L 850.94 36.17 L 848.49 39.02 L 848.06 41.87 L 844.97 44.46 L 844.54 46.98 L 844.23 49.38 L 844.11 51.73 L 842.37 53.40 L 841.22 55.57 L 840.80 57.78 L 839.87 57.93 L 832.83 59.64 L 832.72 62.04 L 832.63 62.73 L 832.11 57.69 L 829.92 59.84 L 829.47 61.75 L 825.81 56.70 L 823.65 59.46 L 822.93 54.40 L 822.89 55.93 L 822.73 50.83 L 807.43 53.76 L 801.37 55.41 L 797.88 57.62 L 790.10 60.38 L 786.89 55.34 L 780.62 57.12 L 779.85 57.75 L 768.15 52.67 L 765.39 47.54 L 761.99 47.29 L 761.38 49.51 L 759.44 51.52 L 756.26 54.30 L 756.20 56.25 L 755.99 54.47 L 743.99 49.36 L 743.74 51.74 L 743.40 54.52 L 742.40 54.39 L 740.96 53.57 L 740.85 54.44 L 740.78 55.25 L 740.77 50.20 L 740.64 45.09 L 738.26 39.88 L 737.15 42.72 L 734.40 45.54 L 734.14 46.25 L 734.11 48.39 L 733.78 43.21 L 726.07 45.43 L 725.83 46.50 L 725.73 48.96 L 725.41 51.77 L 724.64 54.26 L 722.35 56.52 L 722.24 58.99 L 718.79 61.15 L 718.54 62.86 L 716.33 64.88 L 715.38 65.18 L 713.54 67.34 L 713.39 65.85 L 713.30 66.91 L 713.20 61.97 L 704.20 56.94 L 704.03 58.01 L 703.93 58.64 L 700.46 53.57 L 698.15 48.45 L 693.26 43.28 L 679.69 46.12 L 679.64 46.97 L 679.43 44.80 L 679.42 39.65 Z" fill="#d0d0d0" fill-opacity="0.5" stroke="none"/>
<path d="M 864.53 33.81 L 865.67 33.81 L 865.67 33.82 L 864.53 35.44 Z" fill="#d0d0d0" fill-opacity="0.5" stroke="none"/>
<path d="M 873.82 25.00 L 875.21 25.00 L 875.70 25.00 L 883.09 25.00 L 883.17 25.00 L 884.18 25.00 L 884.83 25.00 L 887.55 25.00 L 890.14 25.00 L 890.49 25.00 L 891.45 25.00 L 892.76 25.00 L 897.03 25.00 L 906.35 25.00 L 908.53 25.00 L 909.33 25.00 L 912.92 25.00 L 915.19 25.00 L 915.21 25.00 L 915.38 25.00 L 915.63 25.00 L 918.28 25.00 L 918.55 25.00 L 918.82 25.00 L 918.90 25.00 L 926.11 25.00 L 926.98 25.00 L 927.48 25.00 L 933.06 25.00 L 933.19 25.00 L 933.21 25.00 L 933.31 25.00 L 936.34 25.00 L 939.86 25.00 L 948.74 25.00 L 951.39 25.00 L 957.73 25.00 L 957.86 25.00 L 957.91 25.00 L 958.23 25.00 L 958.79 25.00 L 960.65 25.00 L 961.28 25.00 L 969.60 25.00 L 970.84 25.00 L 973.58 25.00 L 976.75 25.00 L 976.85 25.00 L 977.18 25.00 L 978.13 25.00 L 979.64 25.00 L 979.72 25.00 L 980.01 25.00 L 990.47 25.00 L 990.59 25.00 L 990.81 25.00 L 992.35 25.00 L 994.21 25.00 L 994.40 25.00 L 995.52 25.00 L 996.29 25.00 L 1001.19 25.00 L 1001.23 25.00 L 1001.68 25.00 L 1004.24 25.00 L 1004.33 25.00 L 1013.01 25.00 L 1013.46 25.00 L 1017.02 25.00 L 1018.90 25.00 L 1019.06 25.00 L 1019.12 25.00 L 1019.41 25.00 L 1021.88 25.00 L 1022.72 25.00 L 1025.87 25.00 L 1025.97 25.00 L 1039.49 25.00 L 1044.00 25.00 L 1044.49 25.00 L 1046.85 25.00 L 1047.22 25.00 L 1055.58 25.00 L 1056.54 25.00 L 1061.99 25.00 L 1062.67 25.00 L 1075.84 25.00 L 1077.06 25.00 L 1080.25 25.00 L 1080.31 25.00 L 1080.69 25.00 L 1083.66 25.00 L 1083.79 25.00 L 1083.80 25.00 L 1090.18 25.00 L 1090.29 25.00 L 1099.81 25.00 L 1108.34 25.00 L 1110.99 25.00 L 1111.40 25.00 L 1123.84 25.00 L 1123.96 25.00 L 1144.60 25.00 L 1147.67 25.00 L 1147.78 25.00 L 1150.51 25.00 L 1169.67 25.00 L 1169.84 25.00 L 1170.00 25.00 L 1170.00 90.74 L 1169.84 89.28 L 1169.67 89.91 L 1150.51 85.15 L 1147.78 86.67 L 1147.67 88.66 L 1144.60 90.97 L 1123.96 92.22 L 1123.84 92.15 L 1111.40 87.41 L 1110.99 88.83 L 1108.34 84.06 L 1099.81 79.24 L 1090.29 79.25 L 1090.18 79.14 L 1083.80 74.27 L 1083.79 69.39 L 1083.66 64.48 L 1080.69 67.32 L 1080.31 69.54 L 1080.25 71.93 L 1077.06 66.98 L 1075.84 68.84 L 1062.67 68.35 L 1061.99 69.46 L 1056.54 68.03 L 1055.58 69.94 L 1047.22 70.09 L 1046.85 72.02 L 1044.49 67.07 L 1044.00 69.53 L 1039.49 71.67 L 1025.97 71.67 L 1025.87 71.80 L 1022.72 66.85 L 1021.88 69.17 L 1019.41 71.65 L 1019.12 73.60 L 1019.06 68.72 L 1018.90 69.27 L 1017.02 64.30 L 1013.46 66.81 L 1013.01 68.41 L 1004.33 70.28 L 1004.24 70.82 L 1001.68 65.86 L 1001.23 60.86 L 1001.19 63.19 L 996.29 58.15 L 995.52 60.08 L 994.40 55.01 L 994.21 56.68 L 992.35 58.85 L 990.81 59.90 L 990.59 58.74 L 990.47 60.27 L 980.01 62.53 L 979.72 57.50 L 979.64 58.16 L 978.13 53.08 L 977.18 55.86 L 976.85 58.63 L 976.75 59.73 L 973.58 54.67 L 970.84 57.20 L 969.60 56.07 L 961.28 57.94 L 960.65 52.85 L 958.79 54.57 L 958.23 57.34 L 957.91 59.32 L 957.86 60.95 L 957.73 60.40 L 951.39 55.35 L 948.74 55.64 L 939.86 50.53 L 936.34 45.37 L 933.31 47.57 L 933.21 47.30 L 933.19 42.10 L 933.06 36.90 L 927.48 31.59 L 926.98 34.21 L 926.11 28.88 L 918.90 30.92 L 918.82 31.94 L 918.55 26.60 L 918.28 29.24 L 915.63 32.14 L 915.38 29.44 L 915.21 32.32 L 915.19 35.07 L 912.92 29.74 L 909.33 30.84 L 908.53 33.47 L 906.35 35.55 L 897.03 30.23 L 892.76 30.64 L 891.45 29.55 L 890.49 31.61 L 890.14 33.16 L 887.55 34.76 L 884.83 29.44 L 884.18 30.86 L 883.17 32.47 L 883.09 33.49 L 875.70 28.16 L 875.21 30.77 L 873.82 30.37 Z" fill="#d0d0d0" fill-opacity="0.5" stroke="none"/>
<polyline fill="none" stroke="#111" stroke-width="1.2" points="70.00,54.02 72.26,52.38 73.01,57.46 79.15,62.49 82.27,59.78 97.34,57.49 100.38,62.47 100.44,67.40 100.54,66.46 100.76,71.40 102.66,76.29 112.32,73.84 115.09,73.69 115.74,71.73 118.59,69.55 121.76,67.09 122.03,65.37 124.09,62.92 134.21,63.16 136.61,62.30 137.34,61.60 142.44,58.88 142.77,56.12 146.51,61.16 167.89,59.95 183.20,57.81 197.78,59.34 204.82,57.10 210.63,58.90 221.36,58.02 222.08,55.94 222.50,60.98 271.02,58.23 274.54,56.80 286.11,55.54 286.85,53.32 287.37,50.82 294.99,49.12 296.24,48.22 315.11,48.24 318.42,48.95 333.65,47.16 339.42,44.34 339.64,49.50 359.35,47.76 391.62,52.89 391.70,51.79 397.12,53.73 414.37,51.79 415.26,49.90 417.09,47.32 437.70,46.74 443.39,43.91 443.44,49.01 443.53,54.06 443.65,59.08 443.70,64.08 443.79,64.45 443.89,64.61 446.47,61.87 446.94,66.84 447.04,65.26 447.19,65.13 455.75,70.08 458.15,68.04 461.94,66.30 462.35,64.85 462.49,64.71 465.28,63.27 468.28,68.24 468.40,73.11 468.52,71.25 477.27,69.14 480.24,66.92 480.90,65.01 486.86,63.69 489.30,65.80 489.61,70.73 497.94,68.60 506.32,67.51 508.00,65.55 509.66,70.49 510.84,69.24 521.43,68.69 528.98,70.68 529.86,68.98 532.55,67.87 550.80,65.86 553.92,64.26 569.50,69.21 571.08,66.50 571.71,63.80 572.31,61.55 574.78,61.03 584.53,62.22 585.75,59.48 593.60,58.94 604.31,58.03 606.13,58.77 609.09,63.78 611.94,61.05 612.13,58.80 636.44,56.29 636.68,61.33 639.48,58.58 639.50,55.82 639.87,54.91 648.62,53.36 649.00,51.27 650.40,48.47 651.13,53.59 651.18,51.82 651.37,49.18 651.72,48.84 653.26,46.74 654.20,44.93 655.10,50.09 655.18,48.09 656.05,46.50 658.19,44.36 660.31,42.63 661.37,39.78 672.57,37.85 673.94,35.23 678.91,40.48 678.97,38.64 679.09,37.33 679.27,34.44 679.42,39.65 679.43,44.80 679.64,46.97 679.69,46.12 693.26,43.28 698.15,48.45 700.46,53.57 703.93,58.64 704.03,58.01 704.20,56.94 713.20,61.97 713.30,66.91 713.39,65.85 713.54,67.34 715.38,65.18 716.33,64.88 718.54,62.86 718.79,61.15 722.24,58.99 722.35,56.52 724.64,54.26 725.41,51.77 725.73,48.96 725.83,46.50 726.07,45.43 733.78,43.21 734.11,48.39 734.14,46.25 734.40,45.54 737.15,42.72 738.26,39.88 740.64,45.09 740.77,50.20 740.78,55.25 740.85,54.44 740.96,53.57 742.40,54.39 743.40,54.52 743.74,51.74 743.99,49.36 755.99,54.47 756.20,56.25 756.26,54.30 759.44,51.52 761.38,49.51 761.99,47.29 765.39,47.54 768.15,52.67 779.85,57.75 780.62,57.12 786.89,55.34 790.10,60.38 797.88,57.62 801.37,55.41 807.43,53.76 822.73,50.83 822.89,55.93 822.93,54.40 823.65,59.46 825.81,56.70 829.47,61.75 829.92,59.84 832.11,57.69 832.63,62.73 832.72,62.04 832.83,59.64 839.87,57.93 840.80,57.78 841.22,55.57 842.37,53.40 844.11,51.73 844.23,49.38 844.54,46.98 844.97,44.46 848.06,41.87 848.49,39.02 850.94,36.17 851.02,34.81 861.34,33.81 864.53,35.44 865.67,33.82 865.89,32.29 871.90,29.39 872.39,27.92 873.07,25.00 873.82,30.37 875.21,30.77 875.70,28.16 883.09,33.49 883.17,32.47 884.18,30.86 884.83,29.44 887.55,34.76 890.14,33.16 890.49,31.61 891.45,29.55 892.76,30.64 897.03,30.23 906.35,35.55 908.53,33.47 909.33,30.84 912.92,29.74 915.19,35.07 915.21,32.32 915.38,29.44 915.63,32.14 918.28,29.24 918.55,26.60 918.82,31.94 918.90,30.92 926.11,28.88 926.98,34.21 927.48,31.59 933.06,36.90 933.19,42.10 933.21,47.30 933.31,47.57 936.34,45.37 939.86,50.53 948.74,55.64 951.39,55.35 957.73,60.40 957.86,60.95 957.91,59.32 958.23,57.34 958.79,54.57 960.65,52.85 961.28,57.94 969.60,56.07 970.84,57.20 973.58,54.67 976.75,59.73 976.85,58.63 977.18,55.86 978.13,53.08 979.64,58.16 979.72,57.50 980.01,62.53 990.47,60.27 990.59,58.74 990.81,59.90 992.35,58.85 994.21,56.68 994.40,55.01 995.52,60.08 996.29,58.15 1001.19,63.19 1001.23,60.86 1001.68,65.86 1004.24,70.82 1004.33,70.28 1013.01,68.41 1013.46,66.81 1017.02,64.30 1018.90,69.27 1019.06,68.72 1019.12,73.60 1019.41,71.65 1021.88,69.17 1022.72,66.85 1025.87,71.80 1025.97,71.67 1039.49,71.67 1044.00,69.53 1044.49,67.07 1046.85,72.02 1047.22,70.09 1055.58,69.94 1056.54,68.03 1061.99,69.46 1062.67,68.35 1075.84,68.84 1077.06,66.98 1080.25,71.93 1080.31,69.54 1080.69,67.32 1083.66,64.48 1083.79,69.39 1083.80,74.27 1090.18,79.14 1090.29,79.25 1099.81,79.24 1108.34,84.06 1110.99,88.83 1111.40,87.41 1123.84,92.15 1123.96,92.22 1144.60,90.97 1147.67,88.66 1147.78,86.67 1150.51,85.15 1169.67,89.91 1169.84,89.28 1170.00,90.74"/>
<text x="620.0" y="588" text-anchor="middle" font-family="sans-serif" font-size="12" fill="#333">UTC time</text>
<text x="15" y="287.5" transform="rotate(-90 15,287.5)" text-anchor="middle" font-family="sans-serif" font-size="12" fill="#333">Capital</text>
</svg>