<svg xmlns="http://www.w3.org/2000/svg" width="1200" height="600" viewBox="0 0 1200 600">
<desc>Equity curve with drawdown fill</desc>
<text x="600.0" y="18.0" text-anchor="middle" font-family="sans-serif" font-size="14">Portfolio 2005</text>
<rect x="70" y="25" width="1100" height="525" fill="white" stroke="#ccc" />
<line x1="70" y1="550.00" x2="1170" y2="550.00" stroke="#eee"/>
<text x="62" y="554.0" text-anchor="end" font-family="sans-serif" font-size="11" fill="#555">0.00</text>
<line x1="70" y1="445.00" x2="1170" y2="445.00" stroke="#eee"/>
<text x="62" y="449.0" text-anchor="end" font-family="sans-serif" font-size="11" fill="#555">20000</text>
<line x1="70" y1="340.00" x2="1170" y2="340.00" stroke="#eee"/>
<text x="62" y="344.0" text-anchor="end" font-family="sans-serif" font-size="11" fill="#555">40000</text>
<line x1="70" y1="235.00" x2="1170" y2="235.00" stroke="#eee"/>
<text x="62" y="239.0" text-anchor="end" font-family="sans-serif" font-size="11" fill="#555">60000</text>
<line x1="70" y1="130.00" x2="1170" y2="130.00" stroke="#eee"/>
<text x="62" y="134.0" text-anchor="end" font-family="sans-serif" font-size="11" fill="#555">80000</text>
<line x1="70" y1="25.00" x2="1170" y2="25.00" stroke="#eee"/>
<text x="62" y="29.0" text-anchor="end" font-family="sans-serif" font-size="11" fill="#555">100000</text>
<line x1="154.68" y1="25" x2="154.68" y2="550" stroke="#f2f2f2"/>
<text x="154.68" y="566" text-anchor="middle" font-family="sans-serif" font-size="11" fill="#555">Feb</text>
<line x1="240.63" y1="25" x2="240.63" y2="550" stroke="#f2f2f2"/>
<text x="240.63" y="566" text-anchor="middle" font-family="sans-serif" font-size="11" fill="#555">Mar</text>
<line x1="335.80" y1="25" x2="335.80" y2="550" stroke="#f2f2f2"/>
<text x="335.80" y="566" text-anchor="middle" font-family="sans-serif" font-size="11" fill="#555">Apr</text>
<line x1="427.90" y1="25" x2="427.90" y2="550" stroke="#f2f2f2"/>
<text x="427.90" y="566" text-anchor="middle" font-family="sans-serif" font-size="11" fill="#555">May</text>
<line x1="523.06" y1="25" x2="523.06" y2="550" stroke="#f2f2f2"/>
<text x="523.06" y="566" text-anchor="middle" font-family="sans-serif" font-size="11" fill="#555">Jun</text>
<line x1="615.16" y1="25" x2="615.16" y2="550" stroke="#f2f2f2"/>
<text x="615.16" y="566" text-anchor="middle" font-family="sans-serif" font-size="11" fill="#555">Jul</text>
<line x1="710.32" y1="25" x2="710.32" y2="550" stroke="#f2f2f2"/>
<text x="710.32" y="566" text-anchor="middle" font-family="sans-serif" font-size="11" fill="#555">Aug</text>
<line x1="805.49" y1="25" x2="805.49" y2="550" stroke="#f2f2f2"/>
<text x="805.49" y="566" text-anchor="middle" font-family="sans-serif" font-size="11" fill="#555">Sep</text>
<line x1="897.58" y1="25" x2="897.58" y2="550" stroke="#f2f2f2"/>
<text x="897.58" y="566" text-anchor="middle" font-family="sans-serif" font-size="11" fill="#555">Oct</text>
<line x1="992.75" y1="25" x2="992.75" y2="550" stroke="#f2f2f2"/>
<text x="992.75" y="566" text-anchor="middle" font-family="sans-serif" font-size="11" fill="#555">Nov</text>
<line x1="1084.84" y1="25" x2="1084.84" y2="550" stroke="#f2f2f2"/>
<text x="1084.84" y="566" text-anchor="middle" font-family="sans-serif" font-size="11" fill="#555">Dec</text>
<line x1="70" y1="550" x2="1170" y2="550" stroke="#888"/>
<line x1="70" y1="25" x2="70" y2="550" stroke="#888"/>
<path d="M 70.00 25.00 L 70.84 25.00 L 76.01 25.00 L 79.66 25.00 L 79.90 25.00 L 79.94 25.00 L 80.01 25.00 L 80.13 25.00 L 95.01 25.00 L 95.19 25.00 L 95.20 25.00 L 95.32 25.00 L 95.38 25.00 L 99.76 25.00 L 100.59 25.00 L 115.99 25.00 L 135.33 25.00 L 144.41 25.00 L 162.70 25.00 L 165.62 25.00 L 165.67 25.00 L 166.10 25.00 L 175.30 25.00 L 184.22 25.00 L 184.38 25.00 L 184.43 25.00 L 194.85 25.00 L 199.45 25.00 L 202.77 25.00 L 219.58 25.00 L 219.61 25.00 L 251.64 25.00 L 264.15 25.00 L 268.59 25.00 L 273.10 25.00 L 285.55 25.00 L 288.48 25.00 L 307.63 25.00 L 309.92 25.00 L 325.32 25.00 L 337.53 25.00 L 337.72 25.00 L 337.88 25.00 L 359.46 25.00 L 371.39 25.00 L 374.57 25.00 L 377.64 25.00 L 380.86 25.00 L 389.17 25.00 L 396.16 25.00 L 399.49 25.00 L 410.83 25.00 L 417.46 25.00 L 424.18 25.00 L 437.58 25.00 L 444.97 25.00 L 445.16 25.00 L 445.20 25.00 L 460.32 25.00 L 463.39 25.00 L 488.19 25.00 L 520.29 25.00 L 520.38 25.00 L 521.51 25.00 L 524.28 25.00 L 527.22 25.00 L 530.12 25.00 L 530.93 25.00 L 531.39 25.00 L 546.92 25.00 L 549.64 25.00 L 552.63 25.00 L 564.87 25.00 L 568.10 25.00 L 571.14 25.00 L 573.71 25.00 L 574.23 25.00 L 581.37 25.00 L 583.40 25.00 L 592.39 25.00 L 611.21 25.00 L 624.25 25.00 L 624.42 25.00 L 628.72 25.00 L 634.91 25.00 L 634.94 25.00 L 635.07 25.00 L 635.36 25.00 L 638.61 25.00 L 648.00 25.00 L 649.43 25.00 L 653.90 25.00 L 659.99 25.00 L 673.81 25.00 L 675.55 25.00 L 675.85 25.00 L 675.97 25.00 L 678.15 25.00 L 678.17 25.00 L 678.64 25.00 L 679.00 25.00 L 681.92 25.00 L 696.84 25.00 L 717.76 25.00 L 717.92 25.00 L 717.99 25.00 L 719.86 25.00 L 721.67 25.00 L 724.43 25.00 L 745.91 25.00 L 782.85 25.00 L 798.55 25.00 L 804.39 25.00 L 804.48 25.00 L 804.58 25.00 L 807.56 25.00 L 807.96 25.00 L 809.72 25.00 L 839.77 25.00 L 852.31 25.00 L 860.67 25.00 L 872.04 25.00 L 903.99 25.00 L 913.14 25.00 L 914.85 25.00 L 927.04 25.00 L 936.67 25.00 L 939.26 25.00 L 939.58 25.00 L 953.89 25.00 L 954.15 25.00 L 959.15 25.00 L 961.21 25.00 L 970.39 25.00 L 972.59 25.00 L 973.30 25.00 L 982.25 25.00 L 997.89 25.00 L 1000.73 25.00 L 1003.78 25.00 L 1003.94 25.00 L 1003.99 25.00 L 1004.15 25.00 L 1014.40 25.00 L 1046.78 25.00 L 1046.86 25.00 L 1056.19 25.00 L 1059.69 25.00 L 1061.08 25.00 L 1077.72 25.00 L 1078.13 25.00 L 1080.52 25.00 L 1086.57 25.00 L 1098.85 25.00 L 1107.46 25.00 L 1108.36 25.00 L 1119.82 25.00 L 1120.27 25.00 L 1120.39 25.00 L 1124.16 25.00 L 1125.05 25.00 L 1129.87 25.00 L 1145.17 25.00 L 1148.24 25.00 L 1151.32 25.00 L 1168.83 25.00 L 1169.92 25.00 L 1170.00 25.00 L 1170.00 111.20 L 1169.92 112.16 L 1168.83 107.70 L 1151.32 104.80 L 1148.24 106.41 L 1145.17 105.43 L 1129.87 105.59 L 1125.05 105.08 L 1124.16 100.53 L 1120.39 102.96 L 1120.27 104.55 L 1119.82 106.74 L 1108.36 108.27 L 1107.46 109.41 L 1098.85 110.79 L 1086.57 111.53 L 1080.52 113.43 L 1078.13 114.45 L 1077.72 115.90 L 1061.08 111.49 L 1059.69 113.86 L 1056.19 109.41 L 1046.86 104.92 L 1046.78 105.89 L 1014.40 101.35 L 1004.15 96.75 L 1003.99 92.10 L 1003.94 87.46 L 1003.78 82.71 L 1000.73 84.78 L 997.89 84.76 L 982.25 85.86 L 973.30 88.16 L 972.59 87.11 L 970.39 85.53 L 961.21 87.53 L 959.15 82.78 L 954.15 85.08 L 953.89 87.29 L 939.58 87.99 L 939.26 83.25 L 936.67 85.57 L 927.04 88.10 L 914.85 88.13 L 913.14 83.39 L 903.99 85.65 L 872.04 80.88 L 860.67 79.73 L 852.31 80.97 L 839.77 82.19 L 809.72 77.38 L 807.96 79.18 L 807.56 81.77 L 804.58 76.95 L 804.48 72.08 L 804.39 72.96 L 798.55 68.04 L 782.85 68.60 L 745.91 67.22 L 724.43 62.24 L 721.67 64.46 L 719.86 65.34 L 717.99 67.57 L 717.92 67.78 L 717.76 66.00 L 696.84 61.01 L 681.92 61.95 L 679.00 60.28 L 678.64 60.69 L 678.17 60.31 L 678.15 62.95 L 675.97 57.92 L 675.85 52.89 L 675.55 47.75 L 673.81 47.92 L 659.99 48.97 L 653.90 48.00 L 649.43 47.09 L 648.00 47.65 L 638.61 46.60 L 635.36 47.11 L 635.07 49.26 L 634.94 51.34 L 634.91 53.99 L 628.72 48.86 L 624.42 51.20 L 624.25 51.37 L 611.21 46.27 L 592.39 48.22 L 583.40 49.55 L 581.37 48.04 L 574.23 47.37 L 573.71 48.91 L 571.14 51.11 L 568.10 51.91 L 564.87 53.19 L 552.63 48.05 L 549.64 42.86 L 546.92 44.88 L 531.39 39.66 L 530.93 40.39 L 530.12 43.20 L 527.22 45.99 L 524.28 47.91 L 521.51 50.18 L 520.38 50.12 L 520.29 51.19 L 488.19 46.04 L 463.39 43.56 L 460.32 46.36 L 445.20 49.15 L 445.16 50.72 L 444.97 48.92 L 437.58 51.70 L 424.18 46.55 L 417.46 47.70 L 410.83 49.34 L 399.49 50.49 L 396.16 51.70 L 389.17 53.57 L 380.86 52.74 L 377.64 51.73 L 374.57 54.47 L 371.39 53.21 L 359.46 48.09 L 337.88 42.92 L 337.72 42.80 L 337.53 45.61 L 325.32 48.53 L 309.92 50.57 L 307.63 53.10 L 288.48 47.99 L 285.55 49.84 L 273.10 50.76 L 268.59 52.77 L 264.15 54.99 L 251.64 49.89 L 219.61 52.66 L 219.58 55.02 L 202.77 49.92 L 199.45 50.53 L 194.85 51.60 L 184.43 52.46 L 184.38 53.68 L 184.22 52.47 L 175.30 47.33 L 166.10 42.14 L 165.67 44.34 L 165.62 47.14 L 162.70 49.92 L 144.41 49.21 L 135.33 50.86 L 115.99 48.36 L 100.59 47.49 L 99.76 50.04 L 95.38 52.81 L 95.32 54.30 L 95.20 53.46 L 95.19 48.39 L 95.01 43.27 L 80.13 46.08 L 80.01 40.89 L 79.94 42.47 L 79.90 37.30 L 79.66 32.01 L 76.01 34.88 L 70.84 35.66 L 70.00 30.36 Z" fill="#d0d0d0" fill-opacity="0.5" stroke="none"/>
<polyline fill="none" stroke="#111" stroke-width="1.2" points="70.00,30.36 70.84,35.66 76.01,34.88 79.66,32.01 79.90,37.30 79.94,42.47 80.01,40.89 80.13,46.08 95.01,43.27 95.19,48.39 95.20,53.46 95.32,54.30 95.38,52.81 99.76,50.04 100.59,47.49 115.99,48.36 135.33,50.86 144.41,49.21 162.70,49.92 165.62,47.14 165.67,44.34 166.10,42.14 175.30,47.33 184.22,52.47 184.38,53.68 184.43,52.46 194.85,51.60 199.45,50.53 202.77,49.92 219.58,55.02 219.61,52.66 251.64,49.89 264.15,54.99 268.59,52.77 273.10,50.76 285.55,49.84 288.48,47.99 307.63,53.10 309.92,50.57 325.32,48.53 337.53,45.61 337.72,42.80 337.88,42.92 359.46,48.09 371.39,53.21 374.57,54.47 377.64,51.73 380.86,52.74 389.17,53.57 396.16,51.70 399.49,50.49 410.83,49.34 417.46,47.70 424.18,46.55 437.58,51.70 444.97,48.92 445.16,50.72 445.20,49.15 460.32,46.36 463.39,43.56 488.19,46.04 520.29,51.19 520.38,50.12 521.51,50.18 524.28,47.91 527.22,45.99 530.12,43.20 530.93,40.39 531.39,39.66 546.92,44.88 549.64,42.86 552.63,48.05 564.87,53.19 568.10,51.91 571.14,51.11 573.71,48.91 574.23,47.37 581.37,48.04 583.40,49.55 592.39,48.22 611.21,46.27 624.25,51.37 624.42,51.20 628.72,48.86 634.91,53.99 634.94,51.34 635.07,49.26 635.36,47.11 638.61,46.60 648.00,47.65 649.43,47.09 653.90,48.00 659.99,48.97 673.81,47.92 675.55,47.75 675.85,52.89 675.97,57.92 678.15,62.95 678.17,60.31 678.64,60.69 679.00,60.28 681.92,61.95 696.84,61.01 717.76,66.00 717.92,67.78 717.99,67.57 719.86,65.34 721.67,64.46 724.43,62.24 745.91,67.22 782.85,68.60 798.55,68.04 804.39,72.96 804.48,72.08 804.58,76.95 807.56,81.77 807.96,79.18 809.72,77.38 839.77,82.19 852.31,80.97 860.67,79.73 872.04,80.88 903.99,85.65 913.14,83.39 914.85,88.13 927.04,88.10 936.67,85.57 939.26,83.25 939.58,87.99 953.89,87.29 954.15,85.08 959.15,82.78 961.21,87.53 970.39,85.53 972.59,87.11 973.30,88.16 982.25,85.86 997.89,84.76 1000.73,84.78 1003.78,82.71 1003.94,87.46 1003.99,92.10 1004.15,96.75 1014.40,101.35 1046.78,105.89 1046.86,104.92 1056.19,109.41 1059.69,113.86 1061.08,111.49 1077.72,115.90 1078.13,114.45 1080.52,113.43 1086.57,111.53 1098.85,110.79 1107.46,109.41 1108.36,108.27 1119.82,106.74 1120.27,104.55 1120.39,102.96 1124.16,100.53 1125.05,105.08 1129.87,105.59 1145.17,105.43 1148.24,106.41 1151.32,104.80 1168.83,107.70 1169.92,112.16 1170.00,111.20"/>
<text x="620.0" y="588" text-anchor="middle" font-family="sans-serif" font-size="12" fill="#333">UTC time</text>
<text x="15" y="287.5" transform="rotate(-90 15,287.5)" text-anchor="middle" font-family="sans-serif" font-size="12" fill="#333">Capital</text>
</svg>