<svg xmlns="http://www.w3.org/2000/svg" width="1200" height="600" viewBox="0 0 1200 600">
<desc>Equity curve with drawdown fill</desc>
<text x="600.0" y="18.0" text-anchor="middle" font-family="sans-serif" font-size="14">Portfolio 2011</text>
<rect x="70" y="25" width="1100" height="525" fill="white" stroke="#ccc" />
<line x1="70" y1="550.00" x2="1170" y2="550.00" stroke="#eee"/>
<text x="62" y="554.0" text-anchor="end" font-family="sans-serif" font-size="11" fill="#555">0.00</text>
<line x1="70" y1="445.00" x2="1170" y2="445.00" stroke="#eee"/>
<text x="62" y="449.0" text-anchor="end" font-family="sans-serif" font-size="11" fill="#555">21242</text>
<line x1="70" y1="340.00" x2="1170" y2="340.00" stroke="#eee"/>
<text x="62" y="344.0" text-anchor="end" font-family="sans-serif" font-size="11" fill="#555">42484</text>
<line x1="70" y1="235.00" x2="1170" y2="235.00" stroke="#eee"/>
<text x="62" y="239.0" text-anchor="end" font-family="sans-serif" font-size="11" fill="#555">63726</text>
<line x1="70" y1="130.00" x2="1170" y2="130.00" stroke="#eee"/>
<text x="62" y="134.0" text-anchor="end" font-family="sans-serif" font-size="11" fill="#555">84967</text>
<line x1="70" y1="25.00" x2="1170" y2="25.00" stroke="#eee"/>
<text x="62" y="29.0" text-anchor="end" font-family="sans-serif" font-size="11" fill="#555">106209</text>
<line x1="156.74" y1="25" x2="156.74" y2="550" stroke="#f2f2f2"/>
<text x="156.74" y="566" text-anchor="middle" font-family="sans-serif" font-size="11" fill="#555">Feb</text>
<line x1="242.53" y1="25" x2="242.53" y2="550" stroke="#f2f2f2"/>
<text x="242.53" y="566" text-anchor="middle" font-family="sans-serif" font-size="11" fill="#555">Mar</text>
<line x1="337.50" y1="25" x2="337.50" y2="550" stroke="#f2f2f2"/>
<text x="337.50" y="566" text-anchor="middle" font-family="sans-serif" font-size="11" fill="#555">Apr</text>
<line x1="429.42" y1="25" x2="429.42" y2="550" stroke="#f2f2f2"/>
<text x="429.42" y="566" text-anchor="middle" font-family="sans-serif" font-size="11" fill="#555">May</text>
<line x1="524.39" y1="25" x2="524.39" y2="550" stroke="#f2f2f2"/>
<text x="524.39" y="566" text-anchor="middle" font-family="sans-serif" font-size="11" fill="#555">Jun</text>
<line x1="616.31" y1="25" x2="616.31" y2="550" stroke="#f2f2f2"/>
<text x="616.31" y="566" text-anchor="middle" font-family="sans-serif" font-size="11" fill="#555">Jul</text>
<line x1="711.28" y1="25" x2="711.28" y2="550" stroke="#f2f2f2"/>
<text x="711.28" y="566" text-anchor="middle" font-family="sans-serif" font-size="11" fill="#555">Aug</text>
<line x1="806.26" y1="25" x2="806.26" y2="550" stroke="#f2f2f2"/>
<text x="806.26" y="566" text-anchor="middle" font-family="sans-serif" font-size="11" fill="#555">Sep</text>
<line x1="898.17" y1="25" x2="898.17" y2="550" stroke="#f2f2f2"/>
<text x="898.17" y="566" text-anchor="middle" font-family="sans-serif" font-size="11" fill="#555">Oct</text>
<line x1="993.15" y1="25" x2="993.15" y2="550" stroke="#f2f2f2"/>
<text x="993.15" y="566" text-anchor="middle" font-family="sans-serif" font-size="11" fill="#555">Nov</text>
<line x1="1085.06" y1="25" x2="1085.06" y2="550" stroke="#f2f2f2"/>
<text x="1085.06" y="566" text-anchor="middle" font-family="sans-serif" font-size="11" fill="#555">Dec</text>
<line x1="70" y1="550" x2="1170" y2="550" stroke="#888"/>
<line x1="70" y1="25" x2="70" y2="550" stroke="#888"/>
<path d="M 73.01 52.40 L 79.15 52.40 L 82.27 52.40 L 97.34 52.40 L 100.38 52.40 L 100.44 52.40 L 100.54 52.40 L 100.76 52.40 L 102.66 52.40 L 112.32 52.40 L 115.09 52.40 L 115.74 52.40 L 118.59 52.40 L 121.76 52.40 L 122.03 52.40 L 124.09 52.40 L 134.21 52.40 L 136.61 52.40 L 137.34 52.40 L 142.44 52.40 L 142.77 52.40 L 146.51 52.40 L 167.89 52.40 L 183.20 52.40 L 197.78 52.40 L 204.82 52.40 L 210.63 52.40 L 221.36 52.40 L 222.08 52.40 L 222.50 52.40 L 271.02 52.40 L 274.54 52.40 L 286.11 52.40 L 286.85 52.40 L 286.85 53.34 L 286.11 55.56 L 274.54 56.81 L 271.02 58.25 L 222.50 60.99 L 222.08 55.95 L 221.36 58.03 L 210.63 58.91 L 204.82 57.11 L 197.78 59.35 L 183.20 57.82 L 167.89 59.96 L 146.51 61.17 L 142.77 56.13 L 142.44 58.88 L 137.34 61.60 L 136.61 62.29 L 134.21 63.16 L 124.09 62.91 L 122.03 65.37 L 121.76 67.09 L 118.59 69.55 L 115.74 71.72 L 115.09 73.68 L 112.32 73.83 L 102.66 76.28 L 100.76 71.40 L 100.54 66.47 L 100.44 67.41 L 100.38 62.48 L 97.34 57.51 L 82.27 59.80 L 79.15 62.51 L 73.01 57.48 Z" fill="#d0d0d0" fill-opacity="0.5" stroke="none"/>
<path d="M 315.11 48.24 L 318.42 48.24 L 318.42 48.98 L 315.11 48.26 Z" fill="#d0d0d0" fill-opacity="0.5" stroke="none"/>
<path d="M 339.64 44.36 L 359.35 44.36 L 391.62 44.36 L 391.70 44.36 L 397.12 44.36 L 414.37 44.36 L 415.26 44.36 L 417.09 44.36 L 437.70 44.36 L 437.70 46.78 L 417.09 47.35 L 415.26 49.93 L 414.37 51.81 L 397.12 53.75 L 391.70 51.81 L 391.62 52.91 L 359.35 47.79 L 339.64 49.52 Z" fill="#d0d0d0" fill-opacity="0.5" stroke="none"/>
<path d="M 443.44 43.94 L 443.53 43.94 L 443.65 43.94 L 443.70 43.94 L 443.79 43.94 L 443.89 43.94 L 446.47 43.94 L 446.94 43.94 L 447.04 43.94 L 447.19 43.94 L 455.75 43.94 L 458.15 43.94 L 461.94 43.94 L 462.35 43.94 L 462.49 43.94 L 465.28 43.94 L 468.28 43.94 L 468.40 43.94 L 468.52 43.94 L 477.27 43.94 L 480.24 43.94 L 480.90 43.94 L 486.86 43.94 L 489.30 43.94 L 489.61 43.94 L 497.94 43.94 L 506.32 43.94 L 508.00 43.94 L 509.66 43.94 L 510.84 43.94 L 521.43 43.94 L 528.98 43.94 L 529.86 43.94 L 532.55 43.94 L 550.80 43.94 L 553.92 43.94 L 569.50 43.94 L 571.08 43.94 L 571.71 43.94 L 572.31 43.94 L 574.78 43.94 L 584.53 43.94 L 585.75 43.94 L 593.60 43.94 L 604.31 43.94 L 606.13 43.94 L 609.09 43.94 L 611.94 43.94 L 612.13 43.94 L 636.44 43.94 L 636.68 43.94 L 639.48 43.94 L 639.50 43.94 L 639.87 43.94 L 648.62 43.94 L 649.00 43.94 L 650.40 43.94 L 651.13 43.94 L 651.18 43.94 L 651.37 43.94 L 651.72 43.94 L 653.26 43.94 L 654.20 43.94 L 655.10 43.94 L 655.18 43.94 L 656.05 43.94 L 658.19 43.94 L 658.19 44.37 L 656.05 46.51 L 655.18 48.10 L 655.10 50.09 L 654.20 44.93 L 653.26 46.74 L 651.72 48.84 L 651.37 49.18 L 651.18 51.81 L 651.13 53.59 L 650.40 48.48 L 649.00 51.27 L 648.62 53.37 L 639.87 54.92 L 639.50 55.83 L 639.48 58.59 L 636.68 61.34 L 636.44 56.31 L 612.13 58.82 L 611.94 61.07 L 609.09 63.81 L 606.13 58.80 L 604.31 58.06 L 593.60 58.96 L 585.75 59.50 L 584.53 62.24 L 574.78 61.06 L 572.31 61.57 L 571.71 63.82 L 571.08 66.52 L 569.50 69.23 L 553.92 64.28 L 550.80 65.88 L 532.55 67.89 L 529.86 69.00 L 528.98 70.70 L 521.43 68.71 L 510.84 69.26 L 509.66 70.51 L 508.00 65.57 L 506.32 67.52 L 497.94 68.62 L 489.61 70.75 L 489.30 65.82 L 486.86 63.71 L 480.90 65.03 L 480.24 66.95 L 477.27 69.16 L 468.52 71.27 L 468.40 73.13 L 468.28 68.26 L 465.28 63.31 L 462.49 64.75 L 462.35 64.88 L 461.94 66.33 L 458.15 68.06 L 455.75 70.10 L 447.19 65.15 L 447.04 65.28 L 446.94 66.86 L 446.47 61.89 L 443.89 64.62 L 443.79 64.47 L 443.70 64.09 L 443.65 59.09 L 443.53 54.09 L 443.44 49.04 Z" fill="#d0d0d0" fill-opacity="0.5" stroke="none"/>
<path d="M 678.91 35.25 L 678.97 35.25 L 679.09 35.25 L 679.09 37.35 L 678.97 38.65 L 678.91 40.49 Z" fill="#d0d0d0" fill-opacity="0.5" stroke="none"/>
<path d="M 679.42 34.47 L 679.43 34.47 L 679.64 34.47 L 679.69 34.47 L 693.26 34.47 L 698.15 34.47 L 700.46 34.47 L 703.93 34.47 L 704.03 34.47 L 704.20 34.47 L 713.20 34.47 L 713.30 34.47 L 713.39 34.47 L 713.54 34.47 L 715.38 34.47 L 716.33 34.47 L 718.54 34.47 L 718.79 34.47 L 722.24 34.47 L 722.35 34.47 L 724.64 34.47 L 725.41 34.47 L 725.73 34.47 L 725.83 34.47 L 726.07 34.47 L 733.78 34.47 L 734.11 34.47 L 734.14 34.47 L 734.40 34.47 L 737.15 34.47 L 738.26 34.47 L 740.64 34.47 L 740.77 34.47 L 740.78 34.47 L 740.85 34.47 L 740.96 34.47 L 742.40 34.47 L 743.40 34.47 L 743.74 34.47 L 743.99 34.47 L 755.99 34.47 L 756.20 34.47 L 756.26 34.47 L 759.44 34.47 L 761.38 34.47 L 761.99 34.47 L 765.39 34.47 L 768.15 34.47 L 779.85 34.47 L 780.62 34.47 L 786.89 34.47 L 790.10 34.47 L 797.88 34.47 L 801.37 34.47 L 807.43 34.47 L 822.73 34.47 L 822.89 34.47 L 822.93 34.47 L 823.65 34.47 L 825.81 34.47 L 829.47 34.47 L 829.92 34.47 L 832.11 34.47 L 832.63 34.47 L 832.72 34.47 L 832.83 34.47 L 839.87 34.47 L 840.80 34.47 L 841.22 34.47 L 842.37 34.47 L 844.11 34.47 L 844.23 34.47 L 844.54 34.47 L 844.97 34.47 L 848.06 34.47 L 848.49 34.47 L 850.94 34.47 L 851.02 34.47 L 851.02 34.82 L 850.94 36.18 L 848.49 39.03 L 848.06 41.88 L 844.97 44.46 L 844.54 46.98 L 844.23 49.37 L 844.11 51.73 L 842.37 53.40 L 841.22 55.57 L 840.80 57.77 L 839.87 57.92 L 832.83 59.64 L 832.72 62.03 L 832.63 62.72 L 832.11 57.68 L 829.92 59.83 L 829.47 61.73 L 825.81 56.70 L 823.65 59.46 L 822.93 54.40 L 822.89 55.93 L 822.73 50.84 L 807.43 53.76 L 801.37 55.42 L 797.88 57.63 L 790.10 60.38 L 786.89 55.33 L 780.62 57.11 L 779.85 57.74 L 768.15 52.67 L 765.39 47.53 L 761.99 47.28 L 761.38 49.50 L 759.44 51.51 L 756.26 54.29 L 756.20 56.24 L 755.99 54.46 L 743.99 49.35 L 743.74 51.73 L 743.40 54.52 L 742.40 54.39 L 740.96 53.57 L 740.85 54.43 L 740.78 55.25 L 740.77 50.20 L 740.64 45.09 L 738.26 39.90 L 737.15 42.73 L 734.40 45.55 L 734.14 46.27 L 734.11 48.40 L 733.78 43.22 L 726.07 45.45 L 725.83 46.52 L 725.73 48.98 L 725.41 51.78 L 724.64 54.28 L 722.35 56.54 L 722.24 59.01 L 718.79 61.16 L 718.54 62.88 L 716.33 64.90 L 715.38 65.20 L 713.54 67.36 L 713.39 65.87 L 713.30 66.92 L 713.20 62.00 L 704.20 56.97 L 704.03 58.04 L 703.93 58.67 L 700.46 53.60 L 698.15 48.49 L 693.26 43.31 L 679.69 46.15 L 679.64 47.00 L 679.43 44.83 L 679.42 39.68 Z" fill="#d0d0d0" fill-opacity="0.5" stroke="none"/>
<path d="M 864.53 33.81 L 865.67 33.81 L 865.67 33.82 L 864.53 35.45 Z" fill="#d0d0d0" fill-opacity="0.5" stroke="none"/>
<path d="M 873.82 25.00 L 875.21 25.00 L 875.70 25.00 L 883.09 25.00 L 883.17 25.00 L 884.18 25.00 L 884.83 25.00 L 887.55 25.00 L 890.14 25.00 L 890.49 25.00 L 891.45 25.00 L 892.76 25.00 L 897.03 25.00 L 906.35 25.00 L 908.53 25.00 L 909.33 25.00 L 912.92 25.00 L 915.19 25.00 L 915.21 25.00 L 915.38 25.00 L 915.63 25.00 L 918.28 25.00 L 918.55 25.00 L 918.82 25.00 L 918.90 25.00 L 926.11 25.00 L 926.98 25.00 L 927.48 25.00 L 933.06 25.00 L 933.19 25.00 L 933.21 25.00 L 933.31 25.00 L 936.34 25.00 L 939.86 25.00 L 948.74 25.00 L 951.39 25.00 L 957.73 25.00 L 957.86 25.00 L 957.91 25.00 L 958.23 25.00 L 958.79 25.00 L 960.65 25.00 L 961.28 25.00 L 969.60 25.00 L 970.84 25.00 L 973.58 25.00 L 976.75 25.00 L 976.85 25.00 L 977.18 25.00 L 978.13 25.00 L 979.64 25.00 L 979.72 25.00 L 980.01 25.00 L 990.47 25.00 L 990.59 25.00 L 990.81 25.00 L 992.35 25.00 L 994.21 25.00 L 994.40 25.00 L 995.52 25.00 L 996.29 25.00 L 1001.19 25.00 L 1001.23 25.00 L 1001.68 25.00 L 1004.24 25.00 L 1004.33 25.00 L 1013.01 25.00 L 1013.46 25.00 L 1017.02 25.00 L 1018.90 25.00 L 1019.06 25.00 L 1019.12 25.00 L 1019.41 25.00 L 1021.88 25.00 L 1022.72 25.00 L 1025.87 25.00 L 1025.97 25.00 L 1039.49 25.00 L 1044.00 25.00 L 1044.49 25.00 L 1046.85 25.00 L 1047.22 25.00 L 1055.58 25.00 L 1056.54 25.00 L 1061.99 25.00 L 1062.67 25.00 L 1075.84 25.00 L 1077.06 25.00 L 1080.25 25.00 L 1080.31 25.00 L 1080.69 25.00 L 1083.66 25.00 L 1083.79 25.00 L 1083.80 25.00 L 1090.18 25.00 L 1090.29 25.00 L 1099.81 25.00 L 1108.34 25.00 L 1110.99 25.00 L 1111.40 25.00 L 1123.84 25.00 L 1123.96 25.00 L 1144.60 25.00 L 1147.67 25.00 L 1147.78 25.00 L 1150.51 25.00 L 1169.67 25.00 L 1169.84 25.00 L 1170.00 25.00 L 1170.00 90.69 L 1169.84 89.24 L 1169.67 89.86 L 1150.51 85.11 L 1147.78 86.63 L 1147.67 88.61 L 1144.60 90.93 L 1123.96 92.17 L 1123.84 92.11 L 1111.40 87.38 L 1110.99 88.79 L 1108.34 84.02 L 1099.81 79.19 L 1090.29 79.20 L 1090.18 79.09 L 1083.80 74.22 L 1083.79 69.33 L 1083.66 64.45 L 1080.69 67.30 L 1080.31 69.51 L 1080.25 71.90 L 1077.06 66.95 L 1075.84 68.82 L 1062.67 68.33 L 1061.99 69.43 L 1056.54 68.01 L 1055.58 69.91 L 1047.22 70.06 L 1046.85 71.99 L 1044.49 67.04 L 1044.00 69.51 L 1039.49 71.65 L 1025.97 71.65 L 1025.87 71.78 L 1022.72 66.83 L 1021.88 69.15 L 1019.41 71.63 L 1019.12 73.58 L 1019.06 68.71 L 1018.90 69.25 L 1017.02 64.29 L 1013.46 66.81 L 1013.01 68.40 L 1004.33 70.27 L 1004.24 70.81 L 1001.68 65.85 L 1001.23 60.85 L 1001.19 63.18 L 996.29 58.14 L 995.52 60.06 L 994.40 55.00 L 994.21 56.67 L 992.35 58.83 L 990.81 59.88 L 990.59 58.72 L 990.47 60.25 L 980.01 62.51 L 979.72 57.47 L 979.64 58.14 L 978.13 53.06 L 977.18 55.84 L 976.85 58.60 L 976.75 59.71 L 973.58 54.65 L 970.84 57.19 L 969.60 56.05 L 961.28 57.92 L 960.65 52.83 L 958.79 54.54 L 958.23 57.31 L 957.91 59.29 L 957.86 60.91 L 957.73 60.37 L 951.39 55.30 L 948.74 55.60 L 939.86 50.49 L 936.34 45.33 L 933.31 47.53 L 933.21 47.26 L 933.19 42.06 L 933.06 36.86 L 927.48 31.56 L 926.98 34.18 L 926.11 28.86 L 918.90 30.90 L 918.82 31.92 L 918.55 26.58 L 918.28 29.22 L 915.63 32.12 L 915.38 29.42 L 915.21 32.30 L 915.19 35.05 L 912.92 29.74 L 909.33 30.84 L 908.53 33.47 L 906.35 35.55 L 897.03 30.24 L 892.76 30.65 L 891.45 29.56 L 890.49 31.62 L 890.14 33.18 L 887.55 34.77 L 884.83 29.45 L 884.18 30.86 L 883.17 32.48 L 883.09 33.49 L 875.70 28.16 L 875.21 30.77 L 873.82 30.37 Z" fill="#d0d0d0" fill-opacity="0.5" stroke="none"/>
<polyline fill="none" stroke="#111" stroke-width="1.2" points="70.00,54.04 72.26,52.40 73.01,57.48 79.15,62.51 82.27,59.80 97.34,57.51 100.38,62.48 100.44,67.41 100.54,66.47 100.76,71.40 102.66,76.28 112.32,73.83 115.09,73.68 115.74,71.72 118.59,69.55 121.76,67.09 122.03,65.37 124.09,62.91 134.21,63.16 136.61,62.29 137.34,61.60 142.44,58.88 142.77,56.13 146.51,61.17 167.89,59.96 183.20,57.82 197.78,59.35 204.82,57.11 210.63,58.91 221.36,58.03 222.08,55.95 222.50,60.99 271.02,58.25 274.54,56.81 286.11,55.56 286.85,53.34 287.37,50.84 294.99,49.14 296.24,48.24 315.11,48.26 318.42,48.98 333.65,47.19 339.42,44.36 339.64,49.52 359.35,47.79 391.62,52.91 391.70,51.81 397.12,53.75 414.37,51.81 415.26,49.93 417.09,47.35 437.70,46.78 443.39,43.94 443.44,49.04 443.53,54.09 443.65,59.09 443.70,64.09 443.79,64.47 443.89,64.62 446.47,61.89 446.94,66.86 447.04,65.28 447.19,65.15 455.75,70.10 458.15,68.06 461.94,66.33 462.35,64.88 462.49,64.75 465.28,63.31 468.28,68.26 468.40,73.13 468.52,71.27 477.27,69.16 480.24,66.95 480.90,65.03 486.86,63.71 489.30,65.82 489.61,70.75 497.94,68.62 506.32,67.52 508.00,65.57 509.66,70.51 510.84,69.26 521.43,68.71 528.98,70.70 529.86,69.00 532.55,67.89 550.80,65.88 553.92,64.28 569.50,69.23 571.08,66.52 571.71,63.82 572.31,61.57 574.78,61.06 584.53,62.24 585.75,59.50 593.60,58.96 604.31,58.06 606.13,58.80 609.09,63.81 611.94,61.07 612.13,58.82 636.44,56.31 636.68,61.34 639.48,58.59 639.50,55.83 639.87,54.92 648.62,53.37 649.00,51.27 650.40,48.48 651.13,53.59 651.18,51.81 651.37,49.18 651.72,48.84 653.26,46.74 654.20,44.93 655.10,50.09 655.18,48.10 656.05,46.51 658.19,44.37 660.31,42.64 661.37,39.79 672.57,37.86 673.94,35.25 678.91,40.49 678.97,38.65 679.09,37.35 679.27,34.47 679.42,39.68 679.43,44.83 679.64,47.00 679.69,46.15 693.26,43.31 698.15,48.49 700.46,53.60 703.93,58.67 704.03,58.04 704.20,56.97 713.20,62.00 713.30,66.92 713.39,65.87 713.54,67.36 715.38,65.20 716.33,64.90 718.54,62.88 718.79,61.16 722.24,59.01 722.35,56.54 724.64,54.28 725.41,51.78 725.73,48.98 725.83,46.52 726.07,45.45 733.78,43.22 734.11,48.40 734.14,46.27 734.40,45.55 737.15,42.73 738.26,39.90 740.64,45.09 740.77,50.20 740.78,55.25 740.85,54.43 740.96,53.57 742.40,54.39 743.40,54.52 743.74,51.73 743.99,49.35 755.99,54.46 756.20,56.24 756.26,54.29 759.44,51.51 761.38,49.50 761.99,47.28 765.39,47.53 768.15,52.67 779.85,57.74 780.62,57.11 786.89,55.33 790.10,60.38 797.88,57.63 801.37,55.42 807.43,53.76 822.73,50.84 822.89,55.93 822.93,54.40 823.65,59.46 825.81,56.70 829.47,61.73 829.92,59.83 832.11,57.68 832.63,62.72 832.72,62.03 832.83,59.64 839.87,57.92 840.80,57.77 841.22,55.57 842.37,53.40 844.11,51.73 844.23,49.37 844.54,46.98 844.97,44.46 848.06,41.88 848.49,39.03 850.94,36.18 851.02,34.82 861.34,33.81 864.53,35.45 865.67,33.82 865.89,32.29 871.90,29.38 872.39,27.92 873.07,25.00 873.82,30.37 875.21,30.77 875.70,28.16 883.09,33.49 883.17,32.48 884.18,30.86 884.83,29.45 887.55,34.77 890.14,33.18 890.49,31.62 891.45,29.56 892.76,30.65 897.03,30.24 906.35,35.55 908.53,33.47 909.33,30.84 912.92,29.74 915.19,35.05 915.21,32.30 915.38,29.42 915.63,32.12 918.28,29.22 918.55,26.58 918.82,31.92 918.90,30.90 926.11,28.86 926.98,34.18 927.48,31.56 933.06,36.86 933.19,42.06 933.21,47.26 933.31,47.53 936.34,45.33 939.86,50.49 948.74,55.60 951.39,55.30 957.73,60.37 957.86,60.91 957.91,59.29 958.23,57.31 958.79,54.54 960.65,52.83 961.28,57.92 969.60,56.05 970.84,57.19 973.58,54.65 976.75,59.71 976.85,58.60 977.18,55.84 978.13,53.06 979.64,58.14 979.72,57.47 980.01,62.51 990.47,60.25 990.59,58.72 990.81,59.88 992.35,58.83 994.21,56.67 994.40,55.00 995.52,60.06 996.29,58.14 1001.19,63.18 1001.23,60.85 1001.68,65.85 1004.24,70.81 1004.33,70.27 1013.01,68.40 1013.46,66.81 1017.02,64.29 1018.90,69.25 1019.06,68.71 1019.12,73.58 1019.41,71.63 1021.88,69.15 1022.72,66.83 1025.87,71.78 1025.97,71.65 1039.49,71.65 1044.00,69.51 1044.49,67.04 1046.85,71.99 1047.22,70.06 1055.58,69.91 1056.54,68.01 1061.99,69.43 1062.67,68.33 1075.84,68.82 1077.06,66.95 1080.25,71.90 1080.31,69.51 1080.69,67.30 1083.66,64.45 1083.79,69.33 1083.80,74.22 1090.18,79.09 1090.29,79.20 1099.81,79.19 1108.34,84.02 1110.99,88.79 1111.40,87.38 1123.84,92.11 1123.96,92.17 1144.60,90.93 1147.67,88.61 1147.78,86.63 1150.51,85.11 1169.67,89.86 1169.84,89.24 1170.00,90.69"/>
<text x="620.0" y="588" text-anchor="middle" font-family="sans-serif" font-size="12" fill="#333">UTC time</text>
<text x="15" y="287.5" transform="rotate(-90 15,287.5)" text-anchor="middle" font-family="sans-serif" font-size="12" fill="#333">Capital</text>
</svg>