<svg xmlns="http://www.w3.org/2000/svg" width="1200" height="600" viewBox="0 0 1200 600">
<desc>Equity curve with drawdown fill</desc>
<text x="600.0" y="18.0" text-anchor="middle" font-family="sans-serif" font-size="14">Portfolio 2016</text>
<rect x="70" y="25" width="1100" height="525" fill="white" stroke="#ccc" />
<line x1="70" y1="550.00" x2="1170" y2="550.00" stroke="#eee"/>
<text x="62" y="554.0" text-anchor="end" font-family="sans-serif" font-size="11" fill="#555">0.00</text>
<line x1="70" y1="445.00" x2="1170" y2="445.00" stroke="#eee"/>
<text x="62" y="449.0" text-anchor="end" font-family="sans-serif" font-size="11" fill="#555">22933</text>
<line x1="70" y1="340.00" x2="1170" y2="340.00" stroke="#eee"/>
<text x="62" y="344.0" text-anchor="end" font-family="sans-serif" font-size="11" fill="#555">45867</text>
<line x1="70" y1="235.00" x2="1170" y2="235.00" stroke="#eee"/>
<text x="62" y="239.0" text-anchor="end" font-family="sans-serif" font-size="11" fill="#555">68800</text>
<line x1="70" y1="130.00" x2="1170" y2="130.00" stroke="#eee"/>
<text x="62" y="134.0" text-anchor="end" font-family="sans-serif" font-size="11" fill="#555">91733</text>
<line x1="70" y1="25.00" x2="1170" y2="25.00" stroke="#eee"/>
<text x="62" y="29.0" text-anchor="end" font-family="sans-serif" font-size="11" fill="#555">114666</text>
<line x1="154.21" y1="25" x2="154.21" y2="550" stroke="#f2f2f2"/>
<text x="154.21" y="566" text-anchor="middle" font-family="sans-serif" font-size="11" fill="#555">Feb</text>
<line x1="242.56" y1="25" x2="242.56" y2="550" stroke="#f2f2f2"/>
<text x="242.56" y="566" text-anchor="middle" font-family="sans-serif" font-size="11" fill="#555">Mar</text>
<line x1="337.00" y1="25" x2="337.00" y2="550" stroke="#f2f2f2"/>
<text x="337.00" y="566" text-anchor="middle" font-family="sans-serif" font-size="11" fill="#555">Apr</text>
<line x1="428.40" y1="25" x2="428.40" y2="550" stroke="#f2f2f2"/>
<text x="428.40" y="566" text-anchor="middle" font-family="sans-serif" font-size="11" fill="#555">May</text>
<line x1="522.84" y1="25" x2="522.84" y2="550" stroke="#f2f2f2"/>
<text x="522.84" y="566" text-anchor="middle" font-family="sans-serif" font-size="11" fill="#555">Jun</text>
<line x1="614.24" y1="25" x2="614.24" y2="550" stroke="#f2f2f2"/>
<text x="614.24" y="566" text-anchor="middle" font-family="sans-serif" font-size="11" fill="#555">Jul</text>
<line x1="708.68" y1="25" x2="708.68" y2="550" stroke="#f2f2f2"/>
<text x="708.68" y="566" text-anchor="middle" font-family="sans-serif" font-size="11" fill="#555">Aug</text>
<line x1="803.12" y1="25" x2="803.12" y2="550" stroke="#f2f2f2"/>
<text x="803.12" y="566" text-anchor="middle" font-family="sans-serif" font-size="11" fill="#555">Sep</text>
<line x1="894.51" y1="25" x2="894.51" y2="550" stroke="#f2f2f2"/>
<text x="894.51" y="566" text-anchor="middle" font-family="sans-serif" font-size="11" fill="#555">Oct</text>
<line x1="988.96" y1="25" x2="988.96" y2="550" stroke="#f2f2f2"/>
<text x="988.96" y="566" text-anchor="middle" font-family="sans-serif" font-size="11" fill="#555">Nov</text>
<line x1="1080.35" y1="25" x2="1080.35" y2="550" stroke="#f2f2f2"/>
<text x="1080.35" y="566" text-anchor="middle" font-family="sans-serif" font-size="11" fill="#555">Dec</text>
<line x1="70" y1="550" x2="1170" y2="550" stroke="#888"/>
<line x1="70" y1="25" x2="70" y2="550" stroke="#888"/>
<path d="M 70.76 90.55 L 79.26 90.55 L 80.45 90.55 L 81.30 90.55 L 81.30 92.56 L 80.45 94.78 L 79.26 96.49 L 70.76 91.79 Z" fill="#d0d0d0" fill-opacity="0.5" stroke="none"/>
<path d="M 104.18 85.36 L 104.19 85.36 L 104.19 87.67 L 104.18 90.13 Z" fill="#d0d0d0" fill-opacity="0.5" stroke="none"/>
<path d="M 123.18 83.61 L 123.18 84.49 Z" fill="#d0d0d0" fill-opacity="0.5" stroke="none"/>
<path d="M 146.93 80.30 L 162.03 80.30 L 162.28 80.30 L 162.34 80.30 L 162.39 80.30 L 162.68 80.30 L 164.45 80.30 L 168.11 80.30 L 168.16 80.30 L 168.23 80.30 L 168.40 80.30 L 177.05 80.30 L 177.59 80.30 L 180.31 80.30 L 183.60 80.30 L 185.79 80.30 L 189.47 80.30 L 198.83 80.30 L 226.27 80.30 L 232.22 80.30 L 250.76 80.30 L 253.42 80.30 L 253.42 81.83 L 250.76 84.37 L 232.22 86.91 L 226.27 87.65 L 198.83 88.37 L 189.47 89.46 L 185.79 91.29 L 183.60 93.53 L 180.31 88.81 L 177.59 91.32 L 177.05 86.57 L 168.40 87.74 L 168.23 87.62 L 168.16 89.37 L 168.11 91.71 L 164.45 94.21 L 162.68 95.69 L 162.39 90.98 L 162.34 92.60 L 162.28 87.86 L 162.03 83.12 L 146.93 85.12 Z" fill="#d0d0d0" fill-opacity="0.5" stroke="none"/>
<path d="M 269.10 75.18 L 269.10 77.39 Z" fill="#d0d0d0" fill-opacity="0.5" stroke="none"/>
<path d="M 271.62 74.81 L 271.73 74.81 L 271.75 74.81 L 271.75 76.56 L 271.73 79.14 L 271.62 79.63 Z" fill="#d0d0d0" fill-opacity="0.5" stroke="none"/>
<path d="M 271.92 72.78 L 271.97 72.78 L 272.06 72.78 L 272.14 72.78 L 272.26 72.78 L 274.17 72.78 L 275.01 72.78 L 290.67 72.78 L 290.72 72.78 L 292.57 72.78 L 307.78 72.78 L 330.07 72.78 L 339.00 72.78 L 354.12 72.78 L 354.35 72.78 L 356.52 72.78 L 372.47 72.78 L 399.64 72.78 L 399.68 72.78 L 399.94 72.78 L 415.03 72.78 L 418.63 72.78 L 418.63 73.55 L 415.03 76.15 L 399.94 77.74 L 399.68 72.84 L 399.64 75.59 L 372.47 76.96 L 356.52 78.74 L 354.35 80.65 L 354.12 83.21 L 339.00 84.81 L 330.07 85.13 L 307.78 87.66 L 292.57 88.79 L 290.72 88.27 L 290.67 83.55 L 275.01 86.08 L 274.17 86.50 L 272.26 87.36 L 272.14 86.90 L 272.06 87.11 L 271.97 82.35 L 271.92 77.58 Z" fill="#d0d0d0" fill-opacity="0.5" stroke="none"/>
<path d="M 530.74 61.77 L 530.83 61.77 L 530.90 61.77 L 531.05 61.77 L 567.90 61.77 L 570.06 61.77 L 570.79 61.77 L 570.82 61.77 L 570.95 61.77 L 585.56 61.77 L 591.18 61.77 L 592.91 61.77 L 592.91 62.31 L 591.18 65.13 L 585.56 67.49 L 570.95 70.11 L 570.82 71.68 L 570.79 73.99 L 570.06 69.06 L 567.90 69.16 L 531.05 71.78 L 530.90 70.70 L 530.83 71.58 L 530.74 66.68 Z" fill="#d0d0d0" fill-opacity="0.5" stroke="none"/>
<path d="M 593.12 59.41 L 593.17 59.41 L 593.21 59.41 L 593.34 59.41 L 593.36 59.41 L 593.40 59.41 L 593.51 59.41 L 593.54 59.41 L 593.65 59.41 L 593.69 59.41 L 593.83 59.41 L 593.85 59.41 L 593.97 59.41 L 594.02 59.41 L 594.09 59.41 L 594.18 59.41 L 594.47 59.41 L 594.86 59.41 L 595.27 59.41 L 601.95 59.41 L 612.93 59.41 L 613.34 59.41 L 613.37 59.41 L 613.37 60.12 L 613.34 62.71 L 612.93 65.35 L 601.95 67.59 L 595.27 69.47 L 594.86 64.49 L 594.47 66.62 L 594.18 66.73 L 594.09 68.81 L 594.02 69.79 L 593.97 64.87 L 593.85 67.49 L 593.83 70.20 L 593.69 72.80 L 593.65 74.43 L 593.54 69.55 L 593.51 72.08 L 593.40 67.27 L 593.36 69.54 L 593.34 72.02 L 593.21 67.12 L 593.17 69.35 L 593.12 64.43 Z" fill="#d0d0d0" fill-opacity="0.5" stroke="none"/>
<path d="M 628.59 57.44 L 637.28 57.44 L 637.28 59.82 L 628.59 62.48 Z" fill="#d0d0d0" fill-opacity="0.5" stroke="none"/>
<path d="M 787.04 38.98 L 805.19 38.98 L 807.88 38.98 L 808.17 38.98 L 820.32 38.98 L 820.40 38.98 L 829.42 38.98 L 850.69 38.98 L 892.57 38.98 L 892.57 40.11 L 850.69 41.86 L 829.42 42.76 L 820.40 43.30 L 820.32 44.52 L 808.17 39.30 L 807.88 41.61 L 805.19 44.36 L 787.04 44.20 Z" fill="#d0d0d0" fill-opacity="0.5" stroke="none"/>
<path d="M 1013.59 25.00 L 1013.63 25.00 L 1013.70 25.00 L 1013.76 25.00 L 1013.89 25.00 L 1013.90 25.00 L 1014.07 25.00 L 1014.21 25.00 L 1014.34 25.00 L 1014.42 25.00 L 1014.55 25.00 L 1014.60 25.00 L 1014.91 25.00 L 1015.28 25.00 L 1015.34 25.00 L 1028.75 25.00 L 1029.74 25.00 L 1030.54 25.00 L 1032.75 25.00 L 1035.69 25.00 L 1039.48 25.00 L 1042.74 25.00 L 1057.78 25.00 L 1071.58 25.00 L 1072.72 25.00 L 1079.14 25.00 L 1079.42 25.00 L 1092.41 25.00 L 1093.53 25.00 L 1093.67 25.00 L 1093.98 25.00 L 1094.04 25.00 L 1094.91 25.00 L 1103.29 25.00 L 1103.35 25.00 L 1103.41 25.00 L 1103.52 25.00 L 1103.68 25.00 L 1103.73 25.00 L 1106.38 25.00 L 1122.37 25.00 L 1123.09 25.00 L 1124.47 25.00 L 1125.17 25.00 L 1128.19 25.00 L 1146.27 25.00 L 1168.65 25.00 L 1168.69 25.00 L 1170.00 25.00 L 1170.00 46.44 L 1168.69 47.97 L 1168.65 50.16 L 1146.27 53.02 L 1128.19 55.22 L 1125.17 57.69 L 1124.47 58.85 L 1123.09 53.76 L 1122.37 53.99 L 1106.38 56.83 L 1103.73 56.99 L 1103.68 51.88 L 1103.52 46.79 L 1103.41 47.01 L 1103.35 41.87 L 1103.29 43.77 L 1094.91 46.68 L 1094.04 46.89 L 1093.98 48.88 L 1093.67 43.71 L 1093.53 44.68 L 1092.41 46.15 L 1079.42 49.04 L 1079.14 50.11 L 1072.72 52.21 L 1071.58 54.33 L 1057.78 54.15 L 1042.74 49.02 L 1039.48 51.46 L 1035.69 53.38 L 1032.75 55.32 L 1030.54 56.04 L 1029.74 55.08 L 1028.75 56.26 L 1015.34 58.33 L 1015.28 53.24 L 1014.91 52.63 L 1014.60 54.85 L 1014.55 49.78 L 1014.42 44.68 L 1014.34 45.58 L 1014.21 40.43 L 1014.07 43.03 L 1013.90 37.81 L 1013.89 40.75 L 1013.76 39.57 L 1013.70 34.40 L 1013.63 35.58 L 1013.59 30.34 Z" fill="#d0d0d0" fill-opacity="0.5" stroke="none"/>
<polyline fill="none" stroke="#111" stroke-width="1.2" points="70.00,90.55 70.76,91.79 79.26,96.49 80.45,94.78 81.30,92.56 83.06,90.49 90.12,87.98 98.34,86.27 100.59,85.84 101.45,85.36 104.18,90.13 104.19,87.67 122.42,85.00 122.50,83.61 123.18,84.49 143.23,82.85 145.54,80.30 146.93,85.12 162.03,83.12 162.28,87.86 162.34,92.60 162.39,90.98 162.68,95.69 164.45,94.21 168.11,91.71 168.16,89.37 168.23,87.62 168.40,87.74 177.05,86.57 177.59,91.32 180.31,88.81 183.60,93.53 185.79,91.29 189.47,89.46 198.83,88.37 226.27,87.65 232.22,86.91 250.76,84.37 253.42,81.83 253.44,79.30 253.48,76.73 253.67,75.35 263.10,75.18 269.10,77.39 271.60,74.81 271.62,79.63 271.73,79.14 271.75,76.56 271.78,73.82 271.88,72.78 271.92,77.58 271.97,82.35 272.06,87.11 272.14,86.90 272.26,87.36 274.17,86.50 275.01,86.08 290.67,83.55 290.72,88.27 292.57,88.79 307.78,87.66 330.07,85.13 339.00,84.81 354.12,83.21 354.35,80.65 356.52,78.74 372.47,76.96 399.64,75.59 399.68,72.84 399.94,77.74 415.03,76.15 418.63,73.55 433.35,70.95 435.70,69.88 445.35,67.25 466.89,64.87 482.71,64.59 530.65,61.77 530.74,66.68 530.83,71.58 530.90,70.70 531.05,71.78 567.90,69.16 570.06,69.06 570.79,73.99 570.82,71.68 570.95,70.11 585.56,67.49 591.18,65.13 592.91,62.31 592.95,59.41 593.12,64.43 593.17,69.35 593.21,67.12 593.34,72.02 593.36,69.54 593.40,67.27 593.51,72.08 593.54,69.55 593.65,74.43 593.69,72.80 593.83,70.20 593.85,67.49 593.97,64.87 594.02,69.79 594.09,68.81 594.18,66.73 594.47,66.62 594.86,64.49 595.27,69.47 601.95,67.59 612.93,65.35 613.34,62.71 613.37,60.12 627.50,57.44 628.59,62.48 637.28,59.82 637.37,57.14 655.40,54.44 658.80,53.96 680.30,52.57 701.39,51.38 722.58,48.66 722.80,48.17 743.99,47.84 755.57,46.79 759.87,44.29 786.74,41.52 786.79,38.98 787.04,44.20 805.19,44.36 807.88,41.61 808.17,39.30 820.32,44.52 820.40,43.30 829.42,42.76 850.69,41.86 892.57,40.11 893.37,38.90 905.77,36.11 905.81,33.56 914.58,31.01 954.15,28.39 954.24,26.00 979.19,25.00 1013.59,30.34 1013.63,35.58 1013.70,34.40 1013.76,39.57 1013.89,40.75 1013.90,37.81 1014.07,43.03 1014.21,40.43 1014.34,45.58 1014.42,44.68 1014.55,49.78 1014.60,54.85 1014.91,52.63 1015.28,53.24 1015.34,58.33 1028.75,56.26 1029.74,55.08 1030.54,56.04 1032.75,55.32 1035.69,53.38 1039.48,51.46 1042.74,49.02 1057.78,54.15 1071.58,54.33 1072.72,52.21 1079.14,50.11 1079.42,49.04 1092.41,46.15 1093.53,44.68 1093.67,43.71 1093.98,48.88 1094.04,46.89 1094.91,46.68 1103.29,43.77 1103.35,41.87 1103.41,47.01 1103.52,46.79 1103.68,51.88 1103.73,56.99 1106.38,56.83 1122.37,53.99 1123.09,53.76 1124.47,58.85 1125.17,57.69 1128.19,55.22 1146.27,53.02 1168.65,50.16 1168.69,47.97 1170.00,46.44"/>
<text x="620.0" y="588" text-anchor="middle" font-family="sans-serif" font-size="12" fill="#333">UTC time</text>
<text x="15" y="287.5" transform="rotate(-90 15,287.5)" text-anchor="middle" font-family="sans-serif" font-size="12" fill="#333">Capital</text>
</svg>