<svg xmlns="http://www.w3.org/2000/svg" width="1200" height="600" viewBox="0 0 1200 600">
<desc>Equity curve with drawdown fill</desc>
<text x="600.0" y="18.0" text-anchor="middle" font-family="sans-serif" font-size="14">Portfolio 2023</text>
<rect x="70" y="25" width="1100" height="525" fill="white" stroke="#ccc" />
<line x1="70" y1="550.00" x2="1170" y2="550.00" stroke="#eee"/>
<text x="62" y="554.0" text-anchor="end" font-family="sans-serif" font-size="11" fill="#555">0.00</text>
<line x1="70" y1="445.00" x2="1170" y2="445.00" stroke="#eee"/>
<text x="62" y="449.0" text-anchor="end" font-family="sans-serif" font-size="11" fill="#555">20605</text>
<line x1="70" y1="340.00" x2="1170" y2="340.00" stroke="#eee"/>
<text x="62" y="344.0" text-anchor="end" font-family="sans-serif" font-size="11" fill="#555">41210</text>
<line x1="70" y1="235.00" x2="1170" y2="235.00" stroke="#eee"/>
<text x="62" y="239.0" text-anchor="end" font-family="sans-serif" font-size="11" fill="#555">61815</text>
<line x1="70" y1="130.00" x2="1170" y2="130.00" stroke="#eee"/>
<text x="62" y="134.0" text-anchor="end" font-family="sans-serif" font-size="11" fill="#555">82419</text>
<line x1="70" y1="25.00" x2="1170" y2="25.00" stroke="#eee"/>
<text x="62" y="29.0" text-anchor="end" font-family="sans-serif" font-size="11" fill="#555">103024</text>
<line x1="157.75" y1="25" x2="157.75" y2="550" stroke="#f2f2f2"/>
<text x="157.75" y="566" text-anchor="middle" font-family="sans-serif" font-size="11" fill="#555">Feb</text>
<line x1="243.48" y1="25" x2="243.48" y2="550" stroke="#f2f2f2"/>
<text x="243.48" y="566" text-anchor="middle" font-family="sans-serif" font-size="11" fill="#555">Mar</text>
<line x1="338.40" y1="25" x2="338.40" y2="550" stroke="#f2f2f2"/>
<text x="338.40" y="566" text-anchor="middle" font-family="sans-serif" font-size="11" fill="#555">Apr</text>
<line x1="430.26" y1="25" x2="430.26" y2="550" stroke="#f2f2f2"/>
<text x="430.26" y="566" text-anchor="middle" font-family="sans-serif" font-size="11" fill="#555">May</text>
<line x1="525.18" y1="25" x2="525.18" y2="550" stroke="#f2f2f2"/>
<text x="525.18" y="566" text-anchor="middle" font-family="sans-serif" font-size="11" fill="#555">Jun</text>
<line x1="617.04" y1="25" x2="617.04" y2="550" stroke="#f2f2f2"/>
<text x="617.04" y="566" text-anchor="middle" font-family="sans-serif" font-size="11" fill="#555">Jul</text>
<line x1="711.96" y1="25" x2="711.96" y2="550" stroke="#f2f2f2"/>
<text x="711.96" y="566" text-anchor="middle" font-family="sans-serif" font-size="11" fill="#555">Aug</text>
<line x1="806.88" y1="25" x2="806.88" y2="550" stroke="#f2f2f2"/>
<text x="806.88" y="566" text-anchor="middle" font-family="sans-serif" font-size="11" fill="#555">Sep</text>
<line x1="898.74" y1="25" x2="898.74" y2="550" stroke="#f2f2f2"/>
<text x="898.74" y="566" text-anchor="middle" font-family="sans-serif" font-size="11" fill="#555">Oct</text>
<line x1="993.66" y1="25" x2="993.66" y2="550" stroke="#f2f2f2"/>
<text x="993.66" y="566" text-anchor="middle" font-family="sans-serif" font-size="11" fill="#555">Nov</text>
<line x1="1085.52" y1="25" x2="1085.52" y2="550" stroke="#f2f2f2"/>
<text x="1085.52" y="566" text-anchor="middle" font-family="sans-serif" font-size="11" fill="#555">Dec</text>
<line x1="70" y1="550" x2="1170" y2="550" stroke="#888"/>
<line x1="70" y1="25" x2="70" y2="550" stroke="#888"/>
<path d="M 70.00 40.41 L 70.11 40.41 L 70.14 40.41 L 70.85 40.41 L 73.12 40.41 L 76.98 40.41 L 79.94 40.41 L 80.08 40.41 L 80.32 40.41 L 80.46 40.41 L 89.09 40.41 L 98.23 40.41 L 98.31 40.41 L 98.86 40.41 L 113.91 40.41 L 116.01 40.41 L 116.74 40.41 L 117.17 40.41 L 138.27 40.41 L 160.73 40.41 L 162.61 40.41 L 162.76 40.41 L 165.59 40.41 L 165.76 40.41 L 165.82 40.41 L 178.41 40.41 L 199.28 40.41 L 199.42 40.41 L 199.60 40.41 L 199.60 41.50 L 199.42 43.76 L 199.28 46.27 L 178.41 48.99 L 165.82 43.80 L 165.76 46.13 L 165.59 47.83 L 162.76 50.73 L 162.61 52.96 L 160.73 55.04 L 138.27 57.03 L 117.17 58.92 L 116.74 58.71 L 116.01 61.14 L 113.91 59.72 L 98.86 60.20 L 98.31 61.27 L 98.23 63.63 L 89.09 66.26 L 80.46 67.79 L 80.32 65.40 L 80.08 61.07 L 79.94 56.00 L 76.98 57.96 L 73.12 52.86 L 70.85 53.71 L 70.14 55.84 L 70.11 50.76 L 70.00 45.64 Z" fill="#d0d0d0" fill-opacity="0.5" stroke="none"/>
<path d="M 264.22 37.72 L 273.13 37.72 L 280.66 37.72 L 281.47 37.72 L 281.47 39.38 L 280.66 40.33 L 273.13 41.21 L 264.22 42.98 Z" fill="#d0d0d0" fill-opacity="0.5" stroke="none"/>
<path d="M 287.69 36.88 L 288.01 36.88 L 288.30 36.88 L 288.52 36.88 L 303.46 36.88 L 313.27 36.88 L 314.96 36.88 L 315.35 36.88 L 315.44 36.88 L 367.70 36.88 L 373.87 36.88 L 380.15 36.88 L 389.70 36.88 L 413.96 36.88 L 413.96 37.23 L 389.70 39.18 L 380.15 37.79 L 373.87 40.01 L 367.70 41.17 L 315.44 42.79 L 315.35 42.52 L 314.96 43.40 L 313.27 45.54 L 303.46 48.05 L 288.52 50.44 L 288.30 49.51 L 288.01 47.30 L 287.69 42.14 Z" fill="#d0d0d0" fill-opacity="0.5" stroke="none"/>
<path d="M 570.26 25.00 L 593.63 25.00 L 612.86 25.00 L 616.10 25.00 L 637.15 25.00 L 652.46 25.00 L 677.47 25.00 L 688.67 25.00 L 698.83 25.00 L 698.92 25.00 L 701.46 25.00 L 717.02 25.00 L 722.96 25.00 L 753.69 25.00 L 780.45 25.00 L 799.68 25.00 L 809.11 25.00 L 848.41 25.00 L 867.50 25.00 L 915.81 25.00 L 915.85 25.00 L 916.18 25.00 L 934.18 25.00 L 956.04 25.00 L 991.88 25.00 L 1001.38 25.00 L 1001.46 25.00 L 1001.57 25.00 L 1035.19 25.00 L 1035.37 25.00 L 1035.44 25.00 L 1096.57 25.00 L 1108.68 25.00 L 1124.72 25.00 L 1124.87 25.00 L 1127.16 25.00 L 1130.16 25.00 L 1170.00 25.00 L 1170.00 38.18 L 1130.16 40.21 L 1127.16 41.82 L 1124.87 43.73 L 1124.72 42.29 L 1108.68 37.03 L 1096.57 39.82 L 1035.44 41.78 L 1035.37 36.51 L 1035.19 31.25 L 1001.57 34.06 L 1001.46 36.08 L 1001.38 37.94 L 991.88 40.72 L 956.04 43.18 L 934.18 45.72 L 916.18 48.22 L 915.85 43.01 L 915.81 45.23 L 867.50 39.99 L 848.41 42.48 L 809.11 37.21 L 799.68 34.53 L 780.45 35.55 L 753.69 37.55 L 722.96 39.05 L 717.02 33.75 L 701.46 35.98 L 698.92 36.72 L 698.83 36.09 L 688.67 33.67 L 677.47 33.30 L 652.46 27.94 L 637.15 30.49 L 616.10 33.30 L 612.86 34.01 L 593.63 35.72 L 570.26 30.39 Z" fill="#d0d0d0" fill-opacity="0.5" stroke="none"/>
<polyline fill="none" stroke="#111" stroke-width="1.2" points="70.00,45.64 70.11,50.76 70.14,55.84 70.85,53.71 73.12,52.86 76.98,57.96 79.94,56.00 80.08,61.07 80.32,65.40 80.46,67.79 89.09,66.26 98.23,63.63 98.31,61.27 98.86,60.20 113.91,59.72 116.01,61.14 116.74,58.71 117.17,58.92 138.27,57.03 160.73,55.04 162.61,52.96 162.76,50.73 165.59,47.83 165.76,46.13 165.82,43.80 178.41,48.99 199.28,46.27 199.42,43.76 199.60,41.50 208.71,39.23 245.19,37.72 264.22,42.98 273.13,41.21 280.66,40.33 281.47,39.38 282.29,36.88 287.69,42.14 288.01,47.30 288.30,49.51 288.52,50.44 303.46,48.05 313.27,45.54 314.96,43.40 315.35,42.52 315.44,42.79 367.70,41.17 373.87,40.01 380.15,37.79 389.70,39.18 413.96,37.23 438.82,34.43 441.57,34.10 444.23,31.28 459.73,28.64 461.97,27.58 527.11,25.00 570.26,30.39 593.63,35.72 612.86,34.01 616.10,33.30 637.15,30.49 652.46,27.94 677.47,33.30 688.67,33.67 698.83,36.09 698.92,36.72 701.46,35.98 717.02,33.75 722.96,39.05 753.69,37.55 780.45,35.55 799.68,34.53 809.11,37.21 848.41,42.48 867.50,39.99 915.81,45.23 915.85,43.01 916.18,48.22 934.18,45.72 956.04,43.18 991.88,40.72 1001.38,37.94 1001.46,36.08 1001.57,34.06 1035.19,31.25 1035.37,36.51 1035.44,41.78 1096.57,39.82 1108.68,37.03 1124.72,42.29 1124.87,43.73 1127.16,41.82 1130.16,40.21 1170.00,38.18"/>
<text x="620.0" y="588" text-anchor="middle" font-family="sans-serif" font-size="12" fill="#333">UTC time</text>
<text x="15" y="287.5" transform="rotate(-90 15,287.5)" text-anchor="middle" font-family="sans-serif" font-size="12" fill="#333">Capital</text>
</svg>