<svg xmlns="http://www.w3.org/2000/svg" width="1200" height="600" viewBox="0 0 1200 600">
<desc>Equity curve with drawdown fill</desc>
<text x="600.0" y="18.0" text-anchor="middle" font-family="sans-serif" font-size="14">Portfolio 2001</text>
<rect x="70" y="25" width="1100" height="525" fill="white" stroke="#ccc" />
<line x1="70" y1="550.00" x2="1170" y2="550.00" stroke="#eee"/>
<text x="62" y="554.0" text-anchor="end" font-family="sans-serif" font-size="11" fill="#555">0.00</text>
<line x1="70" y1="445.00" x2="1170" y2="445.00" stroke="#eee"/>
<text x="62" y="449.0" text-anchor="end" font-family="sans-serif" font-size="11" fill="#555">20268</text>
<line x1="70" y1="340.00" x2="1170" y2="340.00" stroke="#eee"/>
<text x="62" y="344.0" text-anchor="end" font-family="sans-serif" font-size="11" fill="#555">40536</text>
<line x1="70" y1="235.00" x2="1170" y2="235.00" stroke="#eee"/>
<text x="62" y="239.0" text-anchor="end" font-family="sans-serif" font-size="11" fill="#555">60805</text>
<line x1="70" y1="130.00" x2="1170" y2="130.00" stroke="#eee"/>
<text x="62" y="134.0" text-anchor="end" font-family="sans-serif" font-size="11" fill="#555">81073</text>
<line x1="70" y1="25.00" x2="1170" y2="25.00" stroke="#eee"/>
<text x="62" y="29.0" text-anchor="end" font-family="sans-serif" font-size="11" fill="#555">101341</text>
<line x1="156.97" y1="25" x2="156.97" y2="550" stroke="#f2f2f2"/>
<text x="156.97" y="566" text-anchor="middle" font-family="sans-serif" font-size="11" fill="#555">Feb</text>
<line x1="241.97" y1="25" x2="241.97" y2="550" stroke="#f2f2f2"/>
<text x="241.97" y="566" text-anchor="middle" font-family="sans-serif" font-size="11" fill="#555">Mar</text>
<line x1="336.07" y1="25" x2="336.07" y2="550" stroke="#f2f2f2"/>
<text x="336.07" y="566" text-anchor="middle" font-family="sans-serif" font-size="11" fill="#555">Apr</text>
<line x1="427.14" y1="25" x2="427.14" y2="550" stroke="#f2f2f2"/>
<text x="427.14" y="566" text-anchor="middle" font-family="sans-serif" font-size="11" fill="#555">May</text>
<line x1="521.24" y1="25" x2="521.24" y2="550" stroke="#f2f2f2"/>
<text x="521.24" y="566" text-anchor="middle" font-family="sans-serif" font-size="11" fill="#555">Jun</text>
<line x1="612.31" y1="25" x2="612.31" y2="550" stroke="#f2f2f2"/>
<text x="612.31" y="566" text-anchor="middle" font-family="sans-serif" font-size="11" fill="#555">Jul</text>
<line x1="706.42" y1="25" x2="706.42" y2="550" stroke="#f2f2f2"/>
<text x="706.42" y="566" text-anchor="middle" font-family="sans-serif" font-size="11" fill="#555">Aug</text>
<line x1="800.52" y1="25" x2="800.52" y2="550" stroke="#f2f2f2"/>
<text x="800.52" y="566" text-anchor="middle" font-family="sans-serif" font-size="11" fill="#555">Sep</text>
<line x1="891.59" y1="25" x2="891.59" y2="550" stroke="#f2f2f2"/>
<text x="891.59" y="566" text-anchor="middle" font-family="sans-serif" font-size="11" fill="#555">Oct</text>
<line x1="985.69" y1="25" x2="985.69" y2="550" stroke="#f2f2f2"/>
<text x="985.69" y="566" text-anchor="middle" font-family="sans-serif" font-size="11" fill="#555">Nov</text>
<line x1="1076.76" y1="25" x2="1076.76" y2="550" stroke="#f2f2f2"/>
<text x="1076.76" y="566" text-anchor="middle" font-family="sans-serif" font-size="11" fill="#555">Dec</text>
<line x1="1170.00" y1="25" x2="1170.00" y2="550" stroke="#f2f2f2"/>
<text x="1170.00" y="566" text-anchor="middle" font-family="sans-serif" font-size="11" fill="#555">Jan</text>
<line x1="70" y1="550" x2="1170" y2="550" stroke="#888"/>
<line x1="70" y1="25" x2="70" y2="550" stroke="#888"/>
<path d="M 71.43 26.90 L 72.93 26.90 L 72.97 26.90 L 73.14 26.90 L 73.15 26.90 L 73.27 26.90 L 73.29 26.90 L 73.36 26.90 L 73.54 26.90 L 74.23 26.90 L 74.96 26.90 L 75.93 26.90 L 76.83 26.90 L 77.39 26.90 L 85.18 26.90 L 88.35 26.90 L 91.35 26.90 L 126.65 26.90 L 126.74 26.90 L 127.75 26.90 L 128.55 26.90 L 134.49 26.90 L 134.55 26.90 L 134.74 26.90 L 137.02 26.90 L 137.62 26.90 L 139.85 26.90 L 140.47 26.90 L 152.90 26.90 L 155.76 26.90 L 161.91 26.90 L 161.99 26.90 L 170.14 26.90 L 176.67 26.90 L 179.80 26.90 L 182.44 26.90 L 182.48 26.90 L 183.41 26.90 L 195.27 26.90 L 200.78 26.90 L 200.96 26.90 L 201.50 26.90 L 203.38 26.90 L 203.44 26.90 L 204.37 26.90 L 211.65 26.90 L 213.12 26.90 L 215.63 26.90 L 216.04 26.90 L 216.25 26.90 L 218.75 26.90 L 218.91 26.90 L 219.06 26.90 L 219.70 26.90 L 219.85 26.90 L 220.85 26.90 L 221.79 26.90 L 221.94 26.90 L 222.55 26.90 L 222.74 26.90 L 225.58 26.90 L 225.97 26.90 L 226.25 26.90 L 234.05 26.90 L 236.99 26.90 L 237.80 26.90 L 238.14 26.90 L 240.47 26.90 L 240.88 26.90 L 246.10 26.90 L 246.13 26.90 L 262.14 26.90 L 279.60 26.90 L 280.42 26.90 L 282.43 26.90 L 282.90 26.90 L 283.34 26.90 L 283.37 26.90 L 283.75 26.90 L 285.43 26.90 L 285.55 26.90 L 286.13 26.90 L 286.76 26.90 L 286.77 26.90 L 286.90 26.90 L 288.64 26.90 L 289.34 26.90 L 289.67 26.90 L 298.07 26.90 L 300.72 26.90 L 302.60 26.90 L 303.82 26.90 L 303.84 26.90 L 304.04 26.90 L 306.77 26.90 L 306.95 26.90 L 307.68 26.90 L 309.74 26.90 L 309.92 26.90 L 322.72 26.90 L 322.87 26.90 L 325.28 26.90 L 330.41 26.90 L 332.01 26.90 L 341.13 26.90 L 343.17 26.90 L 344.23 26.90 L 344.32 26.90 L 348.60 26.90 L 349.46 26.90 L 349.95 26.90 L 352.40 26.90 L 352.94 26.90 L 352.99 26.90 L 353.55 26.90 L 365.43 26.90 L 368.19 26.90 L 368.24 26.90 L 368.70 26.90 L 371.32 26.90 L 371.52 26.90 L 383.27 26.90 L 389.64 26.90 L 389.71 26.90 L 389.72 26.90 L 389.86 26.90 L 389.96 26.90 L 390.07 26.90 L 391.93 26.90 L 392.55 26.90 L 392.61 26.90 L 392.79 26.90 L 394.88 26.90 L 395.45 26.90 L 395.72 26.90 L 404.02 26.90 L 404.88 26.90 L 407.83 26.90 L 408.02 26.90 L 410.83 26.90 L 413.68 26.90 L 416.80 26.90 L 416.90 26.90 L 416.96 26.90 L 417.06 26.90 L 431.29 26.90 L 433.14 26.90 L 434.48 26.90 L 435.14 26.90 L 435.37 26.90 L 437.95 26.90 L 438.10 26.90 L 450.24 26.90 L 456.16 26.90 L 456.27 26.90 L 456.56 26.90 L 473.21 26.90 L 473.73 26.90 L 473.82 26.90 L 489.00 26.90 L 492.27 26.90 L 495.05 26.90 L 496.25 26.90 L 497.34 26.90 L 498.33 26.90 L 500.92 26.90 L 501.23 26.90 L 515.39 26.90 L 518.96 26.90 L 518.96 27.74 L 515.39 30.49 L 501.23 33.04 L 500.92 34.12 L 498.33 36.58 L 497.34 37.75 L 496.25 40.31 L 495.05 42.77 L 492.27 44.27 L 489.00 44.01 L 473.82 38.72 L 473.73 33.44 L 473.21 28.03 L 456.56 28.85 L 456.27 31.30 L 456.16 33.49 L 450.24 36.03 L 438.10 36.44 L 437.95 38.53 L 435.37 41.43 L 435.14 42.86 L 434.48 45.02 L 433.14 45.46 L 431.29 47.65 L 417.06 49.37 L 416.96 51.59 L 416.90 53.18 L 416.80 48.07 L 413.68 42.83 L 410.83 37.52 L 408.02 36.89 L 407.83 36.64 L 404.88 39.35 L 404.02 40.69 L 395.72 43.10 L 395.45 45.56 L 394.88 48.01 L 392.79 47.31 L 392.61 48.77 L 392.55 50.43 L 391.93 52.02 L 390.07 52.95 L 389.96 52.05 L 389.86 52.61 L 389.72 47.49 L 389.71 50.32 L 389.64 45.10 L 383.27 39.82 L 371.52 34.49 L 371.32 35.83 L 368.70 38.11 L 368.24 38.91 L 368.19 40.91 L 365.43 35.60 L 353.55 30.22 L 352.99 30.58 L 352.94 33.32 L 352.40 34.60 L 349.95 35.59 L 349.46 38.32 L 348.60 39.81 L 344.32 38.93 L 344.23 39.69 L 343.17 34.36 L 341.13 36.23 L 332.01 36.82 L 330.41 31.46 L 325.28 32.71 L 322.87 29.97 L 322.72 31.76 L 309.92 34.26 L 309.74 36.38 L 307.68 36.66 L 306.95 38.71 L 306.77 40.42 L 304.04 42.57 L 303.84 40.98 L 303.82 35.74 L 302.60 30.37 L 300.72 32.78 L 298.07 32.79 L 289.67 33.71 L 289.34 35.43 L 288.64 36.17 L 286.90 38.47 L 286.77 40.81 L 286.76 43.51 L 286.13 38.23 L 285.55 40.19 L 285.43 42.89 L 283.75 45.01 L 283.37 47.44 L 283.34 50.03 L 282.90 44.82 L 282.43 43.97 L 280.42 38.70 L 279.60 39.34 L 262.14 40.22 L 246.13 40.88 L 246.10 43.03 L 240.88 37.74 L 240.47 39.19 L 238.14 40.46 L 237.80 40.10 L 236.99 42.52 L 234.05 44.31 L 226.25 43.28 L 225.97 41.10 L 225.58 35.79 L 222.74 37.48 L 222.55 38.87 L 221.94 41.31 L 221.79 43.79 L 220.85 45.55 L 219.85 47.80 L 219.70 48.71 L 219.06 51.37 L 218.91 50.45 L 218.75 51.20 L 216.25 53.49 L 216.04 53.45 L 215.63 55.32 L 213.12 56.15 L 211.65 51.01 L 204.37 52.73 L 203.44 53.32 L 203.38 55.04 L 201.50 57.45 L 200.96 58.73 L 200.78 59.82 L 195.27 57.91 L 183.41 57.27 L 182.48 58.26 L 182.44 60.87 L 179.80 63.02 L 176.67 61.59 L 170.14 63.08 L 161.99 65.19 L 161.91 66.46 L 155.76 61.44 L 152.90 63.42 L 140.47 58.37 L 139.85 53.25 L 137.62 48.07 L 137.02 48.84 L 134.74 50.64 L 134.55 50.65 L 134.49 52.27 L 128.55 47.08 L 127.75 41.84 L 126.74 44.29 L 126.65 45.07 L 91.35 39.81 L 88.35 42.29 L 85.18 44.20 L 77.39 46.20 L 76.83 47.32 L 75.93 49.79 L 74.96 52.19 L 74.23 54.58 L 73.54 57.05 L 73.36 59.32 L 73.29 59.93 L 73.27 54.90 L 73.15 49.82 L 73.14 44.61 L 72.97 42.71 L 72.93 37.50 L 71.43 32.17 Z" fill="#d0d0d0" fill-opacity="0.5" stroke="none"/>
<path d="M 532.44 25.00 L 534.80 25.00 L 537.43 25.00 L 538.39 25.00 L 543.09 25.00 L 543.23 25.00 L 543.26 25.00 L 543.39 25.00 L 543.40 25.00 L 543.54 25.00 L 543.55 25.00 L 543.76 25.00 L 553.38 25.00 L 555.66 25.00 L 562.60 25.00 L 562.66 25.00 L 562.78 25.00 L 562.86 25.00 L 562.99 25.00 L 565.64 25.00 L 574.65 25.00 L 581.37 25.00 L 583.78 25.00 L 604.84 25.00 L 625.56 25.00 L 626.54 25.00 L 629.52 25.00 L 629.57 25.00 L 638.62 25.00 L 640.65 25.00 L 643.71 25.00 L 646.73 25.00 L 663.14 25.00 L 665.89 25.00 L 665.90 25.00 L 665.97 25.00 L 666.07 25.00 L 667.99 25.00 L 668.72 25.00 L 672.16 25.00 L 686.85 25.00 L 692.98 25.00 L 693.32 25.00 L 714.46 25.00 L 725.66 25.00 L 732.93 25.00 L 732.96 25.00 L 747.94 25.00 L 750.28 25.00 L 753.06 25.00 L 753.86 25.00 L 754.17 25.00 L 771.36 25.00 L 771.53 25.00 L 772.41 25.00 L 778.34 25.00 L 789.15 25.00 L 790.48 25.00 L 794.35 25.00 L 796.27 25.00 L 796.55 25.00 L 796.59 25.00 L 796.81 25.00 L 799.42 25.00 L 799.45 25.00 L 799.62 25.00 L 810.52 25.00 L 811.55 25.00 L 811.66 25.00 L 811.68 25.00 L 811.71 25.00 L 811.86 25.00 L 811.93 25.00 L 814.18 25.00 L 816.81 25.00 L 817.62 25.00 L 820.44 25.00 L 820.51 25.00 L 820.59 25.00 L 832.65 25.00 L 832.76 25.00 L 832.87 25.00 L 832.91 25.00 L 833.03 25.00 L 833.09 25.00 L 833.16 25.00 L 834.06 25.00 L 834.55 25.00 L 834.70 25.00 L 834.72 25.00 L 835.05 25.00 L 835.19 25.00 L 839.05 25.00 L 841.11 25.00 L 841.73 25.00 L 849.83 25.00 L 850.75 25.00 L 851.07 25.00 L 851.11 25.00 L 851.21 25.00 L 851.51 25.00 L 854.34 25.00 L 857.22 25.00 L 861.64 25.00 L 862.42 25.00 L 863.02 25.00 L 863.40 25.00 L 863.51 25.00 L 871.86 25.00 L 871.89 25.00 L 875.20 25.00 L 881.26 25.00 L 882.83 25.00 L 891.80 25.00 L 896.32 25.00 L 898.15 25.00 L 900.01 25.00 L 913.01 25.00 L 914.03 25.00 L 916.55 25.00 L 918.37 25.00 L 939.17 25.00 L 942.09 25.00 L 955.51 25.00 L 957.41 25.00 L 977.77 25.00 L 978.54 25.00 L 1004.81 25.00 L 1006.29 25.00 L 1020.92 25.00 L 1020.92 25.00 L 1022.31 25.00 L 1023.25 25.00 L 1083.02 25.00 L 1091.03 25.00 L 1110.54 25.00 L 1125.48 25.00 L 1131.39 25.00 L 1132.85 25.00 L 1133.82 25.00 L 1146.73 25.00 L 1146.79 25.00 L 1148.08 25.00 L 1148.10 25.00 L 1148.28 25.00 L 1148.40 25.00 L 1148.67 25.00 L 1154.31 25.00 L 1154.43 25.00 L 1167.89 25.00 L 1169.53 25.00 L 1169.83 25.00 L 1170.00 25.00 L 1170.00 150.54 L 1169.83 152.78 L 1169.53 151.63 L 1167.89 153.86 L 1154.43 154.83 L 1154.31 157.04 L 1148.67 159.23 L 1148.40 161.41 L 1148.28 160.23 L 1148.10 156.35 L 1148.08 152.48 L 1146.79 148.50 L 1146.73 144.46 L 1133.82 143.98 L 1132.85 146.27 L 1131.39 146.06 L 1125.48 148.33 L 1110.54 146.37 L 1091.03 148.64 L 1083.02 144.60 L 1023.25 142.07 L 1022.31 141.42 L 1020.92 143.51 L 1020.92 145.73 L 1006.29 147.80 L 1004.81 146.97 L 978.54 147.78 L 977.77 147.32 L 957.41 147.98 L 955.51 146.03 L 942.09 144.51 L 939.17 140.41 L 918.37 141.91 L 916.55 139.22 L 914.03 141.47 L 913.01 140.09 L 900.01 139.94 L 898.15 135.79 L 896.32 136.12 L 891.80 137.66 L 882.83 139.23 L 881.26 139.85 L 875.20 141.23 L 871.89 142.28 L 871.86 144.13 L 863.51 146.20 L 863.40 147.68 L 863.02 148.84 L 862.42 150.89 L 861.64 152.61 L 857.22 154.63 L 854.34 150.68 L 851.51 152.60 L 851.21 154.20 L 851.11 150.24 L 851.07 146.30 L 850.75 142.23 L 849.83 144.13 L 841.73 144.81 L 841.11 145.71 L 839.05 146.70 L 835.19 147.86 L 835.05 147.80 L 834.72 143.75 L 834.70 139.65 L 834.55 136.59 L 834.06 134.66 L 833.16 130.44 L 833.09 126.22 L 833.03 121.95 L 832.91 117.63 L 832.87 113.24 L 832.76 108.79 L 832.65 104.29 L 820.59 106.63 L 820.51 102.06 L 820.44 97.48 L 817.62 99.86 L 816.81 101.75 L 814.18 102.18 L 811.93 104.52 L 811.86 104.93 L 811.71 106.06 L 811.68 101.54 L 811.66 96.96 L 811.55 92.32 L 810.52 87.57 L 799.62 82.76 L 799.45 77.90 L 799.42 80.08 L 796.81 75.19 L 796.59 75.86 L 796.55 77.54 L 796.27 72.63 L 794.35 74.63 L 790.48 76.92 L 789.15 71.99 L 778.34 74.52 L 772.41 77.04 L 771.53 78.26 L 771.36 77.11 L 754.17 72.20 L 753.86 73.24 L 753.06 71.81 L 750.28 74.14 L 747.94 76.66 L 732.96 71.73 L 732.93 74.17 L 725.66 69.21 L 714.46 70.97 L 693.32 71.43 L 692.98 70.15 L 686.85 72.47 L 672.16 73.15 L 668.72 73.37 L 667.99 75.28 L 666.07 77.53 L 665.97 79.21 L 665.90 80.76 L 665.89 75.94 L 663.14 71.00 L 646.73 66.00 L 643.71 68.07 L 640.65 63.04 L 638.62 65.37 L 629.57 67.31 L 629.52 68.87 L 626.54 63.85 L 625.56 63.86 L 604.84 63.90 L 583.78 62.52 L 581.37 63.03 L 574.65 63.64 L 565.64 66.19 L 562.99 68.33 L 562.86 67.30 L 562.78 68.18 L 562.66 63.21 L 562.60 58.20 L 555.66 60.78 L 553.38 62.78 L 543.76 57.69 L 543.55 59.51 L 543.54 55.23 L 543.40 50.64 L 543.39 47.08 L 543.26 42.50 L 543.23 39.72 L 543.09 36.11 L 538.39 32.26 L 537.43 26.84 L 534.80 28.46 L 532.44 30.44 Z" fill="#d0d0d0" fill-opacity="0.5" stroke="none"/>
<polyline fill="none" stroke="#111" stroke-width="1.2" points="70.00,29.89 71.25,26.90 71.43,32.17 72.93,37.50 72.97,42.71 73.14,44.61 73.15,49.82 73.27,54.90 73.29,59.93 73.36,59.32 73.54,57.05 74.23,54.58 74.96,52.19 75.93,49.79 76.83,47.32 77.39,46.20 85.18,44.20 88.35,42.29 91.35,39.81 126.65,45.07 126.74,44.29 127.75,41.84 128.55,47.08 134.49,52.27 134.55,50.65 134.74,50.64 137.02,48.84 137.62,48.07 139.85,53.25 140.47,58.37 152.90,63.42 155.76,61.44 161.91,66.46 161.99,65.19 170.14,63.08 176.67,61.59 179.80,63.02 182.44,60.87 182.48,58.26 183.41,57.27 195.27,57.91 200.78,59.82 200.96,58.73 201.50,57.45 203.38,55.04 203.44,53.32 204.37,52.73 211.65,51.01 213.12,56.15 215.63,55.32 216.04,53.45 216.25,53.49 218.75,51.20 218.91,50.45 219.06,51.37 219.70,48.71 219.85,47.80 220.85,45.55 221.79,43.79 221.94,41.31 222.55,38.87 222.74,37.48 225.58,35.79 225.97,41.10 226.25,43.28 234.05,44.31 236.99,42.52 237.80,40.10 238.14,40.46 240.47,39.19 240.88,37.74 246.10,43.03 246.13,40.88 262.14,40.22 279.60,39.34 280.42,38.70 282.43,43.97 282.90,44.82 283.34,50.03 283.37,47.44 283.75,45.01 285.43,42.89 285.55,40.19 286.13,38.23 286.76,43.51 286.77,40.81 286.90,38.47 288.64,36.17 289.34,35.43 289.67,33.71 298.07,32.79 300.72,32.78 302.60,30.37 303.82,35.74 303.84,40.98 304.04,42.57 306.77,40.42 306.95,38.71 307.68,36.66 309.74,36.38 309.92,34.26 322.72,31.76 322.87,29.97 325.28,32.71 330.41,31.46 332.01,36.82 341.13,36.23 343.17,34.36 344.23,39.69 344.32,38.93 348.60,39.81 349.46,38.32 349.95,35.59 352.40,34.60 352.94,33.32 352.99,30.58 353.55,30.22 365.43,35.60 368.19,40.91 368.24,38.91 368.70,38.11 371.32,35.83 371.52,34.49 383.27,39.82 389.64,45.10 389.71,50.32 389.72,47.49 389.86,52.61 389.96,52.05 390.07,52.95 391.93,52.02 392.55,50.43 392.61,48.77 392.79,47.31 394.88,48.01 395.45,45.56 395.72,43.10 404.02,40.69 404.88,39.35 407.83,36.64 408.02,36.89 410.83,37.52 413.68,42.83 416.80,48.07 416.90,53.18 416.96,51.59 417.06,49.37 431.29,47.65 433.14,45.46 434.48,45.02 435.14,42.86 435.37,41.43 437.95,38.53 438.10,36.44 450.24,36.03 456.16,33.49 456.27,31.30 456.56,28.85 473.21,28.03 473.73,33.44 473.82,38.72 489.00,44.01 492.27,44.27 495.05,42.77 496.25,40.31 497.34,37.75 498.33,36.58 500.92,34.12 501.23,33.04 515.39,30.49 518.96,27.74 523.35,25.00 532.44,30.44 534.80,28.46 537.43,26.84 538.39,32.26 543.09,36.11 543.23,39.72 543.26,42.50 543.39,47.08 543.40,50.64 543.54,55.23 543.55,59.51 543.76,57.69 553.38,62.78 555.66,60.78 562.60,58.20 562.66,63.21 562.78,68.18 562.86,67.30 562.99,68.33 565.64,66.19 574.65,63.64 581.37,63.03 583.78,62.52 604.84,63.90 625.56,63.86 626.54,63.85 629.52,68.87 629.57,67.31 638.62,65.37 640.65,63.04 643.71,68.07 646.73,66.00 663.14,71.00 665.89,75.94 665.90,80.76 665.97,79.21 666.07,77.53 667.99,75.28 668.72,73.37 672.16,73.15 686.85,72.47 692.98,70.15 693.32,71.43 714.46,70.97 725.66,69.21 732.93,74.17 732.96,71.73 747.94,76.66 750.28,74.14 753.06,71.81 753.86,73.24 754.17,72.20 771.36,77.11 771.53,78.26 772.41,77.04 778.34,74.52 789.15,71.99 790.48,76.92 794.35,74.63 796.27,72.63 796.55,77.54 796.59,75.86 796.81,75.19 799.42,80.08 799.45,77.90 799.62,82.76 810.52,87.57 811.55,92.32 811.66,96.96 811.68,101.54 811.71,106.06 811.86,104.93 811.93,104.52 814.18,102.18 816.81,101.75 817.62,99.86 820.44,97.48 820.51,102.06 820.59,106.63 832.65,104.29 832.76,108.79 832.87,113.24 832.91,117.63 833.03,121.95 833.09,126.22 833.16,130.44 834.06,134.66 834.55,136.59 834.70,139.65 834.72,143.75 835.05,147.80 835.19,147.86 839.05,146.70 841.11,145.71 841.73,144.81 849.83,144.13 850.75,142.23 851.07,146.30 851.11,150.24 851.21,154.20 851.51,152.60 854.34,150.68 857.22,154.63 861.64,152.61 862.42,150.89 863.02,148.84 863.40,147.68 863.51,146.20 871.86,144.13 871.89,142.28 875.20,141.23 881.26,139.85 882.83,139.23 891.80,137.66 896.32,136.12 898.15,135.79 900.01,139.94 913.01,140.09 914.03,141.47 916.55,139.22 918.37,141.91 939.17,140.41 942.09,144.51 955.51,146.03 957.41,147.98 977.77,147.32 978.54,147.78 1004.81,146.97 1006.29,147.80 1020.92,145.73 1020.92,143.51 1022.31,141.42 1023.25,142.07 1083.02,144.60 1091.03,148.64 1110.54,146.37 1125.48,148.33 1131.39,146.06 1132.85,146.27 1133.82,143.98 1146.73,144.46 1146.79,148.50 1148.08,152.48 1148.10,156.35 1148.28,160.23 1148.40,161.41 1148.67,159.23 1154.31,157.04 1154.43,154.83 1167.89,153.86 1169.53,151.63 1169.83,152.78 1170.00,150.54"/>
<text x="620.0" y="588" text-anchor="middle" font-family="sans-serif" font-size="12" fill="#333">UTC time</text>
<text x="15" y="287.5" transform="rotate(-90 15,287.5)" text-anchor="middle" font-family="sans-serif" font-size="12" fill="#333">Capital</text>
</svg>