<svg xmlns="http://www.w3.org/2000/svg" width="1200" height="600" viewBox="0 0 1200 600">
<desc>Equity curve with drawdown fill</desc>
<text x="600.0" y="18.0" text-anchor="middle" font-family="sans-serif" font-size="14">Portfolio 2023</text>
<rect x="70" y="25" width="1100" height="525" fill="white" stroke="#ccc" />
<line x1="70" y1="550.00" x2="1170" y2="550.00" stroke="#eee"/>
<text x="62" y="554.0" text-anchor="end" font-family="sans-serif" font-size="11" fill="#555">0.00</text>
<line x1="70" y1="445.00" x2="1170" y2="445.00" stroke="#eee"/>
<text x="62" y="449.0" text-anchor="end" font-family="sans-serif" font-size="11" fill="#555">38079</text>
<line x1="70" y1="340.00" x2="1170" y2="340.00" stroke="#eee"/>
<text x="62" y="344.0" text-anchor="end" font-family="sans-serif" font-size="11" fill="#555">76158</text>
<line x1="70" y1="235.00" x2="1170" y2="235.00" stroke="#eee"/>
<text x="62" y="239.0" text-anchor="end" font-family="sans-serif" font-size="11" fill="#555">114237</text>
<line x1="70" y1="130.00" x2="1170" y2="130.00" stroke="#eee"/>
<text x="62" y="134.0" text-anchor="end" font-family="sans-serif" font-size="11" fill="#555">152315</text>
<line x1="70" y1="25.00" x2="1170" y2="25.00" stroke="#eee"/>
<text x="62" y="29.0" text-anchor="end" font-family="sans-serif" font-size="11" fill="#555">190394</text>
<line x1="157.75" y1="25" x2="157.75" y2="550" stroke="#f2f2f2"/>
<text x="157.75" y="566" text-anchor="middle" font-family="sans-serif" font-size="11" fill="#555">Feb</text>
<line x1="243.48" y1="25" x2="243.48" y2="550" stroke="#f2f2f2"/>
<text x="243.48" y="566" text-anchor="middle" font-family="sans-serif" font-size="11" fill="#555">Mar</text>
<line x1="338.40" y1="25" x2="338.40" y2="550" stroke="#f2f2f2"/>
<text x="338.40" y="566" text-anchor="middle" font-family="sans-serif" font-size="11" fill="#555">Apr</text>
<line x1="430.26" y1="25" x2="430.26" y2="550" stroke="#f2f2f2"/>
<text x="430.26" y="566" text-anchor="middle" font-family="sans-serif" font-size="11" fill="#555">May</text>
<line x1="525.18" y1="25" x2="525.18" y2="550" stroke="#f2f2f2"/>
<text x="525.18" y="566" text-anchor="middle" font-family="sans-serif" font-size="11" fill="#555">Jun</text>
<line x1="617.04" y1="25" x2="617.04" y2="550" stroke="#f2f2f2"/>
<text x="617.04" y="566" text-anchor="middle" font-family="sans-serif" font-size="11" fill="#555">Jul</text>
<line x1="711.96" y1="25" x2="711.96" y2="550" stroke="#f2f2f2"/>
<text x="711.96" y="566" text-anchor="middle" font-family="sans-serif" font-size="11" fill="#555">Aug</text>
<line x1="806.88" y1="25" x2="806.88" y2="550" stroke="#f2f2f2"/>
<text x="806.88" y="566" text-anchor="middle" font-family="sans-serif" font-size="11" fill="#555">Sep</text>
<line x1="898.74" y1="25" x2="898.74" y2="550" stroke="#f2f2f2"/>
<text x="898.74" y="566" text-anchor="middle" font-family="sans-serif" font-size="11" fill="#555">Oct</text>
<line x1="993.66" y1="25" x2="993.66" y2="550" stroke="#f2f2f2"/>
<text x="993.66" y="566" text-anchor="middle" font-family="sans-serif" font-size="11" fill="#555">Nov</text>
<line x1="1085.52" y1="25" x2="1085.52" y2="550" stroke="#f2f2f2"/>
<text x="1085.52" y="566" text-anchor="middle" font-family="sans-serif" font-size="11" fill="#555">Dec</text>
<line x1="70" y1="550" x2="1170" y2="550" stroke="#888"/>
<line x1="70" y1="25" x2="70" y2="550" stroke="#888"/>
<path d="M 70.00 40.41 L 70.11 40.41 L 70.14 40.41 L 70.85 40.41 L 73.12 40.41 L 76.98 40.41 L 79.94 40.41 L 80.08 40.41 L 80.32 40.41 L 80.46 40.41 L 89.09 40.41 L 98.23 40.41 L 98.31 40.41 L 98.86 40.41 L 113.91 40.41 L 116.01 40.41 L 116.74 40.41 L 117.17 40.41 L 138.27 40.41 L 160.73 40.41 L 162.61 40.41 L 162.76 40.41 L 165.59 40.41 L 165.76 40.41 L 165.82 40.41 L 178.41 40.41 L 199.28 40.41 L 199.42 40.41 L 199.60 40.41 L 199.60 41.48 L 199.42 43.75 L 199.28 46.26 L 178.41 48.98 L 165.82 43.78 L 165.76 46.12 L 165.59 47.83 L 162.76 50.72 L 162.61 52.96 L 160.73 55.04 L 138.27 57.03 L 117.17 58.92 L 116.74 58.71 L 116.01 61.14 L 113.91 59.72 L 98.86 60.20 L 98.31 61.27 L 98.23 63.63 L 89.09 66.27 L 80.46 67.79 L 80.32 65.41 L 80.08 61.08 L 79.94 56.01 L 76.98 57.96 L 73.12 52.85 L 70.85 53.71 L 70.14 55.84 L 70.11 50.76 L 70.00 45.64 Z" fill="#d0d0d0" fill-opacity="0.5" stroke="none"/>
<path d="M 264.22 37.70 L 273.13 37.70 L 280.66 37.70 L 281.47 37.70 L 281.47 39.36 L 280.66 40.31 L 273.13 41.20 L 264.22 42.97 Z" fill="#d0d0d0" fill-opacity="0.5" stroke="none"/>
<path d="M 287.69 36.87 L 288.01 36.87 L 288.30 36.87 L 288.52 36.87 L 303.46 36.87 L 313.27 36.87 L 314.96 36.87 L 315.35 36.87 L 315.44 36.87 L 367.70 36.87 L 373.87 36.87 L 380.15 36.87 L 389.70 36.87 L 413.96 36.87 L 413.96 37.23 L 389.70 39.19 L 380.15 37.79 L 373.87 40.01 L 367.70 41.17 L 315.44 42.80 L 315.35 42.52 L 314.96 43.40 L 313.27 45.55 L 303.46 48.06 L 288.52 50.45 L 288.30 49.52 L 288.01 47.30 L 287.69 42.14 Z" fill="#d0d0d0" fill-opacity="0.5" stroke="none"/>
<path d="M 570.26 25.00 L 593.63 25.00 L 612.86 25.00 L 616.10 25.00 L 637.15 25.00 L 652.46 25.00 L 677.47 25.00 L 688.67 25.00 L 698.83 25.00 L 698.92 25.00 L 701.46 25.00 L 717.02 25.00 L 722.96 25.00 L 753.69 25.00 L 780.45 25.00 L 799.68 25.00 L 809.11 25.00 L 848.41 25.00 L 867.50 25.00 L 915.81 25.00 L 915.85 25.00 L 916.18 25.00 L 934.18 25.00 L 956.04 25.00 L 991.88 25.00 L 1001.38 25.00 L 1001.46 25.00 L 1001.57 25.00 L 1035.19 25.00 L 1035.37 25.00 L 1035.44 25.00 L 1096.57 25.00 L 1108.68 25.00 L 1124.72 25.00 L 1124.87 25.00 L 1127.16 25.00 L 1130.16 25.00 L 1170.00 25.00 L 1170.00 38.23 L 1130.16 40.26 L 1127.16 41.87 L 1124.87 43.78 L 1124.72 42.34 L 1108.68 37.07 L 1096.57 39.86 L 1035.44 41.82 L 1035.37 36.54 L 1035.19 31.27 L 1001.57 34.09 L 1001.46 36.11 L 1001.38 37.97 L 991.88 40.75 L 956.04 43.21 L 934.18 45.75 L 916.18 48.25 L 915.85 43.04 L 915.81 45.25 L 867.50 40.01 L 848.41 42.50 L 809.11 37.23 L 799.68 34.54 L 780.45 35.56 L 753.69 37.56 L 722.96 39.06 L 717.02 33.76 L 701.46 35.99 L 698.92 36.73 L 698.83 36.10 L 688.67 33.67 L 677.47 33.31 L 652.46 27.95 L 637.15 30.50 L 616.10 33.31 L 612.86 34.02 L 593.63 35.73 L 570.26 30.39 Z" fill="#d0d0d0" fill-opacity="0.5" stroke="none"/>
<polyline fill="none" stroke="#111" stroke-width="1.2" points="70.00,45.64 70.11,50.76 70.14,55.84 70.85,53.71 73.12,52.85 76.98,57.96 79.94,56.01 80.08,61.08 80.32,65.41 80.46,67.79 89.09,66.27 98.23,63.63 98.31,61.27 98.86,60.20 113.91,59.72 116.01,61.14 116.74,58.71 117.17,58.92 138.27,57.03 160.73,55.04 162.61,52.96 162.76,50.72 165.59,47.83 165.76,46.12 165.82,43.78 178.41,48.98 199.28,46.26 199.42,43.75 199.60,41.48 208.71,39.22 245.19,37.70 264.22,42.97 273.13,41.20 280.66,40.31 281.47,39.36 282.29,36.87 287.69,42.14 288.01,47.30 288.30,49.52 288.52,50.45 303.46,48.06 313.27,45.55 314.96,43.40 315.35,42.52 315.44,42.80 367.70,41.17 373.87,40.01 380.15,37.79 389.70,39.19 413.96,37.23 438.82,34.44 441.57,34.11 444.23,31.28 459.73,28.64 461.97,27.58 527.11,25.00 570.26,30.39 593.63,35.73 612.86,34.02 616.10,33.31 637.15,30.50 652.46,27.95 677.47,33.31 688.67,33.67 698.83,36.10 698.92,36.73 701.46,35.99 717.02,33.76 722.96,39.06 753.69,37.56 780.45,35.56 799.68,34.54 809.11,37.23 848.41,42.50 867.50,40.01 915.81,45.25 915.85,43.04 916.18,48.25 934.18,45.75 956.04,43.21 991.88,40.75 1001.38,37.97 1001.46,36.11 1001.57,34.09 1035.19,31.27 1035.37,36.54 1035.44,41.82 1096.57,39.86 1108.68,37.07 1124.72,42.34 1124.87,43.78 1127.16,41.87 1130.16,40.26 1170.00,38.23"/>
<text x="620.0" y="588" text-anchor="middle" font-family="sans-serif" font-size="12" fill="#333">UTC time</text>
<text x="15" y="287.5" transform="rotate(-90 15,287.5)" text-anchor="middle" font-family="sans-serif" font-size="12" fill="#333">Capital</text>
</svg>