<svg xmlns="http://www.w3.org/2000/svg" width="1200" height="600" viewBox="0 0 1200 600">
<desc>Equity curve with drawdown fill</desc>
<text x="600.0" y="18.0" text-anchor="middle" font-family="sans-serif" font-size="14">Portfolio 2015</text>
<rect x="70" y="25" width="1100" height="525" fill="white" stroke="#ccc" />
<line x1="70" y1="550.00" x2="1170" y2="550.00" stroke="#eee"/>
<text x="62" y="554.0" text-anchor="end" font-family="sans-serif" font-size="11" fill="#555">0.00</text>
<line x1="70" y1="445.00" x2="1170" y2="445.00" stroke="#eee"/>
<text x="62" y="449.0" text-anchor="end" font-family="sans-serif" font-size="11" fill="#555">26155</text>
<line x1="70" y1="340.00" x2="1170" y2="340.00" stroke="#eee"/>
<text x="62" y="344.0" text-anchor="end" font-family="sans-serif" font-size="11" fill="#555">52311</text>
<line x1="70" y1="235.00" x2="1170" y2="235.00" stroke="#eee"/>
<text x="62" y="239.0" text-anchor="end" font-family="sans-serif" font-size="11" fill="#555">78466</text>
<line x1="70" y1="130.00" x2="1170" y2="130.00" stroke="#eee"/>
<text x="62" y="134.0" text-anchor="end" font-family="sans-serif" font-size="11" fill="#555">104622</text>
<line x1="70" y1="25.00" x2="1170" y2="25.00" stroke="#eee"/>
<text x="62" y="29.0" text-anchor="end" font-family="sans-serif" font-size="11" fill="#555">130777</text>
<line x1="125.38" y1="25" x2="125.38" y2="550" stroke="#f2f2f2"/>
<text x="125.38" y="566" text-anchor="middle" font-family="sans-serif" font-size="11" fill="#555">Feb</text>
<line x1="213.59" y1="25" x2="213.59" y2="550" stroke="#f2f2f2"/>
<text x="213.59" y="566" text-anchor="middle" font-family="sans-serif" font-size="11" fill="#555">Mar</text>
<line x1="311.26" y1="25" x2="311.26" y2="550" stroke="#f2f2f2"/>
<text x="311.26" y="566" text-anchor="middle" font-family="sans-serif" font-size="11" fill="#555">Apr</text>
<line x1="405.77" y1="25" x2="405.77" y2="550" stroke="#f2f2f2"/>
<text x="405.77" y="566" text-anchor="middle" font-family="sans-serif" font-size="11" fill="#555">May</text>
<line x1="503.43" y1="25" x2="503.43" y2="550" stroke="#f2f2f2"/>
<text x="503.43" y="566" text-anchor="middle" font-family="sans-serif" font-size="11" fill="#555">Jun</text>
<line x1="597.94" y1="25" x2="597.94" y2="550" stroke="#f2f2f2"/>
<text x="597.94" y="566" text-anchor="middle" font-family="sans-serif" font-size="11" fill="#555">Jul</text>
<line x1="695.60" y1="25" x2="695.60" y2="550" stroke="#f2f2f2"/>
<text x="695.60" y="566" text-anchor="middle" font-family="sans-serif" font-size="11" fill="#555">Aug</text>
<line x1="793.26" y1="25" x2="793.26" y2="550" stroke="#f2f2f2"/>
<text x="793.26" y="566" text-anchor="middle" font-family="sans-serif" font-size="11" fill="#555">Sep</text>
<line x1="887.77" y1="25" x2="887.77" y2="550" stroke="#f2f2f2"/>
<text x="887.77" y="566" text-anchor="middle" font-family="sans-serif" font-size="11" fill="#555">Oct</text>
<line x1="985.43" y1="25" x2="985.43" y2="550" stroke="#f2f2f2"/>
<text x="985.43" y="566" text-anchor="middle" font-family="sans-serif" font-size="11" fill="#555">Nov</text>
<line x1="1079.94" y1="25" x2="1079.94" y2="550" stroke="#f2f2f2"/>
<text x="1079.94" y="566" text-anchor="middle" font-family="sans-serif" font-size="11" fill="#555">Dec</text>
<line x1="70" y1="550" x2="1170" y2="550" stroke="#888"/>
<line x1="70" y1="25" x2="70" y2="550" stroke="#888"/>
<path d="M 70.49 147.60 L 70.54 147.60 L 73.08 147.60 L 73.08 148.10 L 70.54 150.30 L 70.49 151.73 Z" fill="#d0d0d0" fill-opacity="0.5" stroke="none"/>
<path d="M 73.93 139.55 L 73.94 139.55 L 76.91 139.55 L 76.91 139.63 L 73.94 141.66 L 73.93 143.75 Z" fill="#d0d0d0" fill-opacity="0.5" stroke="none"/>
<path d="M 95.96 130.54 L 96.00 130.54 L 96.13 130.54 L 96.19 130.54 L 98.20 130.54 L 98.22 130.54 L 98.35 130.54 L 98.41 130.54 L 98.60 130.54 L 98.64 130.54 L 98.65 130.54 L 98.89 130.54 L 106.43 130.54 L 107.54 130.54 L 110.78 130.54 L 110.83 130.54 L 111.42 130.54 L 111.53 130.54 L 111.69 130.54 L 133.49 130.54 L 133.56 130.54 L 133.70 130.54 L 137.96 130.54 L 139.03 130.54 L 139.43 130.54 L 140.43 130.54 L 143.18 130.54 L 152.33 130.54 L 155.36 130.54 L 162.01 130.54 L 175.00 130.54 L 177.39 130.54 L 181.43 130.54 L 187.26 130.54 L 187.55 130.54 L 205.96 130.54 L 206.13 130.54 L 206.14 130.54 L 206.20 130.54 L 209.23 130.54 L 225.01 130.54 L 227.99 130.54 L 228.07 130.54 L 228.45 130.54 L 230.58 130.54 L 231.12 130.54 L 231.30 130.54 L 231.35 130.54 L 243.28 130.54 L 243.90 130.54 L 244.20 130.54 L 246.30 130.54 L 246.68 130.54 L 247.60 130.54 L 249.32 130.54 L 249.38 130.54 L 249.51 130.54 L 250.02 130.54 L 253.38 130.54 L 253.39 130.54 L 253.52 130.54 L 253.52 131.47 L 253.39 133.47 L 253.38 135.85 L 250.02 131.55 L 249.51 133.82 L 249.38 135.01 L 249.32 136.40 L 247.60 132.10 L 246.68 132.87 L 246.30 132.96 L 244.20 135.21 L 243.90 137.25 L 243.28 139.15 L 231.35 140.12 L 231.30 141.74 L 231.12 137.51 L 230.58 139.88 L 228.45 141.91 L 228.07 143.68 L 227.99 145.31 L 225.01 147.32 L 209.23 149.52 L 206.20 151.06 L 206.14 151.90 L 206.13 147.77 L 205.96 143.64 L 187.55 139.43 L 187.26 141.81 L 181.43 144.04 L 177.39 146.25 L 175.00 147.04 L 162.01 148.75 L 155.36 150.25 L 152.33 152.32 L 143.18 153.00 L 140.43 151.86 L 139.43 152.82 L 139.03 154.49 L 137.96 156.47 L 133.70 156.68 L 133.56 156.63 L 133.49 157.37 L 111.69 153.30 L 111.53 149.19 L 111.42 151.08 L 110.83 153.08 L 110.78 154.93 L 107.54 150.84 L 106.43 152.80 L 98.89 148.68 L 98.65 150.57 L 98.64 152.92 L 98.60 148.86 L 98.41 144.70 L 98.35 145.79 L 98.22 141.60 L 98.20 143.76 L 96.19 139.55 L 96.13 140.10 L 96.00 139.00 L 95.96 134.78 Z" fill="#d0d0d0" fill-opacity="0.5" stroke="none"/>
<path d="M 262.81 130.05 L 269.48 130.05 L 269.48 132.10 L 262.81 134.36 Z" fill="#d0d0d0" fill-opacity="0.5" stroke="none"/>
<path d="M 270.49 128.53 L 270.89 128.53 L 271.40 128.53 L 271.47 128.53 L 271.57 128.53 L 271.70 128.53 L 271.96 128.53 L 271.96 129.76 L 271.70 132.04 L 271.57 133.95 L 271.47 135.73 L 271.40 136.85 L 270.89 132.56 L 270.49 132.86 Z" fill="#d0d0d0" fill-opacity="0.5" stroke="none"/>
<path d="M 275.42 121.80 L 275.44 121.80 L 275.77 121.80 L 275.89 121.80 L 284.29 121.80 L 284.47 121.80 L 284.66 121.80 L 287.35 121.80 L 287.83 121.80 L 287.83 121.81 L 287.35 124.14 L 284.66 124.36 L 284.47 123.77 L 284.29 125.37 L 275.89 127.52 L 275.77 128.68 L 275.44 124.31 L 275.42 126.19 Z" fill="#d0d0d0" fill-opacity="0.5" stroke="none"/>
<path d="M 296.66 114.75 L 297.34 114.75 L 297.76 114.75 L 297.76 115.41 L 297.34 117.77 L 296.66 119.21 Z" fill="#d0d0d0" fill-opacity="0.5" stroke="none"/>
<path d="M 319.63 99.06 L 331.40 99.06 L 331.50 99.06 L 335.32 99.06 L 335.84 99.06 L 338.51 99.06 L 340.74 99.06 L 350.50 99.06 L 350.91 99.06 L 354.01 99.06 L 354.05 99.06 L 354.18 99.06 L 354.29 99.06 L 356.69 99.06 L 357.22 99.06 L 357.30 99.06 L 357.74 99.06 L 357.83 99.06 L 357.83 100.05 L 357.74 101.11 L 357.30 103.53 L 357.22 105.38 L 356.69 107.78 L 354.29 107.48 L 354.18 108.42 L 354.05 103.86 L 354.01 99.30 L 350.91 101.15 L 350.50 103.57 L 340.74 104.90 L 338.51 105.82 L 335.84 101.23 L 335.32 103.21 L 331.50 105.15 L 331.40 105.89 L 319.63 101.30 Z" fill="#d0d0d0" fill-opacity="0.5" stroke="none"/>
<path d="M 360.05 95.97 L 360.12 95.97 L 360.29 95.97 L 361.04 95.97 L 362.99 95.97 L 363.47 95.97 L 375.40 95.97 L 375.40 97.11 L 363.47 96.84 L 362.99 99.06 L 361.04 100.74 L 360.29 96.10 L 360.12 98.54 L 360.05 100.61 Z" fill="#d0d0d0" fill-opacity="0.5" stroke="none"/>
<path d="M 384.74 91.14 L 384.85 91.14 L 384.98 91.14 L 384.98 92.18 L 384.85 94.05 L 384.74 95.82 Z" fill="#d0d0d0" fill-opacity="0.5" stroke="none"/>
<path d="M 401.26 87.47 L 401.41 87.47 L 401.48 87.47 L 401.67 87.47 L 401.74 87.47 L 401.96 87.47 L 402.01 87.47 L 403.76 87.47 L 403.79 87.47 L 403.87 87.47 L 404.44 87.47 L 404.73 87.47 L 407.80 87.47 L 416.45 87.47 L 417.11 87.47 L 420.21 87.47 L 420.47 87.47 L 422.08 87.47 L 423.47 87.47 L 423.62 87.47 L 426.44 87.47 L 429.59 87.47 L 429.61 87.47 L 429.88 87.47 L 438.34 87.47 L 441.56 87.47 L 445.52 87.47 L 447.78 87.47 L 448.83 87.47 L 451.88 87.47 L 451.98 87.47 L 452.10 87.47 L 460.47 87.47 L 461.33 87.47 L 461.86 87.47 L 463.53 87.47 L 463.59 87.47 L 463.68 87.47 L 463.74 87.47 L 464.30 87.47 L 466.66 87.47 L 468.12 87.47 L 469.93 87.47 L 473.85 87.47 L 473.92 87.47 L 474.05 87.47 L 485.63 87.47 L 489.56 87.47 L 489.70 87.47 L 489.87 87.47 L 492.48 87.47 L 505.47 87.47 L 507.71 87.47 L 508.07 87.47 L 508.45 87.47 L 508.63 87.47 L 510.83 87.47 L 511.08 87.47 L 511.58 87.47 L 511.71 87.47 L 511.77 87.47 L 511.90 87.47 L 512.00 87.47 L 514.10 87.47 L 514.15 87.47 L 514.35 87.47 L 514.75 87.47 L 514.78 87.47 L 515.21 87.47 L 515.38 87.47 L 516.08 87.47 L 517.10 87.47 L 517.98 87.47 L 526.51 87.47 L 527.31 87.47 L 528.98 87.47 L 529.74 87.47 L 530.47 87.47 L 532.90 87.47 L 533.42 87.47 L 533.70 87.47 L 533.91 87.47 L 536.10 87.47 L 539.37 87.47 L 539.41 87.47 L 539.84 87.47 L 551.79 87.47 L 552.46 87.47 L 556.33 87.47 L 556.37 87.47 L 558.25 87.47 L 558.25 89.61 L 556.37 90.78 L 556.33 92.49 L 552.46 94.97 L 551.79 96.63 L 539.84 98.19 L 539.41 100.65 L 539.37 102.54 L 536.10 104.97 L 533.91 107.39 L 533.70 109.80 L 533.42 111.82 L 532.90 113.71 L 530.47 109.20 L 529.74 110.86 L 528.98 113.03 L 527.31 115.41 L 526.51 115.56 L 517.98 117.92 L 517.10 119.33 L 516.08 121.28 L 515.38 122.69 L 515.21 124.84 L 514.78 127.16 L 514.75 129.05 L 514.35 124.69 L 514.15 120.28 L 514.10 115.88 L 512.00 111.39 L 511.90 110.10 L 511.77 108.69 L 511.71 104.16 L 511.58 99.62 L 511.08 101.89 L 510.83 103.81 L 508.63 105.66 L 508.45 101.07 L 508.07 96.50 L 507.71 98.96 L 505.47 100.07 L 492.48 102.16 L 489.87 103.93 L 489.70 106.14 L 489.56 108.29 L 485.63 107.62 L 474.05 108.74 L 473.92 108.38 L 473.85 109.36 L 469.93 104.85 L 468.12 107.26 L 466.66 109.66 L 464.30 105.12 L 463.74 100.52 L 463.68 101.86 L 463.59 97.24 L 463.53 92.63 L 461.86 87.93 L 461.33 89.98 L 460.47 90.78 L 452.10 92.82 L 451.98 93.43 L 451.88 93.87 L 448.83 89.18 L 447.78 91.68 L 445.52 93.34 L 441.56 88.64 L 438.34 89.72 L 429.88 91.57 L 429.61 93.92 L 429.59 96.39 L 426.44 98.85 L 423.62 94.21 L 423.47 92.43 L 422.08 87.72 L 420.47 90.22 L 420.21 91.48 L 417.11 93.43 L 416.45 94.51 L 407.80 95.95 L 404.73 97.70 L 404.44 99.99 L 403.87 102.18 L 403.79 103.06 L 403.76 98.50 L 402.01 93.85 L 401.96 96.29 L 401.74 98.74 L 401.67 99.26 L 401.48 94.61 L 401.41 89.99 L 401.26 92.18 Z" fill="#d0d0d0" fill-opacity="0.5" stroke="none"/>
<path d="M 573.25 82.55 L 574.61 82.55 L 580.44 82.55 L 584.35 82.55 L 591.55 82.55 L 591.74 82.55 L 592.62 82.55 L 592.79 82.55 L 593.71 82.55 L 594.07 82.55 L 594.07 83.30 L 593.71 85.97 L 592.79 88.25 L 592.62 89.92 L 591.74 92.56 L 591.55 87.84 L 584.35 89.34 L 580.44 90.25 L 574.61 92.02 L 573.25 87.31 Z" fill="#d0d0d0" fill-opacity="0.5" stroke="none"/>
<path d="M 596.89 81.66 L 599.29 81.66 L 599.29 84.07 L 596.89 86.43 Z" fill="#d0d0d0" fill-opacity="0.5" stroke="none"/>
<path d="M 618.17 78.87 L 618.17 79.06 Z" fill="#d0d0d0" fill-opacity="0.5" stroke="none"/>
<path d="M 627.76 66.17 L 627.76 66.59 Z" fill="#d0d0d0" fill-opacity="0.5" stroke="none"/>
<path d="M 636.93 64.22 L 636.98 64.22 L 644.00 64.22 L 663.01 64.22 L 668.48 64.22 L 680.93 64.22 L 680.93 64.45 L 668.48 67.06 L 663.01 66.34 L 644.00 68.07 L 636.98 67.34 L 636.93 69.14 Z" fill="#d0d0d0" fill-opacity="0.5" stroke="none"/>
<path d="M 694.87 53.04 L 707.65 53.04 L 707.65 53.81 L 694.87 53.06 Z" fill="#d0d0d0" fill-opacity="0.5" stroke="none"/>
<path d="M 716.29 51.15 L 716.56 51.15 L 716.56 53.52 L 716.29 56.18 Z" fill="#d0d0d0" fill-opacity="0.5" stroke="none"/>
<path d="M 728.31 50.85 L 731.53 50.85 L 754.87 50.85 L 757.52 50.85 L 760.83 50.85 L 768.43 50.85 L 768.64 50.85 L 769.73 50.85 L 769.87 50.85 L 769.92 50.85 L 770.46 50.85 L 772.75 50.85 L 772.78 50.85 L 773.33 50.85 L 776.07 50.85 L 776.13 50.85 L 776.40 50.85 L 778.82 50.85 L 779.43 50.85 L 779.61 50.85 L 782.83 50.85 L 782.91 50.85 L 794.45 50.85 L 801.35 50.85 L 801.40 50.85 L 801.54 50.85 L 805.08 50.85 L 816.04 50.85 L 823.74 50.85 L 827.06 50.85 L 842.61 50.85 L 846.16 50.85 L 848.87 50.85 L 858.47 50.85 L 880.58 50.85 L 892.92 50.85 L 892.98 50.85 L 893.40 50.85 L 905.65 50.85 L 910.97 50.85 L 911.63 50.85 L 914.17 50.85 L 933.06 50.85 L 933.79 50.85 L 933.79 51.97 L 933.06 51.31 L 914.17 52.28 L 911.63 53.75 L 910.97 54.51 L 905.65 56.13 L 893.40 58.30 L 892.98 58.68 L 892.92 60.43 L 880.58 59.81 L 858.47 59.04 L 848.87 58.32 L 846.16 60.17 L 842.61 62.80 L 827.06 61.64 L 823.74 60.50 L 816.04 63.14 L 805.08 63.76 L 801.54 66.37 L 801.40 61.43 L 801.35 56.50 L 794.45 51.48 L 782.91 53.30 L 782.83 55.28 L 779.61 57.94 L 779.43 60.32 L 778.82 59.74 L 776.40 61.77 L 776.13 64.40 L 776.07 67.17 L 773.33 64.45 L 772.78 59.49 L 772.75 61.80 L 770.46 56.82 L 769.92 57.90 L 769.87 52.97 L 769.73 55.53 L 768.64 57.99 L 768.43 58.41 L 760.83 59.16 L 757.52 54.16 L 754.87 56.35 L 731.53 55.81 L 728.31 55.88 Z" fill="#d0d0d0" fill-opacity="0.5" stroke="none"/>
<path d="M 955.92 46.68 L 956.02 46.68 L 958.82 46.68 L 975.32 46.68 L 975.53 46.68 L 981.16 46.68 L 981.16 48.65 L 975.53 50.43 L 975.32 47.79 L 958.82 50.64 L 956.02 53.31 L 955.92 48.25 Z" fill="#d0d0d0" fill-opacity="0.5" stroke="none"/>
<path d="M 1003.16 46.20 L 1003.16 46.26 Z" fill="#d0d0d0" fill-opacity="0.5" stroke="none"/>
<path d="M 1062.39 32.61 L 1063.28 32.61 L 1063.28 35.08 L 1062.39 37.81 Z" fill="#d0d0d0" fill-opacity="0.5" stroke="none"/>
<path d="M 1088.17 29.35 L 1088.32 29.35 L 1088.34 29.35 L 1088.41 29.35 L 1088.45 29.35 L 1088.58 29.35 L 1090.46 29.35 L 1091.16 29.35 L 1091.39 29.35 L 1091.73 29.35 L 1107.01 29.35 L 1107.54 29.35 L 1113.42 29.35 L 1122.96 29.35 L 1122.96 29.45 L 1113.42 30.98 L 1107.54 32.88 L 1107.01 35.13 L 1091.73 37.59 L 1091.39 39.25 L 1091.16 41.29 L 1090.46 44.00 L 1088.58 38.86 L 1088.45 40.71 L 1088.41 42.90 L 1088.34 37.82 L 1088.32 32.63 L 1088.17 29.97 Z" fill="#d0d0d0" fill-opacity="0.5" stroke="none"/>
<polyline fill="none" stroke="#111" stroke-width="1.2" points="70.00,147.60 70.49,151.73 70.54,150.30 73.08,148.10 73.09,145.72 73.22,143.49 73.72,141.48 73.79,139.55 73.93,143.75 73.94,141.66 76.91,139.63 77.07,138.04 85.74,136.78 92.64,136.27 92.67,133.87 95.68,131.45 95.80,130.54 95.96,134.78 96.00,139.00 96.13,140.10 96.19,139.55 98.20,143.76 98.22,141.60 98.35,145.79 98.41,144.70 98.60,148.86 98.64,152.92 98.65,150.57 98.89,148.68 106.43,152.80 107.54,150.84 110.78,154.93 110.83,153.08 111.42,151.08 111.53,149.19 111.69,153.30 133.49,157.37 133.56,156.63 133.70,156.68 137.96,156.47 139.03,154.49 139.43,152.82 140.43,151.86 143.18,153.00 152.33,152.32 155.36,150.25 162.01,148.75 175.00,147.04 177.39,146.25 181.43,144.04 187.26,141.81 187.55,139.43 205.96,143.64 206.13,147.77 206.14,151.90 206.20,151.06 209.23,149.52 225.01,147.32 227.99,145.31 228.07,143.68 228.45,141.91 230.58,139.88 231.12,137.51 231.30,141.74 231.35,140.12 243.28,139.15 243.90,137.25 244.20,135.21 246.30,132.96 246.68,132.87 247.60,132.10 249.32,136.40 249.38,135.01 249.51,133.82 250.02,131.55 253.38,135.85 253.39,133.47 253.52,131.47 253.85,130.05 262.81,134.36 269.48,132.10 269.64,129.68 269.75,128.53 270.49,132.86 270.89,132.56 271.40,136.85 271.47,135.73 271.57,133.95 271.70,132.04 271.96,129.76 272.09,127.60 272.52,125.84 275.21,124.04 275.29,121.80 275.42,126.19 275.44,124.31 275.77,128.68 275.89,127.52 284.29,125.37 284.47,123.77 284.66,124.36 287.35,124.14 287.83,121.81 287.86,119.47 288.02,118.83 293.63,117.59 294.18,115.48 294.41,114.86 294.87,114.75 296.66,119.21 297.34,117.77 297.76,115.41 297.78,113.08 309.43,110.98 313.03,109.03 315.40,107.15 316.24,104.93 319.24,102.51 319.33,99.92 319.44,99.06 319.63,101.30 331.40,105.89 331.50,105.15 335.32,103.21 335.84,101.23 338.51,105.82 340.74,104.90 350.50,103.57 350.91,101.15 354.01,99.30 354.05,103.86 354.18,108.42 354.29,107.48 356.69,107.78 357.22,105.38 357.30,103.53 357.74,101.11 357.83,100.05 358.67,97.61 359.69,95.97 360.05,100.61 360.12,98.54 360.29,96.10 361.04,100.74 362.99,99.06 363.47,96.84 375.40,97.11 376.37,95.72 379.19,93.94 382.04,92.55 382.64,91.14 384.74,95.82 384.85,94.05 384.98,92.18 385.25,91.08 395.31,89.75 398.34,87.47 401.26,92.18 401.41,89.99 401.48,94.61 401.67,99.26 401.74,98.74 401.96,96.29 402.01,93.85 403.76,98.50 403.79,103.06 403.87,102.18 404.44,99.99 404.73,97.70 407.80,95.95 416.45,94.51 417.11,93.43 420.21,91.48 420.47,90.22 422.08,87.72 423.47,92.43 423.62,94.21 426.44,98.85 429.59,96.39 429.61,93.92 429.88,91.57 438.34,89.72 441.56,88.64 445.52,93.34 447.78,91.68 448.83,89.18 451.88,93.87 451.98,93.43 452.10,92.82 460.47,90.78 461.33,89.98 461.86,87.93 463.53,92.63 463.59,97.24 463.68,101.86 463.74,100.52 464.30,105.12 466.66,109.66 468.12,107.26 469.93,104.85 473.85,109.36 473.92,108.38 474.05,108.74 485.63,107.62 489.56,108.29 489.70,106.14 489.87,103.93 492.48,102.16 505.47,100.07 507.71,98.96 508.07,96.50 508.45,101.07 508.63,105.66 510.83,103.81 511.08,101.89 511.58,99.62 511.71,104.16 511.77,108.69 511.90,110.10 512.00,111.39 514.10,115.88 514.15,120.28 514.35,124.69 514.75,129.05 514.78,127.16 515.21,124.84 515.38,122.69 516.08,121.28 517.10,119.33 517.98,117.92 526.51,115.56 527.31,115.41 528.98,113.03 529.74,110.86 530.47,109.20 532.90,113.71 533.42,111.82 533.70,109.80 533.91,107.39 536.10,104.97 539.37,102.54 539.41,100.65 539.84,98.19 551.79,96.63 552.46,94.97 556.33,92.49 556.37,90.78 558.25,89.61 559.30,87.10 561.22,85.08 570.70,82.55 573.25,87.31 574.61,92.02 580.44,90.25 584.35,89.34 591.55,87.84 591.74,92.56 592.62,89.92 592.79,88.25 593.71,85.97 594.07,83.30 596.66,81.66 596.89,86.43 599.29,84.07 613.56,81.40 614.60,78.87 618.17,79.06 618.62,77.65 621.16,75.09 621.89,72.72 622.16,70.39 624.30,68.22 626.24,66.17 627.76,66.59 636.80,64.22 636.93,69.14 636.98,67.34 644.00,68.07 663.01,66.34 668.48,67.06 680.93,64.45 680.97,62.15 688.64,59.52 694.22,56.72 694.36,54.93 694.48,53.04 694.87,53.06 707.65,53.81 716.27,51.15 716.29,56.18 716.56,53.52 726.27,50.85 728.31,55.88 731.53,55.81 754.87,56.35 757.52,54.16 760.83,59.16 768.43,58.41 768.64,57.99 769.73,55.53 769.87,52.97 769.92,57.90 770.46,56.82 772.75,61.80 772.78,59.49 773.33,64.45 776.07,67.17 776.13,64.40 776.40,61.77 778.82,59.74 779.43,60.32 779.61,57.94 782.83,55.28 782.91,53.30 794.45,51.48 801.35,56.50 801.40,61.43 801.54,66.37 805.08,63.76 816.04,63.14 823.74,60.50 827.06,61.64 842.61,62.80 846.16,60.17 848.87,58.32 858.47,59.04 880.58,59.81 892.92,60.43 892.98,58.68 893.40,58.30 905.65,56.13 910.97,54.51 911.63,53.75 914.17,52.28 933.06,51.31 933.79,51.97 955.70,49.28 955.71,46.68 955.92,48.25 956.02,53.31 958.82,50.64 975.32,47.79 975.53,50.43 981.16,48.65 996.81,46.20 1003.16,46.26 1003.24,44.52 1021.27,43.08 1022.00,40.37 1022.06,37.68 1032.66,36.22 1042.37,33.49 1044.35,32.61 1062.39,37.81 1063.28,35.08 1087.90,32.34 1087.90,29.35 1088.17,29.97 1088.32,32.63 1088.34,37.82 1088.41,42.90 1088.45,40.71 1088.58,38.86 1090.46,44.00 1091.16,41.29 1091.39,39.25 1091.73,37.59 1107.01,35.13 1107.54,32.88 1113.42,30.98 1122.96,29.45 1126.00,27.28 1130.33,27.21 1134.67,25.88 1170.00,25.00"/>
<text x="620.0" y="588" text-anchor="middle" font-family="sans-serif" font-size="12" fill="#333">UTC time</text>
<text x="15" y="287.5" transform="rotate(-90 15,287.5)" text-anchor="middle" font-family="sans-serif" font-size="12" fill="#333">Capital</text>
</svg>