<svg xmlns="http://www.w3.org/2000/svg" width="1200" height="600" viewBox="0 0 1200 600">
<desc>Equity curve with drawdown fill</desc>
<text x="600.0" y="18.0" text-anchor="middle" font-family="sans-serif" font-size="14">Portfolio 2008</text>
<rect x="70" y="25" width="1100" height="525" fill="white" stroke="#ccc" />
<line x1="70" y1="550.00" x2="1170" y2="550.00" stroke="#eee"/>
<text x="62" y="554.0" text-anchor="end" font-family="sans-serif" font-size="11" fill="#555">0.00</text>
<line x1="70" y1="445.00" x2="1170" y2="445.00" stroke="#eee"/>
<text x="62" y="449.0" text-anchor="end" font-family="sans-serif" font-size="11" fill="#555">21179</text>
<line x1="70" y1="340.00" x2="1170" y2="340.00" stroke="#eee"/>
<text x="62" y="344.0" text-anchor="end" font-family="sans-serif" font-size="11" fill="#555">42357</text>
<line x1="70" y1="235.00" x2="1170" y2="235.00" stroke="#eee"/>
<text x="62" y="239.0" text-anchor="end" font-family="sans-serif" font-size="11" fill="#555">63536</text>
<line x1="70" y1="130.00" x2="1170" y2="130.00" stroke="#eee"/>
<text x="62" y="134.0" text-anchor="end" font-family="sans-serif" font-size="11" fill="#555">84715</text>
<line x1="70" y1="25.00" x2="1170" y2="25.00" stroke="#eee"/>
<text x="62" y="29.0" text-anchor="end" font-family="sans-serif" font-size="11" fill="#555">105893</text>
<line x1="158.59" y1="25" x2="158.59" y2="550" stroke="#f2f2f2"/>
<text x="158.59" y="566" text-anchor="middle" font-family="sans-serif" font-size="11" fill="#555">Feb</text>
<line x1="246.23" y1="25" x2="246.23" y2="550" stroke="#f2f2f2"/>
<text x="246.23" y="566" text-anchor="middle" font-family="sans-serif" font-size="11" fill="#555">Mar</text>
<line x1="339.92" y1="25" x2="339.92" y2="550" stroke="#f2f2f2"/>
<text x="339.92" y="566" text-anchor="middle" font-family="sans-serif" font-size="11" fill="#555">Apr</text>
<line x1="430.58" y1="25" x2="430.58" y2="550" stroke="#f2f2f2"/>
<text x="430.58" y="566" text-anchor="middle" font-family="sans-serif" font-size="11" fill="#555">May</text>
<line x1="524.27" y1="25" x2="524.27" y2="550" stroke="#f2f2f2"/>
<text x="524.27" y="566" text-anchor="middle" font-family="sans-serif" font-size="11" fill="#555">Jun</text>
<line x1="614.93" y1="25" x2="614.93" y2="550" stroke="#f2f2f2"/>
<text x="614.93" y="566" text-anchor="middle" font-family="sans-serif" font-size="11" fill="#555">Jul</text>
<line x1="708.62" y1="25" x2="708.62" y2="550" stroke="#f2f2f2"/>
<text x="708.62" y="566" text-anchor="middle" font-family="sans-serif" font-size="11" fill="#555">Aug</text>
<line x1="802.31" y1="25" x2="802.31" y2="550" stroke="#f2f2f2"/>
<text x="802.31" y="566" text-anchor="middle" font-family="sans-serif" font-size="11" fill="#555">Sep</text>
<line x1="892.97" y1="25" x2="892.97" y2="550" stroke="#f2f2f2"/>
<text x="892.97" y="566" text-anchor="middle" font-family="sans-serif" font-size="11" fill="#555">Oct</text>
<line x1="986.66" y1="25" x2="986.66" y2="550" stroke="#f2f2f2"/>
<text x="986.66" y="566" text-anchor="middle" font-family="sans-serif" font-size="11" fill="#555">Nov</text>
<line x1="1077.33" y1="25" x2="1077.33" y2="550" stroke="#f2f2f2"/>
<text x="1077.33" y="566" text-anchor="middle" font-family="sans-serif" font-size="11" fill="#555">Dec</text>
<line x1="1170.00" y1="25" x2="1170.00" y2="550" stroke="#f2f2f2"/>
<text x="1170.00" y="566" text-anchor="middle" font-family="sans-serif" font-size="11" fill="#555">Jan</text>
<line x1="70" y1="550" x2="1170" y2="550" stroke="#888"/>
<line x1="70" y1="25" x2="70" y2="550" stroke="#888"/>
<path d="M 112.23 38.91 L 112.26 38.91 L 112.36 38.91 L 112.50 38.91 L 114.91 38.91 L 127.41 38.91 L 129.54 38.91 L 130.04 38.91 L 130.24 38.91 L 130.24 39.03 L 130.04 41.30 L 129.54 44.28 L 127.41 46.66 L 114.91 49.25 L 112.50 49.42 L 112.36 48.52 L 112.26 49.23 L 112.23 44.12 Z" fill="#d0d0d0" fill-opacity="0.5" stroke="none"/>
<path d="M 155.04 37.91 L 160.29 37.91 L 160.46 37.91 L 160.46 38.07 L 160.29 40.26 L 155.04 43.12 Z" fill="#d0d0d0" fill-opacity="0.5" stroke="none"/>
<path d="M 171.97 35.27 L 178.37 35.27 L 178.50 35.27 L 193.71 35.27 L 193.71 35.36 L 178.50 36.81 L 178.37 38.59 L 171.97 40.52 Z" fill="#d0d0d0" fill-opacity="0.5" stroke="none"/>
<path d="M 277.91 25.00 L 277.97 25.00 L 278.20 25.00 L 278.24 25.00 L 278.39 25.00 L 278.44 25.00 L 280.92 25.00 L 287.41 25.00 L 287.43 25.00 L 294.71 25.00 L 295.07 25.00 L 295.73 25.00 L 296.00 25.00 L 296.44 25.00 L 301.87 25.00 L 302.74 25.00 L 305.02 25.00 L 317.22 25.00 L 319.21 25.00 L 319.32 25.00 L 319.46 25.00 L 323.08 25.00 L 323.20 25.00 L 323.35 25.00 L 338.89 25.00 L 340.91 25.00 L 344.65 25.00 L 348.14 25.00 L 361.36 25.00 L 366.40 25.00 L 368.42 25.00 L 369.24 25.00 L 379.18 25.00 L 380.87 25.00 L 386.60 25.00 L 386.67 25.00 L 389.95 25.00 L 392.75 25.00 L 392.95 25.00 L 393.09 25.00 L 404.73 25.00 L 405.37 25.00 L 408.27 25.00 L 410.60 25.00 L 411.25 25.00 L 411.51 25.00 L 413.60 25.00 L 425.58 25.00 L 431.69 25.00 L 450.16 25.00 L 452.13 25.00 L 453.62 25.00 L 477.96 25.00 L 487.06 25.00 L 489.34 25.00 L 492.30 25.00 L 532.12 25.00 L 532.20 25.00 L 532.34 25.00 L 538.14 25.00 L 538.31 25.00 L 538.44 25.00 L 541.08 25.00 L 541.11 25.00 L 541.33 25.00 L 550.30 25.00 L 550.72 25.00 L 551.64 25.00 L 552.86 25.00 L 558.56 25.00 L 562.01 25.00 L 591.98 25.00 L 599.28 25.00 L 619.72 25.00 L 622.69 25.00 L 622.84 25.00 L 622.91 25.00 L 635.47 25.00 L 644.19 25.00 L 646.99 25.00 L 658.56 25.00 L 659.33 25.00 L 662.33 25.00 L 665.75 25.00 L 680.53 25.00 L 701.47 25.00 L 707.43 25.00 L 728.65 25.00 L 729.92 25.00 L 730.08 25.00 L 730.90 25.00 L 740.01 25.00 L 741.09 25.00 L 746.35 25.00 L 750.12 25.00 L 750.17 25.00 L 765.31 25.00 L 768.15 25.00 L 781.39 25.00 L 785.46 25.00 L 786.06 25.00 L 792.24 25.00 L 802.64 25.00 L 806.51 25.00 L 809.01 25.00 L 813.41 25.00 L 813.49 25.00 L 814.35 25.00 L 815.64 25.00 L 816.10 25.00 L 816.15 25.00 L 823.34 25.00 L 823.36 25.00 L 824.42 25.00 L 824.83 25.00 L 824.87 25.00 L 824.90 25.00 L 825.63 25.00 L 825.70 25.00 L 825.81 25.00 L 825.86 25.00 L 826.81 25.00 L 827.85 25.00 L 828.33 25.00 L 828.59 25.00 L 830.94 25.00 L 831.57 25.00 L 836.63 25.00 L 837.15 25.00 L 837.62 25.00 L 844.59 25.00 L 845.14 25.00 L 845.22 25.00 L 845.34 25.00 L 845.59 25.00 L 845.65 25.00 L 845.80 25.00 L 846.21 25.00 L 846.34 25.00 L 846.47 25.00 L 847.79 25.00 L 849.04 25.00 L 849.34 25.00 L 849.65 25.00 L 850.06 25.00 L 850.82 25.00 L 851.73 25.00 L 852.51 25.00 L 852.75 25.00 L 852.99 25.00 L 853.06 25.00 L 853.20 25.00 L 853.93 25.00 L 854.70 25.00 L 854.93 25.00 L 855.09 25.00 L 855.22 25.00 L 855.55 25.00 L 855.64 25.00 L 855.97 25.00 L 856.90 25.00 L 857.64 25.00 L 857.90 25.00 L 858.45 25.00 L 858.50 25.00 L 858.59 25.00 L 858.70 25.00 L 858.77 25.00 L 866.33 25.00 L 866.91 25.00 L 867.93 25.00 L 868.15 25.00 L 868.35 25.00 L 869.86 25.00 L 870.26 25.00 L 871.09 25.00 L 873.59 25.00 L 875.16 25.00 L 876.41 25.00 L 876.80 25.00 L 877.12 25.00 L 878.96 25.00 L 879.53 25.00 L 886.83 25.00 L 887.96 25.00 L 888.07 25.00 L 888.14 25.00 L 888.86 25.00 L 888.88 25.00 L 889.29 25.00 L 889.37 25.00 L 889.86 25.00 L 891.69 25.00 L 891.82 25.00 L 891.91 25.00 L 891.94 25.00 L 892.03 25.00 L 892.14 25.00 L 894.60 25.00 L 894.72 25.00 L 894.79 25.00 L 894.84 25.00 L 894.98 25.00 L 896.22 25.00 L 897.07 25.00 L 897.71 25.00 L 897.75 25.00 L 897.89 25.00 L 898.04 25.00 L 898.15 25.00 L 900.72 25.00 L 900.82 25.00 L 900.97 25.00 L 901.13 25.00 L 901.34 25.00 L 908.03 25.00 L 908.11 25.00 L 908.98 25.00 L 909.76 25.00 L 909.98 25.00 L 910.09 25.00 L 911.76 25.00 L 911.84 25.00 L 912.30 25.00 L 912.78 25.00 L 912.90 25.00 L 912.92 25.00 L 913.06 25.00 L 913.17 25.00 L 913.49 25.00 L 914.19 25.00 L 915.16 25.00 L 915.18 25.00 L 915.46 25.00 L 915.66 25.00 L 915.81 25.00 L 915.91 25.00 L 916.45 25.00 L 917.75 25.00 L 918.33 25.00 L 918.73 25.00 L 919.16 25.00 L 920.87 25.00 L 921.25 25.00 L 921.67 25.00 L 921.95 25.00 L 922.09 25.00 L 922.30 25.00 L 922.62 25.00 L 929.14 25.00 L 929.24 25.00 L 929.30 25.00 L 929.72 25.00 L 929.76 25.00 L 930.14 25.00 L 930.20 25.00 L 930.32 25.00 L 930.68 25.00 L 930.96 25.00 L 931.32 25.00 L 931.51 25.00 L 932.48 25.00 L 933.68 25.00 L 934.20 25.00 L 934.28 25.00 L 935.39 25.00 L 936.83 25.00 L 937.07 25.00 L 937.51 25.00 L 938.28 25.00 L 938.99 25.00 L 939.07 25.00 L 939.15 25.00 L 939.51 25.00 L 939.92 25.00 L 940.22 25.00 L 940.29 25.00 L 940.39 25.00 L 941.70 25.00 L 942.76 25.00 L 943.24 25.00 L 943.38 25.00 L 952.00 25.00 L 952.27 25.00 L 952.39 25.00 L 952.45 25.00 L 954.47 25.00 L 955.13 25.00 L 955.55 25.00 L 956.51 25.00 L 957.11 25.00 L 957.13 25.00 L 957.27 25.00 L 957.30 25.00 L 957.47 25.00 L 957.69 25.00 L 957.91 25.00 L 958.33 25.00 L 958.47 25.00 L 959.48 25.00 L 959.55 25.00 L 959.61 25.00 L 959.75 25.00 L 960.14 25.00 L 960.43 25.00 L 961.17 25.00 L 961.45 25.00 L 962.36 25.00 L 962.69 25.00 L 962.87 25.00 L 963.00 25.00 L 963.48 25.00 L 963.51 25.00 L 963.61 25.00 L 963.66 25.00 L 963.76 25.00 L 963.81 25.00 L 963.85 25.00 L 964.21 25.00 L 964.22 25.00 L 964.35 25.00 L 964.37 25.00 L 964.50 25.00 L 964.50 25.00 L 964.83 25.00 L 964.92 25.00 L 971.46 25.00 L 971.68 25.00 L 971.72 25.00 L 971.89 25.00 L 972.33 25.00 L 972.63 25.00 L 972.72 25.00 L 972.76 25.00 L 972.85 25.00 L 973.58 25.00 L 973.71 25.00 L 973.83 25.00 L 973.94 25.00 L 974.52 25.00 L 974.77 25.00 L 974.86 25.00 L 975.01 25.00 L 975.18 25.00 L 975.46 25.00 L 975.54 25.00 L 975.58 25.00 L 975.71 25.00 L 976.23 25.00 L 976.58 25.00 L 977.03 25.00 L 977.51 25.00 L 977.59 25.00 L 977.66 25.00 L 977.99 25.00 L 978.51 25.00 L 978.60 25.00 L 978.89 25.00 L 979.12 25.00 L 979.49 25.00 L 979.52 25.00 L 979.63 25.00 L 979.71 25.00 L 979.76 25.00 L 979.82 25.00 L 980.02 25.00 L 980.04 25.00 L 980.79 25.00 L 980.85 25.00 L 981.07 25.00 L 981.08 25.00 L 981.15 25.00 L 981.22 25.00 L 981.54 25.00 L 981.89 25.00 L 982.00 25.00 L 982.26 25.00 L 982.42 25.00 L 982.58 25.00 L 982.61 25.00 L 982.70 25.00 L 982.76 25.00 L 983.06 25.00 L 983.07 25.00 L 983.58 25.00 L 983.73 25.00 L 983.82 25.00 L 983.90 25.00 L 984.13 25.00 L 984.58 25.00 L 984.63 25.00 L 984.73 25.00 L 984.77 25.00 L 985.00 25.00 L 985.18 25.00 L 985.61 25.00 L 985.78 25.00 L 992.98 25.00 L 993.80 25.00 L 994.48 25.00 L 994.54 25.00 L 994.79 25.00 L 994.98 25.00 L 995.03 25.00 L 995.94 25.00 L 996.18 25.00 L 996.71 25.00 L 997.13 25.00 L 997.22 25.00 L 997.39 25.00 L 997.59 25.00 L 997.72 25.00 L 997.82 25.00 L 997.93 25.00 L 998.81 25.00 L 999.29 25.00 L 999.31 25.00 L 999.42 25.00 L 999.72 25.00 L 1000.24 25.00 L 1000.32 25.00 L 1000.66 25.00 L 1000.67 25.00 L 1000.78 25.00 L 1000.82 25.00 L 1000.99 25.00 L 1001.91 25.00 L 1002.86 25.00 L 1003.29 25.00 L 1003.31 25.00 L 1003.45 25.00 L 1003.58 25.00 L 1003.80 25.00 L 1003.89 25.00 L 1003.97 25.00 L 1005.17 25.00 L 1005.72 25.00 L 1006.31 25.00 L 1006.66 25.00 L 1006.74 25.00 L 1013.81 25.00 L 1013.99 25.00 L 1014.89 25.00 L 1015.37 25.00 L 1015.70 25.00 L 1015.80 25.00 L 1015.89 25.00 L 1016.00 25.00 L 1017.14 25.00 L 1018.09 25.00 L 1018.77 25.00 L 1018.86 25.00 L 1018.94 25.00 L 1019.04 25.00 L 1019.06 25.00 L 1019.24 25.00 L 1020.17 25.00 L 1020.77 25.00 L 1021.08 25.00 L 1021.48 25.00 L 1021.70 25.00 L 1021.90 25.00 L 1022.13 25.00 L 1023.90 25.00 L 1024.09 25.00 L 1024.46 25.00 L 1024.51 25.00 L 1024.88 25.00 L 1025.17 25.00 L 1025.40 25.00 L 1025.93 25.00 L 1026.09 25.00 L 1027.12 25.00 L 1027.65 25.00 L 1027.84 25.00 L 1028.09 25.00 L 1028.39 25.00 L 1035.02 25.00 L 1035.06 25.00 L 1036.14 25.00 L 1036.23 25.00 L 1036.35 25.00 L 1037.06 25.00 L 1039.77 25.00 L 1040.19 25.00 L 1040.35 25.00 L 1042.85 25.00 L 1042.90 25.00 L 1042.99 25.00 L 1043.09 25.00 L 1043.14 25.00 L 1043.25 25.00 L 1043.32 25.00 L 1043.42 25.00 L 1045.89 25.00 L 1046.00 25.00 L 1046.35 25.00 L 1047.67 25.00 L 1048.36 25.00 L 1048.41 25.00 L 1049.05 25.00 L 1049.13 25.00 L 1056.18 25.00 L 1057.21 25.00 L 1057.50 25.00 L 1057.65 25.00 L 1057.77 25.00 L 1057.88 25.00 L 1057.96 25.00 L 1058.13 25.00 L 1058.25 25.00 L 1058.46 25.00 L 1059.37 25.00 L 1060.91 25.00 L 1060.92 25.00 L 1060.99 25.00 L 1061.15 25.00 L 1061.24 25.00 L 1063.36 25.00 L 1063.87 25.00 L 1064.19 25.00 L 1064.29 25.00 L 1064.41 25.00 L 1066.54 25.00 L 1066.78 25.00 L 1069.55 25.00 L 1069.84 25.00 L 1069.90 25.00 L 1069.95 25.00 L 1070.09 25.00 L 1070.35 25.00 L 1077.53 25.00 L 1078.41 25.00 L 1079.09 25.00 L 1081.39 25.00 L 1081.69 25.00 L 1082.00 25.00 L 1082.21 25.00 L 1084.54 25.00 L 1085.41 25.00 L 1087.47 25.00 L 1087.56 25.00 L 1088.22 25.00 L 1088.46 25.00 L 1088.56 25.00 L 1088.63 25.00 L 1090.89 25.00 L 1091.15 25.00 L 1099.36 25.00 L 1099.55 25.00 L 1099.68 25.00 L 1100.49 25.00 L 1101.79 25.00 L 1102.94 25.00 L 1103.56 25.00 L 1103.76 25.00 L 1105.47 25.00 L 1105.89 25.00 L 1106.40 25.00 L 1106.70 25.00 L 1108.25 25.00 L 1108.94 25.00 L 1109.76 25.00 L 1109.85 25.00 L 1111.09 25.00 L 1111.43 25.00 L 1111.78 25.00 L 1111.82 25.00 L 1111.97 25.00 L 1112.36 25.00 L 1112.67 25.00 L 1119.63 25.00 L 1121.40 25.00 L 1121.58 25.00 L 1121.65 25.00 L 1121.73 25.00 L 1123.91 25.00 L 1124.29 25.00 L 1124.77 25.00 L 1125.10 25.00 L 1125.12 25.00 L 1126.30 25.00 L 1126.49 25.00 L 1126.73 25.00 L 1127.31 25.00 L 1127.51 25.00 L 1127.53 25.00 L 1127.58 25.00 L 1127.64 25.00 L 1127.71 25.00 L 1127.73 25.00 L 1127.85 25.00 L 1127.90 25.00 L 1129.44 25.00 L 1129.62 25.00 L 1129.84 25.00 L 1129.91 25.00 L 1129.94 25.00 L 1129.96 25.00 L 1130.08 25.00 L 1130.12 25.00 L 1130.25 25.00 L 1130.33 25.00 L 1130.47 25.00 L 1130.52 25.00 L 1130.62 25.00 L 1130.71 25.00 L 1130.73 25.00 L 1130.77 25.00 L 1130.93 25.00 L 1131.02 25.00 L 1131.86 25.00 L 1132.56 25.00 L 1132.83 25.00 L 1132.84 25.00 L 1132.94 25.00 L 1133.03 25.00 L 1133.11 25.00 L 1133.20 25.00 L 1133.31 25.00 L 1133.50 25.00 L 1133.81 25.00 L 1140.83 25.00 L 1140.90 25.00 L 1141.75 25.00 L 1141.79 25.00 L 1142.06 25.00 L 1142.13 25.00 L 1142.19 25.00 L 1142.31 25.00 L 1142.83 25.00 L 1145.83 25.00 L 1154.45 25.00 L 1162.23 25.00 L 1162.75 25.00 L 1163.35 25.00 L 1163.93 25.00 L 1164.29 25.00 L 1164.39 25.00 L 1165.03 25.00 L 1165.08 25.00 L 1165.24 25.00 L 1165.79 25.00 L 1166.05 25.00 L 1166.60 25.00 L 1168.38 25.00 L 1168.90 25.00 L 1169.46 25.00 L 1169.66 25.00 L 1169.67 25.00 L 1169.68 25.00 L 1170.00 25.00 L 1170.00 165.23 L 1169.68 167.31 L 1169.67 163.50 L 1169.66 159.65 L 1169.46 155.74 L 1168.90 157.90 L 1168.38 159.46 L 1166.60 160.48 L 1166.05 162.62 L 1165.79 164.73 L 1165.24 160.84 L 1165.08 161.21 L 1165.03 162.82 L 1164.39 158.91 L 1164.29 159.83 L 1163.93 155.93 L 1163.35 157.64 L 1162.75 159.42 L 1162.23 161.20 L 1154.45 162.33 L 1145.83 159.11 L 1142.83 161.23 L 1142.31 162.72 L 1142.19 164.38 L 1142.13 166.31 L 1142.06 168.39 L 1141.79 170.01 L 1141.75 171.79 L 1140.90 167.99 L 1140.83 169.28 L 1133.81 165.45 L 1133.50 167.27 L 1133.31 169.10 L 1133.20 169.63 L 1133.11 169.91 L 1133.03 166.15 L 1132.94 162.32 L 1132.84 162.30 L 1132.83 158.42 L 1132.56 154.45 L 1131.86 156.16 L 1131.02 158.32 L 1130.93 159.77 L 1130.77 160.49 L 1130.73 162.11 L 1130.71 164.37 L 1130.62 165.78 L 1130.52 166.18 L 1130.47 162.37 L 1130.33 158.46 L 1130.25 158.83 L 1130.12 159.68 L 1130.08 161.32 L 1129.96 157.40 L 1129.94 159.36 L 1129.91 155.48 L 1129.84 157.74 L 1129.62 159.78 L 1129.44 161.52 L 1127.90 162.65 L 1127.85 163.84 L 1127.73 159.95 L 1127.71 161.99 L 1127.64 158.11 L 1127.58 159.12 L 1127.53 155.24 L 1127.51 151.26 L 1127.31 147.20 L 1126.73 148.16 L 1126.49 144.06 L 1126.30 145.81 L 1125.12 141.69 L 1125.10 137.55 L 1124.77 139.83 L 1124.29 135.63 L 1123.91 137.61 L 1121.73 139.87 L 1121.65 141.76 L 1121.58 142.94 L 1121.40 138.80 L 1119.63 134.58 L 1112.67 134.99 L 1112.36 136.88 L 1111.97 137.58 L 1111.82 139.70 L 1111.78 141.50 L 1111.43 137.32 L 1111.09 138.23 L 1109.85 138.72 L 1109.76 139.28 L 1108.94 135.06 L 1108.25 136.96 L 1106.70 139.23 L 1106.40 140.69 L 1105.89 142.26 L 1105.47 144.05 L 1103.76 146.09 L 1103.56 145.64 L 1102.94 145.57 L 1101.79 147.59 L 1100.49 148.84 L 1099.68 149.76 L 1099.55 150.62 L 1099.36 151.91 L 1091.15 152.96 L 1090.89 154.76 L 1088.63 150.73 L 1088.56 152.52 L 1088.46 153.00 L 1088.22 149.01 L 1087.56 150.67 L 1087.47 152.37 L 1085.41 154.53 L 1084.54 156.05 L 1082.21 152.05 L 1082.00 153.71 L 1081.69 154.92 L 1081.39 155.95 L 1079.09 158.08 L 1078.41 160.18 L 1077.53 161.73 L 1070.35 163.17 L 1070.09 159.27 L 1069.95 160.52 L 1069.90 161.65 L 1069.84 157.77 L 1069.55 153.84 L 1066.78 153.49 L 1066.54 155.20 L 1064.41 157.33 L 1064.29 158.57 L 1064.19 159.99 L 1063.87 161.86 L 1063.36 163.75 L 1061.24 165.67 L 1061.15 167.74 L 1060.99 166.96 L 1060.92 163.18 L 1060.91 159.33 L 1059.37 155.37 L 1058.46 155.89 L 1058.25 157.77 L 1058.13 159.58 L 1057.96 160.92 L 1057.88 156.99 L 1057.77 156.88 L 1057.65 152.89 L 1057.50 154.31 L 1057.21 155.54 L 1056.18 157.32 L 1049.13 157.57 L 1049.05 153.63 L 1048.41 155.76 L 1048.36 157.20 L 1047.67 153.22 L 1046.35 154.93 L 1046.00 156.42 L 1045.89 158.53 L 1043.42 160.65 L 1043.32 161.97 L 1043.25 162.94 L 1043.14 159.09 L 1043.09 155.16 L 1042.99 157.15 L 1042.90 157.96 L 1042.85 154.02 L 1040.35 150.00 L 1040.19 152.00 L 1039.77 154.00 L 1037.06 155.93 L 1036.35 157.89 L 1036.23 159.08 L 1036.14 159.58 L 1035.06 155.63 L 1035.02 156.39 L 1028.39 154.48 L 1028.09 156.60 L 1027.84 158.16 L 1027.65 160.26 L 1027.12 156.33 L 1026.09 158.25 L 1025.93 160.18 L 1025.40 161.33 L 1025.17 157.40 L 1024.88 159.52 L 1024.51 161.26 L 1024.46 163.07 L 1024.09 165.13 L 1023.90 161.25 L 1022.13 157.33 L 1021.90 158.88 L 1021.70 160.98 L 1021.48 162.68 L 1021.08 164.21 L 1020.77 165.76 L 1020.17 167.44 L 1019.24 168.60 L 1019.06 169.59 L 1019.04 171.46 L 1018.94 167.68 L 1018.86 168.69 L 1018.77 164.90 L 1018.09 161.03 L 1017.14 161.99 L 1016.00 163.16 L 1015.89 164.55 L 1015.80 166.41 L 1015.70 167.55 L 1015.37 169.60 L 1014.89 170.63 L 1013.99 172.44 L 1013.81 172.67 L 1006.74 173.16 L 1006.66 175.15 L 1006.31 177.14 L 1005.72 178.95 L 1005.17 180.90 L 1003.97 182.52 L 1003.89 184.23 L 1003.80 185.06 L 1003.58 186.77 L 1003.45 188.40 L 1003.31 189.90 L 1003.29 191.70 L 1002.86 188.22 L 1001.91 189.73 L 1000.99 191.60 L 1000.82 193.50 L 1000.78 195.10 L 1000.67 195.14 L 1000.66 191.74 L 1000.32 188.25 L 1000.24 188.71 L 999.72 185.19 L 999.42 187.10 L 999.31 183.59 L 999.29 185.44 L 998.81 181.86 L 997.93 178.24 L 997.82 177.18 L 997.72 173.54 L 997.59 169.82 L 997.39 166.01 L 997.22 166.61 L 997.13 162.77 L 996.71 162.39 L 996.18 163.73 L 995.94 165.60 L 995.03 167.22 L 994.98 169.00 L 994.79 169.21 L 994.54 169.68 L 994.48 170.64 L 993.80 166.84 L 992.98 167.33 L 985.78 167.34 L 985.61 169.38 L 985.18 171.22 L 985.00 172.76 L 984.77 174.61 L 984.73 175.98 L 984.63 172.26 L 984.58 168.55 L 984.13 164.72 L 983.90 166.71 L 983.82 166.75 L 983.73 162.92 L 983.58 163.94 L 983.07 164.40 L 983.06 166.40 L 982.76 168.45 L 982.70 169.86 L 982.61 166.11 L 982.58 162.31 L 982.42 158.45 L 982.26 159.46 L 982.00 161.29 L 981.89 157.41 L 981.54 153.45 L 981.22 155.24 L 981.15 157.36 L 981.08 157.94 L 981.07 154.07 L 980.85 150.13 L 980.79 146.12 L 980.04 142.01 L 980.02 144.22 L 979.82 146.10 L 979.76 148.02 L 979.71 150.18 L 979.63 150.83 L 979.52 150.71 L 979.49 146.70 L 979.12 142.60 L 978.89 143.94 L 978.60 144.79 L 978.51 146.68 L 977.99 148.73 L 977.66 148.48 L 977.59 149.35 L 977.51 145.34 L 977.03 146.38 L 976.58 142.26 L 976.23 138.11 L 975.71 133.90 L 975.58 136.08 L 975.54 137.47 L 975.46 133.30 L 975.18 133.68 L 975.01 135.81 L 974.86 136.69 L 974.77 132.50 L 974.52 134.78 L 973.94 135.01 L 973.83 130.75 L 973.71 132.68 L 973.58 134.95 L 972.85 137.20 L 972.76 133.02 L 972.72 128.79 L 972.63 124.46 L 972.33 125.87 L 971.89 128.20 L 971.72 130.35 L 971.68 132.21 L 971.46 127.93 L 964.92 129.40 L 964.83 130.85 L 964.50 133.15 L 964.50 135.54 L 964.37 131.30 L 964.35 127.06 L 964.22 122.71 L 964.21 125.16 L 963.85 120.80 L 963.81 122.76 L 963.76 118.42 L 963.66 118.24 L 963.61 113.84 L 963.51 109.35 L 963.48 111.18 L 963.00 113.60 L 962.87 109.09 L 962.69 110.82 L 962.36 111.31 L 961.45 113.72 L 961.17 116.11 L 960.43 111.63 L 960.14 113.65 L 959.75 114.32 L 959.61 116.73 L 959.55 119.12 L 959.48 120.88 L 958.47 116.47 L 958.33 118.73 L 957.91 121.10 L 957.69 123.34 L 957.47 124.79 L 957.30 127.11 L 957.27 128.96 L 957.13 124.63 L 957.11 120.35 L 956.51 115.97 L 955.55 118.35 L 955.13 113.92 L 954.47 116.07 L 952.45 116.18 L 952.39 117.66 L 952.27 113.21 L 952.00 114.67 L 943.38 114.61 L 943.24 116.77 L 942.76 118.45 L 941.70 120.33 L 940.39 122.09 L 940.29 123.76 L 940.22 124.95 L 939.92 120.60 L 939.51 120.79 L 939.15 121.60 L 939.07 117.20 L 938.99 118.26 L 938.28 113.83 L 937.51 114.84 L 937.07 116.00 L 936.83 118.22 L 935.39 118.09 L 934.28 120.02 L 934.20 121.26 L 933.68 116.86 L 932.48 119.07 L 931.51 119.81 L 931.32 119.42 L 930.96 121.79 L 930.68 124.14 L 930.32 125.72 L 930.20 121.37 L 930.14 117.00 L 929.76 112.55 L 929.72 114.27 L 929.30 109.79 L 929.24 110.80 L 929.14 106.34 L 922.62 101.82 L 922.30 97.23 L 922.09 92.55 L 921.95 95.11 L 921.67 97.39 L 921.25 99.01 L 920.87 94.36 L 919.16 96.88 L 918.73 99.18 L 918.33 99.94 L 917.75 95.29 L 916.45 94.31 L 915.91 96.58 L 915.81 98.80 L 915.66 101.42 L 915.46 96.80 L 915.18 99.10 L 915.16 101.54 L 914.19 96.91 L 913.49 99.20 L 913.17 101.10 L 913.06 103.20 L 912.92 104.66 L 912.90 106.98 L 912.78 102.41 L 912.30 104.12 L 911.84 105.94 L 911.76 107.65 L 910.09 103.10 L 909.98 105.12 L 909.76 107.43 L 908.98 109.88 L 908.11 112.32 L 908.03 113.88 L 901.34 113.85 L 901.13 116.26 L 900.97 118.52 L 900.82 118.70 L 900.72 114.31 L 898.15 116.73 L 898.04 119.05 L 897.89 121.42 L 897.75 123.46 L 897.71 119.14 L 897.07 114.72 L 896.22 110.26 L 894.98 110.37 L 894.84 112.80 L 894.79 114.46 L 894.72 110.03 L 894.60 110.94 L 892.14 113.38 L 892.03 112.91 L 891.94 112.95 L 891.91 108.50 L 891.82 103.96 L 891.69 99.40 L 889.86 94.76 L 889.37 96.73 L 889.29 99.20 L 888.88 101.72 L 888.86 104.10 L 888.14 99.52 L 888.07 100.83 L 887.96 100.29 L 886.83 95.65 L 879.53 97.64 L 878.96 99.48 L 877.12 101.72 L 876.80 104.33 L 876.41 106.67 L 875.16 108.34 L 873.59 109.99 L 871.09 110.74 L 870.26 106.23 L 869.86 107.37 L 868.35 108.58 L 868.15 104.05 L 867.93 104.50 L 866.91 103.21 L 866.33 105.05 L 858.77 107.02 L 858.70 107.84 L 858.59 103.29 L 858.50 104.63 L 858.45 106.08 L 857.90 101.51 L 857.64 103.86 L 856.90 105.93 L 855.97 101.36 L 855.64 103.38 L 855.55 103.85 L 855.22 99.27 L 855.09 101.40 L 854.93 96.82 L 854.70 97.55 L 853.93 100.08 L 853.20 102.11 L 853.06 101.50 L 852.99 96.94 L 852.75 92.27 L 852.51 94.02 L 851.73 96.43 L 850.82 91.75 L 850.06 87.02 L 849.65 89.61 L 849.34 84.85 L 849.04 86.82 L 847.79 87.94 L 846.47 90.07 L 846.34 92.52 L 846.21 94.75 L 845.80 90.11 L 845.65 85.36 L 845.59 87.51 L 845.34 82.74 L 845.22 85.36 L 845.14 85.87 L 844.59 81.10 L 837.62 82.62 L 837.15 77.79 L 836.63 80.25 L 831.57 81.11 L 830.94 76.27 L 828.59 78.44 L 828.33 80.29 L 827.85 75.46 L 826.81 75.59 L 825.86 78.01 L 825.81 79.61 L 825.70 74.75 L 825.63 76.78 L 824.90 71.89 L 824.87 74.38 L 824.83 69.47 L 824.42 68.63 L 823.36 70.88 L 823.34 73.42 L 816.15 68.50 L 816.10 71.08 L 815.64 73.76 L 814.35 75.45 L 813.49 75.43 L 813.41 76.42 L 809.01 71.53 L 806.51 74.21 L 802.64 76.59 L 792.24 76.72 L 786.06 79.16 L 785.46 80.78 L 781.39 75.94 L 768.15 77.65 L 765.31 79.59 L 750.17 77.06 L 750.12 78.82 L 746.35 73.97 L 741.09 75.89 L 740.01 77.46 L 730.90 72.60 L 730.08 72.31 L 729.92 75.13 L 728.65 77.80 L 707.43 72.95 L 701.47 72.63 L 680.53 67.72 L 665.75 67.95 L 662.33 70.41 L 659.33 71.36 L 658.56 73.81 L 646.99 75.94 L 644.19 71.07 L 635.47 70.13 L 622.91 68.52 L 622.84 63.56 L 622.69 62.98 L 619.72 65.73 L 599.28 68.46 L 591.98 63.50 L 562.01 63.62 L 558.56 58.61 L 552.86 60.22 L 551.64 61.85 L 550.72 64.61 L 550.30 67.35 L 541.33 62.38 L 541.11 61.79 L 541.08 64.23 L 538.44 66.96 L 538.31 65.19 L 538.14 63.33 L 532.34 65.64 L 532.20 65.46 L 532.12 60.50 L 492.30 55.46 L 489.34 54.74 L 487.06 56.98 L 477.96 56.08 L 453.62 51.00 L 452.13 52.33 L 450.16 54.56 L 431.69 55.94 L 425.58 50.85 L 413.60 53.14 L 411.51 48.02 L 411.25 50.20 L 410.60 52.81 L 408.27 47.69 L 405.37 49.65 L 404.73 51.42 L 393.09 51.69 L 392.95 53.64 L 392.75 55.96 L 389.95 50.88 L 386.67 51.37 L 386.60 52.63 L 380.87 47.51 L 379.18 47.42 L 369.24 46.90 L 368.42 41.73 L 366.40 44.33 L 361.36 45.52 L 348.14 44.43 L 344.65 42.33 L 340.91 44.99 L 338.89 39.80 L 323.35 40.48 L 323.20 38.06 L 323.08 38.22 L 319.46 32.95 L 319.32 34.37 L 319.21 35.72 L 317.22 30.43 L 305.02 31.98 L 302.74 26.66 L 301.87 29.08 L 296.44 32.01 L 296.00 33.97 L 295.73 36.60 L 295.07 38.90 L 294.71 39.95 L 287.43 42.19 L 287.41 44.90 L 280.92 39.70 L 278.44 34.46 L 278.39 36.55 L 278.24 31.27 L 278.20 33.74 L 277.97 28.43 L 277.91 30.34 Z" fill="#d0d0d0" fill-opacity="0.5" stroke="none"/>
<polyline fill="none" stroke="#111" stroke-width="1.2" points="70.00,51.91 75.67,49.11 75.70,46.66 75.83,44.43 94.04,44.41 104.96,41.56 109.31,38.91 112.23,44.12 112.26,49.23 112.36,48.52 112.50,49.42 114.91,49.25 127.41,46.66 129.54,44.28 130.04,41.30 130.24,39.03 130.37,37.91 155.04,43.12 160.29,40.26 160.46,38.07 160.51,35.27 171.97,40.52 178.37,38.59 178.50,36.81 193.71,35.36 217.60,34.25 221.19,32.61 239.28,30.66 242.23,28.67 254.18,27.75 260.40,25.80 266.29,25.00 277.91,30.34 277.97,28.43 278.20,33.74 278.24,31.27 278.39,36.55 278.44,34.46 280.92,39.70 287.41,44.90 287.43,42.19 294.71,39.95 295.07,38.90 295.73,36.60 296.00,33.97 296.44,32.01 301.87,29.08 302.74,26.66 305.02,31.98 317.22,30.43 319.21,35.72 319.32,34.37 319.46,32.95 323.08,38.22 323.20,38.06 323.35,40.48 338.89,39.80 340.91,44.99 344.65,42.33 348.14,44.43 361.36,45.52 366.40,44.33 368.42,41.73 369.24,46.90 379.18,47.42 380.87,47.51 386.60,52.63 386.67,51.37 389.95,50.88 392.75,55.96 392.95,53.64 393.09,51.69 404.73,51.42 405.37,49.65 408.27,47.69 410.60,52.81 411.25,50.20 411.51,48.02 413.60,53.14 425.58,50.85 431.69,55.94 450.16,54.56 452.13,52.33 453.62,51.00 477.96,56.08 487.06,56.98 489.34,54.74 492.30,55.46 532.12,60.50 532.20,65.46 532.34,65.64 538.14,63.33 538.31,65.19 538.44,66.96 541.08,64.23 541.11,61.79 541.33,62.38 550.30,67.35 550.72,64.61 551.64,61.85 552.86,60.22 558.56,58.61 562.01,63.62 591.98,63.50 599.28,68.46 619.72,65.73 622.69,62.98 622.84,63.56 622.91,68.52 635.47,70.13 644.19,71.07 646.99,75.94 658.56,73.81 659.33,71.36 662.33,70.41 665.75,67.95 680.53,67.72 701.47,72.63 707.43,72.95 728.65,77.80 729.92,75.13 730.08,72.31 730.90,72.60 740.01,77.46 741.09,75.89 746.35,73.97 750.12,78.82 750.17,77.06 765.31,79.59 768.15,77.65 781.39,75.94 785.46,80.78 786.06,79.16 792.24,76.72 802.64,76.59 806.51,74.21 809.01,71.53 813.41,76.42 813.49,75.43 814.35,75.45 815.64,73.76 816.10,71.08 816.15,68.50 823.34,73.42 823.36,70.88 824.42,68.63 824.83,69.47 824.87,74.38 824.90,71.89 825.63,76.78 825.70,74.75 825.81,79.61 825.86,78.01 826.81,75.59 827.85,75.46 828.33,80.29 828.59,78.44 830.94,76.27 831.57,81.11 836.63,80.25 837.15,77.79 837.62,82.62 844.59,81.10 845.14,85.87 845.22,85.36 845.34,82.74 845.59,87.51 845.65,85.36 845.80,90.11 846.21,94.75 846.34,92.52 846.47,90.07 847.79,87.94 849.04,86.82 849.34,84.85 849.65,89.61 850.06,87.02 850.82,91.75 851.73,96.43 852.51,94.02 852.75,92.27 852.99,96.94 853.06,101.50 853.20,102.11 853.93,100.08 854.70,97.55 854.93,96.82 855.09,101.40 855.22,99.27 855.55,103.85 855.64,103.38 855.97,101.36 856.90,105.93 857.64,103.86 857.90,101.51 858.45,106.08 858.50,104.63 858.59,103.29 858.70,107.84 858.77,107.02 866.33,105.05 866.91,103.21 867.93,104.50 868.15,104.05 868.35,108.58 869.86,107.37 870.26,106.23 871.09,110.74 873.59,109.99 875.16,108.34 876.41,106.67 876.80,104.33 877.12,101.72 878.96,99.48 879.53,97.64 886.83,95.65 887.96,100.29 888.07,100.83 888.14,99.52 888.86,104.10 888.88,101.72 889.29,99.20 889.37,96.73 889.86,94.76 891.69,99.40 891.82,103.96 891.91,108.50 891.94,112.95 892.03,112.91 892.14,113.38 894.60,110.94 894.72,110.03 894.79,114.46 894.84,112.80 894.98,110.37 896.22,110.26 897.07,114.72 897.71,119.14 897.75,123.46 897.89,121.42 898.04,119.05 898.15,116.73 900.72,114.31 900.82,118.70 900.97,118.52 901.13,116.26 901.34,113.85 908.03,113.88 908.11,112.32 908.98,109.88 909.76,107.43 909.98,105.12 910.09,103.10 911.76,107.65 911.84,105.94 912.30,104.12 912.78,102.41 912.90,106.98 912.92,104.66 913.06,103.20 913.17,101.10 913.49,99.20 914.19,96.91 915.16,101.54 915.18,99.10 915.46,96.80 915.66,101.42 915.81,98.80 915.91,96.58 916.45,94.31 917.75,95.29 918.33,99.94 918.73,99.18 919.16,96.88 920.87,94.36 921.25,99.01 921.67,97.39 921.95,95.11 922.09,92.55 922.30,97.23 922.62,101.82 929.14,106.34 929.24,110.80 929.30,109.79 929.72,114.27 929.76,112.55 930.14,117.00 930.20,121.37 930.32,125.72 930.68,124.14 930.96,121.79 931.32,119.42 931.51,119.81 932.48,119.07 933.68,116.86 934.20,121.26 934.28,120.02 935.39,118.09 936.83,118.22 937.07,116.00 937.51,114.84 938.28,113.83 938.99,118.26 939.07,117.20 939.15,121.60 939.51,120.79 939.92,120.60 940.22,124.95 940.29,123.76 940.39,122.09 941.70,120.33 942.76,118.45 943.24,116.77 943.38,114.61 952.00,114.67 952.27,113.21 952.39,117.66 952.45,116.18 954.47,116.07 955.13,113.92 955.55,118.35 956.51,115.97 957.11,120.35 957.13,124.63 957.27,128.96 957.30,127.11 957.47,124.79 957.69,123.34 957.91,121.10 958.33,118.73 958.47,116.47 959.48,120.88 959.55,119.12 959.61,116.73 959.75,114.32 960.14,113.65 960.43,111.63 961.17,116.11 961.45,113.72 962.36,111.31 962.69,110.82 962.87,109.09 963.00,113.60 963.48,111.18 963.51,109.35 963.61,113.84 963.66,118.24 963.76,118.42 963.81,122.76 963.85,120.80 964.21,125.16 964.22,122.71 964.35,127.06 964.37,131.30 964.50,135.54 964.50,133.15 964.83,130.85 964.92,129.40 971.46,127.93 971.68,132.21 971.72,130.35 971.89,128.20 972.33,125.87 972.63,124.46 972.72,128.79 972.76,133.02 972.85,137.20 973.58,134.95 973.71,132.68 973.83,130.75 973.94,135.01 974.52,134.78 974.77,132.50 974.86,136.69 975.01,135.81 975.18,133.68 975.46,133.30 975.54,137.47 975.58,136.08 975.71,133.90 976.23,138.11 976.58,142.26 977.03,146.38 977.51,145.34 977.59,149.35 977.66,148.48 977.99,148.73 978.51,146.68 978.60,144.79 978.89,143.94 979.12,142.60 979.49,146.70 979.52,150.71 979.63,150.83 979.71,150.18 979.76,148.02 979.82,146.10 980.02,144.22 980.04,142.01 980.79,146.12 980.85,150.13 981.07,154.07 981.08,157.94 981.15,157.36 981.22,155.24 981.54,153.45 981.89,157.41 982.00,161.29 982.26,159.46 982.42,158.45 982.58,162.31 982.61,166.11 982.70,169.86 982.76,168.45 983.06,166.40 983.07,164.40 983.58,163.94 983.73,162.92 983.82,166.75 983.90,166.71 984.13,164.72 984.58,168.55 984.63,172.26 984.73,175.98 984.77,174.61 985.00,172.76 985.18,171.22 985.61,169.38 985.78,167.34 992.98,167.33 993.80,166.84 994.48,170.64 994.54,169.68 994.79,169.21 994.98,169.00 995.03,167.22 995.94,165.60 996.18,163.73 996.71,162.39 997.13,162.77 997.22,166.61 997.39,166.01 997.59,169.82 997.72,173.54 997.82,177.18 997.93,178.24 998.81,181.86 999.29,185.44 999.31,183.59 999.42,187.10 999.72,185.19 1000.24,188.71 1000.32,188.25 1000.66,191.74 1000.67,195.14 1000.78,195.10 1000.82,193.50 1000.99,191.60 1001.91,189.73 1002.86,188.22 1003.29,191.70 1003.31,189.90 1003.45,188.40 1003.58,186.77 1003.80,185.06 1003.89,184.23 1003.97,182.52 1005.17,180.90 1005.72,178.95 1006.31,177.14 1006.66,175.15 1006.74,173.16 1013.81,172.67 1013.99,172.44 1014.89,170.63 1015.37,169.60 1015.70,167.55 1015.80,166.41 1015.89,164.55 1016.00,163.16 1017.14,161.99 1018.09,161.03 1018.77,164.90 1018.86,168.69 1018.94,167.68 1019.04,171.46 1019.06,169.59 1019.24,168.60 1020.17,167.44 1020.77,165.76 1021.08,164.21 1021.48,162.68 1021.70,160.98 1021.90,158.88 1022.13,157.33 1023.90,161.25 1024.09,165.13 1024.46,163.07 1024.51,161.26 1024.88,159.52 1025.17,157.40 1025.40,161.33 1025.93,160.18 1026.09,158.25 1027.12,156.33 1027.65,160.26 1027.84,158.16 1028.09,156.60 1028.39,154.48 1035.02,156.39 1035.06,155.63 1036.14,159.58 1036.23,159.08 1036.35,157.89 1037.06,155.93 1039.77,154.00 1040.19,152.00 1040.35,150.00 1042.85,154.02 1042.90,157.96 1042.99,157.15 1043.09,155.16 1043.14,159.09 1043.25,162.94 1043.32,161.97 1043.42,160.65 1045.89,158.53 1046.00,156.42 1046.35,154.93 1047.67,153.22 1048.36,157.20 1048.41,155.76 1049.05,153.63 1049.13,157.57 1056.18,157.32 1057.21,155.54 1057.50,154.31 1057.65,152.89 1057.77,156.88 1057.88,156.99 1057.96,160.92 1058.13,159.58 1058.25,157.77 1058.46,155.89 1059.37,155.37 1060.91,159.33 1060.92,163.18 1060.99,166.96 1061.15,167.74 1061.24,165.67 1063.36,163.75 1063.87,161.86 1064.19,159.99 1064.29,158.57 1064.41,157.33 1066.54,155.20 1066.78,153.49 1069.55,153.84 1069.84,157.77 1069.90,161.65 1069.95,160.52 1070.09,159.27 1070.35,163.17 1077.53,161.73 1078.41,160.18 1079.09,158.08 1081.39,155.95 1081.69,154.92 1082.00,153.71 1082.21,152.05 1084.54,156.05 1085.41,154.53 1087.47,152.37 1087.56,150.67 1088.22,149.01 1088.46,153.00 1088.56,152.52 1088.63,150.73 1090.89,154.76 1091.15,152.96 1099.36,151.91 1099.55,150.62 1099.68,149.76 1100.49,148.84 1101.79,147.59 1102.94,145.57 1103.56,145.64 1103.76,146.09 1105.47,144.05 1105.89,142.26 1106.40,140.69 1106.70,139.23 1108.25,136.96 1108.94,135.06 1109.76,139.28 1109.85,138.72 1111.09,138.23 1111.43,137.32 1111.78,141.50 1111.82,139.70 1111.97,137.58 1112.36,136.88 1112.67,134.99 1119.63,134.58 1121.40,138.80 1121.58,142.94 1121.65,141.76 1121.73,139.87 1123.91,137.61 1124.29,135.63 1124.77,139.83 1125.10,137.55 1125.12,141.69 1126.30,145.81 1126.49,144.06 1126.73,148.16 1127.31,147.20 1127.51,151.26 1127.53,155.24 1127.58,159.12 1127.64,158.11 1127.71,161.99 1127.73,159.95 1127.85,163.84 1127.90,162.65 1129.44,161.52 1129.62,159.78 1129.84,157.74 1129.91,155.48 1129.94,159.36 1129.96,157.40 1130.08,161.32 1130.12,159.68 1130.25,158.83 1130.33,158.46 1130.47,162.37 1130.52,166.18 1130.62,165.78 1130.71,164.37 1130.73,162.11 1130.77,160.49 1130.93,159.77 1131.02,158.32 1131.86,156.16 1132.56,154.45 1132.83,158.42 1132.84,162.30 1132.94,162.32 1133.03,166.15 1133.11,169.91 1133.20,169.63 1133.31,169.10 1133.50,167.27 1133.81,165.45 1140.83,169.28 1140.90,167.99 1141.75,171.79 1141.79,170.01 1142.06,168.39 1142.13,166.31 1142.19,164.38 1142.31,162.72 1142.83,161.23 1145.83,159.11 1154.45,162.33 1162.23,161.20 1162.75,159.42 1163.35,157.64 1163.93,155.93 1164.29,159.83 1164.39,158.91 1165.03,162.82 1165.08,161.21 1165.24,160.84 1165.79,164.73 1166.05,162.62 1166.60,160.48 1168.38,159.46 1168.90,157.90 1169.46,155.74 1169.66,159.65 1169.67,163.50 1169.68,167.31 1170.00,165.23"/>
<text x="620.0" y="588" text-anchor="middle" font-family="sans-serif" font-size="12" fill="#333">UTC time</text>
<text x="15" y="287.5" transform="rotate(-90 15,287.5)" text-anchor="middle" font-family="sans-serif" font-size="12" fill="#333">Capital</text>
</svg>