<svg xmlns="http://www.w3.org/2000/svg" width="1200" height="600" viewBox="0 0 1200 600">
<desc>Equity curve with drawdown fill</desc>
<text x="600.0" y="18.0" text-anchor="middle" font-family="sans-serif" font-size="14">Portfolio 2004</text>
<rect x="70" y="25" width="1100" height="525" fill="white" stroke="#ccc" />
<line x1="70" y1="550.00" x2="1170" y2="550.00" stroke="#eee"/>
<text x="62" y="554.0" text-anchor="end" font-family="sans-serif" font-size="11" fill="#555">0.00</text>
<line x1="70" y1="445.00" x2="1170" y2="445.00" stroke="#eee"/>
<text x="62" y="449.0" text-anchor="end" font-family="sans-serif" font-size="11" fill="#555">20724</text>
<line x1="70" y1="340.00" x2="1170" y2="340.00" stroke="#eee"/>
<text x="62" y="344.0" text-anchor="end" font-family="sans-serif" font-size="11" fill="#555">41448</text>
<line x1="70" y1="235.00" x2="1170" y2="235.00" stroke="#eee"/>
<text x="62" y="239.0" text-anchor="end" font-family="sans-serif" font-size="11" fill="#555">62172</text>
<line x1="70" y1="130.00" x2="1170" y2="130.00" stroke="#eee"/>
<text x="62" y="134.0" text-anchor="end" font-family="sans-serif" font-size="11" fill="#555">82897</text>
<line x1="70" y1="25.00" x2="1170" y2="25.00" stroke="#eee"/>
<text x="62" y="29.0" text-anchor="end" font-family="sans-serif" font-size="11" fill="#555">103621</text>
<line x1="152.03" y1="25" x2="152.03" y2="550" stroke="#f2f2f2"/>
<text x="152.03" y="566" text-anchor="middle" font-family="sans-serif" font-size="11" fill="#555">Feb</text>
<line x1="240.23" y1="25" x2="240.23" y2="550" stroke="#f2f2f2"/>
<text x="240.23" y="566" text-anchor="middle" font-family="sans-serif" font-size="11" fill="#555">Mar</text>
<line x1="334.51" y1="25" x2="334.51" y2="550" stroke="#f2f2f2"/>
<text x="334.51" y="566" text-anchor="middle" font-family="sans-serif" font-size="11" fill="#555">Apr</text>
<line x1="425.75" y1="25" x2="425.75" y2="550" stroke="#f2f2f2"/>
<text x="425.75" y="566" text-anchor="middle" font-family="sans-serif" font-size="11" fill="#555">May</text>
<line x1="520.03" y1="25" x2="520.03" y2="550" stroke="#f2f2f2"/>
<text x="520.03" y="566" text-anchor="middle" font-family="sans-serif" font-size="11" fill="#555">Jun</text>
<line x1="611.27" y1="25" x2="611.27" y2="550" stroke="#f2f2f2"/>
<text x="611.27" y="566" text-anchor="middle" font-family="sans-serif" font-size="11" fill="#555">Jul</text>
<line x1="705.55" y1="25" x2="705.55" y2="550" stroke="#f2f2f2"/>
<text x="705.55" y="566" text-anchor="middle" font-family="sans-serif" font-size="11" fill="#555">Aug</text>
<line x1="799.84" y1="25" x2="799.84" y2="550" stroke="#f2f2f2"/>
<text x="799.84" y="566" text-anchor="middle" font-family="sans-serif" font-size="11" fill="#555">Sep</text>
<line x1="891.08" y1="25" x2="891.08" y2="550" stroke="#f2f2f2"/>
<text x="891.08" y="566" text-anchor="middle" font-family="sans-serif" font-size="11" fill="#555">Oct</text>
<line x1="985.36" y1="25" x2="985.36" y2="550" stroke="#f2f2f2"/>
<text x="985.36" y="566" text-anchor="middle" font-family="sans-serif" font-size="11" fill="#555">Nov</text>
<line x1="1076.60" y1="25" x2="1076.60" y2="550" stroke="#f2f2f2"/>
<text x="1076.60" y="566" text-anchor="middle" font-family="sans-serif" font-size="11" fill="#555">Dec</text>
<line x1="1170.00" y1="25" x2="1170.00" y2="550" stroke="#f2f2f2"/>
<text x="1170.00" y="566" text-anchor="middle" font-family="sans-serif" font-size="11" fill="#555">Jan</text>
<line x1="70" y1="550" x2="1170" y2="550" stroke="#888"/>
<line x1="70" y1="25" x2="70" y2="550" stroke="#888"/>
<path d="M 80.91 37.68 L 83.99 37.68 L 92.88 37.68 L 98.46 37.68 L 99.46 37.68 L 105.20 37.68 L 105.35 37.68 L 113.71 37.68 L 116.65 37.68 L 117.05 37.68 L 117.68 37.68 L 119.21 37.68 L 119.75 37.68 L 122.99 37.68 L 126.33 37.68 L 126.69 37.68 L 126.82 37.68 L 134.16 37.68 L 135.58 37.68 L 136.28 37.68 L 138.65 37.68 L 138.73 37.68 L 138.90 37.68 L 140.39 37.68 L 140.72 37.68 L 141.56 37.68 L 141.58 37.68 L 142.39 37.68 L 142.39 37.87 L 141.58 39.44 L 141.56 42.40 L 140.72 44.96 L 140.39 47.89 L 138.90 50.81 L 138.73 45.66 L 138.65 48.65 L 136.28 48.55 L 135.58 43.38 L 134.16 46.33 L 126.82 49.25 L 126.69 44.08 L 126.33 46.87 L 122.99 46.64 L 119.75 41.44 L 119.21 41.95 L 117.68 44.75 L 117.05 45.38 L 116.65 47.27 L 113.71 42.08 L 105.35 44.12 L 105.20 38.89 L 99.46 41.71 L 98.46 43.07 L 92.88 42.50 L 83.99 44.47 L 80.91 42.92 Z" fill="#d0d0d0" fill-opacity="0.5" stroke="none"/>
<path d="M 144.92 29.28 L 144.98 29.28 L 145.09 29.28 L 145.09 29.95 L 144.98 32.82 L 144.92 34.61 Z" fill="#d0d0d0" fill-opacity="0.5" stroke="none"/>
<path d="M 159.13 25.00 L 166.66 25.00 L 169.17 25.00 L 169.20 25.00 L 169.28 25.00 L 176.30 25.00 L 178.45 25.00 L 184.49 25.00 L 184.55 25.00 L 184.62 25.00 L 184.66 25.00 L 190.24 25.00 L 190.48 25.00 L 190.68 25.00 L 201.74 25.00 L 204.58 25.00 L 205.34 25.00 L 205.84 25.00 L 206.21 25.00 L 208.57 25.00 L 209.79 25.00 L 210.89 25.00 L 211.80 25.00 L 211.86 25.00 L 212.09 25.00 L 218.97 25.00 L 224.02 25.00 L 226.99 25.00 L 227.21 25.00 L 227.28 25.00 L 229.19 25.00 L 229.81 25.00 L 233.01 25.00 L 233.44 25.00 L 245.29 25.00 L 245.30 25.00 L 245.37 25.00 L 245.45 25.00 L 245.61 25.00 L 247.70 25.00 L 248.41 25.00 L 248.44 25.00 L 248.79 25.00 L 251.45 25.00 L 254.29 25.00 L 254.30 25.00 L 254.38 25.00 L 254.48 25.00 L 263.91 25.00 L 265.97 25.00 L 266.77 25.00 L 269.34 25.00 L 275.73 25.00 L 283.99 25.00 L 284.82 25.00 L 285.08 25.00 L 289.96 25.00 L 293.84 25.00 L 294.04 25.00 L 294.18 25.00 L 297.07 25.00 L 305.56 25.00 L 311.60 25.00 L 312.57 25.00 L 317.21 25.00 L 317.57 25.00 L 318.34 25.00 L 333.37 25.00 L 339.26 25.00 L 339.39 25.00 L 339.57 25.00 L 348.58 25.00 L 350.77 25.00 L 354.80 25.00 L 357.49 25.00 L 372.05 25.00 L 372.72 25.00 L 378.55 25.00 L 382.01 25.00 L 395.27 25.00 L 397.30 25.00 L 398.38 25.00 L 403.15 25.00 L 414.63 25.00 L 418.64 25.00 L 421.38 25.00 L 421.55 25.00 L 421.60 25.00 L 421.68 25.00 L 424.52 25.00 L 436.13 25.00 L 445.71 25.00 L 445.71 25.00 L 445.84 25.00 L 446.01 25.00 L 446.02 25.00 L 457.76 25.00 L 461.06 25.00 L 463.22 25.00 L 464.44 25.00 L 467.07 25.00 L 467.18 25.00 L 474.87 25.00 L 481.53 25.00 L 484.50 25.00 L 487.89 25.00 L 506.63 25.00 L 506.72 25.00 L 506.78 25.00 L 525.38 25.00 L 530.87 25.00 L 530.90 25.00 L 546.00 25.00 L 551.22 25.00 L 561.38 25.00 L 564.36 25.00 L 564.85 25.00 L 567.18 25.00 L 567.79 25.00 L 573.52 25.00 L 588.52 25.00 L 591.23 25.00 L 591.73 25.00 L 603.87 25.00 L 616.03 25.00 L 616.15 25.00 L 616.25 25.00 L 630.46 25.00 L 649.58 25.00 L 658.78 25.00 L 658.83 25.00 L 674.19 25.00 L 680.25 25.00 L 692.28 25.00 L 692.40 25.00 L 692.45 25.00 L 694.72 25.00 L 698.45 25.00 L 701.27 25.00 L 716.70 25.00 L 722.61 25.00 L 722.77 25.00 L 743.76 25.00 L 743.85 25.00 L 743.92 25.00 L 755.93 25.00 L 765.04 25.00 L 774.97 25.00 L 786.53 25.00 L 807.94 25.00 L 823.13 25.00 L 823.22 25.00 L 823.26 25.00 L 823.39 25.00 L 828.98 25.00 L 841.15 25.00 L 844.26 25.00 L 862.19 25.00 L 863.11 25.00 L 865.32 25.00 L 871.54 25.00 L 871.86 25.00 L 889.75 25.00 L 901.84 25.00 L 914.29 25.00 L 929.39 25.00 L 929.95 25.00 L 930.03 25.00 L 932.34 25.00 L 935.39 25.00 L 950.11 25.00 L 972.34 25.00 L 974.67 25.00 L 975.04 25.00 L 991.74 25.00 L 999.38 25.00 L 1014.15 25.00 L 1014.67 25.00 L 1014.70 25.00 L 1053.79 25.00 L 1062.47 25.00 L 1062.61 25.00 L 1081.63 25.00 L 1085.09 25.00 L 1098.52 25.00 L 1099.00 25.00 L 1099.63 25.00 L 1099.66 25.00 L 1103.37 25.00 L 1105.33 25.00 L 1124.04 25.00 L 1124.11 25.00 L 1124.21 25.00 L 1157.89 25.00 L 1169.96 25.00 L 1170.00 25.00 L 1170.00 105.68 L 1169.96 107.50 L 1157.89 102.96 L 1124.21 98.37 L 1124.11 99.72 L 1124.04 100.86 L 1105.33 96.24 L 1103.37 91.57 L 1099.66 92.90 L 1099.63 95.10 L 1099.00 90.42 L 1098.52 92.27 L 1085.09 94.27 L 1081.63 93.40 L 1062.61 95.70 L 1062.47 97.93 L 1053.79 100.55 L 1014.70 99.16 L 1014.67 101.08 L 1014.15 96.47 L 999.38 97.92 L 991.74 100.40 L 975.04 102.86 L 974.67 104.41 L 972.34 99.83 L 950.11 95.20 L 935.39 95.05 L 932.34 97.55 L 930.03 99.80 L 929.95 100.80 L 929.39 103.26 L 914.29 103.64 L 901.84 103.34 L 889.75 102.59 L 871.86 98.00 L 871.54 99.98 L 865.32 101.33 L 863.11 103.01 L 862.19 105.45 L 844.26 105.63 L 841.15 108.05 L 828.98 109.92 L 823.39 105.40 L 823.26 104.58 L 823.22 100.05 L 823.13 95.46 L 807.94 90.78 L 786.53 86.04 L 774.97 88.34 L 765.04 89.29 L 755.93 91.23 L 743.92 93.73 L 743.85 89.03 L 743.76 84.33 L 722.77 86.89 L 722.61 82.11 L 716.70 77.32 L 701.27 79.40 L 698.45 80.30 L 694.72 82.40 L 692.45 84.46 L 692.40 79.65 L 692.28 79.45 L 680.25 74.59 L 674.19 75.93 L 658.83 74.69 L 658.78 76.36 L 649.58 71.47 L 630.46 72.28 L 616.25 72.92 L 616.15 72.68 L 616.03 67.80 L 603.87 70.59 L 591.73 72.08 L 591.23 74.26 L 588.52 75.23 L 573.52 76.23 L 567.79 76.65 L 567.18 74.89 L 564.85 69.97 L 564.36 70.00 L 561.38 65.04 L 551.22 65.48 L 546.00 67.88 L 530.90 68.34 L 530.87 70.99 L 525.38 73.63 L 506.78 73.49 L 506.72 75.80 L 506.63 76.33 L 487.89 71.44 L 484.50 73.60 L 481.53 75.38 L 474.87 77.70 L 467.18 78.68 L 467.07 73.81 L 464.44 75.21 L 463.22 77.33 L 461.06 77.96 L 457.76 77.66 L 446.02 79.66 L 446.01 74.80 L 445.84 69.93 L 445.71 65.01 L 445.71 67.82 L 436.13 70.48 L 424.52 65.52 L 421.68 67.72 L 421.60 68.37 L 421.55 63.44 L 421.38 58.46 L 418.64 61.15 L 414.63 62.06 L 403.15 63.48 L 398.38 65.91 L 397.30 68.34 L 395.27 63.36 L 382.01 64.39 L 378.55 67.05 L 372.72 68.90 L 372.05 71.54 L 357.49 66.59 L 354.80 66.64 L 350.77 61.64 L 348.58 63.82 L 339.57 66.50 L 339.39 61.50 L 339.26 56.56 L 333.37 59.50 L 318.34 54.42 L 317.57 53.81 L 317.21 56.09 L 312.57 58.57 L 311.60 61.04 L 305.56 62.47 L 297.07 61.79 L 294.18 56.75 L 294.04 56.17 L 293.84 56.18 L 289.96 51.07 L 285.08 53.29 L 284.82 56.03 L 283.99 57.81 L 275.73 60.00 L 269.34 61.71 L 266.77 64.40 L 265.97 65.57 L 263.91 63.83 L 254.48 66.49 L 254.38 66.92 L 254.30 67.51 L 254.29 62.63 L 251.45 57.69 L 248.79 60.17 L 248.44 61.74 L 248.41 64.16 L 247.70 59.13 L 245.61 60.26 L 245.45 60.81 L 245.37 55.80 L 245.30 57.46 L 245.29 52.43 L 233.44 47.28 L 233.01 49.53 L 229.81 44.36 L 229.19 46.97 L 227.28 49.17 L 227.21 49.21 L 226.99 44.09 L 224.02 38.87 L 218.97 33.59 L 212.09 36.19 L 211.86 30.88 L 211.80 32.50 L 210.89 27.16 L 209.79 27.51 L 208.57 29.83 L 206.21 32.21 L 205.84 33.84 L 205.34 36.68 L 204.58 38.47 L 201.74 41.30 L 190.68 41.13 L 190.48 42.18 L 190.24 44.81 L 184.66 47.60 L 184.62 49.50 L 184.55 44.39 L 184.49 39.21 L 178.45 33.93 L 176.30 35.88 L 169.28 36.51 L 169.20 36.60 L 169.17 31.30 L 166.66 29.01 L 159.13 30.37 Z" fill="#d0d0d0" fill-opacity="0.5" stroke="none"/>
<polyline fill="none" stroke="#111" stroke-width="1.2" points="70.00,42.41 77.16,41.63 80.66,40.07 80.77,37.68 80.91,42.92 83.99,44.47 92.88,42.50 98.46,43.07 99.46,41.71 105.20,38.89 105.35,44.12 113.71,42.08 116.65,47.27 117.05,45.38 117.68,44.75 119.21,41.95 119.75,41.44 122.99,46.64 126.33,46.87 126.69,44.08 126.82,49.25 134.16,46.33 135.58,43.38 136.28,48.55 138.65,48.65 138.73,45.66 138.90,50.81 140.39,47.89 140.72,44.96 141.56,42.40 141.58,39.44 142.39,37.87 142.82,36.47 144.62,33.62 144.68,32.16 144.87,29.28 144.92,34.61 144.98,32.82 145.09,29.95 147.74,27.37 148.03,25.00 159.13,30.37 166.66,29.01 169.17,31.30 169.20,36.60 169.28,36.51 176.30,35.88 178.45,33.93 184.49,39.21 184.55,44.39 184.62,49.50 184.66,47.60 190.24,44.81 190.48,42.18 190.68,41.13 201.74,41.30 204.58,38.47 205.34,36.68 205.84,33.84 206.21,32.21 208.57,29.83 209.79,27.51 210.89,27.16 211.80,32.50 211.86,30.88 212.09,36.19 218.97,33.59 224.02,38.87 226.99,44.09 227.21,49.21 227.28,49.17 229.19,46.97 229.81,44.36 233.01,49.53 233.44,47.28 245.29,52.43 245.30,57.46 245.37,55.80 245.45,60.81 245.61,60.26 247.70,59.13 248.41,64.16 248.44,61.74 248.79,60.17 251.45,57.69 254.29,62.63 254.30,67.51 254.38,66.92 254.48,66.49 263.91,63.83 265.97,65.57 266.77,64.40 269.34,61.71 275.73,60.00 283.99,57.81 284.82,56.03 285.08,53.29 289.96,51.07 293.84,56.18 294.04,56.17 294.18,56.75 297.07,61.79 305.56,62.47 311.60,61.04 312.57,58.57 317.21,56.09 317.57,53.81 318.34,54.42 333.37,59.50 339.26,56.56 339.39,61.50 339.57,66.50 348.58,63.82 350.77,61.64 354.80,66.64 357.49,66.59 372.05,71.54 372.72,68.90 378.55,67.05 382.01,64.39 395.27,63.36 397.30,68.34 398.38,65.91 403.15,63.48 414.63,62.06 418.64,61.15 421.38,58.46 421.55,63.44 421.60,68.37 421.68,67.72 424.52,65.52 436.13,70.48 445.71,67.82 445.71,65.01 445.84,69.93 446.01,74.80 446.02,79.66 457.76,77.66 461.06,77.96 463.22,77.33 464.44,75.21 467.07,73.81 467.18,78.68 474.87,77.70 481.53,75.38 484.50,73.60 487.89,71.44 506.63,76.33 506.72,75.80 506.78,73.49 525.38,73.63 530.87,70.99 530.90,68.34 546.00,67.88 551.22,65.48 561.38,65.04 564.36,70.00 564.85,69.97 567.18,74.89 567.79,76.65 573.52,76.23 588.52,75.23 591.23,74.26 591.73,72.08 603.87,70.59 616.03,67.80 616.15,72.68 616.25,72.92 630.46,72.28 649.58,71.47 658.78,76.36 658.83,74.69 674.19,75.93 680.25,74.59 692.28,79.45 692.40,79.65 692.45,84.46 694.72,82.40 698.45,80.30 701.27,79.40 716.70,77.32 722.61,82.11 722.77,86.89 743.76,84.33 743.85,89.03 743.92,93.73 755.93,91.23 765.04,89.29 774.97,88.34 786.53,86.04 807.94,90.78 823.13,95.46 823.22,100.05 823.26,104.58 823.39,105.40 828.98,109.92 841.15,108.05 844.26,105.63 862.19,105.45 863.11,103.01 865.32,101.33 871.54,99.98 871.86,98.00 889.75,102.59 901.84,103.34 914.29,103.64 929.39,103.26 929.95,100.80 930.03,99.80 932.34,97.55 935.39,95.05 950.11,95.20 972.34,99.83 974.67,104.41 975.04,102.86 991.74,100.40 999.38,97.92 1014.15,96.47 1014.67,101.08 1014.70,99.16 1053.79,100.55 1062.47,97.93 1062.61,95.70 1081.63,93.40 1085.09,94.27 1098.52,92.27 1099.00,90.42 1099.63,95.10 1099.66,92.90 1103.37,91.57 1105.33,96.24 1124.04,100.86 1124.11,99.72 1124.21,98.37 1157.89,102.96 1169.96,107.50 1170.00,105.68"/>
<text x="620.0" y="588" text-anchor="middle" font-family="sans-serif" font-size="12" fill="#333">UTC time</text>
<text x="15" y="287.5" transform="rotate(-90 15,287.5)" text-anchor="middle" font-family="sans-serif" font-size="12" fill="#333">Capital</text>
</svg>